<svg viewBox="0 0 119 104" fill="none" xmlns="http://www.w3.org/2000/svg">
<path d="M105.787 45.3974C105.651 44.1214 105.249 42.8854 104.904 41.656C104.48 40.1467 104.292 38.6214 104.139 37.0654C103.876 34.384 103.212 32.028 101.991 29.624C101.861 29.3707 101.728 29.1187 101.592 28.8654C101.569 28.7414 101.543 28.6174 101.509 28.4934C101.285 27.6307 100.748 26.8934 100.147 26.2387L100.125 26.2014C99.5387 25.1214 99.056 23.9974 98.28 23.032C96.8854 21.2987 95.0307 20.076 93.272 18.7507C91.1227 17.1347 89.52 15.092 87.872 12.9907C86.3213 11.0147 84.208 9.38671 82.032 8.14404C81.1907 7.66538 80.3027 7.24002 79.3907 6.85069C79.172 6.74002 78.9427 6.63604 78.696 6.54404L78.364 6.42803C77.1533 5.94803 75.9227 5.51338 74.7333 5.07871C73.4267 4.60271 72.1307 4.07869 70.8067 3.65602C69.4867 3.23202 68.1067 3.00138 66.7494 2.74271L66.456 2.61071C65.4173 2.11471 64.3067 0.868036 63.0627 1.06804L63.0747 1.14671C64.0187 1.08271 64.844 1.94536 65.6013 2.4947C63.2707 1.92803 61.04 1.03336 58.6734 0.588023C55.8774 0.0640229 53.08 0.221356 50.2613 0.421356C49.88 0.449356 49.4974 0.472028 49.1147 0.493361C48.9227 0.486695 48.728 0.480046 48.5347 0.478713C47.7133 0.470713 46.888 0.510688 46.0613 0.586688L45.9893 0.588023C44.5747 0.600023 43.2454 0.933358 41.8774 1.25602C41.7347 1.28936 41.596 1.32937 41.4587 1.37337C41.1987 1.43471 40.9387 1.50003 40.68 1.5667C39.4014 1.89737 38.096 2.12005 36.8667 2.61605C35.644 3.10805 34.456 3.7187 33.2573 4.26804C30.6547 5.46804 28.1987 6.97737 25.864 8.6347C24.8947 9.32537 23.912 10.0294 23.0507 10.8534C22.656 11.2334 22.3027 11.66 21.9507 12.08C21.516 12.596 20.948 12.9534 20.4227 13.3654C19.3907 14.1734 18.5427 15.2174 17.6694 16.188C16.6974 17.268 15.6507 18.2827 14.6973 19.3787C13.8853 20.3094 13.1027 21.2147 12.1747 22.036C11.2827 22.824 10.86 23.88 10.2374 24.8694C9.58135 25.9147 8.80801 26.844 8.22801 27.9454C7.62534 29.092 7.21203 30.3147 6.74536 31.5174C6.23869 32.8174 5.48935 33.96 4.77069 35.1454C4.21602 36.0627 4.02136 37.064 3.87736 38.1134C3.51069 40.7654 2.55468 43.284 1.90002 45.8694C1.20668 48.6067 1.27735 51.3294 1.30002 54.1307C1.32268 57.1854 1.41737 60.24 1.71603 63.2827C1.96003 65.7494 2.31736 68.0974 3.48003 70.3134C4.50936 72.272 6.01867 73.96 7.51867 75.5667C7.99067 76.0734 8.46268 76.576 8.93335 77.0814L8.99735 77.2227C9.54935 78.3947 10.3213 79.4627 10.9893 80.572C11.7453 81.824 12.4054 83.1147 13.2387 84.3227C13.9494 85.3534 14.76 86.3027 15.6094 87.2213C16.5454 88.2333 17.3654 89.3347 18.28 90.364C19.112 91.304 20.1627 91.9947 21.1853 92.7067C22.4293 93.5734 23.704 94.3974 25.008 95.1734C27.4707 96.64 30.192 97.5413 32.6253 99.052C33.664 99.6973 34.6973 100.208 35.8867 100.507C37.1533 100.825 38.472 100.869 39.768 100.963C40.0227 100.983 40.2787 101.008 40.5333 101.032C40.7613 101.16 40.992 101.283 41.2307 101.396C42.4627 101.981 43.8694 101.967 45.1427 102.425C46.2627 102.829 47.16 103.451 48.392 103.473C49.02 103.487 49.66 103.304 50.2853 103.272C51.024 103.232 51.768 103.291 52.5067 103.301C55.368 103.341 58.04 102.595 60.7933 101.931C62.176 101.599 63.5653 101.265 64.9653 101.011C66.404 100.747 67.728 100.497 69.084 99.9254C71.5507 98.888 74.2587 98.4814 76.7973 97.628C77.9493 97.2427 79.0747 96.7814 80.1707 96.2587C81.436 95.6534 82.5747 94.8347 83.824 94.2C85.0227 93.588 86.0733 92.908 87.152 92.1054C88.2 91.3294 89.3267 90.6734 90.3613 89.8734C92.0493 88.5694 93.52 87.0187 94.7013 85.2533C97.6027 81.6293 99.2614 77 100.44 72.6C100.796 71.2734 101.233 69.9667 101.564 68.6334C101.743 67.9134 101.835 67.188 101.913 66.4587C102.421 65.0507 103.017 63.6747 103.595 62.2533C105.708 57.064 106.381 50.9587 105.787 45.3974V45.3974ZM101.271 65.556C100.755 66.8787 100.305 68.224 100.068 69.6507C99.6333 72.28 98.352 74.7293 97.436 77.2213C96.5533 79.616 95.6547 82.0107 94.3494 84.2134C93.5467 85.568 92.528 86.7707 91.3867 87.8494C90.4507 88.5294 89.44 89.1027 88.3907 89.6213C88.9987 89.0507 89.3853 88.3133 89.792 87.5507C90.464 86.2947 91.1987 85.0587 91.8107 83.7734C92.0227 83.3294 92.1933 82.868 92.3573 82.4054C92.5413 82.1694 92.7107 81.9187 92.86 81.652C93.0227 81.3587 93.156 81.0494 93.2734 80.7347C93.448 80.484 93.612 80.228 93.764 79.968L93.8867 79.8C95.4587 77.612 97.3813 75.692 98.636 73.284C99.8173 71.0133 100.368 68.4534 100.777 65.9467C100.949 64.892 101.231 63.8694 101.375 62.8147C102.489 58.764 102.564 54.392 102.591 50.2307C102.597 49.3974 102.589 48.5614 102.575 47.7267C102.76 46.5147 102.915 45.304 102.94 44.076C102.968 42.608 102.7 41.1427 102.472 39.6987C102.444 39.5174 102.417 39.336 102.393 39.156C102.879 41.128 103.517 43.064 103.904 45.0614C104.48 48.0454 104.087 51.128 103.517 54.08C102.973 56.9134 102.292 59.7173 101.755 62.552C101.561 63.5587 101.375 64.544 101.271 65.556V65.556ZM42.068 100.389C41.652 100.328 41.232 100.283 40.8134 100.244C40.036 99.8067 39.2987 99.264 38.472 98.928C38.148 98.7947 37.824 98.6733 37.4987 98.5533C38.9093 98.84 40.36 98.9627 41.7973 98.9347C42.144 99.0307 42.4893 99.1334 42.8333 99.248C44.0547 99.656 45.184 100.152 46.4467 100.424C44.9187 100.699 43.5973 100.612 42.068 100.389V100.389ZM3.50135 47.2867C3.84535 45.7693 4.22 44.2614 4.65334 42.7694C4.644 43.6814 4.67068 44.5867 4.69334 45.4533C4.73201 46.9227 4.58403 48.2374 4.3147 49.6747C4.06403 51.0187 4.33069 52.452 4.20802 53.816C4.10936 54.9414 3.94534 56.0414 3.95867 57.1627C3.88534 56.7854 3.81467 56.4067 3.75067 56.028C3.256 53.1334 2.83735 50.1867 3.50135 47.2867V47.2867ZM98.2547 25.7694C98.716 26.2814 99.1893 26.7267 99.6013 27.2134C99.7587 27.5067 99.9187 27.8014 100.083 28.096C100.273 28.4387 100.46 28.7814 100.643 29.1227C100.741 29.5067 100.789 29.9094 100.811 30.324C100.089 28.768 99.02 27.408 97.6347 26.3507C97.3013 26.0947 96.9733 25.852 96.6573 25.6054C96.104 24.624 95.588 23.7894 94.7027 23.0347L94.4693 22.8174C94.7373 22.9307 95.0054 23.0494 95.2734 23.172C96.5294 23.7574 97.352 24.7627 98.2547 25.7694V25.7694ZM85.032 90.2187C84.8173 90.2867 84.604 90.3467 84.3907 90.4094C84.9413 90.0294 85.4907 89.6494 86.044 89.28C86.2934 89.1147 86.1627 88.764 85.9414 88.7227L86.128 88.5974C87.1827 87.8734 87.9867 86.8267 88.8787 85.9254C89.408 85.3894 89.9133 84.8374 90.404 84.2747L90.4307 84.2533L90.6454 84.0827C90.5187 84.3467 90.3867 84.612 90.2427 84.8747C89.572 86.0934 89.0053 87.5307 88.132 88.616C87.384 89.544 86.1173 89.8787 85.032 90.2187V90.2187ZM22.9054 90.8614C21.248 89.4094 19.5947 87.92 18.1067 86.3C17.9227 86.0987 17.744 85.8907 17.568 85.6814C17.916 85.9934 18.264 86.3053 18.608 86.6187C19.544 87.476 20.5787 88.2307 21.4814 89.1213C22.292 89.9187 22.9774 90.824 23.844 91.564C23.528 91.3347 23.2147 91.1014 22.9054 90.8614V90.8614ZM9.03201 74.532C8.93335 74.2267 8.84003 73.9174 8.74803 73.608C9.26536 74.4094 9.74669 75.2307 10.2414 76.048C10.6974 76.8014 11.1413 77.5627 11.5973 78.3147L11.6893 78.528C10.668 77.2934 9.76001 75.9747 9.03201 74.532V74.532ZM4.84403 55.8947C4.94269 54.5134 5.16534 53.168 5.12534 51.7774C5.10401 51.0387 5.07069 50.3147 5.20669 49.584C5.33869 48.888 5.51867 48.2414 5.55601 47.5294C5.62801 46.1507 5.53736 44.7627 5.51336 43.3827C5.4907 41.9174 5.70401 40.4494 5.96134 39.0094L6.02401 38.7227C6.38934 37.788 6.76535 36.848 7.16668 35.9147C7.27335 35.7107 7.38134 35.5054 7.488 35.3014C7.77467 34.7507 8.05067 34.196 8.32134 33.6387C7.964 35.208 7.70135 36.8027 7.50402 38.392C7.29602 40.0467 7.13336 41.7133 7.0147 43.384C6.08936 45.7973 5.58135 48.3574 5.36401 50.928C5.12401 53.7427 5.4947 56.512 5.64936 59.3187C5.70536 60.3333 5.744 61.352 5.788 62.3734C5.24267 60.2427 4.68669 58.1067 4.84403 55.8947V55.8947ZM85.116 14.1307C86.2947 15.24 87.432 16.4067 88.6187 17.4854C88.7827 17.6387 88.944 17.788 89.104 17.9427C89.4533 18.3494 89.8 18.7587 90.148 19.1694C90.2614 19.3254 90.376 19.4787 90.492 19.632L90.1693 19.46C89.0813 18.904 87.9614 18.4094 86.8467 17.908L86.74 17.6067C86.4067 16.504 85.8933 15.8534 85.0613 15.0734C84.0933 14.164 83.1307 13.2454 82.2494 12.2494C81.9334 11.892 81.6334 11.5254 81.3147 11.1814C81.756 11.4227 82.1853 11.7054 82.6053 12.0667C83.432 12.7827 84.28 13.452 85.116 14.1307V14.1307ZM82.8787 89.3147C81.8174 90 80.7893 90.7387 79.752 91.4614C79.5467 91.4947 79.34 91.5267 79.132 91.5574C80.152 90.8987 81.1427 90.2 82.104 89.4667C82.9773 89.0454 83.8453 88.6174 84.6987 88.1627C84.0987 88.56 83.476 88.928 82.8787 89.3147V89.3147ZM15.3667 82.328C14.8 81.452 14.1534 80.6347 13.5374 79.7907L13.488 79.7213C12.9293 78.748 12.4187 77.748 12.016 76.68C11.8894 76.3427 11.7733 76.0054 11.6667 75.668C12.8533 77.9934 14.604 80.0254 16.224 82.056C17.0773 83.1254 17.9254 84.208 18.9747 85.0947C20.0414 85.996 21.212 86.7747 22.2907 87.6667C23.1907 88.412 24.0227 89.2214 24.84 90.0427C25.3294 90.648 25.8347 91.2374 26.3627 91.808C26.188 91.7347 26.0147 91.6613 25.8387 91.5853C24.6627 91.0853 23.8107 90.1214 22.9734 89.1934C22.1627 88.292 21.256 87.5614 20.3347 86.7787C19.2293 85.84 18.1867 84.828 17.096 83.8734C16.512 83.3654 15.9347 82.8507 15.3667 82.328V82.328ZM7.80936 70.4694C7.62136 69.8694 7.42935 69.268 7.23602 68.6694C6.94535 66.752 6.84935 64.7934 6.76668 62.8734C6.64135 59.9734 6.34936 57.0813 6.24803 54.1853C6.16936 51.968 6.36536 49.7533 6.80936 47.584C6.74936 49.9693 6.78534 52.3574 6.92801 54.7267C6.94668 55.0307 6.96534 55.336 6.98934 55.64C6.97067 55.8974 6.95734 56.1547 6.95601 56.412C6.94401 57.9294 7.2667 59.5067 7.4147 61.0187C7.66936 63.62 8.36535 66.148 9.06268 68.66C9.25335 69.3534 9.45869 70.0414 9.67869 70.7267C9.76936 71.776 9.90268 72.8174 10.1293 73.84C10.1773 74.052 10.232 74.2654 10.2853 74.4787C9.88 73.7907 9.46403 73.1093 9.01603 72.4507C8.57603 71.8027 8.14936 71.16 7.80936 70.4694ZM52.428 4.98402C52.7827 5.03069 53.1387 5.07071 53.4933 5.11205C54.3187 5.24671 55.148 5.36003 55.98 5.46537C55.2347 5.4307 54.488 5.41205 53.736 5.41205C49.692 5.41205 45.7693 5.92402 42.0267 6.88669C42.508 6.66135 42.9934 6.44271 43.4787 6.23871C44.4747 5.82537 45.5494 5.76002 46.6134 5.72269C46.7734 5.71602 46.7747 5.4707 46.6134 5.4707C45.8747 5.4707 45.1627 5.50269 44.4573 5.62536C44.5813 5.59203 44.7027 5.5627 44.8267 5.5307C46.1627 5.19603 47.568 5.14804 48.9347 5.00404C50.068 4.8827 51.1014 4.85872 52.1787 4.94938L52.428 4.98402ZM65.7853 6.85335C66.3747 6.98935 66.908 7.19738 67.4187 7.44538C66.2133 7.07605 64.9867 6.75735 63.7427 6.48669C64.4254 6.58802 65.108 6.69869 65.7853 6.85335ZM97.8387 69.712C97.56 70.3614 97.2854 71.0134 97.008 71.664C96.5534 72.516 96.036 73.3374 95.5987 74.196C95.3307 74.724 95.124 75.2694 94.908 75.8054L94.9213 75.5694C95.3053 74.5374 95.6534 73.4894 95.976 72.432C96.9907 70.3147 97.8507 68.108 98.5414 65.8267C98.388 67.1414 98.2293 68.4507 97.8387 69.712V69.712ZM38.1893 96.9213L38.1134 96.9C37.4547 96.6907 36.812 96.4414 36.1734 96.1774C36.712 96.204 37.2453 96.224 37.7653 96.2454C38.4867 96.5054 39.2147 96.7507 39.9507 96.976C39.3627 96.9654 38.776 96.9493 38.1893 96.9213V96.9213ZM10.7414 71.2894C10.7134 71.06 10.688 70.828 10.664 70.5974C12.9733 76.0027 16.2707 80.884 20.3293 85.0173C19.5693 84.44 18.844 83.8427 18.208 83.1054C17.192 81.928 16.2267 80.7067 15.2734 79.48C13.5654 77.284 12.1787 75.108 11.1774 72.4987C11.024 72.0987 10.8814 71.696 10.7414 71.2894V71.2894ZM43.1547 5.96804C41.8613 6.41737 40.58 7.04937 39.3333 7.60404C39.144 7.68804 38.9533 7.77336 38.7627 7.85736C38.1573 8.06136 37.5573 8.28004 36.9627 8.50938L37.2987 8.29336C39.056 7.22669 41.124 6.5267 43.1547 5.96804ZM100.847 49.1574C100.715 50.716 100.748 52.2814 100.605 53.844V53.86C100.572 53.9814 100.54 54.104 100.507 54.224C100.533 53.5614 100.549 52.896 100.549 52.2254C100.549 51.9627 100.545 51.7 100.54 51.4374C100.591 50.5974 100.608 49.7507 100.6 48.8827C100.591 48.032 100.605 47.1854 100.608 46.34C100.745 47.052 100.843 47.7694 100.911 48.492C100.887 48.7147 100.865 48.936 100.847 49.1574ZM92.512 79.696C91.684 80.8107 90.8613 81.9294 89.9693 82.9987C89.228 83.664 88.444 84.28 87.6613 84.86C87.2227 85.1854 86.7787 85.5134 86.328 85.828C89.2013 83.0414 91.7214 79.888 93.8067 76.444C93.744 77.08 93.6494 77.704 93.4414 78.3267C93.092 78.7694 92.7827 79.2174 92.512 79.696V79.696ZM99.5734 42.616L99.5893 42.7414L99.54 42.5173L99.5734 42.616ZM30.1694 93.604C29.0107 92.9454 28.0587 91.9627 27.1414 91.0134C26.8654 90.728 26.588 90.4454 26.3067 90.1654C28.9667 92.0907 31.836 93.7427 34.876 95.0827C34.2014 95.012 33.5294 94.9147 32.8707 94.7734C31.9534 94.42 31.02 94.0867 30.1694 93.604V93.604ZM100.195 58.0173L100.243 57.8734C100.22 58.0067 100.2 58.1414 100.173 58.2747L100.139 58.4387C100.157 58.2974 100.177 58.1587 100.195 58.0173V58.0173ZM92.1387 21.752C92.5853 22.48 92.9907 23.236 93.4494 23.956C94.0867 24.9574 94.8627 25.776 95.8027 26.4947L95.8827 26.556L95.9227 26.6334C96.6427 27.9107 97.664 29.0707 98.5533 30.2307C98.92 30.708 99.292 31.1774 99.6627 31.6507C100.279 33.2907 100.581 35.0653 100.727 36.7867C100.828 37.992 100.769 39.2 100.824 40.4054C100.859 41.1694 100.941 41.9267 101.02 42.6827C100.781 41.96 100.519 41.2494 100.235 40.56C99.7147 39.2947 99.4707 37.94 99.056 36.6374C98.624 35.284 98.112 33.9187 97.464 32.6547C96.9013 31.556 96.0707 30.5974 95.3373 29.6134C94.636 28.6694 94.1 27.6267 93.4187 26.6734C93.3773 26.5547 93.3333 26.4347 93.292 26.3094C92.956 25.2774 92.3494 24.56 91.6427 23.7574C90.7 22.688 89.9827 21.44 88.9627 20.4387C88.8347 20.3107 88.7067 20.1907 88.5787 20.0707L88.3693 19.7707L88.3547 19.7534C89.4947 20.2827 90.612 20.8534 91.692 21.5C91.8387 21.588 91.988 21.672 92.1387 21.752V21.752ZM35.6173 8.18402C34.8 8.79335 34.036 9.47336 33.2467 10.1227C30.1467 11.6347 27.24 13.4787 24.5707 15.608L24.4147 15.7174C23.9 16.108 23.3654 16.472 22.836 16.8387C23.7294 16.004 24.6374 15.1827 25.5454 14.364C27.6294 12.4894 29.804 10.8454 32.328 9.60938C33.4013 9.08271 34.5027 8.61602 35.6173 8.18402V8.18402ZM18.636 21.2534C13.8907 26.6254 10.36 33.0947 8.47469 40.2334C8.39869 40.3747 8.32533 40.5134 8.252 40.656C8.36267 38.3854 8.79734 36.0974 9.488 33.9534C9.904 32.66 10.516 31.4467 11.2613 30.3147C12.064 29.0947 13.1307 28.0667 14.0227 26.9134C15.6227 24.8414 17.1147 22.752 18.8613 20.8107C18.784 20.9574 18.7094 21.104 18.636 21.2534ZM32.8187 95.8227C33.3387 96.0307 33.86 96.2347 34.376 96.4507C34.0307 96.3773 33.6867 96.296 33.344 96.2094C33.0467 96.0654 32.7547 95.912 32.4653 95.752L32.8187 95.8227ZM99.452 66.2107L99.4734 66.004C99.62 64.5667 99.8507 63.1774 100.22 61.78L100.277 61.5707C100.268 61.8894 100.255 62.208 100.233 62.5294C100.157 63.612 99.8747 64.708 99.644 65.7867C99.5814 65.928 99.5173 66.0694 99.452 66.2107V66.2107ZM78.8253 10.4414C80.0453 10.6134 80.8107 11.6227 81.5347 12.512C82.3733 13.5427 83.336 14.4667 84.288 15.3907C84.708 15.8 85.1627 16.1867 85.5094 16.6627L85.6253 16.848C84.7 16.0734 83.6947 15.388 82.616 14.7507C81.5094 14.096 80.376 13.4867 79.284 12.8067C78.06 12.0467 76.904 11.18 75.6907 10.4027L75.4107 10.2294C76.5374 10.4267 77.6947 10.2814 78.8253 10.4414V10.4414ZM21.8933 15.7494C23.0587 14.956 24.1373 14.0494 25.252 13.188C25.668 12.868 26.0894 12.5654 26.5147 12.2694C26.1227 12.592 25.7347 12.92 25.352 13.2587C23.2627 15.1054 21.2173 17.02 19.2653 19.0147C17.3293 20.9934 15.632 23.1174 14.0213 25.3654C12.8573 26.9907 11.5094 28.412 10.4027 30.0307L10.5267 29.708C11.76 27.8267 13.0627 25.9827 14.3147 24.1147C16.2374 21.2454 18.4853 18.6707 20.9893 16.352C21.292 16.152 21.5947 15.9507 21.8933 15.7494V15.7494ZM27.076 93.2414C27.8254 93.5627 28.484 94.0347 29.1667 94.464L29.5147 94.744C28.5547 94.2347 27.5867 93.7334 26.6054 93.2574C25.992 92.9587 25.4147 92.6227 24.8573 92.2614C25.564 92.648 26.3294 92.9187 27.076 93.2414V93.2414ZM77.356 92.6507C77.612 92.6227 77.8693 92.5907 78.124 92.56C77.3253 93.0787 76.508 93.5667 75.6547 93.992C75.5253 94.0587 75.3947 94.1227 75.264 94.1853C74.7693 94.3107 74.272 94.428 73.7734 94.544C74.9987 93.964 76.1933 93.332 77.356 92.6507V92.6507ZM97.14 73.3147C97.5214 72.6574 97.896 72.0027 98.2253 71.324C97.7987 72.3907 97.2453 73.372 96.6187 74.308C96.7787 73.9734 96.9507 73.6427 97.14 73.3147V73.3147ZM67.224 5.51472C69.808 6.49472 72.2387 7.86805 74.9494 8.48138C76.0094 8.72138 76.9467 9.24804 77.916 9.70804C77.6254 9.70671 77.336 9.70938 77.0533 9.70804C75.5573 9.69204 74.2694 9.24403 72.8427 8.8627L72.5187 8.77738L72.184 8.62669C70.9053 8.05203 69.7547 7.31336 68.544 6.62269C66.32 5.35069 63.48 5.28803 61.0027 4.93203C58.2093 4.52803 55.4014 4.24135 52.604 3.88669C52.3734 3.85735 52.148 3.83869 51.924 3.82269C54.1107 3.59469 56.296 3.55602 58.516 3.71869C58.672 3.72935 58.8293 3.74269 58.9867 3.75602C61.7907 4.17869 64.5573 4.50538 67.224 5.51472V5.51472ZM46.2747 99.3454C45.6094 99.2054 44.972 98.9867 44.3374 98.752C45.0814 98.6773 45.8254 98.5907 46.5707 98.496C48.9067 98.8547 51.3 99.0414 53.736 99.0414L54.0947 99.036C52.764 99.2574 51.4374 99.4974 50.112 99.7414C48.824 99.7414 47.5334 99.612 46.2747 99.3454V99.3454ZM60.492 98.7853C61.9373 98.6333 63.3987 98.6734 64.848 98.5334C65.4387 98.4747 66.0173 98.376 66.5867 98.2494C64.3453 98.804 61.96 98.8347 59.664 98.8893C59.9387 98.8493 60.2147 98.816 60.492 98.7853ZM71.4734 95.8893C70.204 96.2867 68.988 96.828 67.7227 97.2347C66.5853 97.604 65.3893 97.768 64.1947 97.8667C64.444 97.8107 64.6907 97.7493 64.9387 97.688C67.0894 97.28 69.1707 96.66 71.2467 95.9107C71.7454 95.7294 72.2493 95.576 72.756 95.436L72.4867 95.584C72.148 95.6827 71.8107 95.784 71.4734 95.8893ZM79.0627 93.6173C80.1253 93.1427 81.1334 92.5627 82.1147 91.9374C83.0934 91.736 84.0653 91.4933 85.028 91.1867L85.0454 91.18C83.1934 92.0454 81.3427 92.9187 79.4107 93.5774C79.0094 93.7134 78.6053 93.8427 78.2013 93.9654C78.4893 93.86 78.7787 93.7453 79.0627 93.6173V93.6173ZM103.079 36.04C103.149 36.6187 103.208 37.2 103.265 37.78C102.953 35.9507 102.771 34.1307 101.721 32.5307L101.716 32.3494C101.713 32.0094 101.72 31.6707 101.725 31.3334C102.376 32.82 102.871 34.356 103.079 36.04V36.04ZM95.912 21.9747C96.264 22.2747 96.5814 22.5907 96.8774 22.9214C95.8654 22.216 94.7107 21.8254 93.5827 21.3347C93.4347 21.272 93.2894 21.2027 93.1454 21.1334C92.924 20.768 92.6933 20.4094 92.4373 20.0667L92.408 20.0294L92.1734 19.684C91.4827 18.7054 90.6733 17.824 89.8173 16.9854C89.5387 16.6574 89.256 16.336 88.968 16.0214C88.8787 15.8707 88.788 15.72 88.696 15.5694C89.2787 16.304 89.8707 17.0267 90.5293 17.6894C92.1507 19.3227 94.164 20.4934 95.912 21.9747V21.9747ZM62.264 2.62403C64.8613 3.53469 67.5787 3.81605 70.2227 4.54538C70.5533 4.63738 70.884 4.73604 71.2147 4.83737C71.8814 5.06404 72.548 5.29737 73.2107 5.53337C73.3627 5.58803 73.5147 5.64003 73.6667 5.69069C75.22 6.27603 76.7587 6.92271 78.2734 7.53871C79.328 7.97071 80.3373 8.43603 81.304 8.96136C82.144 9.78536 82.9947 10.5414 83.948 11.2387C85.0374 12.0374 86.0107 12.848 86.824 13.9307C86.0067 13.2214 85.148 12.5534 84.2814 11.9027C83.36 11.2094 82.5627 10.404 81.5347 9.88936C81.0773 9.59869 80.6093 9.3187 80.1213 9.06136C78.9627 8.4467 77.7547 7.93736 76.596 7.32403C75.352 6.66536 74.1133 6.01071 72.7973 5.50938C71.588 5.04804 70.296 4.94136 69.0853 4.46136C67.76 3.93736 66.408 3.70136 65.0107 3.45869C63.2414 3.14936 61.4627 2.88671 59.676 2.71338C58.904 2.58805 58.1294 2.47071 57.348 2.40404C55.952 2.28537 54.536 2.35602 53.1374 2.38402C51.6747 2.41202 50.244 2.40135 48.7933 2.61869C45.944 3.04935 43.3253 4.08404 40.5933 4.93604C39.3613 5.32004 38.0787 5.51205 36.8307 5.84671C35.476 6.21071 34.152 6.68802 32.8533 7.22136C28.636 8.95069 24.9014 11.5254 21.4694 14.4787C22.0854 13.8387 22.6613 13.1774 23.256 12.476C24.0867 11.4934 25.1387 10.752 26.1467 9.96804C27.276 9.08804 28.372 8.1867 29.6533 7.5347C32.088 6.29737 34.656 5.4587 37.124 4.30137C38.256 3.77204 39.4227 3.42538 40.5374 2.84404C41.828 2.16938 43.544 1.82138 44.9867 1.67471C46.376 1.53471 47.7987 1.62271 49.1947 1.54138C50.7427 1.45071 52.2853 1.31604 53.836 1.26804C56.7147 1.18004 59.5493 1.67203 62.264 2.62403V2.62403ZM37.6067 2.92136C38.06 2.74802 38.5347 2.60003 39.0187 2.4667C38.8587 2.5387 38.6973 2.61071 38.5307 2.67604C37.2827 3.17071 36.0734 3.68671 34.848 4.24138C34.3814 4.45338 33.904 4.62937 33.4213 4.7987C34.7947 4.0987 36.1974 3.46402 37.6067 2.92136V2.92136ZM5.31603 35.7774C5.9507 34.5307 6.76935 33.4187 7.32935 32.1227C7.83068 30.9587 8.20801 29.7534 8.75734 28.608C9.34267 27.392 10.1573 26.3707 10.9 25.256C11.572 24.244 11.98 23.224 12.908 22.4C13.7014 21.696 14.3787 20.8974 15.0667 20.1027C13.8107 21.7494 12.604 23.4587 11.5507 25.2254C11.048 26.0667 10.6054 26.9374 10.2094 27.8267C9.80269 28.564 9.41736 29.316 9.04536 30.0734C7.66403 32.2534 6.64801 34.576 5.62801 36.9547C5.01868 38.3773 4.488 39.82 4.02 41.2853C4.22134 40.5187 4.40402 39.7467 4.54002 38.964C4.73336 37.8614 4.7987 36.792 5.31603 35.7774V35.7774ZM5.39601 71.688C3.85868 69.5707 3.11069 67.3187 2.77469 64.744C2.38136 61.7134 2.26536 58.6507 2.20936 55.5974C2.18403 54.2587 2.12935 52.9134 2.13068 51.5734C2.16535 52.1107 2.21603 52.6494 2.27603 53.18C2.58803 55.964 3.14935 58.7254 3.86668 61.4307C4.61735 64.2667 5.56268 67.048 6.49334 69.828L6.51603 69.896C6.8227 71.468 7.26802 73.0107 7.93468 74.4987L8.04403 74.824C7.10936 73.8214 6.20268 72.7973 5.39601 71.688V71.688ZM14.108 83.816C13.524 82.9894 13.032 82.1174 12.54 81.2427C13.3627 82.2934 14.1533 83.3707 14.9213 84.4614C15.4453 85.2027 15.936 85.948 16.4987 86.644L16.7293 86.9667C15.8067 85.9454 14.9027 84.9414 14.108 83.816V83.816ZM38.1814 100.012C36.7867 99.86 35.4493 99.5387 34.2 98.892C32.9427 98.2414 31.812 97.408 30.5134 96.8227C27.8174 95.6053 25.2973 94.2987 22.8293 92.6547C21.6573 91.8733 20.424 91.0907 19.4027 90.1147C18.9174 89.6547 18.4907 89.1374 18.0747 88.612C19.4614 90.1094 21.1267 91.4027 22.7814 92.548C25.4467 94.396 28.5027 95.8814 31.6747 96.8414C33.584 97.876 35.48 98.8534 37.584 99.532C38.0253 99.676 38.4374 99.8654 38.84 100.076C38.62 100.056 38.3987 100.035 38.1814 100.012V100.012ZM74.408 97.448C73.1867 97.8 71.9533 98.1 70.7187 98.3987C69.3187 98.7387 68.0693 99.496 66.66 99.8173C65.3427 100.117 63.9974 100.291 62.676 100.583C61.144 100.921 59.6187 101.285 58.1027 101.689C56.7147 102.059 55.312 102.296 53.88 102.392C52.468 102.485 51.048 102.312 49.6387 102.457C48.9067 102.535 48.2853 102.68 47.552 102.516C46.9187 102.373 46.3334 102.021 45.7454 101.755C45.4147 101.605 45.0733 101.493 44.7253 101.401C45.7307 101.34 46.74 101.101 47.7054 100.905C48.0147 100.843 48.3253 100.787 48.6333 100.725C49.352 100.779 50.0747 100.792 50.792 100.785C52.124 100.769 53.4547 100.527 54.7693 100.325C56.3827 100.081 57.9693 100.024 59.596 99.9934C62.4507 99.9374 65.4054 99.9054 68.1387 98.996C70.4947 98.212 72.5853 96.8227 74.792 95.7094C76.72 95.1587 78.6493 94.6227 80.5307 93.9254C82.92 93.0414 85.1774 91.7787 87.4774 90.6853C87.8107 90.528 88.1413 90.3627 88.4693 90.1947C84.144 93.264 79.5374 95.9747 74.408 97.448V97.448ZM97.3907 79.7747C97.6547 79.0934 97.9067 78.4094 98.1573 77.7294C98.3827 77.1147 98.636 76.5013 98.892 75.8867C98.556 76.9987 98.1667 78.096 97.6747 79.168C97.5814 79.372 97.4867 79.572 97.3907 79.7747ZM102.579 62.3667C103.021 60.2467 103.539 58.144 104.033 56.0374C104.388 54.528 104.708 53.0067 104.923 51.4734C104.885 52.0107 104.841 52.5427 104.797 53.0614C104.549 56.0147 103.905 58.9307 102.843 61.6987C102.756 61.9227 102.668 62.144 102.579 62.3667" fill="#F7A70F"/>
<path d="M60.1986 68.5774C62.9186 65.664 66.552 62.7787 70.7053 60.336C70.86 60.0827 71.016 59.8267 71.168 59.5694C71.708 58.6494 72.216 57.716 72.6933 56.7787C72.0053 57.128 71.3186 57.4934 70.6346 57.876C67.1306 59.836 63.9706 62.0894 61.3213 64.452C62.068 61.0467 62.4826 57.272 62.496 53.3454C62.528 42.1267 59.26 32.1187 54.3613 28.444L53.716 27.9587L53.0666 28.4414C48.1453 32.0854 44.8173 42.0734 44.7827 53.292C44.772 57.22 45.1653 60.996 45.892 64.4067C43.2546 62.028 40.1093 59.756 36.6173 57.7747C35.9373 57.3894 35.252 57.0187 34.5653 56.664C35.036 57.6054 35.5387 58.5414 36.0746 59.464C36.2253 59.7227 36.3773 59.9787 36.5333 60.236C40.672 62.7 44.2866 65.6094 46.9893 68.536C48.416 72.9174 50.4626 76.3507 52.9173 78.1934L53.236 78.4334L53.248 78.444H53.2493L53.564 78.6787L53.88 78.4454H53.8813L53.8946 78.4347L54.2147 78.1974C56.68 76.3694 58.7466 72.9467 60.1986 68.5774V68.5774ZM53.708 30.72C57.6653 34.3827 60.356 43.4654 60.3266 53.3387C60.312 58.4827 59.5573 63.404 58.2787 67.4574C57.3987 68.428 56.612 69.4054 55.928 70.3734C55.9906 71.2014 56.0133 72 55.9933 72.7614V72.796C55.2546 74.0654 54.4426 75.1214 53.5733 75.9174C52.7053 75.1147 51.9 74.0534 51.1693 72.7827V72.7467C51.1546 71.984 51.1813 71.188 51.2493 70.3614C50.572 69.3867 49.7907 68.404 48.916 67.4294C47.6613 63.3707 46.9373 58.4427 46.952 53.2974C46.9813 43.4254 49.7266 34.36 53.708 30.72" fill="white"/>
<path d="M73.816 61.1267C79.504 51.4574 81.7306 41.1694 79.3546 35.524L79.0426 34.7774L78.2386 34.8654C73.568 35.3774 67.824 39.5867 62.8333 45.884C62.9706 46.92 63.08 47.976 63.1586 49.052C67.7666 42.676 73.276 38.0974 77.6413 37.1587C79.212 42.3187 76.9533 51.5174 71.9453 60.028C68.0146 66.708 62.8893 72.1147 58.3173 74.6774C57.4773 76.056 56.552 77.2254 55.5533 78.14C61.4106 76.6574 68.56 70.0574 73.816 61.1267" fill="white"/>
<path d="M52.4947 67.792C52.188 69.5427 52.0427 71.2041 52.072 72.7294C52.3253 73.1427 52.5853 73.528 52.8547 73.8894L52.94 73.9987L53.208 74.3414C53.328 74.4881 53.4507 74.6307 53.576 74.7667C53.7014 74.6321 53.8254 74.4894 53.948 74.3427L54.216 74.0041L54.3013 73.8934V73.892C54.5733 73.5347 54.836 73.1507 55.0907 72.7387C55.1293 71.2121 54.9947 69.5507 54.6987 67.7974C55.4507 63.8254 57.0947 59.3107 59.4853 54.8974C59.5027 54.3801 59.512 53.8601 59.5134 53.3361C59.5174 52.4374 59.496 51.5454 59.4533 50.6641C59.148 51.1507 58.8454 51.6427 58.5494 52.1454C56.376 55.8401 54.7094 59.6227 53.6107 63.2041C52.532 59.6161 50.888 55.8227 48.7373 52.1161C48.444 51.6121 48.1454 51.1174 47.84 50.6294C47.7934 51.5107 47.768 52.4027 47.7653 53.3014C47.764 53.8254 47.772 54.3454 47.784 54.8627C50.1507 59.2907 51.7667 63.8134 52.4947 67.792" fill="white"/>
<path d="M48.8347 74.6494C44.2773 72.0587 39.184 66.6227 35.2933 59.9174C30.3373 51.3774 28.1333 42.1667 29.7333 37.0161C34.0933 37.9801 39.5747 42.592 44.1454 48.996C44.232 47.92 44.348 46.8627 44.4907 45.828C39.5373 39.5027 33.8187 35.2574 29.152 34.72L28.348 34.628L28.0307 35.3707C25.6227 41.0014 27.7853 51.3041 33.4173 61.0054C38.6187 69.9681 45.7294 76.6107 51.5787 78.1267C50.584 77.2067 49.6653 76.0321 48.8347 74.6494" fill="white"/>
<path d="M96.3507 52.892C94.756 52.18 92.776 51.82 90.464 51.82C86.8173 51.82 82.56 52.7161 78.1693 54.3627C77.7893 55.3041 77.372 56.2507 76.9213 57.1974C81.7707 55.1294 86.5173 53.988 90.464 53.988C92.0893 53.988 93.5027 54.1827 94.68 54.5694C93.4334 59.8161 86.84 66.6187 78.2253 71.4401C71.8933 74.9841 65.3067 77.0694 60.036 77.2134C58.576 78.0561 57.1427 78.6694 55.7747 79.0161L55.7587 79.0187C56.872 79.264 58.104 79.3907 59.4533 79.3907C65.1747 79.3907 72.4027 77.1827 79.2827 73.3321C89.0734 67.8547 96.1867 60.0947 96.984 54.024L97.0893 53.2214L96.3507 52.892" fill="white"/>
<path d="M47.1 77.1734C41.8307 76.9987 35.264 74.8787 28.948 71.2947C20.36 66.4214 13.808 59.5787 12.5933 54.3254C13.7426 53.9547 15.1186 53.7681 16.6946 53.7681C20.664 53.7681 25.448 54.9387 30.3333 57.056C29.8893 56.1067 29.4787 55.1587 29.1027 54.2147C24.6707 52.5214 20.3706 51.5987 16.6946 51.5987C14.4386 51.5987 12.4986 51.9481 10.9306 52.6361L10.1906 52.9627L10.2906 53.7654C11.0533 59.8414 18.12 67.6427 27.8773 73.1801C34.7947 77.1054 42.0547 79.3547 47.8 79.356H47.8013C49.1 79.356 50.288 79.2361 51.3667 79.0067L51.3506 79.0014C49.984 78.6481 48.5533 78.0254 47.1 77.1734" fill="white"/>
<path d="M11.74 88.7987C11.524 88.9854 11.2667 89.1227 10.9947 89.236C7.80266 89.272 4.74131 90.1921 1.61865 90.6734C0.982647 90.9721 0.651989 91.3174 0.926655 91.824C1.28666 92.3587 1.844 92.6681 2.50934 92.8734C4.12267 92.7694 5.65599 92.36 7.29866 92.36C10.0493 92.4947 13.5253 93.1654 15.4067 91.556L15.5813 91.3294C16.056 90.244 16.5373 89.16 16.9987 88.0707C17.4027 87.116 17.8067 86.1614 18.1573 85.1907C18.416 84.476 18.5907 83.7334 18.824 82.932C19.1093 83.132 19.332 83.2961 19.5653 83.4454C20.8587 84.2681 22.1613 85.0814 23.4493 85.9121C24.1053 86.3347 24.7427 86.7854 25.3827 87.228C25.6947 87.4454 25.98 87.6974 26.3053 87.8947C26.592 88.068 26.9427 88.152 27.2227 88.332C27.9733 88.8174 28.64 89.38 29.2453 89.996C30.924 90.96 32.456 92.1294 34.5227 92.4947C35.9827 92.7027 37.4187 92.9307 38.8427 93.1707L39.1573 93.1654C49.44 93.1654 59.7227 92.092 70.004 92.4947C70.584 92.5254 71.18 92.5307 71.7866 92.5254C72.8346 92.3587 73.8813 92.1907 74.9347 92.1347C76.6147 92.0467 78.308 92.216 79.9906 92.164C81.704 92.112 83.4186 91.976 85.1213 91.792C87.9146 91.4934 90.6973 91.0854 93.516 91.4054C94.056 91.4667 94.592 91.5521 95.1266 91.6441C95.624 91.5987 96.1306 91.6 96.6506 91.6907C103.195 93.116 109.399 92.9641 115.765 93.8441H118.023V93.8081C118.051 93.5894 118.263 93.3134 118.179 93.1747C117.983 92.8507 117.695 92.5507 117.379 92.3187C116.804 91.8974 116.104 91.8627 115.403 91.9147C115.039 91.9414 114.803 91.8334 114.54 91.5721L114.283 91.3387C112.435 89.8467 110.28 88.9094 108.169 88.3454C107.865 88.1307 107.528 87.9534 107.213 87.7494L106.957 87.5067C106.157 86.5627 105.391 85.592 104.544 84.6854C104.185 84.3014 103.681 84.0227 103.208 83.7494C102.56 83.3774 101.865 83.5174 101.204 83.732C100.812 83.86 100.596 83.8121 100.327 83.4774C99.8626 82.9001 99.3266 82.364 98.7613 81.8667C98.348 81.5054 97.8106 81.42 97.228 81.5374C96.4213 81.6987 95.712 81.9827 95.1467 82.5707C94.2467 83.5054 93.16 84.0387 91.7467 83.8934C90.0093 83.716 88.2626 83.6214 86.5293 83.4214C84.764 83.22 83.0147 82.9014 81.2493 82.6934C79.2787 82.4587 77.3013 82.2707 75.3213 82.1067C73.54 81.9561 71.8613 82.4321 70.1707 82.8774C69.0947 83.1614 67.9613 83.4867 66.872 83.4387C65.5373 83.3814 64.2573 83.5521 62.956 83.6814C62.0413 83.7747 61.1853 83.5067 60.3173 83.2667C58.3186 82.7147 56.3227 82.1387 54.2907 81.7094C52.3747 81.3041 50.3973 81.3667 48.436 81.3694C47.3307 81.3707 46.224 81.3067 45.12 81.2294C44.3373 81.1774 43.7907 80.7507 43.404 80.1307C42.4413 78.5907 41.1667 77.324 39.5947 76.288C37.8867 75.16 35.964 74.6627 33.9173 74.532C33.14 74.484 32.3493 74.6067 31.5653 74.66C30.9667 74.7027 30.4547 74.7774 29.9387 74.2307C29.4933 73.7587 28.9027 73.3614 28.5747 72.8121C28.0253 71.8934 27.5813 70.92 27.132 69.9547C27.004 69.6774 26.9787 69.3494 26.9453 69.0414C26.8493 68.1134 26.7453 67.1854 26.6693 66.2547C26.692 66.0934 26.7133 65.9307 26.7333 65.7667C27.0907 63.0494 27.4507 60.3227 27.4947 57.5827C27.516 56.2214 27.4587 54.8454 27.108 53.5227C26.8467 52.5294 26.4213 51.5707 26.3027 50.556C26.2307 49.9534 26.2827 49.344 26.432 48.756C26.6413 48.4334 26.964 48.08 27.4587 47.7214C27.6827 47.5947 27.9027 47.416 28.1293 47.292L28.2133 47.2414L28.216 47.2401C28.7093 47.1827 29.232 47.0747 29.7987 46.8787C32.9667 45.7867 38.3267 42.5947 35.7947 37.2801C33.2627 31.9681 29.9787 31.5627 29.9787 31.5627C29.9787 31.5627 26.5893 31.464 25.688 31.9227C24.788 32.3814 24.7707 32.628 24.1027 32.7294C23.436 32.8307 21.1493 32.4974 20.932 32.6067C20.716 32.7161 20.2373 33.3734 20.812 34.2974C20.812 34.2974 19.5027 34.4641 19.0693 34.8801C18.636 35.2974 18.5346 35.2827 18.2173 35.3801C17.8986 35.4761 17.2907 36.3067 16.648 36.5707C16.0067 36.8321 14.5053 37.7041 15.988 39.0121L16.304 39.2934C17.5907 39.9627 18.4507 40.8974 18.7387 42.2267C18.8107 42.7267 18.8107 43.2241 18.744 43.7107L18.7293 43.8014L18.6866 44.0414L18.66 44.1614L18.608 44.3814L18.5773 44.4867L18.4787 44.7947L18.4546 44.856L18.3533 45.1094C17.956 46.0281 17.3013 46.844 16.4213 47.456C15.8333 47.864 15.228 48.1654 14.604 48.3854C12.9773 49.7707 11.832 51.3094 10.5307 52.8267C10.1333 53.5627 9.72533 54.2947 9.33199 55.0334C8.39866 56.7854 7.77199 58.6214 7.65732 60.5774C7.59332 61.6867 7.94933 62.696 8.66399 63.6C8.81333 63.7867 8.87598 64.0654 8.88798 64.3054C8.93598 65.1641 8.87198 66.0334 8.98798 66.8854C9.14398 68.0454 9.40666 69.1934 9.66132 70.3401C9.77999 70.8747 10.012 71.3854 10.1427 71.9187C10.3267 72.6654 10.744 73.2934 11.224 73.892C11.7147 74.504 11.9653 75.128 11.916 75.9374C11.832 77.248 11.848 78.552 11.988 79.852C12.332 81.1614 12.692 82.4747 12.896 83.7894C12.9107 84.152 12.9267 84.5161 12.9293 84.8801C12.94 85.9214 12.8373 86.9854 12.3733 87.932C12.216 88.252 12.0173 88.5587 11.74 88.7987" fill="#8A3032"/>
</svg>
