<svg viewBox="0 0 120 118" fill="none" xmlns="http://www.w3.org/2000/svg">
<path d="M118.232 47.1974C117.751 45.4814 117.539 43.7467 117.364 41.9761C117.064 38.9267 116.311 36.2454 114.921 33.5134C114.772 33.2227 114.621 32.936 114.468 32.6507C114.441 32.5094 114.411 32.3667 114.373 32.2254C114.119 31.2454 113.507 30.4054 112.821 29.6614L112.799 29.6187C112.132 28.3894 111.583 27.1107 110.7 26.0147C109.115 24.0427 107.004 22.6507 105.001 21.1441C102.559 19.3054 100.736 16.9814 98.8614 14.5947C97.0974 12.3454 94.6934 10.4934 92.2187 9.08006C91.2627 8.53473 90.2494 8.05072 89.2147 7.60806C88.9654 7.48139 88.7054 7.36404 88.4254 7.26138C88.2987 7.21471 88.1734 7.16938 88.0454 7.12938C86.6707 6.58138 85.2707 6.08671 83.9174 5.59338C82.432 5.05071 80.9574 4.45606 79.452 3.97339C77.9494 3.49472 76.38 3.23205 74.836 2.93605L74.5027 2.78671C73.32 2.22137 72.0574 0.802716 70.6441 1.03072L70.656 1.12137C71.728 1.04804 72.6694 2.02803 73.5307 2.6547C70.8787 2.00937 68.3427 0.992037 65.6507 0.488037C62.4707 -0.111963 59.2894 0.0680452 56.0827 0.297379C55.6467 0.326712 55.2134 0.353396 54.7787 0.377396C54.5587 0.372062 54.3387 0.362715 54.1174 0.361382C53.184 0.352048 52.2427 0.396032 51.3027 0.484032L51.2227 0.485367C49.6134 0.500033 48.1014 0.880059 46.5467 1.24539C46.3841 1.28273 46.2254 1.3294 46.0707 1.37873C45.772 1.4494 45.4787 1.52138 45.184 1.59872C43.7294 1.97472 42.2454 2.22937 40.8467 2.79337C39.4561 3.35337 38.1027 4.04539 36.7414 4.67339C33.78 6.03605 30.9867 7.75472 28.3307 9.64005C27.2294 10.4227 26.1107 11.2227 25.132 12.1614C24.6814 12.5934 24.2814 13.0787 23.8801 13.556C23.3867 14.1427 22.7401 14.5494 22.1427 15.0187C20.9694 15.9374 20.0054 17.1254 19.0121 18.228C17.9054 19.4574 16.7147 20.6107 15.6307 21.8574C14.7067 22.9174 13.816 23.9481 12.7614 24.8801C11.7467 25.7774 11.2667 26.98 10.5587 28.1027C9.80937 29.292 8.93205 30.3494 8.27205 31.604C7.58672 32.9054 7.11603 34.296 6.58536 35.664C6.00936 37.1427 5.15605 38.4427 4.34005 39.7907C3.70805 40.836 3.4867 41.9761 3.3227 43.1667C2.90537 46.1841 1.82005 49.048 1.07472 51.9907C0.286719 55.1027 0.366702 58.1987 0.390702 61.3854C0.418702 64.86 0.525376 68.336 0.865376 71.7974C1.14271 74.6027 1.54938 77.272 2.87205 79.792C4.04138 82.0214 5.75871 83.9414 7.46538 85.7694C8.00271 86.344 8.54005 86.916 9.07338 87.4907L9.14539 87.652C9.77606 88.9854 10.6534 90.2014 11.4121 91.46C12.2721 92.8867 13.0227 94.3534 13.9694 95.728C14.78 96.9 15.7014 97.9787 16.668 99.024C17.7334 100.176 18.664 101.429 19.704 102.601C20.652 103.668 21.8467 104.456 23.0094 105.265C24.4254 106.252 25.876 107.187 27.3574 108.071C30.1574 109.739 33.2547 110.761 36.0214 112.481C37.204 113.216 38.3787 113.795 39.732 114.136C41.172 114.499 42.6734 114.548 44.1467 114.656C44.4374 114.679 44.7281 114.705 45.0161 114.735C45.2774 114.877 45.5387 115.019 45.8107 115.149C47.2121 115.815 48.812 115.796 50.2574 116.317C51.5347 116.777 52.5547 117.485 53.956 117.511C54.6694 117.524 55.3974 117.317 56.1094 117.28C56.9494 117.236 57.796 117.301 58.636 117.313C61.8894 117.361 64.928 116.509 68.0614 115.755C69.6334 115.377 71.2147 115.001 72.8067 114.711C74.4414 114.411 75.9467 114.125 77.492 113.476C80.2974 112.293 83.3761 111.832 86.2654 110.861C87.5747 110.423 88.8547 109.899 90.1013 109.303C91.5413 108.615 92.8361 107.684 94.2574 106.961C95.6214 106.265 96.816 105.492 98.0427 104.581C99.2347 103.696 100.516 102.951 101.692 102.041C103.612 100.557 105.285 98.796 106.629 96.7854C109.929 92.6667 111.816 87.4 113.157 82.3934C113.561 80.8854 114.06 79.3974 114.436 77.8814C114.639 77.0641 114.743 76.2374 114.833 75.4107C115.411 73.8094 116.087 72.2414 116.745 70.6254C119.149 64.724 119.915 57.78 119.239 51.4547C119.083 50.0027 118.627 48.5974 118.232 47.1974ZM114.619 35.4574C115.36 37.148 115.921 38.8961 116.159 40.8094C116.239 41.4694 116.305 42.1294 116.371 42.7894C116.016 40.708 115.807 38.6387 114.615 36.8187L114.609 36.6107C114.605 36.2241 114.612 35.8414 114.619 35.4574ZM113.817 48.3667C113.545 47.5427 113.247 46.736 112.924 45.952C112.332 44.512 112.055 42.9707 111.583 41.4894C111.091 39.9494 110.509 38.3987 109.772 36.9587C109.132 35.7094 108.187 34.62 107.352 33.5C106.555 32.4254 105.945 31.2414 105.171 30.156C105.123 30.02 105.073 29.8841 105.027 29.7414C104.645 28.5667 103.955 27.7521 103.151 26.8387C102.079 25.6241 101.261 24.204 100.103 23.0627C99.956 22.92 99.8107 22.7814 99.6654 22.6454L99.4267 22.3054L99.4107 22.284C100.708 22.8867 101.979 23.5361 103.205 24.2707C103.373 24.3707 103.543 24.4667 103.715 24.5574C104.223 25.3854 104.683 26.2467 105.205 27.0654C105.931 28.2027 106.813 29.136 107.881 29.952L107.971 30.0214L108.019 30.1094C108.836 31.5627 109.999 32.8827 111.012 34.204C111.425 34.744 111.852 35.2774 112.272 35.8161C112.973 37.6814 113.317 39.7 113.484 41.6587C113.597 43.0294 113.532 44.4027 113.593 45.7761C113.633 46.6427 113.728 47.504 113.817 48.3667ZM113.271 58.3214C113.328 57.3694 113.348 56.4027 113.337 55.4187C113.328 54.4507 113.343 53.4854 113.348 52.524C113.505 53.3334 113.616 54.1521 113.692 54.9747C113.665 55.2254 113.64 55.4774 113.619 55.7294C113.467 57.5014 113.505 59.2827 113.344 61.06L113.343 61.0774C113.307 61.2161 113.269 61.356 113.231 61.4947C113.263 60.74 113.281 59.9827 113.281 59.2214C113.281 58.92 113.276 58.6214 113.271 58.3214ZM112.908 70.0867L112.972 69.8494C112.961 70.2121 112.947 70.5761 112.921 70.9401C112.836 72.1694 112.513 73.4161 112.251 74.6427C112.18 74.8041 112.107 74.9667 112.033 75.1267L112.056 74.8907C112.224 73.256 112.487 71.676 112.908 70.0867ZM112.133 48.1761L112.171 48.2894L112.188 48.4334L112.133 48.1761ZM112.815 66.288C112.836 66.128 112.857 65.9681 112.877 65.8067L112.932 65.6427C112.908 65.7961 112.883 65.948 112.853 66.0987L112.815 66.288ZM110.199 79.1094C109.881 79.8467 109.569 80.5894 109.253 81.3294C108.736 82.2987 108.148 83.2321 107.651 84.2107C107.345 84.8107 107.109 85.4294 106.865 86.0387L106.88 85.7734C107.316 84.5961 107.712 83.4054 108.08 82.2027C109.233 79.7934 110.211 77.284 110.996 74.692C110.823 76.184 110.643 77.6734 110.199 79.1094ZM110.637 80.9427C110.151 82.1561 109.523 83.2707 108.809 84.336C108.993 83.956 109.187 83.5801 109.403 83.2067C109.836 82.4601 110.263 81.7147 110.637 80.9427ZM71.9307 111.133C72.2147 111.069 72.4947 110.999 72.7761 110.929C75.2227 110.468 77.5894 109.761 79.9507 108.907C80.5174 108.703 81.092 108.528 81.668 108.368L81.3614 108.536C80.976 108.648 80.5934 108.764 80.2094 108.884C78.7654 109.335 77.3814 109.951 75.9441 110.416C74.6494 110.833 73.288 111.02 71.9307 111.133ZM74.6507 111.568C72.1027 112.201 69.3867 112.235 66.7774 112.296C67.0894 112.253 67.4027 112.212 67.7174 112.177C69.3627 112.005 71.0254 112.049 72.6734 111.891C73.3454 111.827 74.0014 111.712 74.6507 111.568ZM71.4134 7.19471C72.1934 7.30938 72.9694 7.43606 73.7374 7.61206C74.408 7.76539 75.0147 8.00403 75.5974 8.28403C74.2267 7.86537 72.8294 7.50271 71.4134 7.19471ZM81.3987 9.80005C81.2707 9.74272 81.144 9.68671 81.0174 9.62938C79.564 8.97471 78.2547 8.13473 76.8774 7.34806C74.3454 5.90139 71.1174 5.83071 68.3 5.42538C65.1227 4.96804 61.9281 4.64139 58.7454 4.23739C58.4841 4.20406 58.228 4.18272 57.972 4.16672C60.46 3.90405 62.9467 3.86139 65.472 4.04539C65.648 4.05739 65.828 4.07337 66.0067 4.08804C69.1934 4.5707 72.3427 4.94137 75.3747 6.09071C78.3161 7.20404 81.0801 8.76538 84.1627 9.46272C85.3681 9.73605 86.4347 10.3347 87.5373 10.86C87.2053 10.856 86.8774 10.8614 86.556 10.8574C84.8534 10.8414 83.3894 10.3307 81.7667 9.89871C81.6427 9.86405 81.52 9.83205 81.3987 9.80005ZM60.0347 5.97205C55.4347 5.97205 50.9734 6.55471 46.7161 7.65204C47.2641 7.39471 47.8147 7.1454 48.368 6.91473C49.4987 6.44273 50.7227 6.36671 51.932 6.32404C52.1147 6.31738 52.116 6.03872 51.932 6.03872C51.0907 6.04139 50.2827 6.07473 49.4801 6.21339C49.6214 6.17873 49.76 6.14272 49.9 6.10672C51.42 5.72672 53.0187 5.67206 54.5734 5.50806C55.8627 5.37206 57.0387 5.3414 58.264 5.4454L58.5467 5.48403C58.9494 5.5387 59.3534 5.58405 59.7574 5.63205C60.6974 5.78405 61.6414 5.91472 62.584 6.03339C61.7387 5.99339 60.8907 5.97205 60.0347 5.97205ZM60.4427 112.463C58.928 112.716 57.4201 112.988 55.9134 113.265C54.4467 113.265 52.9787 113.12 51.5467 112.815C50.7907 112.656 50.0654 112.407 49.3454 112.14C50.1894 112.055 51.0374 111.957 51.884 111.848C54.5414 112.256 57.2627 112.468 60.0347 112.468C60.1694 112.468 60.3054 112.465 60.4427 112.463ZM43.652 8.46671C43.436 8.56271 43.22 8.65737 43.0027 8.75337C42.3147 8.98671 41.632 9.23471 40.956 9.49605C41.0827 9.41205 41.2067 9.3294 41.3374 9.2494C43.336 8.03873 45.6894 7.23872 47.9987 6.60405C46.5254 7.11605 45.0694 7.83471 43.652 8.46671ZM44.3547 110.121C43.6867 110.108 43.0174 110.089 42.3507 110.059L42.2627 110.032C41.516 109.795 40.7827 109.512 40.0574 109.211C40.6707 109.243 41.2774 109.265 41.8694 109.289C42.6894 109.587 43.516 109.863 44.3547 110.121ZM85.0067 11.6494L84.6881 11.452C85.9681 11.6787 87.2854 11.5107 88.572 11.692C89.9574 11.8894 90.8294 13.0374 91.6534 14.0481C92.6067 15.2214 93.7027 16.2707 94.7854 17.3227C95.2627 17.788 95.78 18.2267 96.1733 18.7694L96.3054 18.9787C95.2534 18.0987 94.1094 17.3187 92.884 16.5947C91.6227 15.8507 90.3347 15.1574 89.0947 14.3854C87.7014 13.5187 86.3867 12.5347 85.0067 11.6494ZM87.7747 105.097C86.8654 105.687 85.9361 106.241 84.9654 106.728C84.8174 106.801 84.6694 106.875 84.5214 106.947C83.9587 107.088 83.3934 107.223 82.8254 107.356C84.2187 106.695 85.5774 105.975 86.9 105.201C87.1907 105.167 87.4841 105.133 87.7747 105.097ZM95.2521 100.096C94.5694 100.547 93.8614 100.965 93.1814 101.407C91.9747 102.185 90.8054 103.025 89.6254 103.848C89.392 103.887 89.1561 103.923 88.9214 103.956C90.0801 103.208 91.2054 102.412 92.3 101.577C93.2934 101.1 94.2801 100.612 95.2521 100.096ZM88.8414 106.301C90.0494 105.76 91.1974 105.1 92.3134 104.388C93.4254 104.161 94.5294 103.885 95.6254 103.533L95.6467 103.527C93.5401 104.513 91.436 105.504 89.2373 106.253C88.78 106.411 88.3214 106.555 87.8614 106.697C88.1894 106.576 88.5187 106.445 88.8414 106.301ZM95.6321 102.433C95.3881 102.511 95.1454 102.58 94.9027 102.651C95.528 102.22 96.1534 101.787 96.7827 101.365C97.0641 101.179 96.9174 100.779 96.6667 100.732L96.8787 100.589C98.0774 99.7654 98.992 98.576 100.007 97.5507C100.609 96.9414 101.184 96.3134 101.741 95.6734L101.772 95.6481L102.015 95.4534C101.872 95.7547 101.723 96.056 101.559 96.356C100.795 97.7414 100.151 99.3774 99.1574 100.612C98.3067 101.667 96.8667 102.047 95.6321 102.433ZM101.248 94.2214C100.404 94.9787 99.512 95.6787 98.6227 96.3401C98.1227 96.7107 97.6187 97.0814 97.1054 97.4414C100.373 94.2694 103.24 90.684 105.612 86.7667C105.54 87.4907 105.433 88.1987 105.196 88.9067C104.796 89.4134 104.447 89.92 104.139 90.4667C103.195 91.7347 102.261 93.0054 101.248 94.2214ZM110.671 29.1267C111.195 29.7094 111.733 30.2161 112.203 30.7694C112.381 31.1041 112.563 31.4374 112.751 31.7747C112.967 32.1641 113.18 32.5521 113.387 32.9427C113.5 33.3774 113.555 33.8387 113.577 34.3067C112.757 32.5387 111.54 30.9907 109.967 29.788C109.587 29.4974 109.215 29.2214 108.853 28.9414C108.223 27.8254 107.637 26.876 106.632 26.0187L106.367 25.7681C106.671 25.9001 106.976 26.0321 107.281 26.1747C108.709 26.8387 109.641 27.9814 110.671 29.1267ZM101.884 19.9374C103.728 21.7947 106.019 23.1254 108.005 24.8121C108.407 25.1521 108.768 25.512 109.104 25.888C107.953 25.0854 106.64 24.6427 105.356 24.0854C105.189 24.012 105.023 23.9334 104.857 23.8534C104.605 23.44 104.345 23.0307 104.055 22.6401L104.021 22.5974C103.933 22.4654 103.844 22.336 103.753 22.2054C102.968 21.0947 102.048 20.0907 101.075 19.1361C100.757 18.7641 100.436 18.3974 100.108 18.0414C100.005 17.8681 99.9027 17.6974 99.8 17.5254C100.461 18.36 101.136 19.1827 101.884 19.9374ZM99.708 19.7067C99.8974 19.8774 100.081 20.0507 100.264 20.224C100.661 20.688 101.055 21.1547 101.451 21.62C101.58 21.7974 101.709 21.9721 101.841 22.1467C101.72 22.0801 101.597 22.0147 101.475 21.9507C100.236 21.3187 98.9627 20.756 97.6947 20.1867L97.572 19.8441C97.1947 18.5907 96.6107 17.848 95.664 16.96C94.564 15.9267 93.4694 14.8814 92.4667 13.7494C92.104 13.3427 91.7653 12.9254 91.4013 12.5347C91.904 12.8094 92.3934 13.1294 92.8694 13.5441C93.8107 14.3547 94.7761 15.116 95.7267 15.8894C97.0681 17.1534 98.36 18.4801 99.708 19.7067ZM41.6894 3.14139C42.204 2.94139 42.7427 2.77337 43.2934 2.6227C43.112 2.7067 42.928 2.78671 42.7387 2.86137C41.3174 3.42271 39.9441 4.00939 38.5494 4.64272C38.0201 4.88139 37.4747 5.0814 36.9267 5.27606C38.4894 4.47873 40.0854 3.75872 41.6894 3.14139ZM25.364 14.0067C26.3107 12.8907 27.5067 12.0454 28.6547 11.1534C29.9387 10.1547 31.1854 9.12804 32.6414 8.38804C35.4107 6.97871 38.332 6.02539 41.14 4.70805C42.4267 4.10672 43.7534 3.71336 45.0214 3.0507C46.4894 2.28536 48.4427 1.88937 50.0827 1.72137C51.6627 1.56137 53.28 1.66272 54.8694 1.56939C56.6294 1.46806 58.3841 1.31338 60.1481 1.25738C63.4227 1.15871 66.6467 1.72005 69.7334 2.80272C72.6867 3.83605 75.78 4.15604 78.7867 4.9867C79.1627 5.0907 79.5387 5.2027 79.9147 5.3187C80.6734 5.57737 81.4294 5.84139 82.1854 6.11206C82.3587 6.17339 82.5307 6.23204 82.704 6.28938C84.472 6.95471 86.2214 7.69205 87.9441 8.39338C89.1441 8.88138 90.2907 9.41339 91.3907 10.0107C92.3454 10.9467 93.3134 11.8067 94.3961 12.6001C95.6374 13.5094 96.7453 14.4307 97.6707 15.6627C96.7373 14.8547 95.764 14.0947 94.7774 13.3547C93.7267 12.5667 92.8227 11.6521 91.6534 11.0654C91.132 10.7347 90.6014 10.4174 90.0441 10.1227C88.7281 9.42537 87.3534 8.84406 86.0334 8.14673C84.62 7.39873 83.2121 6.6534 81.7147 6.08273C80.3401 5.55873 78.868 5.43604 77.492 4.89204C75.9867 4.29471 74.4467 4.02806 72.856 3.7494C70.8467 3.39873 68.8227 3.10005 66.792 2.90272C65.912 2.76005 65.0307 2.62536 64.1427 2.5507C62.5547 2.41603 60.944 2.49605 59.3534 2.52805C57.6894 2.56138 56.0627 2.54671 54.4107 2.79738C51.1707 3.28538 48.1934 4.46138 45.0854 5.43071C43.684 5.86938 42.2254 6.08671 40.8054 6.46671C39.264 6.88138 37.7587 7.42538 36.2814 8.02938C31.4841 9.99605 27.236 12.9267 23.332 16.2867C24.0334 15.5574 24.6894 14.8067 25.364 14.0067ZM36.3014 107.616C35.2574 107.213 34.1974 106.833 33.2267 106.284C31.9107 105.535 30.828 104.417 29.7854 103.337C29.4707 103.013 29.1534 102.692 28.836 102.373C31.86 104.563 35.1241 106.443 38.5801 107.968C37.8147 107.885 37.0507 107.775 36.3014 107.616ZM38.0121 109.523C37.6214 109.439 37.228 109.348 36.84 109.248C36.5014 109.084 36.1694 108.911 35.8414 108.727C35.9747 108.756 36.1081 108.783 36.2427 108.807C36.8347 109.044 37.4267 109.277 38.0121 109.523ZM32.4854 107.583C31.392 107.003 30.2921 106.432 29.1747 105.889C28.4774 105.551 27.8214 105.167 27.1867 104.757C27.9907 105.197 28.8587 105.504 29.7094 105.872C30.5627 106.239 31.312 106.775 32.0894 107.263C32.2187 107.369 32.3507 107.477 32.4854 107.583ZM36.7294 11.332C33.204 13.0494 29.896 15.1467 26.86 17.5707L26.684 17.6947C26.0987 18.1374 25.4907 18.5507 24.8854 18.968C25.904 18.02 26.9374 17.0854 27.9694 16.156C30.34 14.0214 32.8134 12.1534 35.684 10.7454C36.9054 10.1467 38.1574 9.61604 39.4254 9.12404C38.496 9.81871 37.6267 10.592 36.7294 11.332ZM22.7867 18.4161C23.1307 18.1881 23.4747 17.9614 23.8161 17.7294C25.1414 16.8267 26.368 15.796 27.636 14.8187C28.108 14.4534 28.588 14.1094 29.072 13.7721C28.6254 14.1387 28.1854 14.5134 27.7507 14.8974C25.3734 16.9987 23.0467 19.1761 20.8267 21.4441C18.624 23.6947 16.6934 26.1107 14.8614 28.6681C13.5387 30.5174 12.0054 32.1347 10.7454 33.9761C10.7934 33.8521 10.836 33.7281 10.884 33.6067C12.2907 31.4667 13.772 29.3694 15.1947 27.2467C17.3814 23.9814 19.9387 21.0534 22.7867 18.4161ZM5.33872 67.2867C5.40272 68.4414 5.44671 69.6014 5.49737 70.7627C4.87604 68.3387 4.24403 65.9107 4.42403 63.3934C4.53603 61.8227 4.78805 60.2907 4.74272 58.7094C4.72005 57.8707 4.68005 57.0454 4.83605 56.2147C4.98538 55.4227 5.19071 54.6894 5.23338 53.8774C5.31471 52.3081 5.21203 50.7307 5.18536 49.1614C5.1587 47.4934 5.40137 45.824 5.69337 44.1867L5.76404 43.8614C6.18004 42.7974 6.60804 41.728 7.06538 40.668C7.18671 40.4347 7.30937 40.2027 7.43071 39.9694C7.75737 39.3454 8.07072 38.7121 8.37872 38.0774C7.97206 39.8641 7.67339 41.676 7.44806 43.484C7.21339 45.3654 7.0267 47.2614 6.89204 49.1627C5.83737 51.9067 5.26139 54.8201 5.01339 57.7427C4.74139 60.9467 5.16405 64.0947 5.33872 67.2867ZM6.6587 53.9401C6.5907 56.6547 6.63204 59.3694 6.79337 62.064C6.8147 62.4094 6.83604 62.7574 6.86271 63.1054C6.84137 63.3974 6.82804 63.6881 6.82537 63.9801C6.81204 65.7067 7.17872 67.5027 7.34672 69.2227C7.63606 72.1787 8.42937 75.0574 9.22136 77.9147C9.4387 78.7001 9.67203 79.4854 9.92136 80.2627C10.0254 81.456 10.176 82.6401 10.4347 83.8041C10.4894 84.0467 10.5507 84.288 10.6121 84.5307C10.1521 83.748 9.67738 82.9734 9.16938 82.224C8.66805 81.4867 8.18271 80.7547 7.79604 79.972C7.58004 79.2867 7.36272 78.6067 7.14272 77.9254C6.81339 75.7414 6.70405 73.5147 6.60939 71.3294C6.46672 68.0347 6.13603 64.7427 6.02003 61.4481C5.92936 58.9281 6.15337 56.4067 6.6587 53.9401ZM8.55203 45.5801C8.4667 45.7387 8.38271 45.8987 8.29871 46.06C8.42538 43.4774 8.92005 40.8734 9.70405 38.4361C10.1787 36.9667 10.8747 35.584 11.7227 34.296C12.636 32.9094 13.848 31.7414 14.8614 30.428C16.6827 28.072 18.38 25.6947 20.3667 23.488C20.28 23.6547 20.1934 23.8214 20.1107 23.9907C14.7134 30.1027 10.6974 37.4601 8.55203 45.5801ZM22.0347 96.5174C21.1734 95.8614 20.3467 95.1827 19.6214 94.3427C18.4654 93.0054 17.3707 91.616 16.2867 90.22C14.3414 87.7227 12.7667 85.2481 11.6267 82.2801C11.452 81.8254 11.2894 81.3654 11.1307 80.904C11.0987 80.6427 11.0707 80.3801 11.0441 80.1161C13.6707 86.2641 17.4214 91.8174 22.0347 96.5174ZM4.07739 44.136C4.29739 42.8814 4.3707 41.6654 4.9587 40.5121C5.6827 39.0921 6.61336 37.8294 7.25069 36.3547C7.82136 35.0294 8.24939 33.66 8.87472 32.356C9.53872 30.9734 10.4681 29.8121 11.3107 28.5427C12.0761 27.3934 12.54 26.232 13.596 25.296C14.4974 24.4934 15.268 23.5881 16.0507 22.6814C14.6227 24.5561 13.2494 26.5014 12.0507 28.5081C11.48 29.4654 10.976 30.4547 10.5267 31.4667C10.0627 32.3067 9.62404 33.16 9.20004 34.024C7.63071 36.5027 6.47472 39.144 5.31472 41.8507C4.62139 43.468 4.0187 45.1107 3.48536 46.7747C3.71336 45.9041 3.92005 45.0267 4.07739 44.136ZM2.89471 53.6014C3.28804 51.8774 3.71338 50.16 4.20672 48.464C4.19472 49.5014 4.22536 50.5307 4.25203 51.5187C4.2947 53.1894 4.12537 54.684 3.82137 56.32C3.53603 57.848 3.83738 59.4774 3.70004 61.028C3.58538 62.308 3.40139 63.56 3.41606 64.8347C3.33206 64.4067 3.25205 63.9774 3.17739 63.5441C2.61739 60.2521 2.14137 56.9027 2.89471 53.6014ZM5.05069 81.356C3.30136 78.948 2.45071 76.3854 2.06938 73.4574C1.62005 70.0107 1.48937 66.5294 1.42537 63.0547C1.39737 61.532 1.33471 60.0041 1.33605 58.4774C1.37605 59.0907 1.43471 59.7001 1.50271 60.3067C1.85738 63.4707 2.49605 66.6134 3.31072 69.6907C4.16539 72.916 5.24004 76.0787 6.30004 79.2427L6.32537 79.32C6.6747 81.108 7.18005 82.8614 7.93872 84.556C7.98005 84.6787 8.02004 84.8 8.06271 84.9227C7.00004 83.7827 5.96803 82.6187 5.05069 81.356ZM9.1867 84.5934C9.0747 84.2427 8.96804 83.8934 8.86404 83.5427C9.45204 84.4534 10 85.3881 10.5614 86.3161C11.0787 87.1721 11.5854 88.0387 12.104 88.896L12.2094 89.1374C11.0467 87.7321 10.0147 86.2334 9.1867 84.5934ZM14.96 95.1507C14.296 94.2107 13.7361 93.2187 13.1761 92.224C14.1121 93.4187 15.012 94.644 15.8854 95.8854C16.4814 96.7307 17.0387 97.576 17.6787 98.368C17.7654 98.4907 17.8521 98.6134 17.9401 98.7347C16.8934 97.5734 15.864 96.432 14.96 95.1507ZM16.392 93.46C15.748 92.4627 15.0121 91.5321 14.3107 90.5721L14.2547 90.4934C13.62 89.3867 13.0387 88.2507 12.5814 87.0347C12.4361 86.6507 12.3041 86.2694 12.1827 85.8854C13.5307 88.5307 15.5254 90.8401 17.3667 93.1494C18.3374 94.3654 19.3027 95.5974 20.4947 96.6054C21.7094 97.6307 23.04 98.516 24.2667 99.532C25.2907 100.379 26.2374 101.3 27.1667 102.233C27.7227 102.923 28.2987 103.593 28.8987 104.241C28.7 104.157 28.5027 104.075 28.3027 103.991C26.964 103.421 25.9947 102.325 25.0441 101.267C24.1227 100.241 23.0907 99.4107 22.0427 98.5214C20.7854 97.452 19.6 96.304 18.3587 95.2187C17.6947 94.6387 17.0374 94.0534 16.392 93.46ZM20.0774 98.3387C21.1427 99.3147 22.3174 100.172 23.3467 101.185C24.2694 102.095 25.048 103.121 26.0347 103.965C25.6747 103.705 25.32 103.437 24.9667 103.167C23.0814 101.513 21.2014 99.8187 19.5094 97.9774C19.2987 97.7494 19.0947 97.5134 18.896 97.2721C19.292 97.6267 19.6881 97.9827 20.0774 98.3387ZM42.34 113.572C40.756 113.401 39.2347 113.036 37.8134 112.299C36.3814 111.559 35.0974 110.611 33.6214 109.945C30.5534 108.563 27.6881 107.073 24.8801 105.205C23.5467 104.315 22.1454 103.425 20.9827 102.316C20.4307 101.792 19.9454 101.205 19.4694 100.605C21.0494 102.308 22.9427 103.781 24.8254 105.085C27.8574 107.184 31.3307 108.877 34.94 109.967C37.112 111.144 39.2694 112.255 41.66 113.028C42.1654 113.191 42.6334 113.407 43.0907 113.645C42.8387 113.623 42.5894 113.599 42.34 113.572ZM46.7627 114.003C46.288 113.935 45.812 113.883 45.336 113.836C44.4494 113.339 43.6134 112.721 42.6734 112.34C42.304 112.191 41.9347 112.051 41.5654 111.913C43.1707 112.241 44.8187 112.379 46.456 112.347C46.8494 112.459 47.2427 112.573 47.632 112.704C49.0214 113.168 50.308 113.733 51.7414 114.041C50.004 114.355 48.5027 114.256 46.7627 114.003ZM83.5481 110.656C82.1587 111.056 80.7547 111.399 79.352 111.739C77.7587 112.124 76.3374 112.988 74.7347 113.351C73.236 113.692 71.7067 113.892 70.2027 114.223C68.46 114.607 66.7254 115.023 65.0014 115.481C63.4227 115.901 61.8267 116.171 60.1987 116.28C58.592 116.388 56.9774 116.188 55.3747 116.355C54.5414 116.441 53.8347 116.609 53 116.42C52.28 116.259 51.6147 115.859 50.9467 115.556C50.5694 115.387 50.1814 115.257 49.7854 115.155C50.928 115.083 52.0774 114.812 53.176 114.589C53.5267 114.517 53.8774 114.453 54.2294 114.384C55.048 114.444 55.868 114.463 56.6854 114.452C58.2014 114.433 59.7147 114.157 61.2094 113.931C63.044 113.651 64.8494 113.587 66.7 113.551C69.9467 113.491 73.3081 113.451 76.4161 112.417C79.0961 111.527 81.4734 109.945 83.9854 108.68C86.176 108.053 88.372 107.443 90.512 106.649C93.2294 105.644 95.7961 104.208 98.4107 102.965C98.7921 102.785 99.168 102.599 99.5414 102.407C94.6214 105.899 89.3814 108.98 83.5481 110.656ZM110.011 89.8667C109.905 90.096 109.797 90.3267 109.688 90.5547C109.988 89.78 110.275 89.0014 110.56 88.2267C110.817 87.528 111.104 86.8307 111.397 86.132C111.012 87.396 110.569 88.644 110.011 89.8667ZM114.652 70.964C114.432 72.1094 114.22 73.2334 114.103 74.3827C113.516 75.8881 113.004 77.4161 112.735 79.0401C112.239 82.0294 110.781 84.816 109.739 87.652C108.736 90.3747 107.715 93.0974 106.229 95.6027C105.316 97.144 104.159 98.5134 102.86 99.7387C101.793 100.515 100.645 101.164 99.4521 101.756C100.144 101.107 100.583 100.267 101.047 99.4C101.809 97.972 102.645 96.5667 103.341 95.104C103.583 94.5974 103.776 94.0747 103.964 93.5494C104.172 93.2774 104.365 92.992 104.535 92.6894C104.72 92.356 104.869 92.0041 105.005 91.6454C105.203 91.3614 105.391 91.0694 105.564 90.7734L105.701 90.5827C107.492 88.0974 109.677 85.9107 111.104 83.1721C112.449 80.5894 113.075 77.6774 113.54 74.8254C113.736 73.628 114.056 72.4627 114.22 71.264C115.488 66.6574 115.573 61.684 115.604 56.9507C115.611 56.0014 115.603 55.052 115.584 54.1027C115.796 52.7254 115.971 51.3454 115.997 49.9494C116.031 48.2801 115.727 46.6121 115.468 44.9707C115.436 44.7654 115.405 44.56 115.379 44.3534C115.931 46.596 116.657 48.7987 117.096 51.0707C117.753 54.4667 117.305 57.9707 116.657 61.3294C116.039 64.552 115.263 67.74 114.652 70.964ZM118.113 60.1694C117.831 63.5307 117.099 66.8467 115.889 69.9947C115.791 70.2494 115.691 70.5027 115.589 70.7534C116.092 68.344 116.681 65.9507 117.243 63.556C117.648 61.8387 118.012 60.1094 118.256 58.3627C118.213 58.976 118.163 59.58 118.113 60.1694Z" fill="#F7A70F"/>
<path d="M68.6627 73.128C69.5107 69.252 69.984 64.96 69.9973 60.492C70.0347 47.732 66.3174 36.3507 60.7454 32.1707L60.0107 31.6174L59.2707 32.1654C53.6747 36.3134 49.8907 47.6734 49.8507 60.4334C49.8387 64.8987 50.2867 69.1947 51.112 73.0734C48.112 70.368 44.5347 67.784 40.564 65.532C39.7893 65.092 39.0107 64.6707 38.2293 64.2694C38.764 65.3374 39.336 66.4027 39.9467 67.4534C40.1174 67.7467 40.2907 68.04 40.4653 68.3307C45.1733 71.136 49.2853 74.4414 52.36 77.7734C53.9827 82.7547 56.3093 86.66 59.104 88.7547L59.4653 89.028L59.48 89.04H59.4814L59.8373 89.308L60.196 89.0427H60.2L60.2147 89.0294L60.5787 88.76C63.3827 86.6814 65.732 82.7894 67.3827 77.8174C70.4787 74.5067 74.6107 71.2227 79.336 68.4467C79.512 68.1574 79.688 67.8667 79.8613 67.572C80.4773 66.5254 81.0547 65.464 81.5973 64.3974C80.8133 64.796 80.0333 65.2107 79.2547 65.6467C75.2693 67.8774 71.676 70.44 68.6627 73.128V73.128ZM65.2 76.544C64.2 77.648 63.3053 78.76 62.528 79.8627C62.5987 80.8054 62.624 81.7107 62.6027 82.5774V82.6174C61.7627 84.06 60.8387 85.2614 59.8494 86.1667C58.8627 85.256 57.9454 84.0467 57.1147 82.6V82.5614C57.0987 81.6947 57.1293 80.7867 57.2053 79.8467C56.436 78.7374 55.5467 77.624 54.552 76.512C53.124 71.8947 52.3013 66.2907 52.3173 60.4414C52.352 49.2094 55.4747 38.8974 60.0027 34.7587C64.5027 38.924 67.564 49.256 67.532 60.4854C67.5133 66.336 66.656 71.936 65.2 76.544" fill="white"/>
<path d="M88.8173 39.376L87.904 39.4747C82.592 40.0547 76.0574 44.844 70.3814 52.0054C70.5387 53.184 70.6627 54.3867 70.752 55.6094C75.9933 48.3587 82.26 43.1494 87.2253 42.0814C89.012 47.9494 86.4427 58.4134 80.7467 68.0934C76.2747 75.6934 70.4454 81.8414 65.2454 84.7587C64.2894 86.3267 63.2373 87.6547 62.1013 88.6947C68.764 87.0107 76.896 79.5014 82.872 69.3427C89.344 58.3454 91.876 46.6427 89.1747 40.2227L88.8173 39.376" fill="white"/>
<path d="M54.46 84.724C49.2747 81.7787 43.4827 75.5961 39.056 67.9681C33.4187 58.2561 30.912 47.7774 32.7333 41.9187C37.692 43.0147 43.9267 48.2627 49.1253 55.5454C49.224 54.3241 49.356 53.1214 49.5173 51.9441C43.884 44.7467 37.38 39.9214 32.0707 39.3081L31.156 39.2027L30.796 40.0481C28.0547 46.4521 30.5173 58.1707 36.924 69.2081C42.8387 79.4001 50.9267 86.9561 57.58 88.6814C56.4494 87.6334 55.404 86.2974 54.46 84.724Z" fill="white"/>
<path d="M101.809 58.7573C97.6613 58.7573 92.82 59.7787 87.8267 61.652C87.3934 62.7213 86.9187 63.7974 86.4067 64.8747C91.9213 62.524 97.3213 61.224 101.809 61.224C103.659 61.224 105.265 61.4467 106.605 61.8853C105.185 67.8547 97.688 75.592 87.8867 81.076C80.6853 85.104 73.196 87.476 67.2 87.64C65.54 88.6 63.9093 89.2973 62.352 89.692L62.3347 89.696C63.6014 89.9734 65.0027 90.1173 66.5387 90.1173C73.0454 90.1173 81.2667 87.6067 89.092 83.228C100.228 76.9974 108.319 68.1694 109.227 61.264L109.345 60.3533L108.507 59.9774C106.692 59.1667 104.439 58.7573 101.809 58.7573" fill="white"/>
<path d="M52.4853 87.596C46.4933 87.396 39.024 84.9854 31.8387 80.908C22.0693 75.3654 14.6187 67.5827 13.2347 61.6067C14.544 61.1867 16.1107 60.9734 17.9027 60.9734C22.4173 60.9734 27.8587 62.3054 33.416 64.7134C32.9107 63.6347 32.444 62.556 32.016 61.484C26.9747 59.5573 22.084 58.508 17.9027 58.508C15.336 58.508 13.1293 58.9027 11.3467 59.688L10.5053 60.0573L10.6187 60.9707C11.484 67.8814 19.5227 76.756 30.6213 83.0533C38.4893 87.5173 46.748 90.0787 53.2827 90.0787H53.284C54.7613 90.0787 56.112 89.9427 57.34 89.68L57.3213 89.6774C55.7667 89.2747 54.14 88.564 52.4853 87.596" fill="white"/>
<path d="M113.544 93.452C112.781 92.9694 111.675 92.484 110.777 92.4L110.485 92.388C110.585 91.568 110.645 90.7787 110.363 89.7787C110.009 88.5267 109.123 87.532 108.665 86.4267L108.595 86.2481C108.315 85.0401 108.224 83.628 108.167 82.5654C108.133 81.9547 107.499 81.0334 107.3 80.5534C107.184 80.2734 106.943 79.94 106.669 79.7867C105.971 79.3894 104.809 78.4547 103.948 78.684C103.491 78.8054 103.063 79.0094 102.644 79.2361C100.613 79.1547 98.6133 78.6987 96.568 78.8094C95.384 78.8721 94.2493 79.4001 93.0707 79.5387C91.568 79.7147 90.0681 78.7081 88.7747 78.0761C88.6374 78.0107 88.5014 78.0267 88.3867 78.1267C87.96 78.4974 88.0254 79.1374 88.0414 79.6534C88.0601 80.2414 88.0387 80.7321 87.9347 81.1827C87.8133 81.2814 87.7014 81.3921 87.6161 81.5374C87.4534 81.8107 86.5774 81.5934 86.3067 81.6267C86.176 81.6427 86.0201 81.7107 85.9961 81.8627C85.9694 82.0494 85.9774 82.2561 85.948 82.4494C85.5614 82.4467 85.1854 82.5027 84.9187 82.8347C84.7894 82.9974 84.7214 83.1787 84.684 83.3707C83.9147 83.7027 83.148 84.1027 82.4667 84.7267C81.516 85.5974 82.3587 87.6334 83.3107 88.736C83.1681 88.7974 82.9214 88.8334 82.624 88.8534C81.224 88.6174 79.892 88.104 78.7227 87.1614C77.6147 86.2654 77.2387 84.8001 76.1867 83.8414C75.7334 83.4307 75.1054 83.1747 74.5761 82.8814C73.6987 82.3921 73.0667 81.488 72.32 80.8334C71.088 79.7547 70.276 78.4801 69.2307 77.2454C68.8614 76.8081 68.496 76.3627 68.1374 75.9134C67.9454 75.5507 67.7494 75.18 67.5441 74.7947C67.5321 74.66 67.528 74.52 67.4907 74.3507C67.34 73.6947 66.9894 73.0147 66.9067 72.3547C66.8214 71.66 66.8414 70.9801 66.9107 70.3067C67.0227 69.8254 67.1094 69.3974 67.1121 69.12L67.1107 68.9454C67.1681 68.6214 67.2294 68.2947 67.2907 67.9667C67.424 67.2507 67.8454 66.0214 67.4667 65.2947C67.088 64.5694 66.492 63.972 65.8854 63.4C66.4067 61.7627 66.8934 59.3961 66.072 58.0814C65.2787 56.8121 62.2934 55.9614 60.9467 56.4547C57.0761 55.3174 58.4934 50.1987 53.7734 53.084C51.852 54.26 49.2574 56.92 50.7374 59.228C50.4787 59.2214 50.2227 59.2214 49.9654 59.2094C49.3694 59.0281 48.6641 58.9001 47.9094 58.8041C47.5774 58.7467 47.2387 58.7147 46.8947 58.696C45.008 58.5294 43.016 58.508 41.8174 58.3547C41.4054 58.224 40.9454 58.16 40.4801 58.1187C36.9574 57.4574 33.5334 56.584 29.9547 56.0854C23.7494 55.2227 15.7174 52.4027 11.3734 48.0174C10.0507 46.68 7.8387 45.3694 5.99337 44.5267L5.9627 44.4467C5.67203 43.7721 5.31736 43.4574 4.61736 43.2174C3.85869 42.9547 3.0827 43.0347 2.49337 43.588C1.72003 44.3174 2.06537 45.2787 2.06404 46.188C2.06404 46.4507 2.31871 46.5441 2.50805 46.4774C2.57738 46.6894 2.66005 46.8681 2.74939 46.9814C3.13472 47.4761 4.1507 47.8894 4.99603 48.2294C5.60003 48.828 6.26538 49.3854 6.84538 50.0147C8.49472 51.8054 10.4174 53.66 11.3694 55.9254C11.9347 57.2667 12.468 58.8174 12.8334 60.3214C12.7094 61.9374 12.5947 63.5827 13.6254 64.7294C16.0054 67.38 19.0414 64.148 21.7121 64.0507C22.0627 64.0374 22.396 64.04 22.7227 64.0507C23.0574 64.0787 23.3987 64.152 23.7467 64.32C25.1814 65.0094 26.0214 66.468 27.5574 67.0547C28.3987 67.3774 29.2587 67.6014 30.1307 67.824C31.0347 68.0534 31.82 68.4947 32.6894 68.8067C32.8294 68.8547 32.9774 68.8854 33.128 68.9067C33.5294 69.1441 33.9467 69.3721 34.368 69.5747C32.9747 69.7681 31.5827 69.9654 30.184 70.1774C28.7147 70.4014 27.368 71.1534 25.9414 71.5414C24.436 71.9521 22.9294 72.1627 21.4614 72.7161C20.28 73.1574 19.1134 73.6721 17.9534 74.1707C17.6774 74.2907 17.4187 74.4614 17.168 74.656C16.9934 74.7134 16.82 74.7694 16.656 74.832C15.5267 75.268 14.5507 75.828 13.688 76.6654C11.6587 78.6334 9.16002 80.3107 8.41869 83.1787C8.08802 84.4561 8.25071 85.9441 8.36671 87.2387C8.47337 88.4067 8.45871 89.948 8.94138 91.0507C10.112 93.736 11.52 95.992 13.824 97.7307C16.236 100.708 20.0694 104.408 24.0267 103.927C26.6134 106.173 31.6267 104.493 34.7254 104.605C39.88 104.791 44.984 103.189 50.14 103.452C56.344 103.768 62.616 104.843 68.86 104.563C70.9467 104.471 73.2294 104.472 75.2414 103.983C76.5067 103.676 77.6134 103.163 78.6827 102.587C79.6334 102.544 80.6121 102.244 81.5147 102.007C83.5254 101.476 85.6894 100.879 87.6 100.053C88.3467 99.7294 89.1267 99.5374 89.9161 99.4014C90.3161 99.4227 90.7147 99.456 91.1161 99.4947C96.0067 99.9854 102.452 102.052 106.94 99.9174C107.699 100.039 108.776 100.124 109.899 100.064C110.605 100.223 111.329 100.333 112.011 100.371C113.749 100.468 115.099 99.0987 115.564 97.5494C116.089 95.8027 114.927 94.3294 113.544 93.452V93.452ZM4.65603 43.9014L4.6587 43.9041L4.65603 43.9014ZM11.7734 55.2387C10.944 53.4734 9.58272 52.2107 8.31205 50.7627C7.83738 50.22 7.3827 49.6747 6.89737 49.152C7.6627 49.6014 8.31205 50.0894 9.04672 50.7587C10.8627 52.4174 12.4561 55.24 12.8481 57.7214C12.8934 58.004 12.9121 58.3001 12.9161 58.6081C12.5934 57.4627 12.276 56.3134 11.7734 55.2387ZM25.8667 65.192C25.5014 64.8707 25.152 64.5587 24.788 64.2801C26.9307 64.7187 28.652 65.7534 30.7027 67.264C28.9907 66.668 27.36 66.5 25.8667 65.192ZM15.352 76.32C14.8027 76.7707 14.2894 77.2467 13.832 77.7547C12.8574 78.6134 11.9547 79.5747 11.1507 80.6654C7.82136 85.1867 9.01205 90.356 11.6814 94.728C11.4934 94.5014 11.3067 94.2641 11.132 94.0121C9.33204 91.4307 8.94939 88.2507 8.91472 85.1827C8.87605 81.8414 11.0334 79.9147 13.3654 77.8414C14.112 77.1761 14.7974 76.6134 15.5627 76.1347L15.352 76.32ZM21.496 73.4054C22.252 73.1147 23.0147 72.8507 23.8121 72.656C24.1547 72.5707 24.4947 72.4947 24.836 72.42C23.704 72.6974 22.5854 73.0201 21.496 73.4054V73.4054ZM33.056 71.0121C30.7374 71.1041 28.5147 71.5814 26.2507 72.092C26.744 71.9654 27.236 71.8214 27.7227 71.6387C28.9774 71.1707 30.132 70.8267 31.4587 70.632C32.8267 70.4334 34.1894 70.2414 35.5534 70.0547C36.3347 70.312 37.0827 70.42 37.6947 70.256L37.9507 70.1694L37.6947 70.256C36.0947 70.8134 34.8467 70.9427 33.056 71.0121ZM66.52 73.4374L66.4294 73.1814L66.4147 73.0174L66.4894 73.2374L66.5787 73.5014L66.52 73.4374ZM66.8 67.0387C66.4987 66.1427 66.0267 65.3774 65.5894 64.2627L65.652 64.088C66.4187 64.8774 66.9774 65.7121 66.8 67.0387ZM76.9761 86.3227C76.4907 85.584 76.0334 84.8267 75.5107 84.3054L75.1747 83.9867L75.1147 83.9134L75.4267 84.0894C76.3467 84.6214 76.7747 85.6307 77.296 86.4987C77.44 86.7387 77.6107 86.9574 77.796 87.1627C77.508 86.9027 77.2347 86.6187 76.9761 86.3227V86.3227ZM86.6013 82.2547C86.7933 82.256 86.9841 82.2761 87.1774 82.2827C87.0161 82.3721 86.8521 82.4587 86.6827 82.5361L86.5974 82.4867L86.6013 82.2547ZM86.34 99.8334C85.2547 100.201 84.1507 100.513 83.056 100.857C82.1854 101.128 81.3241 101.391 80.4427 101.607C80.9641 101.316 81.4934 101.028 82.0441 100.763C83.7721 99.9294 85.56 99.5307 87.384 99.4094C87.032 99.5601 86.6854 99.7174 86.34 99.8334V99.8334ZM89.2187 79.664L89.1801 79.7934L89.164 79.4574L89.1494 79.396C89.2801 79.4574 89.4507 79.5974 89.6081 79.7347C89.4814 79.7094 89.3534 79.6827 89.2187 79.664V79.664ZM92.8387 80.2934C92.044 80.2107 91.2307 79.9827 90.5494 79.6427L90.4827 79.5987C90.9627 79.8014 91.452 79.9761 91.9667 80.1081C92.6467 80.2827 93.3454 80.2294 94.048 80.0947C93.6707 80.196 93.2747 80.2734 92.8387 80.2934ZM101.467 79.8974C100.701 79.776 99.9374 79.6294 99.1787 79.524C99.9974 79.608 100.815 79.7241 101.633 79.8067L101.467 79.8974ZM102.785 80.068L102.437 80.032L102.701 79.8787L103.02 79.8894L102.785 80.068ZM103.48 79.5067L103.743 79.4027C103.892 79.3534 104.049 79.344 104.212 79.3614C103.972 79.396 103.728 79.4841 103.485 79.6067L103.48 79.5067ZM104.62 80.084C104.376 80.1094 104.129 80.116 103.884 80.1187C104.18 79.988 104.463 79.9521 104.695 80.0814L104.62 80.084ZM105.387 80.1134L105.348 79.7987C105.601 79.9387 105.84 80.0787 106.052 80.1734C106.535 80.3907 106.877 80.8761 107.129 81.4734C106.728 80.7761 106.183 80.2587 105.387 80.1134ZM110.316 94.2214C110.321 93.8254 110.353 93.4654 110.395 93.1187C110.931 93.14 111.48 93.236 112.065 93.452L112.213 93.5134C111.421 93.3174 110.679 93.4854 110.316 94.2214ZM114.527 98.3587C113.999 99.2934 113.148 99.6387 112.203 99.6867C113.445 99.312 114.493 98.6254 114.895 97.4414C114.821 97.7374 114.703 98.044 114.527 98.3587" fill="#8A3032"/>
</svg>
