<?xml version="1.0" encoding="UTF-8"?> <svg xmlns="http://www.w3.org/2000/svg" width="512" height="512" viewBox="0 0 512 512" fill="none"> <path d="M432 384V368C432 365.878 431.157 363.843 429.657 362.343C428.157 360.843 426.122 360 424 360C421.878 360 419.843 360.843 418.343 362.343C416.843 363.843 416 365.878 416 368V392C416 394.122 416.843 396.157 418.343 397.657C419.843 399.157 421.878 400 424 400H464C466.122 400 468.157 399.157 469.657 397.657C471.157 396.157 472 394.122 472 392C472 389.878 471.157 387.843 469.657 386.343C468.157 384.843 466.122 384 464 384H432Z" fill="white"></path> <path d="M488 344V112C487.988 101.395 483.77 91.2278 476.271 83.7289C468.772 76.23 458.605 72.0119 448 72H432V64C432 57.6348 429.471 51.5303 424.971 47.0294C420.47 42.5286 414.365 40 408 40C401.635 40 395.53 42.5286 391.029 47.0294C386.529 51.5303 384 57.6348 384 64V72H352V64C352 57.6348 349.471 51.5303 344.971 47.0294C340.47 42.5286 334.365 40 328 40C321.635 40 315.53 42.5286 311.029 47.0294C306.529 51.5303 304 57.6348 304 64V72H272V64C272 57.6348 269.471 51.5303 264.971 47.0294C260.47 42.5286 254.365 40 248 40C241.635 40 235.53 42.5286 231.029 47.0294C226.529 51.5303 224 57.6348 224 64V72H192V64C192 57.6348 189.471 51.5303 184.971 47.0294C180.47 42.5286 174.365 40 168 40C161.635 40 155.53 42.5286 151.029 47.0294C146.529 51.5303 144 57.6348 144 64V72H112V64C112 57.6348 109.471 51.5303 104.971 47.0294C100.47 42.5286 94.3652 40 88 40C81.6348 40 75.5303 42.5286 71.0294 47.0294C66.5286 51.5303 64 57.6348 64 64V72H48C37.395 72.0119 27.2278 76.23 19.7289 83.7289C12.23 91.2278 8.01191 101.395 8 112V416C8.01191 426.605 12.23 436.772 19.7289 444.271C27.2278 451.77 37.395 455.988 48 456H376V455.957C391.397 467.532 410.454 473.159 429.669 471.805C448.884 470.45 466.963 462.204 480.584 448.584C494.204 434.963 502.45 416.883 503.804 397.669C505.159 378.454 499.531 359.397 487.956 344H488ZM400 64C400 61.8783 400.843 59.8434 402.343 58.3431C403.843 56.8429 405.878 56 408 56C410.122 56 412.157 56.8429 413.657 58.3431C415.157 59.8434 416 61.8783 416 64V96C416 98.1217 415.157 100.157 413.657 101.657C412.157 103.157 410.122 104 408 104C405.878 104 403.843 103.157 402.343 101.657C400.843 100.157 400 98.1217 400 96V64ZM320 64C320 61.8783 320.843 59.8434 322.343 58.3431C323.843 56.8429 325.878 56 328 56C330.122 56 332.157 56.8429 333.657 58.3431C335.157 59.8434 336 61.8783 336 64V96C336 98.1217 335.157 100.157 333.657 101.657C332.157 103.157 330.122 104 328 104C325.878 104 323.843 103.157 322.343 101.657C320.843 100.157 320 98.1217 320 96V64ZM240 64C240 61.8783 240.843 59.8434 242.343 58.3431C243.843 56.8429 245.878 56 248 56C250.122 56 252.157 56.8429 253.657 58.3431C255.157 59.8434 256 61.8783 256 64V96C256 98.1217 255.157 100.157 253.657 101.657C252.157 103.157 250.122 104 248 104C245.878 104 243.843 103.157 242.343 101.657C240.843 100.157 240 98.1217 240 96V64ZM160 64C160 61.8783 160.843 59.8434 162.343 58.3431C163.843 56.8429 165.878 56 168 56C170.122 56 172.157 56.8429 173.657 58.3431C175.157 59.8434 176 61.8783 176 64V96C176 98.1217 175.157 100.157 173.657 101.657C172.157 103.157 170.122 104 168 104C165.878 104 163.843 103.157 162.343 101.657C160.843 100.157 160 98.1217 160 96V64ZM80 64C80 61.8783 80.8429 59.8434 82.3431 58.3431C83.8434 56.8429 85.8783 56 88 56C90.1217 56 92.1566 56.8429 93.6569 58.3431C95.1571 59.8434 96 61.8783 96 64V96C96 98.1217 95.1571 100.157 93.6569 101.657C92.1566 103.157 90.1217 104 88 104C85.8783 104 83.8434 103.157 82.3431 101.657C80.8429 100.157 80 98.1217 80 96V64ZM48 88H64V96C64 102.365 66.5286 108.47 71.0294 112.971C75.5303 117.471 81.6348 120 88 120C94.3652 120 100.47 117.471 104.971 112.971C109.471 108.47 112 102.365 112 96V88H144V96C144 102.365 146.529 108.47 151.029 112.971C155.53 117.471 161.635 120 168 120C174.365 120 180.47 117.471 184.971 112.971C189.471 108.47 192 102.365 192 96V88H224V96C224 102.365 226.529 108.47 231.029 112.971C235.53 117.471 241.635 120 248 120C254.365 120 260.47 117.471 264.971 112.971C269.471 108.47 272 102.365 272 96V88H304V96C304 102.365 306.529 108.47 311.029 112.971C315.53 117.471 321.635 120 328 120C334.365 120 340.47 117.471 344.971 112.971C349.471 108.47 352 102.365 352 96V88H384V96C384 102.365 386.529 108.47 391.029 112.971C395.53 117.471 401.635 120 408 120C414.365 120 420.47 117.471 424.971 112.971C429.471 108.47 432 102.365 432 96V88H448C454.363 88.0074 460.463 90.5384 464.962 95.0376C469.462 99.5369 471.993 105.637 472 112V136H24V112C24.0074 105.637 26.5384 99.5369 31.0376 95.0376C35.5369 90.5384 41.6371 88.0074 48 88V88ZM24 416V152H472V328.043C462.539 320.913 451.607 315.982 440 313.61V272C440 269.878 439.157 267.843 437.657 266.343C436.157 264.843 434.122 264 432 264H384C381.878 264 379.843 264.843 378.343 266.343C376.843 267.843 376 269.878 376 272V320C376 321.15 376.248 322.286 376.727 323.33C377.207 324.375 377.907 325.304 378.779 326.053C370.663 331.638 363.638 338.663 358.053 346.78C357.304 345.908 356.375 345.208 355.331 344.728C354.286 344.248 353.15 344 352 344H304C301.878 344 299.843 344.843 298.343 346.343C296.843 347.843 296 349.878 296 352V400C296 402.122 296.843 404.157 298.343 405.657C299.843 407.157 301.878 408 304 408H345.61C347.982 419.607 352.913 430.539 360.044 440H48C41.6371 439.993 35.5369 437.462 31.0376 432.962C26.5384 428.463 24.0074 422.363 24 416V416ZM392 312V280H424V312H392ZM344 392H312V360H344V392ZM424 456C411.342 456 398.968 452.246 388.444 445.214C377.919 438.182 369.716 428.186 364.872 416.492C360.028 404.797 358.76 391.929 361.23 379.514C363.699 367.099 369.795 355.696 378.745 346.745C387.696 337.795 399.099 331.699 411.514 329.23C423.929 326.76 436.797 328.028 448.492 332.872C460.186 337.716 470.182 345.919 477.214 356.444C484.246 366.968 488 379.342 488 392C487.981 408.968 481.232 425.236 469.234 437.234C457.236 449.232 440.968 455.981 424 456V456Z" fill="white"></path> <path d="M112 184H64C61.8783 184 59.8434 184.843 58.3431 186.343C56.8429 187.843 56 189.878 56 192V240C56 242.122 56.8429 244.157 58.3431 245.657C59.8434 247.157 61.8783 248 64 248H112C114.122 248 116.157 247.157 117.657 245.657C119.157 244.157 120 242.122 120 240V192C120 189.878 119.157 187.843 117.657 186.343C116.157 184.843 114.122 184 112 184ZM104 232H72V200H104V232Z" fill="white"></path> <path d="M192 184H144C141.878 184 139.843 184.843 138.343 186.343C136.843 187.843 136 189.878 136 192V240C136 242.122 136.843 244.157 138.343 245.657C139.843 247.157 141.878 248 144 248H192C194.122 248 196.157 247.157 197.657 245.657C199.157 244.157 200 242.122 200 240V192C200 189.878 199.157 187.843 197.657 186.343C196.157 184.843 194.122 184 192 184ZM184 232H152V200H184V232Z" fill="white"></path> <path d="M272 184H224C221.878 184 219.843 184.843 218.343 186.343C216.843 187.843 216 189.878 216 192V240C216 242.122 216.843 244.157 218.343 245.657C219.843 247.157 221.878 248 224 248H272C274.122 248 276.157 247.157 277.657 245.657C279.157 244.157 280 242.122 280 240V192C280 189.878 279.157 187.843 277.657 186.343C276.157 184.843 274.122 184 272 184ZM264 232H232V200H264V232Z" fill="white"></path> <path d="M304 248H352C354.122 248 356.157 247.157 357.657 245.657C359.157 244.157 360 242.122 360 240V192C360 189.878 359.157 187.843 357.657 186.343C356.157 184.843 354.122 184 352 184H304C301.878 184 299.843 184.843 298.343 186.343C296.843 187.843 296 189.878 296 192V240C296 242.122 296.843 244.157 298.343 245.657C299.843 247.157 301.878 248 304 248ZM312 200H344V232H312V200Z" fill="white"></path> <path d="M384 248H432C434.122 248 436.157 247.157 437.657 245.657C439.157 244.157 440 242.122 440 240V192C440 189.878 439.157 187.843 437.657 186.343C436.157 184.843 434.122 184 432 184H384C381.878 184 379.843 184.843 378.343 186.343C376.843 187.843 376 189.878 376 192V240C376 242.122 376.843 244.157 378.343 245.657C379.843 247.157 381.878 248 384 248ZM392 200H424V232H392V200Z" fill="white"></path> <path d="M112 264H64C61.8783 264 59.8434 264.843 58.3431 266.343C56.8429 267.843 56 269.878 56 272V320C56 322.122 56.8429 324.157 58.3431 325.657C59.8434 327.157 61.8783 328 64 328H112C114.122 328 116.157 327.157 117.657 325.657C119.157 324.157 120 322.122 120 320V272C120 269.878 119.157 267.843 117.657 266.343C116.157 264.843 114.122 264 112 264ZM104 312H72V280H104V312Z" fill="white"></path> <path d="M192 264H144C141.878 264 139.843 264.843 138.343 266.343C136.843 267.843 136 269.878 136 272V320C136 322.122 136.843 324.157 138.343 325.657C139.843 327.157 141.878 328 144 328H192C194.122 328 196.157 327.157 197.657 325.657C199.157 324.157 200 322.122 200 320V272C200 269.878 199.157 267.843 197.657 266.343C196.157 264.843 194.122 264 192 264ZM184 312H152V280H184V312Z" fill="white"></path> <path d="M272 264H224C221.878 264 219.843 264.843 218.343 266.343C216.843 267.843 216 269.878 216 272V320C216 322.122 216.843 324.157 218.343 325.657C219.843 327.157 221.878 328 224 328H272C274.122 328 276.157 327.157 277.657 325.657C279.157 324.157 280 322.122 280 320V272C280 269.878 279.157 267.843 277.657 266.343C276.157 264.843 274.122 264 272 264ZM264 312H232V280H264V312Z" fill="white"></path> <path d="M304 328H352C354.122 328 356.157 327.157 357.657 325.657C359.157 324.157 360 322.122 360 320V272C360 269.878 359.157 267.843 357.657 266.343C356.157 264.843 354.122 264 352 264H304C301.878 264 299.843 264.843 298.343 266.343C296.843 267.843 296 269.878 296 272V320C296 322.122 296.843 324.157 298.343 325.657C299.843 327.157 301.878 328 304 328ZM312 280H344V312H312V280Z" fill="white"></path> <path d="M112 344H64C61.8783 344 59.8434 344.843 58.3431 346.343C56.8429 347.843 56 349.878 56 352V400C56 402.122 56.8429 404.157 58.3431 405.657C59.8434 407.157 61.8783 408 64 408H112C114.122 408 116.157 407.157 117.657 405.657C119.157 404.157 120 402.122 120 400V352C120 349.878 119.157 347.843 117.657 346.343C116.157 344.843 114.122 344 112 344ZM104 392H72V360H104V392Z" fill="white"></path> <path d="M192 344H144C141.878 344 139.843 344.843 138.343 346.343C136.843 347.843 136 349.878 136 352V400C136 402.122 136.843 404.157 138.343 405.657C139.843 407.157 141.878 408 144 408H192C194.122 408 196.157 407.157 197.657 405.657C199.157 404.157 200 402.122 200 400V352C200 349.878 199.157 347.843 197.657 346.343C196.157 344.843 194.122 344 192 344ZM184 392H152V360H184V392Z" fill="white"></path> <path d="M272 344H224C221.878 344 219.843 344.843 218.343 346.343C216.843 347.843 216 349.878 216 352V400C216 402.122 216.843 404.157 218.343 405.657C219.843 407.157 221.878 408 224 408H272C274.122 408 276.157 407.157 277.657 405.657C279.157 404.157 280 402.122 280 400V352C280 349.878 279.157 347.843 277.657 346.343C276.157 344.843 274.122 344 272 344ZM264 392H232V360H264V392Z" fill="white"></path> </svg> 