<svg viewBox="0 0 174 127" fill="none" xmlns="http://www.w3.org/2000/svg">
<path d="M143.269 47.2187C142.787 45.5041 142.575 43.7681 142.4 41.9987C142.101 38.9494 141.347 36.2667 139.957 33.5334C139.809 33.2441 139.657 32.9574 139.504 32.6721C139.477 32.5294 139.447 32.388 139.409 32.248C139.155 31.2654 138.543 30.4267 137.86 29.6827L137.835 29.64C137.168 28.412 136.619 27.1334 135.736 26.0361C134.151 24.0641 132.041 22.6734 130.04 21.1654C127.595 19.3267 125.771 17.0041 123.897 14.6161C122.133 12.3667 119.731 10.516 117.255 9.10136C116.297 8.55602 115.288 8.07205 114.252 7.63071C114.001 7.50405 113.741 7.3854 113.461 7.28273C113.335 7.23606 113.211 7.1907 113.081 7.1507C111.707 6.6027 110.307 6.10937 108.953 5.6147C107.468 5.07337 105.993 4.47741 104.485 3.99608C102.987 3.51608 101.417 3.25341 99.872 2.95741L99.5387 2.80806C98.356 2.24273 97.092 0.825408 95.68 1.05474L95.692 1.14269C96.7654 1.07069 97.7054 2.04936 98.5667 2.67603C95.9147 2.03069 93.3787 1.01336 90.684 0.506691C87.5067 -0.0906424 84.3254 0.0907332 81.1187 0.318733C80.6827 0.348067 80.2507 0.37475 79.8147 0.39875C79.5933 0.393417 79.3747 0.38407 79.1547 0.382736C78.22 0.373403 77.2814 0.41872 76.3387 0.505386L76.2587 0.506691C74.6507 0.521358 73.1387 0.900049 71.5827 1.26672C71.42 1.30405 71.2613 1.35069 71.1067 1.40135C70.8093 1.47069 70.5147 1.54404 70.22 1.62004C68.7653 1.99871 67.2814 2.25203 65.8827 2.8147C64.492 3.3747 63.1387 4.06671 61.7774 4.69471C58.8174 6.05738 56.0213 7.77604 53.368 9.66138C52.2653 10.444 51.1467 11.2454 50.168 12.1827C49.7173 12.6147 49.3174 13.1001 48.916 13.5774C48.4227 14.1667 47.7774 14.5707 47.18 15.04C46.0054 15.9587 45.0413 17.1454 44.048 18.2507C42.9427 19.4787 41.7507 20.632 40.6667 21.8787C39.7427 22.9387 38.8534 23.9694 37.7974 24.9014C36.7827 25.7987 36.3027 26.9987 35.5947 28.1241C34.8467 29.3134 33.968 30.3721 33.308 31.6241C32.624 32.9267 32.1534 34.3187 31.6214 35.6854C31.0454 37.1641 30.1933 38.464 29.376 39.812C28.7453 40.856 28.5241 41.9974 28.3601 43.1881C27.9427 46.2067 26.856 49.0721 26.1107 52.0134C25.3227 55.1254 25.4027 58.2201 25.428 61.4081C25.4547 64.8827 25.5614 68.3574 25.9027 71.8187C26.1787 74.6241 26.5854 77.2961 27.908 79.8134C29.0787 82.0427 30.796 83.964 32.5027 85.792C33.0387 86.3654 33.576 86.9374 34.1107 87.512L34.184 87.6747C34.812 89.0067 35.6894 90.2227 36.4494 91.4827C37.308 92.9067 38.0587 94.3747 39.008 95.7494C39.816 96.9214 40.7373 98 41.704 99.0454C42.7693 100.197 43.7 101.449 44.74 102.623C45.6867 103.689 46.8827 104.476 48.0467 105.287C49.4627 106.273 50.9121 107.208 52.3934 108.092C55.1961 109.761 58.292 110.784 61.0587 112.503C62.24 113.237 63.4147 113.817 64.7694 114.157C66.208 114.52 67.7094 114.569 69.1827 114.676C69.4734 114.697 69.764 114.727 70.0533 114.757C70.3133 114.9 70.5747 115.04 70.8467 115.171C72.248 115.836 73.8481 115.817 75.2961 116.34C76.5707 116.799 77.5907 117.507 78.9934 117.532C79.7067 117.545 80.4333 117.341 81.1453 117.301C81.9853 117.257 82.832 117.325 83.672 117.336C86.9254 117.384 89.964 116.531 93.0974 115.777C94.6707 115.399 96.2507 115.023 97.8427 114.729C99.48 114.432 100.985 114.147 102.528 113.497C105.333 112.315 108.413 111.853 111.301 110.883C112.611 110.444 113.891 109.92 115.137 109.324C116.577 108.636 117.872 107.705 119.292 106.983C120.657 106.288 121.852 105.513 123.079 104.603C124.271 103.717 125.553 102.972 126.729 102.063C128.649 100.579 130.321 98.8174 131.667 96.8067C134.965 92.688 136.852 87.4214 138.193 82.4161C138.599 80.9067 139.096 79.4187 139.472 77.904C139.675 77.0867 139.779 76.2588 139.869 75.4321C140.448 73.8281 141.123 72.2627 141.781 70.6467C144.185 64.7454 144.951 57.8014 144.275 51.476C144.119 50.024 143.663 48.6187 143.269 47.2187ZM139.656 35.4787C140.396 37.1694 140.957 38.9174 141.195 40.8307C141.275 41.4907 141.339 42.1507 141.407 42.8107C141.052 40.7294 140.844 38.6587 139.651 36.84L139.645 36.6334C139.641 36.2454 139.648 35.8627 139.656 35.4787ZM138.853 48.3894C138.583 47.5654 138.283 46.7574 137.96 45.9747C137.368 44.5334 137.091 42.9921 136.619 41.5107C136.128 39.9734 135.545 38.4174 134.808 36.9801C134.167 35.7307 133.223 34.6427 132.388 33.5214C131.591 32.4481 130.981 31.2627 130.208 30.1787C130.159 30.0414 130.109 29.9067 130.063 29.7641C129.681 28.5881 128.991 27.7734 128.187 26.8601C127.115 25.6454 126.299 24.2267 125.139 23.084C124.993 22.9427 124.847 22.8027 124.701 22.6667L124.463 22.3267L124.447 22.3054C125.744 22.9081 127.015 23.5574 128.243 24.292C128.409 24.392 128.579 24.488 128.751 24.5787C129.259 25.4067 129.72 26.268 130.241 27.0867C130.967 28.224 131.849 29.1547 132.919 29.9734L133.009 30.0427L133.056 30.1307C133.872 31.584 135.035 32.9041 136.048 34.2241C136.464 34.7654 136.888 35.2987 137.308 35.8374C138.009 37.7027 138.353 39.7214 138.52 41.6801C138.633 43.0507 138.568 44.4241 138.631 45.7974C138.669 46.6641 138.764 47.5254 138.853 48.3894ZM138.308 58.3441C138.364 57.3907 138.384 56.4241 138.373 55.4387C138.364 54.4721 138.38 53.5067 138.384 52.5454C138.541 53.356 138.652 54.1734 138.728 54.9961C138.701 55.2481 138.676 55.4987 138.655 55.7507C138.505 57.5254 138.543 59.3054 138.38 61.0814V61.0988C138.345 61.2374 138.308 61.3774 138.268 61.5161C138.299 60.7614 138.319 60.004 138.319 59.2427C138.319 58.9414 138.313 58.6427 138.308 58.3441ZM137.944 70.1081L138.008 69.8707C137.997 70.2334 137.983 70.5974 137.959 70.9614C137.872 72.1921 137.549 73.4374 137.287 74.6654C137.216 74.8254 137.143 74.988 137.069 75.148L137.093 74.9134C137.26 73.2774 137.523 71.6987 137.944 70.1081ZM137.169 48.1988L137.207 48.3107L137.225 48.4547L137.169 48.1988ZM137.851 66.3094C137.872 66.1494 137.893 65.9894 137.913 65.828L137.968 65.6641C137.944 65.8174 137.919 65.9694 137.891 66.1214L137.851 66.3094ZM135.235 79.1307C134.917 79.8694 134.605 80.6107 134.289 81.3507C133.772 82.3214 133.184 83.2534 132.687 84.2307C132.381 84.8321 132.145 85.4507 131.901 86.0601L131.916 85.7947C132.353 84.6174 132.749 83.4267 133.116 82.2241C134.271 79.8147 135.247 77.3054 136.033 74.7134C135.857 76.2054 135.679 77.6947 135.235 79.1307ZM135.673 80.9641C135.187 82.1787 134.559 83.2934 133.845 84.3574C134.029 83.9774 134.224 83.6014 134.439 83.2281C134.873 82.4814 135.299 81.7361 135.673 80.9641ZM96.9667 111.155C97.2507 111.091 97.5307 111.02 97.812 110.953C100.259 110.489 102.625 109.783 104.987 108.929C105.555 108.724 106.128 108.549 106.704 108.391L106.396 108.557C106.012 108.671 105.629 108.785 105.245 108.905C103.801 109.356 102.417 109.972 100.98 110.437C99.6854 110.855 98.324 111.041 96.9667 111.155ZM99.6867 111.589C97.1387 112.223 94.4227 112.256 91.8134 112.317C92.1254 112.275 92.4387 112.233 92.7547 112.2C94.3974 112.027 96.0613 112.071 97.7093 111.912C98.3813 111.848 99.0374 111.733 99.6867 111.589ZM96.452 7.21606C97.2294 7.33073 98.0053 7.45738 98.776 7.63338C99.4467 7.78672 100.052 8.02406 100.633 8.30539C99.2627 7.88939 97.8667 7.5254 96.452 7.21606ZM106.433 9.8214C106.307 9.76407 106.18 9.70804 106.053 9.6507C104.6 8.99604 103.291 8.15605 101.915 7.36938C99.384 5.92405 96.1534 5.85206 93.336 5.44673C90.1587 4.99073 86.964 4.66274 83.7827 4.25741C83.5214 4.22541 83.264 4.20407 83.0093 4.18807C85.496 3.92541 87.9827 3.88272 90.508 4.06672C90.684 4.08005 90.864 4.09603 91.0427 4.10936C94.2293 4.59336 97.3787 4.9627 100.411 6.11203C103.352 7.22536 106.116 8.78807 109.2 9.4854C110.405 9.7574 111.469 10.3574 112.573 10.8814C112.244 10.8774 111.913 10.8827 111.593 10.8787C109.889 10.8627 108.425 10.352 106.803 9.92004C106.68 9.8867 106.559 9.8534 106.433 9.8214ZM85.0707 5.99341C80.4707 5.99341 76.0094 6.57603 71.752 7.67069C72.3 7.41603 72.8507 7.16672 73.404 6.93605C74.5347 6.46405 75.76 6.3894 76.968 6.34673C77.1507 6.33873 77.152 6.06138 76.968 6.06138C76.128 6.06271 75.3187 6.09605 74.516 6.23605C74.6574 6.20005 74.796 6.16404 74.9373 6.12804C76.4573 5.74804 78.0547 5.69341 79.608 5.52941C80.8987 5.39341 82.0747 5.36539 83.3 5.46672L83.5827 5.50669C83.9867 5.56002 84.3894 5.60807 84.7947 5.65474C85.7334 5.80541 86.6774 5.9347 87.6227 6.05604C86.776 6.01604 85.924 5.99341 85.0707 5.99341ZM85.4787 112.485C83.9653 112.737 82.4547 113.009 80.9494 113.287C79.4827 113.287 78.016 113.139 76.584 112.836C75.8267 112.677 75.1013 112.428 74.3813 112.161C75.2267 112.076 76.0734 111.979 76.92 111.869C79.5774 112.277 82.2987 112.491 85.0707 112.491C85.2067 112.491 85.3413 112.487 85.4787 112.485ZM68.688 8.48808C68.472 8.58408 68.2547 8.67873 68.04 8.77473C67.3493 9.00673 66.668 9.25604 65.992 9.51737C66.1187 9.43337 66.244 9.35069 66.3733 9.27069C68.3733 8.06002 70.7253 7.26137 73.0347 6.62537C71.5613 7.13737 70.1067 7.85608 68.688 8.48808ZM69.3907 110.143C68.7227 110.129 68.0534 110.111 67.3867 110.081L67.2987 110.055C66.5521 109.817 65.8214 109.533 65.0947 109.232C65.7067 109.264 66.3134 109.287 66.9054 109.311C67.7254 109.608 68.5534 109.884 69.3907 110.143ZM110.043 11.6694L109.724 11.4734C111.004 11.7 112.321 11.532 113.608 11.7147C114.993 11.9107 115.865 13.0574 116.689 14.0694C117.644 15.2427 118.739 16.2921 119.821 17.3441C120.299 17.8094 120.816 18.2481 121.211 18.7907L121.343 19.0014C120.291 18.12 119.147 17.3401 117.92 16.6161C116.659 15.8734 115.372 15.1787 114.128 14.4067C112.737 13.54 111.423 12.5561 110.043 11.6694ZM112.811 105.12C111.901 105.708 110.972 106.263 110 106.749C109.853 106.823 109.705 106.896 109.557 106.967C108.995 107.109 108.429 107.243 107.861 107.377C109.255 106.716 110.613 105.997 111.935 105.223C112.228 105.189 112.52 105.155 112.811 105.12ZM120.288 100.117C119.605 100.568 118.897 100.987 118.217 101.428C117.011 102.207 115.843 103.047 114.66 103.869C114.427 103.908 114.193 103.944 113.957 103.979C115.116 103.229 116.241 102.433 117.337 101.599C118.331 101.121 119.319 100.635 120.288 100.117ZM113.877 106.321C115.087 105.781 116.233 105.121 117.349 104.409C118.463 104.181 119.567 103.905 120.661 103.556L120.683 103.548C118.576 104.535 116.472 105.527 114.273 106.275C113.816 106.431 113.359 106.576 112.899 106.719C113.227 106.597 113.555 106.468 113.877 106.321ZM120.668 102.455C120.424 102.532 120.181 102.601 119.939 102.673C120.565 102.241 121.189 101.808 121.819 101.387C122.103 101.2 121.955 100.8 121.701 100.756L121.915 100.611C123.113 99.7867 124.028 98.5974 125.043 97.5721C125.645 96.9627 126.22 96.3347 126.776 95.6947L126.808 95.6694L127.051 95.4747C126.908 95.7761 126.759 96.0774 126.595 96.3774C125.831 97.7627 125.188 99.3987 124.193 100.635C123.343 101.688 121.903 102.068 120.668 102.455ZM126.284 94.2427C125.44 95 124.549 95.7001 123.659 96.3601C123.16 96.7321 122.655 97.1027 122.141 97.4614C125.411 94.2907 128.276 90.7067 130.648 86.7881C130.576 87.5121 130.469 88.2201 130.232 88.9281C129.835 89.4347 129.484 89.9414 129.175 90.4894C128.233 91.7547 127.297 93.0267 126.284 94.2427ZM135.708 29.148C136.232 29.7307 136.771 30.2401 137.239 30.7907C137.417 31.1241 137.6 31.4614 137.787 31.7961C138.004 32.1854 138.216 32.5734 138.424 32.9627C138.536 33.4001 138.591 33.8601 138.615 34.3294C137.793 32.5601 136.577 31.012 135.003 29.8094C134.623 29.5187 134.251 29.2427 133.891 28.9627C133.259 27.8467 132.673 26.8974 131.668 26.04L131.403 25.7907C131.707 25.9227 132.012 26.0534 132.317 26.1961C133.745 26.8601 134.68 28.0027 135.708 29.148ZM126.921 19.9587C128.764 21.8174 131.055 23.1467 133.043 24.8347C133.443 25.1734 133.804 25.5334 134.141 25.9094C132.989 25.1094 131.677 24.6654 130.393 24.1067C130.225 24.0334 130.06 23.9547 129.893 23.8747C129.644 23.4614 129.381 23.0521 129.091 22.6628L129.057 22.6187C128.969 22.4867 128.88 22.3574 128.789 22.2294C128.005 21.1161 127.087 20.1121 126.111 19.1574C125.793 18.7854 125.472 18.42 125.144 18.0614C125.043 17.8894 124.937 17.7187 124.836 17.548C125.496 18.3814 126.172 19.204 126.921 19.9587ZM124.747 19.7281C124.933 19.9001 125.117 20.072 125.3 20.2454C125.697 20.7094 126.091 21.1747 126.487 21.6414C126.616 21.8187 126.745 21.9934 126.877 22.168C126.755 22.1027 126.633 22.036 126.511 21.9734C125.271 21.34 124 20.7774 122.732 20.2081L122.611 19.8641C122.229 18.6121 121.645 17.8707 120.7 16.9827C119.6 15.9481 118.505 14.9027 117.503 13.7707C117.143 13.364 116.801 12.9467 116.44 12.556C116.941 12.8307 117.429 13.1521 117.908 13.5627C118.848 14.3761 119.812 15.1387 120.761 15.9107C122.104 17.1747 123.396 18.5014 124.747 19.7281ZM66.7254 3.16138C67.24 2.96271 67.7787 2.79606 68.3294 2.64406C68.1467 2.72806 67.9627 2.80807 67.776 2.88274C66.3547 3.44407 64.9814 4.03074 63.5867 4.66274C63.056 4.90274 62.5107 5.10271 61.964 5.29738C63.5254 4.50005 65.1214 3.78004 66.7254 3.16138ZM50.4013 14.0294C51.3467 12.9121 52.5441 12.0667 53.6907 11.1747C54.9747 10.1774 56.2214 9.14936 57.6774 8.40936C60.448 7.00003 63.368 6.04671 66.176 4.73071C67.4627 4.12805 68.7907 3.73339 70.0587 3.07206C71.5254 2.30673 73.4787 1.91069 75.1187 1.74269C76.7 1.58269 78.3174 1.68404 79.9054 1.59204C81.6667 1.48937 83.4213 1.33473 85.184 1.28007C88.4587 1.18007 91.6827 1.74137 94.7707 2.82271C97.724 3.85871 100.816 4.17739 103.823 5.00806C104.199 5.11206 104.575 5.22406 104.952 5.34139C105.709 5.59873 106.467 5.86272 107.221 6.13338C107.395 6.19472 107.568 6.2534 107.74 6.31073C109.508 6.97606 111.257 7.71337 112.98 8.4147C114.18 8.9027 115.327 9.43475 116.428 10.0321C117.383 10.9681 118.349 11.8294 119.435 12.6214C120.673 13.5294 121.781 14.452 122.707 15.684C121.773 14.876 120.8 14.116 119.813 13.376C118.765 12.588 117.86 11.6734 116.689 11.0881C116.169 10.7561 115.637 10.4387 115.081 10.1441C113.765 9.44672 112.389 8.86536 111.072 8.16802C109.656 7.42002 108.249 6.67469 106.751 6.10402C105.376 5.58135 103.904 5.45736 102.529 4.9147C101.023 4.31603 99.4841 4.04936 97.8934 3.77069C95.8814 3.42002 93.8587 3.12141 91.828 2.92407C90.948 2.78141 90.068 2.64939 89.1774 2.57206C87.5907 2.43739 85.9787 2.5174 84.3894 2.5494C82.7254 2.58273 81.0973 2.5694 79.448 2.81873C76.2067 3.30673 73.2294 4.48274 70.1227 5.45207C68.72 5.89074 67.26 6.10937 65.8427 6.48937C64.3 6.90271 62.7947 7.4467 61.3173 8.0507C56.52 10.0187 52.272 12.9481 48.3694 16.3081C49.0694 15.5787 49.7253 14.8254 50.4013 14.0294ZM61.3373 107.637C60.292 107.235 59.2334 106.855 58.2627 106.305C56.9467 105.556 55.8641 104.439 54.8214 103.359C54.5067 103.035 54.192 102.713 53.872 102.395C56.8974 104.584 60.16 106.464 63.616 107.989C62.8494 107.907 62.0867 107.799 61.3373 107.637ZM63.048 109.544C62.6573 109.46 62.2653 109.368 61.876 109.269C61.5373 109.105 61.204 108.932 60.8774 108.748C61.0107 108.777 61.1453 108.804 61.2787 108.829C61.8707 109.065 62.4627 109.3 63.048 109.544ZM57.5214 107.601C56.4281 107.024 55.328 106.453 54.2107 105.911C53.5134 105.572 52.8574 105.189 52.2227 104.779C53.0267 105.219 53.896 105.528 54.7467 105.893C55.5987 106.261 56.348 106.796 57.1254 107.284C57.2574 107.392 57.3881 107.499 57.5214 107.601ZM61.7654 11.3534C58.2401 13.0734 54.9334 15.1707 51.8961 17.5907L51.72 17.7174C51.1347 18.1587 50.5267 18.5734 49.9227 18.9907C50.94 18.0414 51.9734 17.1067 53.0054 16.1774C55.376 14.0427 57.8493 12.1734 60.72 10.7667C61.9427 10.168 63.1934 9.6387 64.4614 9.14536C63.5334 9.84136 62.6627 10.6134 61.7654 11.3534ZM47.8214 18.4374C48.1667 18.2094 48.512 17.9827 48.852 17.7507C50.1774 16.848 51.404 15.8174 52.672 14.84C53.1454 14.4747 53.624 14.1307 54.108 13.7934C53.6614 14.1614 53.2214 14.5334 52.7867 14.9187C50.4094 17.0201 48.0841 19.1974 45.8627 21.4654C43.6614 23.7161 41.728 26.132 39.8974 28.6894C38.5747 30.5387 37.0413 32.1547 35.7813 33.9974C35.8307 33.8747 35.8734 33.7494 35.9214 33.628C37.3267 31.488 38.8081 29.3907 40.2294 27.268C42.4174 24.0027 44.9747 21.0747 47.8214 18.4374ZM30.3747 67.3081C30.4387 68.4627 30.484 69.624 30.5334 70.784C29.9134 68.3614 29.2801 65.9307 29.4601 63.4161C29.5721 61.8441 29.824 60.3121 29.7787 58.7321C29.756 57.8921 29.7147 57.0667 29.872 56.2361C30.0214 55.4441 30.2267 54.7107 30.2694 53.9001C30.352 52.3307 30.2481 50.7521 30.2214 49.1827C30.1947 47.5147 30.4374 45.8454 30.7294 44.2081L30.8013 43.8827C31.216 42.8201 31.644 41.7494 32.1013 40.6881C32.2227 40.4561 32.3454 40.2241 32.4667 39.9907C32.7934 39.3667 33.1067 38.7334 33.4134 38.0987C33.008 39.8854 32.7094 41.6974 32.4827 43.5067C32.2494 45.388 32.064 47.2827 31.928 49.184C30.8747 51.9294 30.2987 54.8414 30.0507 57.764C29.7773 60.9667 30.2 64.1161 30.3747 67.3081ZM31.6961 53.9614C31.6267 56.676 31.6681 59.3907 31.8294 62.0854C31.8494 62.4307 31.8734 62.7787 31.9 63.1254C31.8787 63.4187 31.864 63.7121 31.8614 64.0027C31.848 65.7281 32.2147 67.5241 32.3827 69.2414C32.6734 72.2027 33.4654 75.0787 34.2574 77.9361C34.4747 78.7227 34.7081 79.5067 34.9574 80.2854C35.0614 81.4774 35.2134 82.6614 35.472 83.8268C35.5254 84.0681 35.588 84.3094 35.648 84.5521C35.188 83.7694 34.7134 82.9947 34.2054 82.2454C33.7027 81.508 33.2187 80.7761 32.8321 79.9934C32.6187 79.3094 32.4 78.6281 32.18 77.9467C31.8494 75.7641 31.7414 73.5361 31.6467 71.3521C31.504 68.0547 31.172 64.7641 31.056 61.4694C30.9667 58.9494 31.1894 56.428 31.6961 53.9614ZM33.5881 45.6014C33.5027 45.76 33.4187 45.92 33.3347 46.0814C33.4613 43.4987 33.956 40.8947 34.7427 38.4574C35.2147 36.9881 35.9107 35.6054 36.7587 34.3187C37.672 32.9307 38.8854 31.7627 39.9 30.4494C41.7187 28.0947 43.416 25.7174 45.4027 23.5094C45.316 23.6747 45.2307 23.8427 45.1467 24.012C39.748 30.124 35.7334 37.4814 33.5881 45.6014ZM47.072 96.54C46.2094 95.8827 45.3841 95.2041 44.6574 94.3641C43.5041 93.0267 42.4067 91.6374 41.3214 90.2427C39.3774 87.744 37.8027 85.2694 36.6627 82.3014C36.4881 81.8467 36.3254 81.3867 36.1667 80.9267C36.1347 80.6641 36.1067 80.4001 36.08 80.1387C38.7054 86.2854 42.4547 91.8387 47.072 96.54ZM29.1134 44.1574C29.3334 42.9027 29.408 41.6867 29.9947 40.5334C30.7187 39.1134 31.6494 37.8507 32.2867 36.376C32.8574 35.0507 33.2854 33.6814 33.9107 32.3774C34.576 30.9934 35.504 29.8334 36.3467 28.5654C37.112 27.4147 37.5747 26.2534 38.6321 25.3174C39.5347 24.5174 40.3041 23.6094 41.0881 22.7027C39.6587 24.5774 38.2854 26.5227 37.0867 28.5294C36.5147 29.4867 36.0121 30.4774 35.5627 31.4881C35.0987 32.3281 34.6613 33.1827 34.2373 34.0454C32.6667 36.524 31.5107 39.1654 30.352 41.8721C29.6574 43.4894 29.0547 45.1321 28.52 46.7961C28.7507 45.9241 28.9587 45.0481 29.1134 44.1574ZM27.9294 53.6227C28.3241 51.8987 28.7507 50.1814 29.2427 48.4854C29.232 49.5227 29.2614 50.552 29.2881 51.54C29.3321 53.2094 29.1641 54.7054 28.8574 56.3414C28.5721 57.8681 28.8734 59.4987 28.736 61.0494C28.6214 62.3294 28.4374 63.5814 28.452 64.856C28.368 64.428 28.288 63.9988 28.2147 63.5654C27.6533 60.2734 27.1774 56.924 27.9294 53.6227ZM30.0881 81.3774C28.3387 78.9694 27.4867 76.4067 27.1054 73.4787C26.656 70.032 26.5267 66.5494 26.4627 63.076C26.4334 61.5534 26.3707 60.0254 26.3733 58.4988C26.412 59.1121 26.4707 59.7227 26.5387 60.3267C26.8934 63.4921 27.532 66.6347 28.3467 69.712C29.2014 72.9374 30.276 76.1001 31.336 79.2641L31.3627 79.3414C31.7107 81.1294 32.2174 82.8827 32.9747 84.5774C33.016 84.7001 33.0574 84.8214 33.1 84.9441C32.0374 83.8054 31.0041 82.6401 30.0881 81.3774ZM34.2227 84.6147C34.1107 84.2654 34.004 83.9134 33.9 83.5641C34.4894 84.4734 35.0361 85.4094 35.5987 86.3374C36.1174 87.1934 36.62 88.06 37.1414 88.9174L37.2467 89.1587C36.0827 87.7534 35.0507 86.2534 34.2227 84.6147ZM39.9961 95.1721C39.3321 94.2334 38.772 93.24 38.212 92.2454C39.1493 93.44 40.0481 94.6654 40.9214 95.9067C41.5174 96.752 42.076 97.5974 42.716 98.3894C42.8014 98.512 42.888 98.6347 42.976 98.756C41.9293 97.596 40.9001 96.4547 39.9961 95.1721ZM41.428 93.4814C40.784 92.484 40.048 91.5534 39.3467 90.5934L39.292 90.5174C38.656 89.408 38.0747 88.272 37.6173 87.056C37.472 86.672 37.34 86.2894 37.2187 85.9067C38.5694 88.552 40.5613 90.8614 42.404 93.1707C43.3733 94.3867 44.3387 95.6201 45.5321 96.6268C46.7454 97.6521 48.076 98.5374 49.304 99.5534C50.3267 100.401 51.2734 101.321 52.2027 102.256C52.76 102.944 53.336 103.615 53.9347 104.264C53.7373 104.18 53.5387 104.097 53.3387 104.012C52 103.443 51.0333 102.347 50.0813 101.289C49.1587 100.264 48.1267 99.432 47.08 98.5427C45.8227 97.4747 44.636 96.3254 43.3947 95.24C42.732 94.66 42.0734 94.0747 41.428 93.4814ZM45.1147 98.3601C46.1787 99.3361 47.356 100.196 48.3827 101.207C49.3054 102.116 50.084 103.144 51.0707 103.987C50.7107 103.727 50.3534 103.459 50 103.188C48.1174 101.535 46.2373 99.8401 44.5453 97.9988C44.3347 97.7708 44.1294 97.5348 43.9321 97.2934C44.3281 97.6494 44.7213 98.0041 45.1147 98.3601ZM67.3774 113.593C65.792 113.423 64.2707 113.057 62.8494 112.32C61.42 111.58 60.1334 110.632 58.6574 109.967C55.5894 108.584 52.724 107.096 49.9173 105.227C48.5827 104.336 47.1814 103.447 46.0187 102.337C45.4667 101.813 44.9827 101.227 44.508 100.627C46.0867 102.331 47.98 103.803 49.8614 105.105C52.8934 107.205 56.3667 108.899 59.9774 109.988C62.1494 111.165 64.3054 112.276 66.6961 113.049C67.2014 113.212 67.6707 113.428 68.1254 113.667C67.8747 113.645 67.6254 113.621 67.3774 113.593ZM71.7987 114.024C71.3241 113.956 70.848 113.904 70.372 113.857C69.4854 113.36 68.6493 112.743 67.7093 112.361C67.34 112.212 66.9707 112.071 66.6013 111.936C68.2067 112.264 69.8547 112.401 71.492 112.369C71.8867 112.479 72.2787 112.595 72.6694 112.725C74.0587 113.189 75.344 113.755 76.78 114.063C75.0414 114.377 73.5387 114.277 71.7987 114.024ZM108.584 110.679C107.195 111.077 105.791 111.42 104.388 111.761C102.795 112.145 101.375 113.009 99.7707 113.373C98.272 113.713 96.7427 113.913 95.2387 114.245C93.4974 114.628 91.7613 115.044 90.0347 115.503C88.4587 115.923 86.8627 116.192 85.2347 116.301C83.628 116.409 82.0134 116.211 80.4107 116.377C79.5774 116.464 78.872 116.629 78.0373 116.443C77.316 116.28 76.6507 115.88 75.9827 115.577C75.6067 115.408 75.2174 115.281 74.8214 115.176C75.9654 115.104 77.1133 114.835 78.212 114.611C78.5627 114.539 78.916 114.475 79.268 114.405C80.084 114.465 80.9067 114.484 81.7214 114.473C83.2374 114.455 84.7507 114.179 86.2453 113.952C88.0813 113.672 89.8854 113.611 91.736 113.575C94.9827 113.511 98.344 113.472 101.452 112.44C104.133 111.548 106.511 109.968 109.021 108.7C111.213 108.075 113.408 107.464 115.548 106.671C118.264 105.665 120.832 104.229 123.447 102.987C123.828 102.807 124.204 102.619 124.577 102.428C119.657 105.92 114.417 109.001 108.584 110.679ZM135.048 89.8881C134.943 90.1174 134.833 90.348 134.724 90.576C135.023 89.8 135.312 89.0227 135.597 88.2494C135.853 87.5494 136.14 86.852 136.433 86.1534C136.048 87.4174 135.608 88.6667 135.048 89.8881ZM139.685 70.9854C139.468 72.1307 139.256 73.2547 139.139 74.404C138.549 75.908 138.04 77.4374 137.771 79.0614C137.275 82.052 135.817 84.8374 134.776 87.6734C133.772 90.396 132.751 93.1214 131.265 95.6254C130.352 97.1654 129.195 98.5334 127.896 99.7601C126.829 100.536 125.681 101.185 124.488 101.777C125.18 101.128 125.619 100.288 126.083 99.4214C126.845 97.9934 127.683 96.5881 128.377 95.1254C128.619 94.6187 128.813 94.096 129 93.5707C129.209 93.2987 129.401 93.0134 129.571 92.7107C129.756 92.3774 129.908 92.0254 130.041 91.668C130.24 91.3827 130.427 91.0934 130.6 90.7961L130.739 90.604C132.528 88.1187 134.715 85.9321 136.14 83.1934C137.485 80.6107 138.111 77.6987 138.577 74.8467C138.773 73.6507 139.092 72.4841 139.256 71.2854C140.524 66.6774 140.609 61.7054 140.64 56.9721C140.647 56.0241 140.639 55.0747 140.62 54.1241C140.833 52.7454 141.008 51.3667 141.035 49.9707C141.068 48.3014 140.763 46.6334 140.504 44.992C140.472 44.7867 140.443 44.5814 140.416 44.376C140.967 46.6187 141.695 48.82 142.133 51.092C142.789 54.488 142.34 57.992 141.695 61.3507C141.075 64.5734 140.3 67.7614 139.685 70.9854ZM143.149 60.1907C142.868 63.5534 142.135 66.8681 140.925 70.0161C140.827 70.2707 140.725 70.524 140.625 70.776C141.129 68.3667 141.717 65.9734 142.281 63.5774C142.684 61.8601 143.048 60.1307 143.292 58.384C143.249 58.9987 143.199 59.6014 143.149 60.1907Z" fill="#F7A70F"/>
<path d="M93.6987 73.1494C94.5467 69.2734 95.02 64.9814 95.0347 60.5161C95.072 47.7534 91.3534 36.372 85.7827 32.192L85.0467 31.64L84.3067 32.1867C78.7107 36.3347 74.9254 47.6934 74.888 60.4547C74.8747 64.9201 75.3227 69.2161 76.148 73.0961C73.148 70.3907 69.5707 67.8067 65.6 65.5534C64.824 65.1134 64.0467 64.6921 63.2654 64.2907C63.8 65.3601 64.3734 66.4241 64.9827 67.4747C65.1534 67.7694 65.3267 68.0614 65.504 68.3521C70.2093 71.1574 74.3227 74.464 77.3973 77.7947C79.02 82.776 81.3467 86.6814 84.14 88.7774L84.5013 89.0494L84.516 89.0627H84.5173L84.8747 89.3294L85.2334 89.064H85.236L85.2507 89.0507L85.612 88.7827C88.42 86.7027 90.7707 82.812 92.4214 77.84C95.516 74.528 99.648 71.244 104.372 68.468C104.548 68.1773 104.725 67.8867 104.897 67.5934C105.513 66.5467 106.091 65.4867 106.633 64.4214C105.851 64.8174 105.069 65.2333 104.292 65.668C100.305 67.8987 96.7147 70.4601 93.6987 73.1494V73.1494ZM90.2373 76.5654C89.236 77.6694 88.3413 78.7814 87.564 79.8854C87.6347 80.8254 87.66 81.7321 87.6387 82.5987V82.6387C86.7987 84.0814 85.8747 85.2827 84.8827 86.1894C83.8987 85.2774 82.9827 84.0707 82.1507 82.6227V82.5827C82.1333 81.7161 82.1653 80.808 82.2427 79.8694C81.472 78.76 80.584 77.6454 79.588 76.5334C78.16 71.9174 77.3373 66.3134 77.3533 60.4627C77.388 49.2307 80.5107 38.9187 85.036 34.7801C89.54 38.9454 92.6 49.2774 92.568 60.5067C92.5493 66.3574 91.692 71.9574 90.2373 76.5654" fill="white"/>
<path d="M113.856 39.3974L112.941 39.4974C107.628 40.076 101.093 44.8654 95.4173 52.028C95.5746 53.2054 95.6987 54.408 95.788 55.6307C101.029 48.3787 107.296 43.1707 112.261 42.1027C114.048 47.972 111.479 58.4347 105.783 68.1147C101.312 75.7147 95.4813 81.864 90.2813 84.78C89.3253 86.3454 88.2733 87.676 87.1373 88.7173C93.7999 87.0307 101.932 79.5227 107.908 69.3654C114.38 58.3667 116.912 46.664 114.211 40.244L113.856 39.3974" fill="white"/>
<path d="M90.5453 59.1494C88.0733 63.3507 86.1773 67.6547 84.928 71.7294C83.7013 67.6467 81.832 63.3321 79.3827 59.1161C79.052 58.5427 78.7107 57.98 78.3653 57.4254C78.312 58.428 78.2827 59.4427 78.28 60.4641C78.2773 61.0601 78.2866 61.652 78.3013 62.24C80.992 67.2787 82.8306 72.4227 83.6586 76.9454C83.3106 78.9374 83.144 80.8267 83.1786 82.5641C83.4653 83.0321 83.7613 83.4707 84.0667 83.8814V83.8827L84.164 84.0067C84.2666 84.1387 84.3667 84.2707 84.4693 84.3947C84.6067 84.564 84.7453 84.7267 84.888 84.8801C85.0307 84.7267 85.172 84.5641 85.3093 84.3988C85.4133 84.2734 85.5147 84.144 85.616 84.012L85.7146 83.8867C86.0226 83.4787 86.3227 83.0414 86.6107 82.5721C86.656 80.8374 86.5013 78.9467 86.164 76.9534C87.02 72.4334 88.8907 67.3014 91.6107 62.2814C91.628 61.6907 91.64 61.0987 91.6426 60.5054C91.6453 59.4814 91.6227 58.4667 91.5747 57.4641C91.2253 58.0174 90.8826 58.5787 90.5453 59.1494" fill="white"/>
<path d="M79.496 84.7467C74.312 81.8 68.5187 75.6173 64.0933 67.9893C58.456 58.276 55.948 47.7986 57.7693 41.94C62.728 43.0386 68.9626 48.284 74.164 55.5667C74.26 54.3453 74.3893 53.1427 74.5533 51.9667C68.92 44.768 62.416 39.9427 57.1066 39.3294L56.192 39.224L55.832 40.0693C53.0933 46.4733 55.5547 58.192 61.96 69.2294C67.8747 79.4214 75.9626 86.9773 82.6146 88.704C81.4853 87.6573 80.4413 86.3214 79.496 84.7467" fill="white"/>
<path d="M126.845 58.7787C122.697 58.7787 117.856 59.7987 112.863 61.6734C112.429 62.7427 111.955 63.8188 111.443 64.8961C116.957 62.5454 122.357 61.2454 126.845 61.2454C128.695 61.2454 130.301 61.468 131.641 61.9067C130.221 67.876 122.724 75.6134 112.925 81.0974C105.724 85.1267 98.232 87.4988 92.236 87.6628C90.576 88.6214 88.9453 89.3187 87.3893 89.7134L87.3706 89.7187C88.6373 89.9947 90.0386 90.1387 91.5746 90.1387C98.0813 90.1387 106.303 87.628 114.128 83.2507C125.264 77.0187 133.355 68.1934 134.263 61.2867L134.383 60.3734L133.543 59.9988C131.728 59.1894 129.476 58.7787 126.845 58.7787Z" fill="white"/>
<path d="M77.5226 87.6174C71.5293 87.4174 64.0613 85.0067 56.876 80.9294C47.108 75.3867 39.656 67.604 38.2733 61.628C39.58 61.208 41.1467 60.9961 42.9387 60.9961C47.4533 60.9961 52.8947 62.328 58.452 64.7373C57.9467 63.656 57.48 62.5774 57.052 61.5054C52.0107 59.58 47.12 58.5294 42.9387 58.5294C40.372 58.5294 38.1667 58.9253 36.3827 59.7093L35.5413 60.0787L35.6547 60.992C36.52 67.9027 44.56 76.7787 55.6573 83.0747C63.5253 87.5387 71.784 90.1 78.3187 90.1H78.32C79.7973 90.1 81.1493 89.964 82.376 89.7027L82.3573 89.6987C80.8027 89.2961 79.176 88.588 77.5226 87.6174" fill="white"/>
<path d="M171.305 53.4334C169.96 53.0467 169.572 52.7454 168.509 51.8641C167.323 50.8787 166.333 50.5694 164.876 51.4254C163.497 52.2374 162.424 53.9107 160.735 53.7587C159.3 53.628 158.044 54.4734 156.64 54.668C154.92 54.9067 152.729 54.868 150.987 54.712C148.592 54.5 144.893 54.0401 142.224 54.7667C141.672 54.7107 141.131 54.6161 140.62 54.4627C140.557 53.8281 140.365 53.1267 140.223 52.6534C139.889 51.5387 140.085 50.3147 139.796 49.1787C138.868 45.532 135.975 46.6587 133.439 45.5534C133.475 43.772 130.76 43.1534 129.455 43.5414C127.656 44.0787 127.289 45.6427 127.443 47.4467C126.621 48.2161 125.291 48.2374 124.595 49.3414C123.916 50.4201 123.813 52.2147 123.813 53.4427C123.599 53.4907 123.379 53.5281 123.161 53.5654C117.789 52.6374 112.345 52.5027 106.887 53.1054C100.672 53.7907 94.3373 55.1494 88.172 53.8134C86.3027 52.6587 84.156 51.1761 82.1693 50.7907C78.516 50.0827 74.588 53.6214 71.2747 55.1787C68.588 56.4387 63.9214 55.608 61.0214 55.34C57.856 55.0467 54.6573 55.2281 51.4973 54.9054C49.472 54.6987 46.8493 53.8027 44.9253 54.5467C43.456 54.1227 42.288 52.8747 40.6613 52.4534C38.4973 51.8907 35.792 52.0374 33.5654 52.1774C28.34 52.5001 23.04 55.1174 17.944 53.6001C15.9334 51.1387 13.7894 50.5361 11.1414 53.1267C9.87335 54.3654 9.65599 54.8308 7.71466 55.2988C6.50933 55.5921 4.84267 56.3174 3.58667 56.2827C2.576 56.2534 0.410651 56.0414 0.770651 57.5214C2.04398 57.4934 2.70002 58.304 3.74402 58.8507C5.01202 59.512 6.44135 59.7761 7.83868 60.0694C11.6427 60.8707 14.8827 60.316 18.6134 59.556C20.16 59.24 21.304 59.3614 22.8307 59.5961C24.9813 59.9254 27.2466 59.7361 29.4346 59.7547C31.632 59.7707 33.7947 60.0667 35.9654 60.1907C37.4534 60.2787 40.2987 59.872 41.296 61.0147C42.9494 60.8547 44.816 62.6867 46.1867 63.4214C48.3133 64.5601 50.9534 64.8601 53.288 65.4721C56.956 66.4334 60.7854 66.6214 64.4547 67.5241C67.5667 68.2881 70.304 68.5854 73.3253 69.22C72.1907 72.5267 73.3573 77.2667 73.176 80.7427C73.0467 83.1854 73.1507 85.396 73.7547 87.7867C74.0494 88.948 74.0653 92.2974 74.7453 93.0441C74.8547 96.1974 74.3414 98.9227 75.06 102.116C75.8547 105.645 77.1547 108.724 78.6973 111.995C79.9453 114.639 81.5747 117.223 81.688 120.179C81.7547 121.979 81.092 124.987 83.1067 125.864C85.9027 127.08 88.5307 125.56 91.32 125.389C94.4173 125.2 97.372 126.284 100.305 125.073C100.673 122.447 95.036 123.008 93.3574 122.281C89.796 120.739 86.6507 117.877 85.6747 114.037C84.452 109.22 83.6813 104.303 82.3533 99.5147C81.932 97.9934 81.816 96.3281 81.844 94.7441C81.8854 92.6347 82.9947 90.8867 82.476 88.7854C83.3867 86.1414 84.02 83.2467 84.6494 80.4667C85.0934 78.5041 85.8813 76.5414 86.0706 74.5494C86.1866 73.3081 86.1507 71.6347 86.3613 70.2227C87.2213 69.324 88.5254 68.924 89.932 68.7814C91.596 68.8174 93.252 68.8854 94.9027 69.028C97.3813 69.2414 99.8014 69.8707 102.041 70.3241C104.5 69.2601 105.805 72.692 107.876 73.3254C110.612 74.164 113.275 72.452 114.809 70.3974C115.511 69.9467 116.14 69.3707 116.663 68.6494C117.525 67.4547 118.444 66.3614 119.44 65.3867C120.476 64.6214 121.612 63.9947 122.867 63.576C124.727 62.9534 126.897 63.3814 128.863 63.3814C130.095 66.2454 132.171 64.3334 134.063 63.268C136.852 61.6947 140.197 61.8747 143.221 61.6467C148.308 62.5761 153.137 59.7441 158.005 58.6881C159.724 58.3147 161.593 58.1641 163.255 58.3361C164.557 58.4734 166.288 59.5454 167.519 59.4387C169.443 59.2694 168.991 57.3574 169.847 56.2747C170.599 55.3227 172.34 55.0974 173.492 55.1534C173.855 53.8267 172.24 53.7014 171.305 53.4334V53.4334ZM86.5307 69.3654C86.5893 69.1454 86.656 68.9387 86.736 68.748C87.016 68.748 87.292 68.7494 87.572 68.7507C87.2013 68.9227 86.8507 69.1281 86.5307 69.3654ZM114.309 53.4001C116.333 53.4281 118.353 53.5587 120.363 53.8054C118.384 53.8267 116.329 53.6001 114.309 53.4001ZM140.539 55.4934C140.581 55.3827 140.604 55.256 140.62 55.1227C140.747 55.16 140.876 55.1947 141.005 55.2267C140.844 55.3081 140.687 55.3961 140.539 55.4934Z" fill="#8A3032"/>
</svg>
