<svg width="538" height="216" viewBox="0 0 538 216" fill="none" xmlns="http://www.w3.org/2000/svg">
<path d="M442.861 53.2935L432.377 59.3467V16.7202C432.377 7.72016 425.076 0.413384 416.068 0.413384H16.5067C7.50007 0.413384 0.19873 7.72016 0.19873 16.7202V199.613C0.19873 208.627 7.50007 215.92 16.5067 215.92H416.068C425.076 215.92 432.377 208.627 432.377 199.613V156.987L442.861 163.04L513.439 203.787C524.311 210.067 537.901 202.213 537.901 189.667V108.173V26.6801C537.901 14.1201 524.311 6.28005 513.439 12.5467L442.861 53.2935" fill="#8A3032"/>
<path d="M128.639 143.387C129.883 143.387 130.956 143.84 131.864 144.733C132.768 145.64 133.221 146.72 133.221 147.96V160.013C133.221 161.253 132.768 162.333 131.864 163.227C130.956 164.133 129.883 164.587 128.639 164.587H54.324C53.0773 164.587 52.004 164.133 51.1 163.227C50.1947 162.333 49.744 161.253 49.744 160.013V50.4001C49.744 49.1601 50.1947 48.0801 51.1 47.1734C52.004 46.2801 53.0773 45.8268 54.324 45.8268H68.0667C69.3107 45.8268 70.384 46.2801 71.2907 47.1734C72.1947 48.0801 72.648 49.1601 72.648 50.4001V143.387H128.639" fill="white"/>
<path d="M154.089 164.587C152.843 164.587 151.769 164.133 150.864 163.227C149.96 162.333 149.508 161.253 149.508 160.013V50.4001C149.508 49.1601 149.96 48.0801 150.864 47.1734C151.769 46.2801 152.843 45.8268 154.089 45.8268H167.832C169.076 45.8268 170.149 46.2801 171.056 47.1734C171.96 48.0801 172.413 49.1601 172.413 50.4001V160.013C172.413 161.253 171.96 162.333 171.056 163.227C170.149 164.133 169.076 164.587 167.832 164.587H154.089Z" fill="white"/>
<path d="M241.976 131L270.481 50.0667C270.82 49.1601 271.415 48.2267 272.263 47.2667C273.111 46.3067 274.384 45.8268 276.08 45.8268H288.975C290.219 45.8268 291.292 46.2801 292.2 47.1734C293.104 48.0801 293.556 49.1601 293.556 50.4001C293.556 50.6267 293.556 50.8267 293.556 51.0001C293.556 51.1601 293.441 51.5334 293.217 52.0934L255.211 158.827C254.532 160.747 253.74 162.187 252.835 163.147C251.928 164.107 250.572 164.587 248.764 164.587H235.189C233.379 164.587 232.021 164.107 231.117 163.147C230.211 162.187 229.421 160.747 228.743 158.827L190.737 52.0934C190.508 51.5334 190.397 51.1601 190.397 51.0001C190.397 50.8267 190.397 50.6267 190.397 50.4001C190.397 49.1601 190.847 48.0801 191.753 47.1734C192.657 46.2801 193.732 45.8268 194.979 45.8268H207.873C209.569 45.8268 210.841 46.3067 211.691 47.2667C212.54 48.2267 213.132 49.1601 213.472 50.0667L241.976 131" fill="white"/>
<path d="M390.605 143.387C391.848 143.387 392.921 143.84 393.829 144.733C394.733 145.64 395.185 146.72 395.185 147.96V160.013C395.185 161.253 394.733 162.333 393.829 163.227C392.921 164.133 391.848 164.587 390.605 164.587H316.12C314.873 164.587 313.8 164.133 312.896 163.227C311.991 162.333 311.539 161.253 311.539 160.013V50.4001C311.539 49.1601 311.991 48.0801 312.896 47.1734C313.8 46.2801 314.873 45.8268 316.12 45.8268H389.248C390.492 45.8268 391.565 46.2801 392.471 47.1734C393.375 48.0801 393.829 49.1601 393.829 50.4001V62.4535C393.829 63.6935 393.375 64.7734 392.471 65.6667C391.565 66.5734 390.492 67.0268 389.248 67.0268H334.444V94.0134H385.516C386.757 94.0134 387.832 94.4668 388.739 95.3601C389.643 96.2668 390.095 97.3468 390.095 98.5868V110.64C390.095 111.88 389.643 112.96 388.739 113.853C387.832 114.76 386.757 115.213 385.516 115.213H334.444V143.387H390.605" fill="white"/>
</svg>
