<svg viewBox="0 0 106 104" fill="none" xmlns="http://www.w3.org/2000/svg">
<path d="M105.269 45.9001C105.133 44.6241 104.731 43.3894 104.385 42.1601C103.961 40.6494 103.776 39.1241 103.621 37.5694C103.359 34.8881 102.695 32.5307 101.473 30.1281C101.344 29.8734 101.211 29.6214 101.076 29.3707C101.052 29.2454 101.025 29.1214 100.992 28.9974C100.768 28.1334 100.231 27.396 99.628 26.7427L99.608 26.7027C99.0213 25.6241 98.5374 24.5 97.7627 23.5347C96.368 21.8014 94.5133 20.5774 92.7533 19.2548C90.6053 17.6374 89.0014 15.5948 87.3547 13.4934C85.804 11.5188 83.6907 9.88942 81.5147 8.64675C80.672 8.16675 79.784 7.74273 78.8747 7.35339C78.6547 7.24273 78.4253 7.13875 78.1773 7.04675L77.8453 6.93074C76.6346 6.45074 75.4054 6.01609 74.216 5.58275C72.9094 5.10409 71.612 4.58143 70.288 4.15743C68.968 3.73476 67.5907 3.50538 66.2307 3.24538L65.9387 3.11472C64.9 2.61739 63.788 1.37074 62.5467 1.57208L62.5573 1.64942C63.5 1.58542 64.3267 2.4481 65.084 2.99877C62.752 2.43077 60.524 1.5374 58.1547 1.09206C55.36 0.566731 52.564 0.725429 49.744 0.924095C49.3613 0.952095 48.9787 0.974733 48.5987 0.994733C48.404 0.9894 48.2107 0.984054 48.016 0.981387C47.196 0.972054 46.368 1.0121 45.5427 1.09076L45.472 1.09206C44.0573 1.10273 42.728 1.43743 41.3613 1.7601C41.2187 1.7921 41.0787 1.83338 40.9427 1.87605C40.68 1.93872 40.42 2.00271 40.1627 2.07071C38.884 2.40138 37.5787 2.62409 36.3494 3.11876C35.1267 3.61342 33.9373 4.22141 32.7387 4.77208C30.136 5.97074 27.68 7.48141 25.3467 9.13874C24.376 9.82808 23.3947 10.5321 22.5333 11.3561C22.1373 11.7361 21.7853 12.1628 21.4333 12.5828C20.9987 13.0988 20.4307 13.456 19.904 13.868C18.8747 14.6747 18.024 15.7201 17.152 16.6908C16.1787 17.7708 15.1333 18.7854 14.1787 19.8814C13.368 20.8121 12.584 21.7174 11.6573 22.5387C10.7653 23.3281 10.3413 24.3827 9.72132 25.3721C9.06266 26.4174 8.28934 27.3481 7.71068 28.4481C7.10934 29.5947 6.69466 30.8174 6.228 32.0201C5.72133 33.3201 4.97199 34.4627 4.25332 35.6481C3.69865 36.5654 3.50399 37.5668 3.35999 38.6161C2.99333 41.2694 2.03868 43.7867 1.38268 46.3721C0.689349 49.1081 0.760016 51.8321 0.782682 54.6321C0.804016 57.6881 0.9 60.7441 1.2 63.7854C1.44133 66.2521 1.8 68.6001 2.96266 70.8161C3.992 72.7761 5.5 74.4641 7.00267 76.0694C7.47467 76.5761 7.94535 77.0801 8.41468 77.5841L8.47868 77.7254C9.03201 78.8987 9.80267 79.9654 10.472 81.0748C11.228 82.3268 11.888 83.6174 12.72 84.8254C13.432 85.8561 14.2427 86.8054 15.092 87.7241C16.028 88.7361 16.8467 89.8374 17.7613 90.868C18.5933 91.8067 19.644 92.4987 20.6667 93.2094C21.9107 94.0787 23.188 94.9001 24.4907 95.6761C26.952 97.1441 29.676 98.0441 32.1067 99.5548C33.1467 100.2 34.18 100.711 35.3693 101.011C36.6347 101.328 37.956 101.372 39.2494 101.467C39.5054 101.485 39.76 101.511 40.016 101.535C40.2427 101.663 40.4747 101.787 40.7133 101.899C41.9453 102.484 43.352 102.469 44.624 102.928C45.7467 103.332 46.6427 103.953 47.876 103.976C48.5027 103.988 49.1427 103.807 49.768 103.775C50.5067 103.735 51.2507 103.793 51.9893 103.804C54.8493 103.847 57.5213 103.097 60.276 102.433C61.6573 102.101 63.048 101.769 64.4467 101.513C65.8853 101.251 67.2093 101.001 68.5667 100.428C71.0333 99.3907 73.7413 98.9841 76.2813 98.1321C77.432 97.7441 78.5573 97.2854 79.6533 96.7614C80.9187 96.1561 82.0573 95.3374 83.3053 94.7027C84.5067 94.0907 85.5546 93.4108 86.6346 92.6081C87.6813 91.8321 88.8093 91.1761 89.8426 90.3774C91.5306 89.0708 93.0027 87.5214 94.1827 85.7561C97.0854 82.1334 98.7427 77.504 99.9227 73.104C100.277 71.7747 100.716 70.4681 101.047 69.1361C101.225 68.4174 101.317 67.6907 101.397 66.9614C101.905 65.5534 102.499 64.1774 103.077 62.7574C105.189 57.5668 105.864 51.4614 105.269 45.9001V45.9001ZM100.755 66.0587C100.236 67.3814 99.788 68.7281 99.552 70.1548C99.116 72.7841 97.8347 75.2321 96.9173 77.7241C96.036 80.1201 95.1374 82.5134 93.832 84.7161C93.0294 86.0694 92.012 87.2734 90.868 88.3507C89.932 89.0347 88.9226 89.6054 87.8733 90.1241C88.4826 89.5534 88.868 88.8174 89.276 88.0534C89.9453 86.7974 90.6814 85.5614 91.2934 84.2761C91.5054 83.8307 91.676 83.3721 91.84 82.9108C92.024 82.6721 92.1933 82.4214 92.3426 82.1548C92.5053 81.8614 92.6373 81.5534 92.756 81.2374C92.9307 80.9867 93.0934 80.7307 93.2467 80.4707L93.368 80.3027C94.9413 78.1161 96.864 76.1947 98.1187 73.7867C99.3 71.5147 99.8494 68.9548 100.26 66.4494C100.431 65.3961 100.713 64.3721 100.857 63.3188C101.972 59.2668 102.048 54.896 102.075 50.7347C102.079 49.9 102.072 49.0641 102.057 48.2307C102.241 47.0187 102.397 45.8067 102.421 44.5787C102.449 43.1107 102.181 41.6454 101.953 40.2014C101.925 40.0214 101.9 39.8401 101.876 39.6587C102.361 41.6307 103.001 43.5681 103.387 45.5654C103.964 48.5481 103.568 51.6307 103.001 54.5841C102.455 57.4174 101.775 60.2201 101.236 63.0548C101.044 64.0614 100.856 65.0481 100.755 66.0587V66.0587ZM41.5507 100.892C41.1333 100.832 40.7147 100.785 40.296 100.747C39.5173 100.309 38.78 99.7667 37.956 99.4307C37.6307 99.2987 37.3067 99.1761 36.9813 99.0561C38.3933 99.3441 39.8413 99.4654 41.2813 99.4374C41.628 99.5347 41.972 99.6374 42.3147 99.7507C43.5373 100.157 44.668 100.655 45.928 100.927C44.4013 101.203 43.0787 101.115 41.5507 100.892V100.892ZM2.98268 47.7894C3.32802 46.2721 3.70133 44.7641 4.13467 43.2721C4.12667 44.1854 4.15334 45.0894 4.17734 45.9574C4.21468 47.4254 4.06533 48.7401 3.79733 50.1774C3.54666 51.5214 3.81199 52.9561 3.69066 54.3188C3.59066 55.4441 3.42934 56.5454 3.44134 57.6654C3.36801 57.2881 3.29733 56.9107 3.23066 56.5307C2.73733 53.6361 2.32002 50.6907 2.98268 47.7894ZM97.7373 26.2721C98.1973 26.7854 98.6707 27.2294 99.0827 27.7161C99.2414 28.0094 99.4013 28.3041 99.564 28.5988C99.7547 28.9428 99.944 29.2841 100.125 29.6254C100.224 30.0094 100.273 30.4148 100.293 30.8268C99.572 29.2708 98.5014 27.9107 97.1187 26.8534C96.784 26.5987 96.456 26.3547 96.14 26.1094C95.584 25.128 95.0707 24.2934 94.1867 23.5387L93.952 23.3201C94.22 23.4347 94.4894 23.552 94.7547 23.676C96.0134 24.26 96.8333 25.2654 97.7373 26.2721ZM84.5134 90.7214C84.3 90.7894 84.088 90.8508 83.8747 90.9134C84.424 90.5321 84.9734 90.1521 85.5267 89.7828C85.7747 89.6174 85.644 89.2667 85.4227 89.2254L85.6107 89.1001C86.6653 88.3747 87.4693 87.3308 88.3613 86.4294C88.892 85.8921 89.396 85.3401 89.8854 84.7774L89.9134 84.7561L90.1267 84.5841C90.0014 84.8494 89.8693 85.1148 89.7253 85.3774C89.0547 86.5961 88.488 88.0348 87.6134 89.1188C86.8667 90.0481 85.6 90.3814 84.5134 90.7214V90.7214ZM22.3867 91.3667C20.7293 89.9121 19.0787 88.4227 17.5907 86.804C17.404 86.6014 17.2253 86.3947 17.0507 86.1841C17.3987 86.4961 17.7453 86.8081 18.088 87.1214C19.0267 87.9774 20.06 88.7334 20.9627 89.6241C21.7733 90.4241 22.46 91.3267 23.3267 92.068C23.0107 91.8387 22.6973 91.6041 22.3867 91.3667ZM8.51468 75.0361C8.41601 74.7294 8.32266 74.4201 8.23066 74.1121C8.74666 74.9121 9.23066 75.7347 9.72399 76.5507C10.1787 77.3041 10.6227 78.0654 11.0787 78.8188L11.1733 79.0321C10.1507 77.7961 9.24268 76.4774 8.51468 75.0361V75.0361ZM4.32666 56.3988C4.42666 55.0161 4.64667 53.6708 4.60801 52.2801C4.58801 51.5414 4.55199 50.8174 4.68932 50.0867C4.82132 49.3907 5.00134 48.7441 5.03867 48.0334C5.11067 46.6534 5.02 45.2654 4.99733 43.8854C4.97333 42.4201 5.18668 40.9521 5.44268 39.5134L5.50667 39.2254C5.87201 38.2921 6.24802 37.3507 6.64935 36.4174C6.75602 36.2147 6.864 36.0081 6.97067 35.8054C7.25734 35.2547 7.53334 34.7001 7.80267 34.1414C7.44534 35.7107 7.18265 37.3054 6.98532 38.8947C6.77999 40.5494 6.616 42.2161 6.496 43.8867C5.57066 46.3001 5.06401 48.8614 4.84535 51.4307C4.60535 54.2467 4.97733 57.0148 5.132 59.8214C5.18667 60.8361 5.22667 61.8547 5.27067 62.8761C4.72534 60.7467 4.16933 58.6094 4.32666 56.3988ZM84.5973 14.6334C85.7773 15.7441 86.9133 16.9107 88.1 17.9894C88.2653 18.1387 88.4267 18.2921 88.5854 18.4454C88.9347 18.8534 89.284 19.2627 89.632 19.6734C89.744 19.828 89.8587 19.9814 89.9747 20.1347L89.652 19.9628C88.5627 19.4081 87.444 18.9121 86.3294 18.4121L86.2214 18.1094C85.8867 17.0067 85.3747 16.356 84.544 15.576C83.5747 14.6667 82.6134 13.7481 81.732 12.7521C81.4147 12.3934 81.116 12.0281 80.796 11.6841C81.2387 11.9254 81.668 12.208 82.0867 12.5707C82.9147 13.2854 83.7613 13.9547 84.5973 14.6334V14.6334ZM82.36 89.8188C81.3 90.5041 80.2707 91.2428 79.2333 91.9654C79.028 91.9974 78.8227 92.0294 78.616 92.0614C79.6334 91.4027 80.624 90.7027 81.5867 89.9694C82.46 89.5494 83.3267 89.1214 84.1813 88.6667C83.5813 89.0627 82.9587 89.4308 82.36 89.8188V89.8188ZM14.848 82.8307C14.2813 81.9561 13.636 81.1361 13.02 80.2934L12.9707 80.2241C12.4133 79.2508 11.9013 78.2508 11.4987 77.1828C11.372 76.8454 11.256 76.5094 11.148 76.1721C12.3347 78.4974 14.088 80.5294 15.7067 82.5587C16.56 83.6281 17.4067 84.7108 18.456 85.5961C19.5253 86.5001 20.6947 87.2774 21.7733 88.1694C22.6733 88.9161 23.504 89.7228 24.3227 90.5468C24.8107 91.1521 25.3187 91.7414 25.8453 92.3121C25.6707 92.2374 25.4973 92.1641 25.3213 92.0894C24.144 91.5894 23.292 90.6241 22.4573 89.6961C21.6467 88.7948 20.7387 88.0641 19.8187 87.2814C18.712 86.3427 17.6693 85.3307 16.5773 84.3761C15.996 83.8681 15.4173 83.3547 14.848 82.8307V82.8307ZM7.29066 70.9721C7.10266 70.3721 6.91065 69.7721 6.71865 69.1721C6.42665 67.2547 6.33202 65.2974 6.24935 63.3761C6.12402 60.4774 5.832 57.5841 5.72933 54.6881C5.65066 52.4721 5.84799 50.2561 6.29199 48.0881C6.23199 50.4734 6.26801 52.8587 6.41068 55.2281C6.42801 55.5334 6.448 55.8401 6.47067 56.1441C6.45334 56.4001 6.44134 56.6574 6.43734 56.9147C6.42667 58.4321 6.74933 60.0094 6.89733 61.5214C7.15066 64.1228 7.84935 66.6521 8.54535 69.1628C8.73601 69.8561 8.94133 70.5468 9.16133 71.2294C9.252 72.2788 9.38535 73.3201 9.61335 74.3414C9.66001 74.5548 9.71467 74.7681 9.768 74.9801C9.364 74.2934 8.94667 73.6134 8.5 72.9548C8.05733 72.3041 7.63199 71.6614 7.29066 70.9721V70.9721ZM51.9107 5.48673C52.2653 5.53339 52.62 5.57472 52.976 5.61472C53.8 5.75072 54.632 5.86274 55.4613 5.96941C54.7173 5.93341 53.9693 5.91472 53.2187 5.91472C49.1747 5.91472 45.252 6.42673 41.5093 7.3894C41.9907 7.16406 42.476 6.94672 42.9613 6.74272C43.956 6.32805 45.0333 6.26276 46.096 6.2241C46.256 6.21876 46.2573 5.97475 46.096 5.97475C45.356 5.97475 44.6453 6.0054 43.94 6.12807C44.0627 6.09607 44.1867 6.06541 44.308 6.03341C45.6453 5.70007 47.0507 5.65071 48.416 5.50671C49.552 5.38671 50.5853 5.36142 51.6613 5.45209L51.9107 5.48673ZM65.2667 7.35743C65.856 7.4921 66.3893 7.70005 66.9013 7.94805C65.696 7.58005 64.468 7.2601 63.224 6.99076C63.908 7.09076 64.5907 7.2001 65.2667 7.35743V7.35743ZM97.3214 70.2134C97.0427 70.8641 96.768 71.5161 96.4893 72.1667C96.036 73.0187 95.5187 73.8401 95.0813 74.7001C94.8133 75.2281 94.6067 75.7721 94.3893 76.3081L94.404 76.0734C94.788 75.04 95.136 73.9921 95.4574 72.9361C96.4734 70.8174 97.3333 68.6094 98.0227 66.3307C97.8693 67.6441 97.712 68.9534 97.3214 70.2134V70.2134ZM37.672 97.4241L37.5947 97.4027C36.9373 97.1947 36.2933 96.9441 35.6547 96.6787C36.1947 96.7067 36.728 96.7268 37.248 96.7468C37.968 97.0094 38.6973 97.2534 39.4333 97.4787C38.8453 97.4667 38.2573 97.4521 37.672 97.4241V97.4241ZM10.224 71.7921C10.196 71.5627 10.1707 71.3321 10.1467 71.1001C12.4547 76.5054 15.752 81.3881 19.8107 85.5214C19.0533 84.9428 18.3253 84.3454 17.6893 83.6081C16.6733 82.4321 15.7107 81.2094 14.7547 79.9828C13.0467 77.7868 11.6613 75.6107 10.66 73.0014C10.5067 72.6014 10.364 72.1987 10.224 71.7921V71.7921ZM42.6373 6.47071C41.3427 6.92138 40.0627 7.55338 38.816 8.10671C38.6267 8.19071 38.4347 8.2761 38.2453 8.3601C37.6387 8.5641 37.04 8.78409 36.4453 9.01342L36.7813 8.7961C38.5387 7.73077 40.6067 7.02938 42.6373 6.47071ZM100.329 49.6601C100.196 51.2188 100.229 52.7854 100.088 54.3468L100.087 54.3628C100.055 54.4841 100.021 54.6067 99.9867 54.7281C100.016 54.0641 100.033 53.4001 100.033 52.7281C100.033 52.4654 100.028 52.2027 100.024 51.94C100.073 51.1014 100.091 50.2534 100.081 49.3854C100.072 48.5348 100.087 47.6881 100.091 46.8427C100.229 47.5547 100.327 48.2721 100.393 48.9961C100.369 49.2188 100.348 49.4388 100.329 49.6601V49.6601ZM91.9947 80.2001C91.1653 81.3147 90.3427 82.4321 89.4507 83.5001C88.7107 84.1667 87.9253 84.7828 87.1453 85.3628C86.704 85.6894 86.2627 86.0161 85.8107 86.3321C88.684 83.5441 91.2027 80.3907 93.2893 76.9481C93.2267 77.5827 93.132 78.2068 92.924 78.8294C92.5734 79.2734 92.2653 79.7201 91.9947 80.2001ZM99.056 43.1188L99.072 43.2441L99.0214 43.0201L99.056 43.1188ZM29.6507 94.1054C28.4933 93.4481 27.5413 92.4654 26.624 91.5161C26.348 91.2294 26.0693 90.948 25.7907 90.668C28.4493 92.5934 31.3187 94.2468 34.3573 95.5854C33.6827 95.5148 33.012 95.4174 32.3533 95.2761C31.4347 94.9227 30.5027 94.5894 29.6507 94.1054V94.1054ZM99.6773 58.5188L99.7253 58.3761C99.704 58.5094 99.6813 58.6441 99.656 58.7774L99.6227 58.9427C99.6413 58.8014 99.66 58.6601 99.6773 58.5188V58.5188ZM91.6214 22.2548C92.068 22.9828 92.472 23.7401 92.932 24.4601C93.568 25.4601 94.3467 26.2788 95.2854 26.9988L95.364 27.0587L95.4066 27.1361C96.124 28.4134 97.1466 29.5734 98.0373 30.7347C98.4 31.2094 98.776 31.6801 99.1453 32.1534C99.7613 33.7934 100.064 35.5681 100.208 37.2894C100.311 38.4947 100.252 39.7014 100.305 40.9081C100.34 41.6721 100.425 42.4294 100.503 43.1867C100.265 42.4627 100.001 41.7534 99.7173 41.0654C99.1973 39.7988 98.952 38.444 98.5373 37.14C98.1053 35.788 97.5947 34.4214 96.9467 33.1587C96.3827 32.0587 95.552 31.1014 94.82 30.1147C94.1187 29.1734 93.5827 28.1321 92.9 27.1774C92.8587 27.0561 92.816 26.9388 92.7747 26.8134C92.44 25.7801 91.8333 25.0628 91.1253 24.2601C90.184 23.1908 89.4653 21.9427 88.444 20.9414C88.3173 20.8161 88.1893 20.6934 88.0613 20.5747L87.852 20.2734L87.8373 20.2561C88.9773 20.7854 90.096 21.3547 91.1747 22.0027C91.3213 22.0907 91.4707 22.1734 91.6214 22.2548V22.2548ZM35.1 8.68673C34.284 9.29606 33.5173 9.97743 32.728 10.6268C29.628 12.1374 26.7213 13.9814 24.0507 16.1107L23.8973 16.2214C23.384 16.6094 22.8493 16.9747 22.3173 17.3414C23.212 16.5067 24.1187 15.6854 25.028 14.8667C27.112 12.9921 29.2867 11.3494 31.8107 10.1121C32.8827 9.58538 33.9853 9.11873 35.1 8.68673ZM18.1173 21.7561C13.372 27.1281 9.84266 33.5974 7.95732 40.7361C7.88132 40.8774 7.808 41.0188 7.73467 41.1574C7.844 38.8868 8.28 36.6001 8.96934 34.4561C9.38667 33.1627 9.99868 31.9494 10.7453 30.8174C11.548 29.5974 12.6133 28.5694 13.504 27.4174C15.1053 25.3441 16.5973 23.2561 18.344 21.3134C18.268 21.4601 18.192 21.6081 18.1173 21.7561V21.7561ZM32.3013 96.3254C32.8227 96.5334 33.3427 96.7388 33.8573 96.9548C33.512 96.8788 33.168 96.7988 32.8267 96.7108C32.5293 96.5681 32.236 96.4161 31.9494 96.2548L32.3013 96.3254ZM98.9333 66.7147L98.956 66.5067C99.1027 65.0694 99.332 63.6801 99.704 62.2828L99.76 62.0734C99.7507 62.3934 99.7387 62.7107 99.7147 63.0334C99.6413 64.1147 99.356 65.2094 99.1267 66.2881C99.064 66.4308 99 66.5721 98.9333 66.7147V66.7147ZM78.308 10.9441C79.5267 11.1174 80.2933 12.1254 81.0173 13.0161C81.856 14.0454 82.8186 14.9694 83.7706 15.8947C84.1893 16.3041 84.6453 16.6894 84.992 17.1654L85.108 17.3507C84.1827 16.5761 83.176 15.8894 82.0987 15.2534C80.9907 14.5987 79.8587 13.9894 78.7654 13.3107C77.5427 12.5494 76.388 11.6827 75.1733 10.9054L74.892 10.7321C76.0187 10.9308 77.1773 10.7841 78.308 10.9441V10.9441ZM21.3747 16.2521C22.54 15.4588 23.6187 14.5521 24.7347 13.6908C25.1507 13.3721 25.572 13.0694 25.996 12.7721C25.6053 13.0961 25.2173 13.4227 24.8347 13.7614C22.744 15.6094 20.7014 17.5227 18.7493 19.5174C16.812 21.4961 15.1133 23.6214 13.504 25.8694C12.3413 27.4934 10.992 28.9161 9.88532 30.5334L10.008 30.2094C11.2427 28.3294 12.5467 26.4841 13.796 24.6174C15.72 21.7494 17.968 19.1748 20.4707 16.8548C20.7747 16.6534 21.0773 16.4534 21.3747 16.2521V16.2521ZM26.5587 93.7427C27.308 94.0667 27.9667 94.5374 28.6494 94.968L28.9987 95.2468C28.0373 94.7374 27.0693 94.2374 26.088 93.7601C25.4747 93.4628 24.896 93.1254 24.34 92.7628C25.0453 93.1508 25.8107 93.4214 26.5587 93.7427V93.7427ZM76.8373 93.1534C77.0946 93.1254 77.3506 93.0934 77.6066 93.0641C76.808 93.5814 75.9907 94.0694 75.136 94.4961C75.008 94.5614 74.8773 94.6241 74.748 94.6881C74.252 94.8134 73.7547 94.9321 73.256 95.0481C74.4813 94.4667 75.676 93.8361 76.8373 93.1534V93.1534ZM96.6227 73.8188C97.004 73.1601 97.3787 72.5068 97.708 71.8268C97.28 72.8934 96.728 73.8748 96.1 74.8108C96.2627 74.4774 96.4333 74.1441 96.6227 73.8188V73.8188ZM66.7053 6.01876C69.2907 6.99742 71.7214 8.37206 74.432 8.98406C75.492 9.22406 76.428 9.74938 77.3987 10.2121C77.1067 10.2081 76.8173 10.2121 76.536 10.2107C75.0387 10.1947 73.752 9.74674 72.3253 9.36674L72 9.28139L71.6667 9.13074C70.3893 8.55474 69.2373 7.81606 68.028 7.1254C65.8013 5.8534 62.9613 5.79071 60.4853 5.43471C57.692 5.03204 54.884 4.7454 52.0853 4.3894C51.856 4.3614 51.6307 4.3401 51.4067 4.32676C53.5933 4.09743 55.7787 4.06009 57.9987 4.22143C58.1547 4.23209 58.3133 4.24673 58.4693 4.25873C61.272 4.68273 64.04 5.00809 66.7053 6.01876V6.01876ZM45.7573 99.8481C45.092 99.7094 44.4547 99.4894 43.8213 99.2561C44.564 99.1801 45.3093 99.0948 46.0533 98.9988C48.3893 99.3574 50.7827 99.5441 53.2187 99.5441C53.3373 99.5441 53.4573 99.5401 53.5773 99.5401C52.2467 99.7601 50.9187 100 49.596 100.245C48.3067 100.245 47.016 100.115 45.7573 99.8481V99.8481ZM59.9733 99.2881C61.4187 99.1361 62.8813 99.1761 64.3307 99.0361C64.9213 98.9787 65.4987 98.8801 66.0693 98.7521C63.828 99.3081 61.4413 99.3374 59.1467 99.3921C59.4213 99.3534 59.6973 99.3188 59.9733 99.2881V99.2881ZM70.956 96.3934C69.6867 96.7894 68.4693 97.3307 67.2053 97.7374C66.0653 98.1067 64.872 98.2707 63.6787 98.3694C63.928 98.3134 64.1733 98.2521 64.4213 98.1908C66.5707 97.7854 68.6533 97.1641 70.7293 96.4134C71.228 96.2334 71.7307 96.0787 72.2387 95.9401L71.968 96.0867C71.6307 96.1854 71.292 96.2868 70.956 96.3934ZM78.5453 94.1214C79.608 93.6441 80.616 93.0654 81.5973 92.4401C82.576 92.2401 83.5466 91.9961 84.5093 91.6881L84.5267 91.6828C82.676 92.5481 80.8267 93.4201 78.892 94.0801C78.492 94.2161 78.0867 94.3454 77.684 94.4707C77.972 94.3627 78.26 94.2481 78.5453 94.1214ZM102.56 36.5427C102.632 37.1214 102.689 37.7041 102.748 38.2841C102.435 36.4534 102.253 34.6334 101.204 33.0347L101.2 32.8521C101.196 32.5121 101.203 32.1734 101.209 31.8361C101.86 33.3241 102.353 34.8614 102.56 36.5427V36.5427ZM95.3934 22.4787C95.7467 22.7774 96.064 23.0934 96.3587 23.4241C95.348 22.7188 94.1934 22.3294 93.0654 21.84C92.9174 21.7747 92.7707 21.7067 92.6267 21.6361C92.4054 21.2707 92.176 20.9134 91.92 20.5694L91.8907 20.5321L91.656 20.1867C90.9653 19.2107 90.1573 18.3281 89.3 17.4894C89.0213 17.1614 88.7387 16.8401 88.4507 16.5241C88.36 16.3748 88.2693 16.224 88.1773 16.0734C88.76 16.8067 89.3533 17.5294 90.012 18.1908C91.632 19.8268 93.6454 20.9961 95.3934 22.4787V22.4787ZM61.7467 3.12676C64.3427 4.03743 67.0613 4.31875 69.7053 5.04942C70.036 5.14009 70.3667 5.23871 70.696 5.34005C71.364 5.56671 72.0294 5.80004 72.6934 6.03738C72.8454 6.09204 72.996 6.1441 73.1494 6.19343C74.704 6.77876 76.2414 7.42542 77.7547 8.04408C78.812 8.47342 79.82 8.93874 80.7867 9.46407C81.6253 10.2894 82.4774 11.044 83.4294 11.7427C84.52 12.54 85.4933 13.3507 86.308 14.4347C85.488 13.724 84.6294 13.0561 83.7627 12.4054C82.8414 11.7121 82.0467 10.9067 81.0173 10.3921C80.56 10.1027 80.092 9.82277 79.6027 9.56277C78.4467 8.95077 77.2373 8.4401 76.0773 7.82677C74.8333 7.16943 73.596 6.51338 72.28 6.01205C71.0707 5.55072 69.7773 5.44407 68.5667 4.96407C67.244 4.4414 65.8893 4.2054 64.492 3.9614C62.7227 3.65073 60.9453 3.39075 59.1573 3.21609C58.3867 3.09075 57.612 2.97341 56.8293 2.90808C55.4347 2.78808 54.0173 2.85873 52.6187 2.88673C51.1573 2.91473 49.7253 2.90406 48.2747 3.12273C45.4267 3.55206 42.808 4.58671 40.0773 5.44005C38.844 5.82405 37.56 6.01472 36.3133 6.35072C34.9573 6.71472 33.6347 7.1921 32.336 7.7241C28.1187 9.45343 24.384 12.0294 20.952 14.9828C21.568 14.3414 22.1453 13.6801 22.7373 12.9801C23.568 11.9961 24.6227 11.2547 25.6307 10.4707C26.7587 9.59338 27.8533 8.68941 29.136 8.03874C31.5693 6.80008 34.1387 5.96138 36.6067 4.80404C37.7373 4.27338 38.9053 3.92809 40.02 3.34675C41.3107 2.67209 43.028 2.32538 44.468 2.17872C45.8587 2.03738 47.2813 2.12538 48.6787 2.04538C50.2253 1.95472 51.768 1.81871 53.3173 1.77071C56.1973 1.68271 59.032 2.17476 61.7467 3.12676V3.12676ZM37.0893 3.4254C37.5413 3.25073 38.016 3.10404 38.5 2.97071C38.34 3.04271 38.1787 3.11338 38.0133 3.17872C36.764 3.67338 35.556 4.18938 34.3307 4.74538C33.8653 4.95605 33.3853 5.13204 32.904 5.30137C34.2773 4.60271 35.68 3.96673 37.0893 3.4254V3.4254ZM4.79733 36.2814C5.43466 35.0334 6.25201 33.9214 6.81201 32.6254C7.31468 31.4614 7.69067 30.2561 8.24134 29.1121C8.82401 27.8947 9.64135 26.8747 10.3827 25.7587C11.0547 24.7481 11.4613 23.7281 12.3907 22.9027C13.184 22.1987 13.8613 21.4027 14.5493 20.6054C13.2947 22.2534 12.0867 23.9641 11.0333 25.7281C10.5293 26.5694 10.088 27.4401 9.69199 28.3294C9.28533 29.0668 8.89866 29.8187 8.52666 30.5761C7.14666 32.7574 6.13068 35.0787 5.11068 37.4587C4.50134 38.8814 3.972 40.3241 3.50133 41.7881C3.70267 41.0214 3.88532 40.2494 4.02266 39.4667C4.21599 38.3641 4.28 37.2947 4.79733 36.2814V36.2814ZM4.87734 72.1908C3.34001 70.0748 2.59199 67.8214 2.25732 65.2468C1.86266 62.2161 1.74799 59.1534 1.69199 56.1014C1.66666 54.7627 1.61201 53.4174 1.61335 52.0761C1.64801 52.6147 1.69999 53.1521 1.75866 53.6841C2.06933 56.4667 2.63202 59.2294 3.34935 61.9334C4.10002 64.7707 5.04534 67.5521 5.97734 70.3307L5.99867 70.4001C6.30533 71.9721 6.75065 73.512 7.41732 75.004L7.52666 75.3268C6.59333 74.3254 5.68534 73.3014 4.87734 72.1908ZM13.5893 84.3188C13.0067 83.4921 12.5133 82.6201 12.0227 81.7441C12.8453 82.7961 13.636 83.8734 14.404 84.9641C14.928 85.7067 15.4187 86.4508 15.9813 87.1468L16.2107 87.4694C15.288 86.4494 14.3853 85.4441 13.5893 84.3188V84.3188ZM37.6627 100.515C36.2693 100.363 34.9307 100.043 33.6827 99.3947C32.424 98.7427 31.2947 97.9108 29.9947 97.3241C27.3 96.1094 24.78 94.8001 22.312 93.1587C21.1387 92.3761 19.908 91.5934 18.884 90.6188C18.4 90.1574 17.972 89.6401 17.556 89.1147C18.944 90.6107 20.608 91.9068 22.264 93.0521C24.9293 94.8988 27.984 96.3854 31.1573 97.3441C33.0653 98.3788 34.9627 99.356 37.0653 100.035C37.508 100.179 37.9213 100.369 38.3213 100.579C38.1013 100.559 37.8813 100.539 37.6627 100.515V100.515ZM73.892 97.9507C72.6707 98.3014 71.436 98.604 70.2027 98.9014C68.8 99.2414 67.5507 99.9987 66.1413 100.32C64.8253 100.62 63.4787 100.793 62.1587 101.085C60.6267 101.424 59.1 101.788 57.584 102.192C56.1973 102.561 54.7947 102.799 53.3627 102.895C51.9507 102.989 50.532 102.815 49.1213 102.96C48.3893 103.037 47.7693 103.183 47.0347 103.019C46.4013 102.875 45.8147 102.525 45.2293 102.259C44.896 102.108 44.556 101.996 44.208 101.905C45.2133 101.843 46.2213 101.604 47.1893 101.408C47.496 101.345 47.8067 101.288 48.1147 101.228C48.8347 101.281 49.556 101.297 50.2747 101.288C51.6067 101.272 52.9387 101.029 54.252 100.828C55.8653 100.584 57.452 100.527 59.08 100.496C61.9333 100.441 64.888 100.408 67.6213 99.4988C69.9773 98.7161 72.068 97.3254 74.2733 96.2121C76.2013 95.6627 78.132 95.1254 80.0134 94.4281C82.4014 93.5427 84.66 92.2814 86.9587 91.1894C87.2933 91.0307 87.624 90.8654 87.952 90.6988C83.6267 93.7668 79.0187 96.4774 73.892 97.9507V97.9507ZM96.8733 80.2774C97.136 79.5961 97.3893 78.9121 97.64 78.2321C97.8666 77.6174 98.1186 77.0041 98.376 76.3894C98.0373 77.5014 97.648 78.5987 97.1574 79.6707C97.0627 79.8747 96.9693 80.0761 96.8733 80.2774ZM102.061 62.8694C102.504 60.7494 103.02 58.6454 103.515 56.54C103.871 55.032 104.191 53.5094 104.405 51.9761C104.367 52.5134 104.324 53.0454 104.28 53.5641C104.031 56.5187 103.387 59.4334 102.324 62.2014C102.239 62.4254 102.149 62.6467 102.061 62.8694Z" fill="#F7A70F"/>
<path d="M59.68 69.0787C62.4013 66.1667 66.0346 63.28 70.188 60.8414C70.3426 60.5854 70.4987 60.3294 70.6493 60.072C71.192 59.152 71.7 58.22 72.176 57.2813C71.488 57.632 70.8 57.9973 70.1173 58.3787C66.6133 60.3387 63.4533 62.592 60.804 64.9547C61.5493 61.5494 61.9667 57.776 61.9787 53.848C62.012 42.6293 58.7427 32.624 53.844 28.9467L53.1987 28.4627L52.548 28.944C47.628 32.5894 44.2987 42.576 44.2667 53.7947C44.2533 57.7227 44.6493 61.5 45.3747 64.9093C42.7373 62.5307 39.592 60.2587 36.1 58.2774C35.4187 57.892 34.7347 57.5214 34.048 57.1667C34.5187 58.108 35.0213 59.044 35.5586 59.968C35.7066 60.2267 35.8613 60.484 36.0147 60.7373C40.1533 63.204 43.7693 66.112 46.472 69.04C47.8987 73.42 49.944 76.8534 52.3987 78.696L52.7186 78.936L52.7307 78.9467L52.732 78.9453L53.0467 79.1813L53.3613 78.948H53.3627L53.376 78.9373L53.696 78.7013C56.1613 76.872 58.228 73.452 59.68 69.0787V69.0787ZM53.1893 31.224C57.148 34.8854 59.8387 43.9694 59.808 53.8414C59.7947 58.9867 59.04 63.908 57.7613 67.96C56.8813 68.9307 56.0933 69.908 55.4107 70.8774C55.4733 71.7054 55.4947 72.5027 55.476 73.2654L55.4747 73.2987C54.7387 74.5667 53.9253 75.624 53.0546 76.4214C52.1893 75.6187 51.3826 74.5574 50.652 73.2854V73.2494C50.636 72.488 50.664 71.6907 50.732 70.8627C50.0547 69.8894 49.2733 68.9081 48.3987 67.9321C47.1427 63.8721 46.4187 58.9454 46.4347 53.8027C46.464 43.928 49.2093 34.8627 53.1893 31.224" fill="white"/>
<path d="M73.2973 61.6294C78.9867 51.9601 81.2133 41.6721 78.8387 36.028L78.524 35.2814L77.72 35.3694C73.0507 35.8801 67.3067 40.088 62.316 46.3867C62.4533 47.4227 62.564 48.4801 62.6413 49.5547C67.2493 43.1787 72.76 38.6 77.124 37.6614C78.6934 42.8214 76.436 52.0201 71.428 60.5307C67.4973 67.2107 62.372 72.6174 57.7987 75.1814C56.96 76.5587 56.0347 77.728 55.0347 78.6427C60.8933 77.1614 68.0427 70.5601 73.2973 61.6294" fill="white"/>
<path d="M48.3173 75.152C43.76 72.5613 38.6667 67.1253 34.776 60.42C29.82 51.88 27.6147 42.6693 29.216 37.5187C33.576 38.4827 39.0573 43.0934 43.628 49.4987C43.7133 48.4227 43.8293 47.3667 43.9733 46.332C39.02 40.0054 33.3 35.7613 28.6347 35.2226L27.8293 35.1307L27.512 35.8733C25.104 41.504 27.268 51.8066 32.9 61.5093C38.1013 70.4706 45.212 77.1134 51.06 78.632C50.0666 77.7094 49.148 76.536 48.3173 75.152" fill="white"/>
<path d="M95.8333 53.3947C94.24 52.6827 92.2573 52.3227 89.9467 52.3227C86.3 52.3227 82.0426 53.2201 77.6533 54.8654C77.272 55.8068 76.8547 56.7534 76.4053 57.6988C81.252 55.6321 86 54.4908 89.9467 54.4908C91.5707 54.4908 92.9854 54.6867 94.1627 55.0721C92.9147 60.3201 86.3226 67.1214 77.7066 71.9427C71.3746 75.4867 64.788 77.5708 59.5186 77.7161C58.0586 78.5601 56.6253 79.1734 55.2573 79.5188L55.2413 79.5227C56.3547 79.7667 57.5867 79.8934 58.9373 79.8934C64.6587 79.8934 71.8867 77.6854 78.7654 73.8361C88.556 68.3587 95.6693 60.5974 96.468 54.5254L96.572 53.7241L95.8333 53.3947" fill="white"/>
<path d="M46.5813 77.6773C41.312 77.5013 34.748 75.3813 28.4307 71.7973C19.8413 66.924 13.2907 60.0827 12.0747 54.828C13.2253 54.4587 14.6 54.2693 16.1773 54.2693C20.1467 54.2693 24.9293 55.4413 29.816 57.5587C29.3733 56.6107 28.96 55.6627 28.584 54.7187C24.1533 53.0254 19.8547 52.1013 16.1773 52.1013C13.9213 52.1013 11.9813 52.4507 10.4133 53.1387L9.67334 53.4654L9.77467 54.268C10.5347 60.344 17.6027 68.1453 27.36 73.684C34.2773 77.608 41.5387 79.8574 47.2827 79.8574C48.5827 79.8574 49.7707 79.7386 50.8494 79.5093L50.8347 79.5053C49.4667 79.1507 48.0373 78.528 46.5813 77.6773" fill="white"/>
<path d="M27.8426 65.1547C25.4306 67.2187 22.9253 69.1787 20.3866 71.088C19.9479 71.42 19.2866 71.7827 18.744 71.8774L18.432 71.6346C18.14 71.3053 18.0066 70.8706 17.816 70.4733C17.6293 70.088 17.3826 69.7307 17.088 69.4187L16.7933 69.2066C16.6133 69.1533 16.4266 69.2387 16.2546 69.3053C15.328 69.6693 14.24 69.5947 13.3706 69.108L13.0653 68.9907C12.8613 68.9867 12.712 69.192 12.696 69.3947C12.168 69.116 11.6466 68.828 11.1346 68.5214C10.176 67.948 9.65064 67.788 8.90797 68.5507C6.95197 70.5573 7.31864 74.704 9.67998 76.2294C10.9306 77.0387 12.328 77.62 13.4733 78.2066L13.596 78.2027C12.6773 85.2467 17.0706 89.2907 21.9 93.2893C23.7053 93.992 25.456 94.7507 27.0306 95.8227L27.2786 95.988L27.408 96.0774L27.396 96.0907C27.772 96.464 27.876 97.0107 27.4746 97.9973C26.7386 99.7987 28.7906 102.14 30.3506 101.737C33.2146 101.001 36.084 100.265 38.9813 99.6787C42.516 98.964 46.1026 98.6493 49.5906 99.1747L49.612 99.2253C49.612 99.2253 52.344 100.504 56.544 99.2253L56.7093 99.168C60.1813 98.6533 63.7466 98.9667 67.2653 99.6787C70.1613 100.265 73.0307 101.001 75.8933 101.737C77.4547 102.14 79.5066 99.7987 78.772 97.9973C78.3786 97.0293 78.4707 96.4854 78.832 96.1134L78.924 96.032L78.8453 96.0854L78.836 96.0774L78.9679 95.988L79.216 95.8227C80.788 94.7507 82.54 93.992 84.3466 93.2893C89.1746 89.2907 93.568 85.2467 92.6493 78.2027L92.772 78.2066C93.916 77.62 95.3133 77.0387 96.5666 76.2294C98.928 74.704 99.2933 70.5573 97.336 68.5507C96.5946 67.788 96.0693 67.948 95.1106 68.5214C94.5733 68.8414 94.0239 69.148 93.4679 69.4387C93.4733 69.2213 93.3107 68.9867 93.0933 68.9907L92.7866 69.108C91.9186 69.5947 90.8306 69.6693 89.9039 69.3053C89.7306 69.2387 89.544 69.1533 89.3653 69.2066L89.0679 69.4187C88.7733 69.7307 88.528 70.088 88.3413 70.4733C88.1506 70.8706 88.016 71.3053 87.7253 71.6346L87.4399 71.8654C86.9079 71.7547 86.2813 71.408 85.8573 71.088C83.3186 69.1787 80.8133 67.2187 78.4026 65.1547C77.8013 64.6387 77.4507 63.704 77.2293 62.8947C75.9067 58.076 75.6813 53.152 75.632 48.2134C78.4347 34.5174 68.7613 33.744 67.3026 33.7054C66.2946 33.376 65.26 33.1147 64.2626 32.7533C62.944 32.2733 61.66 31.6973 60.3746 31.168C59.8453 31.0493 59.3039 30.9533 58.7546 30.872C58.7386 28.9373 58.7786 24.48 58.7786 24.48C58.7786 24.48 60.5173 24 61.2373 21.8413C61.908 19.8307 60.8106 19.1734 60.6573 19.0907C60.6626 19.0014 60.6666 18.7707 60.6626 18.2427C60.8093 17.5907 60.8893 16.912 60.8893 16.2107C60.8893 11.444 57.2946 7.58132 52.86 7.58132C48.4253 7.58132 44.832 11.444 44.832 16.2107C44.832 16.7027 44.8733 17.184 44.9453 17.6547C44.9346 18.6107 44.9386 18.9734 44.9466 19.0907C44.7933 19.1734 43.696 19.8307 44.3666 21.8413C45.0866 24 46.8253 24.48 46.8253 24.48C46.8253 24.48 46.8653 29.1787 46.8466 31.0214C46.2293 31.1054 45.872 31.168 45.872 31.168C44.5853 31.6973 43.3013 32.2733 41.9813 32.7533C40.988 33.1147 39.9546 33.3747 38.948 33.704C37.8906 33.7133 27.5333 34.1667 30.568 48.4373L30.608 48.6267C30.5506 53.4267 30.3013 58.212 29.0173 62.8947C28.7946 63.704 28.444 64.6387 27.8426 65.1547V65.1547ZM65.0253 57.0774C65.4186 55.1054 67.3426 54.2787 67.8253 52.7453C67.7933 62.072 70.7146 65.9627 70.7146 65.9627L70.7573 65.9427L70.7879 66.228C71.1413 70.1547 73.4253 72.1467 76.664 73.4587C78.408 74.168 80.2746 74.5747 82.0826 75.1253C82.6986 75.3133 83.3106 75.5293 84.164 75.812C83.0253 75.904 81.9293 76.28 80.8506 76.656C78.7826 77.3773 76.7106 78.1 74.7493 79.072C73.3506 79.764 72.0173 80.588 70.764 81.516C69.784 81.976 68.9053 82.084 68.2746 81.452C62.5866 74.952 64.6186 65.2027 65.0253 57.0774ZM35.4573 66.228L35.4933 65.8907C35.8746 65.3307 38.3506 61.3707 38.3333 52.796L38.3773 52.6093C38.7826 54.2333 40.8146 55.0454 41.2213 57.0774C41.6279 65.2027 43.6573 74.952 37.9706 81.452C37.2813 82.1427 36.3 81.9507 35.212 81.3813C34.0106 80.5093 32.74 79.7307 31.4093 79.072C29.4466 78.1 27.3733 77.3773 25.3066 76.656C24.2493 76.288 23.1746 75.9187 22.0613 75.8187C22.9253 75.5307 23.5413 75.316 24.164 75.1253C25.972 74.5747 27.8373 74.168 29.5826 73.4587C32.8186 72.1467 35.1053 70.1547 35.4573 66.228" fill="#8A3032"/>
</svg>
