<svg viewBox="0 0 106 105" fill="none" xmlns="http://www.w3.org/2000/svg">
<path d="M105.183 45.9001C105.047 44.6241 104.644 43.3894 104.299 42.1601C103.876 40.6494 103.689 39.1241 103.536 37.5694C103.271 34.8881 102.609 32.5307 101.385 30.1281C101.257 29.8734 101.124 29.6214 100.989 29.3707C100.964 29.2454 100.937 29.1214 100.907 28.9974C100.681 28.1334 100.143 27.396 99.5427 26.7427L99.5214 26.7027C98.9334 25.6241 98.4507 24.5 97.6747 23.5347C96.2827 21.8014 94.428 20.5774 92.6667 19.2548C90.5173 17.6374 88.9146 15.5948 87.268 13.4934C85.7186 11.5188 83.6027 9.88942 81.428 8.64675C80.5867 8.16675 79.6974 7.74273 78.788 7.35339C78.568 7.24273 78.3373 7.13875 78.092 7.04675L77.7587 6.93074C76.5493 6.45074 75.32 6.01609 74.128 5.58275C72.824 5.10409 71.5253 4.58143 70.2027 4.15743C68.8813 3.73476 67.504 3.50538 66.144 3.24538L65.8533 3.11472C64.8133 2.61739 63.7014 1.37074 62.46 1.57208L62.4693 1.64942C63.4133 1.58542 64.2414 2.4481 64.9987 2.99877C62.6654 2.43077 60.4373 1.5374 58.068 1.09206C55.2733 0.566731 52.476 0.725429 49.6587 0.924095C49.276 0.952095 48.8933 0.974733 48.512 0.994733C48.3173 0.9894 48.1253 0.984054 47.9307 0.981387C47.108 0.972054 46.2827 1.0121 45.456 1.09076L45.384 1.09206C43.9707 1.10273 42.6413 1.43743 41.2733 1.7601C41.1307 1.7921 40.992 1.83338 40.8547 1.87605C40.5947 1.93872 40.3334 2.00271 40.0774 2.07071C38.7974 2.40138 37.4907 2.62409 36.2627 3.11876C35.04 3.61342 33.8507 4.22141 32.6533 4.77208C30.0507 5.97074 27.5934 7.48141 25.26 9.13874C24.2894 9.82808 23.308 10.5321 22.4467 11.3561C22.0507 11.7361 21.7 12.1628 21.3467 12.5828C20.912 13.0988 20.3453 13.456 19.8173 13.868C18.7867 14.6747 17.9387 15.7201 17.0654 16.6908C16.092 17.7708 15.0467 18.7854 14.092 19.8814C13.2813 20.8121 12.4973 21.7174 11.5707 22.5387C10.6787 23.3281 10.256 24.3827 9.63335 25.3721C8.97601 26.4174 8.2027 27.3481 7.62404 28.4481C7.0227 29.5947 6.60799 30.8174 6.13999 32.0201C5.63466 33.3201 4.88398 34.4627 4.16798 35.6481C3.61198 36.5654 3.41732 37.5668 3.27332 38.6161C2.90666 41.2694 1.95204 43.7867 1.29604 46.3721C0.601377 49.1081 0.674676 51.8321 0.694676 54.6321C0.717343 57.6881 0.813327 60.7441 1.11199 63.7854C1.35466 66.2521 1.71199 68.6001 2.87599 70.8161C3.90532 72.7761 5.41333 74.4641 6.91466 76.0694C7.388 76.5761 7.86001 77.0801 8.32801 77.5841L8.39337 77.7254C8.94671 78.8987 9.716 79.9654 10.384 81.0748C11.1413 82.3268 11.8 83.6174 12.6333 84.8254C13.3453 85.8561 14.156 86.8054 15.004 87.7241C15.9427 88.7361 16.76 89.8374 17.6747 90.868C18.5067 91.8067 19.5574 92.4987 20.58 93.2094C21.8254 94.0787 23.1013 94.9001 24.404 95.6761C26.8653 97.1441 29.5894 98.0441 32.0214 99.5548C33.06 100.2 34.0933 100.711 35.284 101.011C36.5493 101.328 37.868 101.372 39.1627 101.467C39.42 101.485 39.6734 101.511 39.9294 101.535C40.156 101.663 40.3867 101.787 40.6267 101.899C41.86 102.484 43.2653 102.469 44.5373 102.928C45.6586 103.332 46.5573 103.953 47.7893 103.976C48.416 103.988 49.0547 103.807 49.68 103.775C50.4187 103.735 51.1627 103.793 51.9027 103.804C54.7627 103.847 57.4347 103.097 60.188 102.433C61.5707 102.101 62.9614 101.769 64.36 101.513C65.8 101.251 67.1227 101.001 68.4787 100.428C70.9467 99.3907 73.6547 98.9841 76.1947 98.1321C77.3453 97.7441 78.4707 97.2854 79.5667 96.7614C80.832 96.1561 81.9707 95.3374 83.2187 94.7027C84.4187 94.0907 85.4694 93.4108 86.5494 92.6081C87.5947 91.8321 88.724 91.1761 89.7574 90.3774C91.444 89.0708 92.916 87.5214 94.0973 85.7561C96.9973 82.1334 98.656 77.504 99.8346 73.104C100.191 71.7747 100.631 70.4681 100.961 69.1361C101.14 68.4174 101.229 67.6907 101.311 66.9614C101.819 65.5534 102.413 64.1774 102.992 62.7574C105.104 57.5668 105.777 51.4614 105.183 45.9001V45.9001ZM100.668 66.0587C100.151 67.3814 99.7014 68.7281 99.4654 70.1548C99.028 72.7841 97.748 75.2321 96.8307 77.7241C95.9507 80.1201 95.052 82.5134 93.7453 84.7161C92.9427 86.0694 91.924 87.2734 90.7827 88.3507C89.8467 89.0347 88.8347 89.6054 87.788 90.1241C88.3947 89.5534 88.78 88.8174 89.188 88.0534C89.8587 86.7974 90.596 85.5614 91.2053 84.2761C91.4173 83.8307 91.5893 83.3721 91.7533 82.9108C91.9373 82.6721 92.1054 82.4214 92.2547 82.1548C92.4187 81.8614 92.5506 81.5534 92.6706 81.2374C92.844 80.9867 93.0067 80.7307 93.1613 80.4707L93.2813 80.3027C94.856 78.1161 96.7773 76.1947 98.0307 73.7867C99.2133 71.5147 99.7627 68.9548 100.172 66.4494C100.345 65.3961 100.627 64.3721 100.771 63.3188C101.887 59.2668 101.961 54.896 101.988 50.7347C101.993 49.9 101.987 49.0641 101.969 48.2307C102.156 47.0187 102.311 45.8067 102.335 44.5787C102.363 43.1107 102.095 41.6454 101.867 40.2014C101.839 40.0214 101.813 39.8401 101.789 39.6587C102.275 41.6307 102.915 43.5681 103.3 45.5654C103.876 48.5481 103.483 51.6307 102.915 54.5841C102.369 57.4174 101.688 60.2201 101.149 63.0548C100.957 64.0614 100.769 65.0481 100.668 66.0587V66.0587ZM41.464 100.892C41.0467 100.832 40.628 100.785 40.208 100.747C39.4307 100.309 38.6933 99.7667 37.868 99.4307C37.544 99.2987 37.2187 99.1761 36.8934 99.0561C38.3054 99.3441 39.7547 99.4654 41.1934 99.4374C41.5414 99.5347 41.8853 99.6374 42.228 99.7507C43.4507 100.157 44.5814 100.655 45.8414 100.927C44.3134 101.203 42.9933 101.115 41.464 100.892V100.892ZM2.89604 47.7894C3.24271 46.2721 3.616 44.7641 4.048 43.2721C4.04 44.1854 4.06667 45.0894 4.08934 45.9574C4.128 47.4254 3.97869 48.7401 3.71069 50.1774C3.46003 51.5214 3.72532 52.9561 3.60399 54.3188C3.50399 55.4441 3.34137 56.5454 3.3547 57.6654C3.28004 57.2881 3.20933 56.9107 3.14533 56.5307C2.65066 53.6361 2.23471 50.6907 2.89604 47.7894V47.7894ZM97.6507 26.2721C98.1107 26.7854 98.584 27.2294 98.996 27.7161C99.1547 28.0094 99.3134 28.3041 99.4774 28.5988C99.6694 28.9428 99.856 29.2841 100.039 29.6254C100.137 30.0094 100.187 30.4148 100.205 30.8268C99.4853 29.2708 98.4147 27.9107 97.032 26.8534C96.6974 26.5987 96.3707 26.3547 96.0533 26.1094C95.4987 25.128 94.9827 24.2934 94.1 23.5387L93.8667 23.3201C94.1347 23.4347 94.4027 23.552 94.6693 23.676C95.9253 24.26 96.7467 25.2654 97.6507 26.2721ZM84.428 90.7214C84.2147 90.7894 84.0013 90.8508 83.7867 90.9134C84.3373 90.5321 84.8866 90.1521 85.44 89.7828C85.688 89.6174 85.5586 89.2667 85.3373 89.2254L85.5253 89.1001C86.5787 88.3747 87.3827 87.3308 88.2747 86.4294C88.8054 85.8921 89.3094 85.3401 89.7987 84.7774L89.8253 84.7561L90.04 84.5841C89.9146 84.8494 89.784 85.1148 89.6387 85.3774C88.968 86.5961 88.4027 88.0348 87.5267 89.1188C86.78 90.0481 85.512 90.3814 84.428 90.7214V90.7214ZM22.3 91.3667C20.6427 89.9121 18.9907 88.4227 17.5027 86.804C17.3173 86.6014 17.1387 86.3947 16.964 86.1841C17.312 86.4961 17.6587 86.8081 18.0027 87.1214C18.94 87.9774 19.9733 88.7334 20.876 89.6241C21.6867 90.4241 22.3734 91.3267 23.2387 92.068C22.9227 91.8387 22.6107 91.6041 22.3 91.3667V91.3667ZM8.42671 75.0361C8.33071 74.7294 8.23599 74.4201 8.14533 74.1121C8.66133 74.9121 9.14399 75.7347 9.63732 76.5507C10.092 77.3041 10.536 78.0654 10.992 78.8188L11.0854 79.0321C10.0627 77.7961 9.15604 76.4774 8.42671 75.0361ZM4.23999 56.3988C4.33999 55.0161 4.56137 53.6708 4.52137 52.2801C4.50137 51.5414 4.46535 50.8174 4.60268 50.0867C4.73468 49.3907 4.91467 48.7441 4.95067 48.0334C5.024 46.6534 4.93202 45.2654 4.91069 43.8854C4.88536 42.4201 5.1 40.9521 5.356 39.5134L5.4187 39.2254C5.78403 38.2921 6.16004 37.3507 6.56271 36.4174C6.66938 36.2147 6.77733 36.0081 6.884 35.8054C7.172 35.2547 7.44533 34.7001 7.71733 34.1414C7.36 35.7107 7.09605 37.3054 6.89871 38.8947C6.69338 40.5494 6.52799 42.2161 6.40932 43.8867C5.48399 46.3001 4.97734 48.8614 4.75867 51.4307C4.51867 54.2467 4.89066 57.0148 5.04533 59.8214C5.09999 60.8361 5.14003 61.8547 5.18537 62.8761C4.6387 60.7467 4.08266 58.6094 4.23999 56.3988V56.3988ZM84.5107 14.6334C85.6907 15.7441 86.8267 16.9107 88.0134 17.9894C88.18 18.1387 88.3413 18.2921 88.5 18.4454C88.8493 18.8534 89.1973 19.2627 89.5453 19.6734C89.6587 19.828 89.772 19.9814 89.888 20.1347L89.564 19.9628C88.476 19.4081 87.3573 18.9121 86.2427 18.4121L86.1346 18.1094C85.8013 17.0067 85.288 16.356 84.4574 15.576C83.488 14.6667 82.5254 13.7481 81.644 12.7521C81.328 12.3934 81.0294 12.0281 80.7107 11.6841C81.152 11.9254 81.58 12.208 82 12.5707C82.8267 13.2854 83.6747 13.9547 84.5107 14.6334V14.6334ZM82.2733 89.8188C81.2133 90.5041 80.1854 91.2428 79.1467 91.9654C78.9414 91.9974 78.7347 92.0294 78.5294 92.0614C79.5467 91.4027 80.5373 90.7027 81.5 89.9694C82.372 89.5494 83.24 89.1214 84.0947 88.6667C83.4947 89.0627 82.872 89.4308 82.2733 89.8188V89.8188ZM14.7613 82.8307C14.196 81.9561 13.5493 81.1361 12.9333 80.2934L12.8854 80.2241C12.3267 79.2508 11.8133 78.2508 11.412 77.1828C11.2853 76.8454 11.168 76.5094 11.0613 76.1721C12.248 78.4974 14 80.5294 15.6214 82.5587C16.4734 83.6281 17.32 84.7108 18.3693 85.5961C19.4387 86.5001 20.608 87.2774 21.6854 88.1694C22.5854 88.9161 23.4173 89.7228 24.236 90.5468C24.724 91.1521 25.232 91.7414 25.7587 92.3121C25.584 92.2374 25.4107 92.1641 25.2333 92.0894C24.0573 91.5894 23.2067 90.6241 22.3707 89.6961C21.56 88.7948 20.652 88.0641 19.732 87.2814C18.6254 86.3427 17.584 85.3307 16.4907 84.3761C15.9094 83.8681 15.3307 83.3547 14.7613 82.8307V82.8307ZM7.20399 70.9721C7.01599 70.3721 6.82538 69.7721 6.63205 69.1721C6.34005 67.2547 6.24671 65.2974 6.16271 63.3761C6.03738 60.4774 5.74399 57.5841 5.64266 54.6881C5.56399 52.4721 5.76002 50.2561 6.20535 48.0881C6.14669 50.4734 6.18267 52.8587 6.32267 55.2281C6.34134 55.5334 6.36267 55.8401 6.384 56.1441C6.36667 56.4001 6.35337 56.6574 6.35203 56.9147C6.34003 58.4321 6.66136 60.0094 6.81069 61.5214C7.06536 64.1228 7.7627 66.6521 8.45737 69.1628C8.64937 69.8561 8.85469 70.5468 9.07469 71.2294C9.16536 72.2788 9.29734 73.3201 9.52534 74.3414C9.57334 74.5548 9.62669 74.7681 9.68003 74.9801C9.27603 74.2934 8.86003 73.6134 8.41336 72.9548C7.97069 72.3041 7.54399 71.6614 7.20399 70.9721V70.9721ZM51.8253 5.48673C52.1787 5.53339 52.5334 5.57472 52.888 5.61472C53.7147 5.75072 54.544 5.86274 55.3747 5.96941C54.632 5.93341 53.884 5.91472 53.1307 5.91472C49.0893 5.91472 45.164 6.42673 41.424 7.3894C41.9054 7.16406 42.3894 6.94672 42.8747 6.74272C43.8694 6.32805 44.9454 6.26276 46.008 6.2241C46.1694 6.21876 46.1707 5.97475 46.008 5.97475C45.2694 5.97475 44.5574 6.0054 43.852 6.12807C43.976 6.09607 44.1 6.06541 44.2227 6.03341C45.56 5.70007 46.964 5.65071 48.3294 5.50671C49.464 5.38671 50.4987 5.36142 51.5747 5.45209L51.8253 5.48673ZM65.18 7.35743C65.7694 7.4921 66.3027 7.70005 66.8134 7.94805C65.608 7.58005 64.3826 7.2601 63.1373 6.99076C63.8226 7.09076 64.504 7.2001 65.18 7.35743ZM97.236 70.2134C96.9547 70.8641 96.68 71.5161 96.4027 72.1667C95.948 73.0187 95.432 73.8401 94.9947 74.7001C94.7267 75.2281 94.52 75.7721 94.304 76.3081L94.316 76.0734C94.7014 75.04 95.048 73.9921 95.372 72.9361C96.388 70.8174 97.2453 68.6094 97.936 66.3307C97.7827 67.6441 97.624 68.9534 97.236 70.2134V70.2134ZM37.584 97.4241L37.508 97.4027C36.852 97.1947 36.2067 96.9441 35.5693 96.6787C36.1067 96.7067 36.64 96.7268 37.1613 96.7468C37.8813 97.0094 38.6107 97.2534 39.348 97.4787C38.76 97.4667 38.172 97.4521 37.584 97.4241ZM10.1373 71.7921C10.1093 71.5627 10.084 71.3321 10.0613 71.1001C12.3693 76.5054 15.6667 81.3881 19.724 85.5214C18.9667 84.9428 18.2387 84.3454 17.6027 83.6081C16.5867 82.4321 15.624 81.2094 14.6693 79.9828C12.96 77.7868 11.5747 75.6107 10.572 73.0014C10.42 72.6014 10.276 72.1987 10.1373 71.7921V71.7921ZM42.5507 6.47071C41.256 6.92138 39.976 7.55338 38.7294 8.10671C38.5387 8.19071 38.3493 8.2761 38.1587 8.3601C37.552 8.5641 36.9534 8.78409 36.3574 9.01342L36.6947 8.7961C38.452 7.73077 40.52 7.02938 42.5507 6.47071ZM100.241 49.6601C100.109 51.2188 100.143 52.7854 100.001 54.3468L100 54.3628C99.968 54.4841 99.936 54.6067 99.9013 54.7281C99.9293 54.0641 99.9467 53.4001 99.9467 52.7281C99.9467 52.4654 99.94 52.2027 99.9373 51.94C99.9866 51.1014 100.004 50.2534 99.9947 49.3854C99.9853 48.5348 100 47.6881 100.004 46.8427C100.141 47.5547 100.24 48.2721 100.305 48.9961C100.284 49.2188 100.26 49.4388 100.241 49.6601V49.6601ZM91.908 80.2001C91.0787 81.3147 90.2574 82.4321 89.3654 83.5001C88.6254 84.1667 87.84 84.7828 87.0587 85.3628C86.6173 85.6894 86.1747 86.0161 85.7227 86.3321C88.596 83.5441 91.116 80.3907 93.2027 76.9481C93.14 77.5827 93.0466 78.2068 92.8373 78.8294C92.4866 79.2734 92.1773 79.7201 91.908 80.2001ZM98.9693 43.1188L98.984 43.2441L98.9346 43.0201L98.9693 43.1188ZM29.564 94.1054C28.4053 93.4481 27.4533 92.4654 26.536 91.5161C26.26 91.2294 25.9827 90.948 25.704 90.668C28.3627 92.5934 31.232 94.2468 34.2707 95.5854C33.596 95.5148 32.9253 95.4174 32.2667 95.2761C31.348 94.9227 30.416 94.5894 29.564 94.1054V94.1054ZM99.5907 58.5188L99.6373 58.3761C99.6173 58.5094 99.5946 58.6441 99.5706 58.7774L99.536 58.9427C99.5547 58.8014 99.572 58.6601 99.5907 58.5188ZM91.5346 22.2548C91.9813 22.9828 92.3867 23.7401 92.8453 24.4601C93.4827 25.4601 94.2587 26.2788 95.1973 26.9988L95.2774 27.0587L95.32 27.1361C96.0373 28.4134 97.06 29.5734 97.9494 30.7347C98.3147 31.2094 98.6894 31.6801 99.0574 32.1534C99.6747 33.7934 99.9773 35.5681 100.123 37.2894C100.224 38.4947 100.167 39.7014 100.22 40.9081C100.253 41.6721 100.339 42.4294 100.415 43.1867C100.179 42.4627 99.9147 41.7534 99.632 41.0654C99.1094 39.7988 98.8667 38.444 98.4507 37.14C98.02 35.788 97.508 34.4214 96.86 33.1587C96.296 32.0587 95.4653 31.1014 94.7333 30.1147C94.0307 29.1734 93.496 28.1321 92.8147 27.1774C92.772 27.0561 92.7293 26.9388 92.6893 26.8134C92.352 25.7801 91.7466 25.0628 91.04 24.2601C90.0973 23.1908 89.3773 21.9427 88.3587 20.9414C88.2307 20.8161 88.1027 20.6934 87.9747 20.5747L87.764 20.2734L87.752 20.2561C88.8894 20.7854 90.008 21.3547 91.0867 22.0027C91.236 22.0907 91.384 22.1734 91.5346 22.2548V22.2548ZM35.012 8.68673C34.1973 9.29606 33.4307 9.97743 32.6414 10.6268C29.5427 12.1374 26.6347 13.9814 23.9654 16.1107L23.8093 16.2214C23.2973 16.6094 22.7627 16.9747 22.2307 17.3414C23.1267 16.5067 24.032 15.6854 24.94 14.8667C27.024 12.9921 29.2 11.3494 31.724 10.1121C32.7974 9.58538 33.8973 9.11873 35.012 8.68673ZM18.0307 21.7561C13.2867 27.1281 9.75468 33.5974 7.86935 40.7361C7.79335 40.8774 7.72 41.0188 7.648 41.1574C7.75733 38.8868 8.192 36.6001 8.884 34.4561C9.3 33.1627 9.91204 31.9494 10.6574 30.8174C11.4614 29.5974 12.528 28.5694 13.4173 27.4174C15.0187 25.3441 16.5093 23.2561 18.256 21.3134C18.1813 21.4601 18.104 21.6081 18.0307 21.7561V21.7561ZM32.2147 96.3254C32.7347 96.5334 33.256 96.7388 33.7707 96.9548C33.4253 96.8788 33.0827 96.7988 32.7387 96.7108C32.4414 96.5681 32.1494 96.4161 31.8627 96.2548L32.2147 96.3254ZM98.848 66.7147L98.8693 66.5067C99.0173 65.0694 99.2453 63.6801 99.6173 62.2828L99.6733 62.0734C99.6626 62.3934 99.6507 62.7107 99.628 63.0334C99.5547 64.1147 99.2693 65.2094 99.04 66.2881C98.9773 66.4308 98.9133 66.5721 98.848 66.7147V66.7147ZM78.22 10.9441C79.44 11.1174 80.2067 12.1254 80.9307 13.0161C81.7707 14.0454 82.732 14.9694 83.6827 15.8947C84.1027 16.3041 84.5573 16.6894 84.904 17.1654L85.0214 17.3507C84.0947 16.5761 83.0907 15.8894 82.012 15.2534C80.904 14.5987 79.772 13.9894 78.68 13.3107C77.4547 12.5494 76.3 11.6827 75.088 10.9054L74.8053 10.7321C75.9333 10.9308 77.092 10.7841 78.22 10.9441V10.9441ZM21.288 16.2521C22.4534 15.4588 23.532 14.5521 24.648 13.6908C25.064 13.3721 25.484 13.0694 25.9093 12.7721C25.5187 13.0961 25.132 13.4227 24.7494 13.7614C22.6574 15.6094 20.6147 17.5227 18.6627 19.5174C16.724 21.4961 15.0267 23.6214 13.4173 25.8694C12.2547 27.4934 10.904 28.9161 9.79871 30.5334L9.92137 30.2094C11.156 28.3294 12.4587 26.4841 13.7093 24.6174C15.6333 21.7494 17.88 19.1748 20.384 16.8548C20.6867 16.6534 20.9907 16.4534 21.288 16.2521V16.2521ZM26.472 93.7427C27.2214 94.0667 27.8787 94.5374 28.5627 94.968L28.912 95.2468C27.9493 94.7374 26.9826 94.2374 26.0013 93.7601C25.388 93.4628 24.8107 93.1254 24.2533 92.7628C24.9587 93.1508 25.724 93.4214 26.472 93.7427V93.7427ZM76.7507 93.1534C77.008 93.1254 77.264 93.0934 77.5214 93.0641C76.7214 93.5814 75.904 94.0694 75.0494 94.4961C74.92 94.5614 74.7893 94.6241 74.6613 94.6881C74.1653 94.8134 73.6666 94.9321 73.1706 95.0481C74.3933 94.4667 75.588 93.8361 76.7507 93.1534V93.1534ZM96.536 73.8188C96.9173 73.1601 97.292 72.5068 97.62 71.8268C97.1933 72.8934 96.6413 73.8748 96.0147 74.8108C96.176 74.4774 96.3467 74.1441 96.536 73.8188V73.8188ZM66.62 6.01876C69.2053 6.99742 71.6347 8.37206 74.3467 8.98406C75.4054 9.22406 76.3413 9.74938 77.312 10.2121C77.0213 10.2081 76.7307 10.2121 76.4507 10.2107C74.9533 10.1947 73.6653 9.74674 72.2387 9.36674L71.9147 9.28139L71.5787 9.13074C70.3027 8.55474 69.152 7.81606 67.94 7.1254C65.7147 5.8534 62.876 5.79071 60.3987 5.43471C57.6054 5.03204 54.7974 4.7454 51.9987 4.3894C51.7707 4.3614 51.544 4.3401 51.32 4.32676C53.5067 4.09743 55.6933 4.06009 57.912 4.22143C58.068 4.23209 58.2253 4.24673 58.3813 4.25873C61.1853 4.68273 63.9547 5.00809 66.62 6.01876V6.01876ZM45.6693 99.8481C45.0067 99.7094 44.368 99.4894 43.7333 99.2561C44.4773 99.1801 45.2214 99.0948 45.9654 98.9988C48.3014 99.3574 50.6947 99.5441 53.1307 99.5441C53.252 99.5441 53.3707 99.5401 53.4893 99.5401C52.16 99.7601 50.832 100 49.508 100.245C48.22 100.245 46.9293 100.115 45.6693 99.8481V99.8481ZM59.8867 99.2881C61.332 99.1361 62.7933 99.1761 64.2427 99.0361C64.8333 98.9787 65.412 98.8801 65.9813 98.7521C63.7413 99.3081 61.3547 99.3374 59.0587 99.3921C59.3347 99.3534 59.6107 99.3188 59.8867 99.2881ZM70.8706 96.3934C69.6 96.7894 68.384 97.3307 67.12 97.7374C65.98 98.1067 64.7853 98.2707 63.592 98.3694C63.84 98.3134 64.0867 98.2521 64.3333 98.1908C66.4853 97.7854 68.5667 97.1641 70.6427 96.4134C71.14 96.2334 71.644 96.0787 72.152 95.9401L71.8813 96.0867C71.5427 96.1854 71.2053 96.2868 70.8706 96.3934ZM78.4587 94.1214C79.5213 93.6441 80.5294 93.0654 81.5107 92.4401C82.488 92.2401 83.46 91.9961 84.4227 91.6881L84.44 91.6828C82.5906 92.5481 80.74 93.4201 78.8053 94.0801C78.4053 94.2161 78.0014 94.3454 77.596 94.4707C77.8867 94.3627 78.1733 94.2481 78.4587 94.1214V94.1214ZM102.473 36.5427C102.547 37.1214 102.603 37.7041 102.663 38.2841C102.348 36.4534 102.167 34.6334 101.116 33.0347L101.113 32.8521C101.108 32.5121 101.116 32.1734 101.123 31.8361C101.773 33.3241 102.267 34.8614 102.473 36.5427V36.5427ZM95.3066 22.4787C95.66 22.7774 95.9786 23.0934 96.2733 23.4241C95.26 22.7188 94.108 22.3294 92.9787 21.84C92.8293 21.7747 92.684 21.7067 92.54 21.6361C92.3186 21.2707 92.088 20.9134 91.8333 20.5694L91.804 20.5321L91.5693 20.1867C90.8773 19.2107 90.0707 18.3281 89.2147 17.4894C88.9347 17.1614 88.652 16.8401 88.3627 16.5241C88.2734 16.3748 88.1827 16.224 88.092 16.0734C88.6733 16.8067 89.268 17.5294 89.924 18.1908C91.5454 19.8268 93.5586 20.9961 95.3066 22.4787V22.4787ZM61.6587 3.12676C64.2573 4.03743 66.976 4.31875 69.6173 5.04942C69.9493 5.14009 70.28 5.23871 70.6093 5.34005C71.2773 5.56671 71.9427 5.80004 72.6067 6.03738C72.7573 6.09204 72.9093 6.1441 73.0613 6.19343C74.6173 6.77876 76.156 7.42542 77.668 8.04408C78.7253 8.47342 79.732 8.93874 80.7013 9.46407C81.54 10.2894 82.3893 11.044 83.3427 11.7427C84.4333 12.54 85.408 13.3507 86.22 14.4347C85.4013 13.724 84.544 13.0561 83.676 12.4054C82.7547 11.7121 81.9587 10.9067 80.9307 10.3921C80.4733 10.1027 80.004 9.82277 79.5173 9.56277C78.3587 8.95077 77.1494 8.4401 75.9907 7.82677C74.748 7.16943 73.5107 6.51338 72.1934 6.01205C70.984 5.55072 69.6907 5.44407 68.48 4.96407C67.1574 4.4414 65.8027 4.2054 64.4053 3.9614C62.6373 3.65073 60.8587 3.39075 59.072 3.21609C58.2987 3.09075 57.5253 2.97341 56.7427 2.90808C55.348 2.78808 53.9307 2.85873 52.532 2.88673C51.0707 2.91473 49.6387 2.90406 48.1893 3.12273C45.34 3.55206 42.7214 4.58671 39.9907 5.44005C38.7587 5.82405 37.4733 6.01472 36.228 6.35072C34.8707 6.71472 33.5467 7.1921 32.248 7.7241C28.032 9.45343 24.2974 12.0294 20.8654 14.9828C21.48 14.3414 22.0587 13.6801 22.6507 12.9801C23.4827 11.9961 24.536 11.2547 25.544 10.4707C26.6734 9.59338 27.7667 8.68941 29.048 8.03874C31.4827 6.80008 34.0507 5.96138 36.5187 4.80404C37.6507 4.27338 38.8186 3.92809 39.9346 3.34675C41.224 2.67209 42.9414 2.32538 44.3827 2.17872C45.7734 2.03738 47.1947 2.12538 48.5907 2.04538C50.1374 1.95472 51.6827 1.81871 53.2307 1.77071C56.112 1.68271 58.944 2.17476 61.6587 3.12676V3.12676ZM37.0027 3.4254C37.4547 3.25073 37.9307 3.10404 38.4134 2.97071C38.2534 3.04271 38.092 3.11338 37.9267 3.17872C36.6774 3.67338 35.4707 4.18938 34.2427 4.74538C33.7773 4.95605 33.2987 5.13204 32.8173 5.30137C34.1907 4.60271 35.5947 3.96673 37.0027 3.4254V3.4254ZM4.71199 36.2814C5.34666 35.0334 6.16537 33.9214 6.72404 32.6254C7.22804 31.4614 7.60404 30.2561 8.1547 29.1121C8.73737 27.8947 9.55468 26.8747 10.2947 25.7587C10.9667 24.7481 11.3747 23.7281 12.3054 22.9027C13.0987 22.1987 13.7747 21.4027 14.464 20.6054C13.208 22.2534 12 23.9641 10.9467 25.7281C10.444 26.5694 10.0013 27.4401 9.60665 28.3294C9.19865 29.0668 8.81332 29.8187 8.43999 30.5761C7.05999 32.7574 6.04401 35.0787 5.02534 37.4587C4.41467 38.8814 3.884 40.3241 3.41466 41.7881C3.61733 41.0214 3.79865 40.2494 3.93465 39.4667C4.12932 38.3641 4.19466 37.2947 4.71199 36.2814V36.2814ZM4.79201 72.1908C3.25334 70.0748 2.50535 67.8214 2.16935 65.2468C1.77602 62.2161 1.66002 59.1534 1.60535 56.1014C1.58002 54.7627 1.52404 53.4174 1.52671 52.0761C1.56137 52.6147 1.61332 53.1521 1.67332 53.6841C1.98266 56.4667 2.54668 59.2294 3.26134 61.9334C4.01334 64.7707 4.9587 67.5521 5.8907 70.3307L5.91199 70.4001C6.21866 71.9721 6.66401 73.512 7.33068 75.004L7.43999 75.3268C6.50666 74.3254 5.59867 73.3014 4.79201 72.1908V72.1908ZM13.5027 84.3188C12.9213 83.4921 12.4267 82.6201 11.936 81.7441C12.76 82.7961 13.548 83.8734 14.3173 84.9641C14.84 85.7067 15.332 86.4508 15.8934 87.1468L16.124 87.4694C15.2027 86.4494 14.2973 85.4441 13.5027 84.3188V84.3188ZM37.576 100.515C36.184 100.363 34.844 100.043 33.596 99.3947C32.3374 98.7427 31.2067 97.9108 29.9093 97.3241C27.2133 96.1094 24.692 94.8001 22.2267 93.1587C21.052 92.3761 19.8213 91.5934 18.7973 90.6188C18.3147 90.1574 17.8867 89.6401 17.4693 89.1147C18.8573 90.6107 20.5227 91.9068 22.176 93.0521C24.8427 94.8988 27.8973 96.3854 31.0707 97.3441C32.9787 98.3788 34.876 99.356 36.9787 100.035C37.4227 100.179 37.8346 100.369 38.2346 100.579C38.0146 100.559 37.796 100.539 37.576 100.515V100.515ZM73.804 97.9507C72.584 98.3014 71.348 98.604 70.1147 98.9014C68.7147 99.2414 67.464 99.9987 66.0547 100.32C64.7387 100.62 63.3933 100.793 62.072 101.085C60.5413 101.424 59.0133 101.788 57.4973 102.192C56.112 102.561 54.708 102.799 53.2774 102.895C51.8627 102.989 50.444 102.815 49.036 102.96C48.304 103.037 47.6814 103.183 46.9494 103.019C46.3134 102.875 45.7294 102.525 45.1414 102.259C44.8107 102.108 44.468 101.996 44.1214 101.905C45.1254 101.843 46.1347 101.604 47.1027 101.408C47.4093 101.345 47.72 101.288 48.0294 101.228C48.7467 101.281 49.4693 101.297 50.1867 101.288C51.5187 101.272 52.8507 101.029 54.1654 100.828C55.7774 100.584 57.3654 100.527 58.9934 100.496C61.8467 100.441 64.8026 100.408 67.5346 99.4988C69.8906 98.7161 71.98 97.3254 74.188 96.2121C76.1147 95.6627 78.0453 95.1254 79.928 94.4281C82.316 93.5427 84.5733 92.2814 86.872 91.1894C87.208 91.0307 87.5387 90.8654 87.864 90.6988C83.5387 93.7668 78.932 96.4774 73.804 97.9507V97.9507ZM96.7867 80.2774C97.0493 79.5961 97.3014 78.9121 97.552 78.2321C97.78 77.6174 98.0307 77.0041 98.2893 76.3894C97.9507 77.5014 97.5613 78.5987 97.0693 79.6707C96.9773 79.8747 96.8827 80.0761 96.7867 80.2774ZM101.973 62.8694C102.417 60.7494 102.933 58.6454 103.429 56.54C103.783 55.032 104.104 53.5094 104.32 51.9761C104.28 52.5134 104.236 53.0454 104.192 53.5641C103.944 56.5187 103.3 59.4334 102.237 62.2014C102.151 62.4254 102.063 62.6467 101.973 62.8694" fill="#F7A70F"/>
<path d="M59.5934 69.0787C62.316 66.1667 65.9466 63.28 70.1013 60.8414C70.2573 60.5854 70.4107 60.3294 70.5627 60.072C71.104 59.152 71.6134 58.22 72.088 57.2813C71.4 57.632 70.7134 57.9973 70.0294 58.3787C66.5267 60.3387 63.368 62.592 60.716 64.9547C61.4627 61.5494 61.88 57.776 61.8907 53.848C61.9254 42.6293 58.656 32.624 53.7587 28.9467L53.1107 28.4627L52.4613 28.944C47.5413 32.5894 44.2134 42.576 44.18 53.7947C44.1667 57.7227 44.5627 61.5 45.2867 64.9093C42.6507 62.5307 39.5067 60.2587 36.0147 58.2774C35.332 57.892 34.6467 57.5214 33.9613 57.1667C34.432 58.108 34.936 59.044 35.4706 59.968C35.6213 60.2267 35.7747 60.484 35.928 60.7373C40.0667 63.204 43.6814 66.112 46.3854 69.04C47.8107 73.42 49.8573 76.8534 52.312 78.696L52.632 78.936L52.644 78.9467L52.6467 78.9453L52.96 79.1813L53.2747 78.948H53.2774L53.2893 78.9373L53.6093 78.7013C56.076 76.872 58.1414 73.452 59.5934 69.0787V69.0787ZM53.1027 31.224C57.0613 34.8854 59.752 43.9694 59.7227 53.8414C59.7067 58.9867 58.9546 63.908 57.6733 67.96C56.7933 68.9307 56.0067 69.908 55.3227 70.8774C55.3867 71.7054 55.4094 72.5027 55.3907 73.2654L55.3893 73.2987C54.652 74.5667 53.84 75.624 52.968 76.4214C52.1013 75.6187 51.2947 74.5574 50.5654 73.2854L50.564 73.2494C50.5507 72.488 50.5773 71.6907 50.6453 70.8627C49.968 69.8894 49.1867 68.9081 48.3134 67.9321C47.0574 63.8721 46.332 58.9454 46.348 53.8027C46.3787 43.928 49.1213 34.8627 53.1027 31.224" fill="white"/>
<path d="M73.2107 61.6294C78.8987 51.9601 81.1267 41.6721 78.7521 36.028L78.4387 35.2814L77.6334 35.3694C72.9627 35.8801 67.2201 40.088 62.2294 46.3867C62.3654 47.4227 62.476 48.4801 62.5534 49.5547C67.164 43.1787 72.6734 38.6 77.0387 37.6614C78.6081 42.8214 76.3481 52.0201 71.3414 60.5307C67.4107 67.2107 62.2854 72.6174 57.712 75.1814C56.8734 76.5587 55.9467 77.728 54.948 78.6427C60.8067 77.1614 67.9574 70.5601 73.2107 61.6294" fill="white"/>
<path d="M48.2293 75.152C43.6733 72.5613 38.5813 67.1253 34.6893 60.42C29.7333 51.88 27.5293 42.6693 29.1293 37.5187C33.488 38.4827 38.972 43.0934 43.5413 49.4987C43.6266 48.4227 43.7426 47.3667 43.8866 46.332C38.9333 40.0054 33.2146 35.7613 28.5466 35.2226L27.744 35.1307L27.4253 35.8733C25.0173 41.504 27.1826 51.8066 32.8146 61.5093C38.0146 70.4706 45.1253 77.1134 50.9733 78.632C49.9813 77.7094 49.0627 76.536 48.2293 75.152" fill="white"/>
<path d="M95.748 53.3947C94.1533 52.6827 92.172 52.3227 89.8587 52.3227C86.2133 52.3227 81.9547 53.2201 77.5667 54.8654C77.184 55.8068 76.768 56.7534 76.3173 57.6988C81.1667 55.6321 85.9133 54.4908 89.8587 54.4908C91.484 54.4908 92.8986 54.6867 94.076 55.0721C92.828 60.3201 86.2373 67.1214 77.62 71.9427C71.2893 75.4867 64.7014 77.5708 59.432 77.7161C57.972 78.5601 56.54 79.1734 55.1706 79.5188L55.1547 79.5227C56.2667 79.7667 57.5 79.8934 58.8494 79.8934C64.572 79.8934 71.8 77.6854 78.6787 73.8361C88.4693 68.3587 95.5827 60.5974 96.38 54.5254L96.484 53.7241L95.748 53.3947" fill="white"/>
<path d="M46.496 77.6773C41.2254 77.5013 34.6613 75.3813 28.3426 71.7973C19.7546 66.924 13.204 60.0827 11.988 54.828C13.1387 54.4587 14.5133 54.2693 16.0893 54.2693C20.0613 54.2693 24.8427 55.4413 29.7307 57.5587C29.2853 56.6107 28.8747 55.6627 28.4973 54.7187C24.0653 53.0254 19.768 52.1013 16.0893 52.1013C13.8333 52.1013 11.896 52.4507 10.328 53.1387L9.58536 53.4654L9.68803 54.268C10.448 60.344 17.5146 68.1453 27.2733 73.684C34.1893 77.608 41.452 79.8574 47.196 79.8574C48.4947 79.8574 49.6853 79.7386 50.7613 79.5093L50.748 79.5053C49.38 79.1507 47.9507 78.528 46.496 77.6773" fill="white"/>
<path d="M18.0093 72.712C19.2959 77.3747 24.2053 83.8174 27.764 86.5774C29.6346 88.0294 34.3026 90.3454 38.8839 92.4307C38.3053 92.6974 37.6693 92.8747 36.9066 92.8373C35.0653 92.744 33.8693 92.4227 32.1666 92.5613C30.464 92.6987 28.024 93.436 27.0133 94.9533C26 96.472 26.2306 95.6907 25.5386 97.0694C24.8493 98.452 24.6187 98.452 25.2627 99.6934C25.908 100.936 25.6773 101.167 27.2893 101.488C28.8986 101.812 29.3133 101.257 32.2586 100.936C35.204 100.615 36.9066 100.799 39.944 101.029C42.9826 101.257 47.8146 100.707 48.964 99.7854C49.6146 99.2654 50.6773 98.5974 51.564 97.9494C53.456 99.1 54.2946 100.264 55.6839 100.936C57.5853 101.857 58.8746 102.04 60.2853 102.348C61.696 102.655 62.1866 103.391 64.272 103.329C66.3586 103.268 65.8066 102.716 70.3479 103.759C74.8879 104.801 75.4399 105.109 75.8706 104.249C76.2999 103.391 76.3 103.697 76.7293 102.777C77.1587 101.857 76.9733 102.04 77.4039 101.181C77.8333 100.321 78.0786 100.568 77.8333 99.7093C77.588 98.8493 77.5266 99.2187 77.2813 98.42C77.0359 97.624 76.7906 96.3347 76.5453 95.72C76.2999 95.1067 76.4826 94.924 75.1333 94.3707C73.7826 93.8187 79.4906 90.6893 79.4906 90.6893C79.4906 90.6893 88.264 84.92 88.264 80.0134C88.264 75.104 84.3986 72.2814 81.7 72.772C79 73.2627 79 73.2627 79 73.2627C79 73.2627 86.3626 66.8214 86.7306 66.5747C87.0986 66.3307 87.5293 65.9 87.4053 64.7947C87.2826 63.6907 85.9933 59.028 85.564 57.188C85.1346 55.3454 82.4973 50.008 80.7786 47.7373C79.0613 45.468 79.5519 40.6813 75.4399 38.104C71.3293 35.5267 66.3587 35.404 63.5987 33.3187C61.5173 31.7454 61.2493 30.696 61.1627 29.5134H61.2026L61.1627 29.3294C61.1027 28.9614 61.1627 21.9054 61.1627 21.9054C61.1627 21.9054 62.9426 21.4147 63.6786 19.2054C64.3626 17.148 63.2426 16.4761 63.0839 16.3934C63.0906 16.3001 63.0946 16.064 63.0906 15.524C63.24 14.856 63.3226 14.1613 63.3226 13.4453C63.3226 8.56934 59.644 4.61604 55.108 4.61604C50.572 4.61604 46.8933 8.56934 46.8933 13.4453C46.8933 13.948 46.9346 14.4427 47.0093 14.9227C46.9986 15.9027 47.0039 16.2721 47.0119 16.3934C46.8533 16.4761 45.7319 17.148 46.4173 19.2054C47.1546 21.4147 48.9333 21.9054 48.9333 21.9054C48.9333 21.9054 48.9946 28.9614 48.9333 29.3294C48.872 29.6974 48.3813 31.968 45.128 33.1334C41.876 34.3 40.5266 34.5453 39.2373 34.668C37.9506 34.7907 30.5867 34.7294 29.36 43.7494C29.36 43.7494 25.3719 50.1307 24.5119 53.812C23.6533 57.4933 22.1199 58.7827 21.8733 60.2547C21.6293 61.728 20.4626 64.1213 21.8733 64.612L22.0586 65.4707C22.0586 65.4707 16.7199 68.0467 18.0093 72.712V72.712ZM68.8759 60.6227C70.2866 57.5547 71.9426 51.972 71.9426 51.972C71.8813 52.4014 73.968 56.4507 76.3 58.9654C78.6306 61.4827 78.5093 62.0947 78.3866 62.8147C78.2626 63.5347 76.2386 67.188 75.072 68.5373C73.9066 69.888 71.3906 72.772 69.98 72.8947C68.568 73.0174 67.8919 73.8147 67.4013 73.6321C66.9106 73.4467 66.4199 72.6507 66.2373 71.1147C66.0519 69.5813 67.4639 63.6907 68.8759 60.6227V60.6227ZM32.244 57.2494C33.716 56.328 35.9866 54.0587 35.9866 51.2347C35.9866 51.0507 36.232 54.6107 38.1946 58.8427C40.1586 63.076 40.4653 64.4267 40.588 66.5134C40.712 68.6 40.8946 70.808 40.8946 70.808C40.8946 70.808 35.6173 66.5747 33.6546 63.9987C31.692 61.4214 30.7106 60.1934 30.7106 60.1934C30.7106 60.1934 30.7706 58.168 32.244 57.2494" fill="#8A3032"/>
</svg>
