<svg viewBox="0 0 120 118" fill="none" xmlns="http://www.w3.org/2000/svg">
<path d="M118.321 47.1974C117.84 45.4814 117.627 43.7467 117.453 41.9761C117.152 38.9267 116.397 36.2454 115.008 33.5134C114.863 33.2227 114.709 32.936 114.556 32.6507C114.529 32.5094 114.499 32.3667 114.463 32.2254C114.205 31.2454 113.595 30.4054 112.911 29.6614L112.887 29.6187C112.219 28.3894 111.671 27.1107 110.787 26.0147C109.201 24.0427 107.092 22.6507 105.091 21.1441C102.647 19.3054 100.824 16.9814 98.9494 14.5947C97.1854 12.3454 94.7813 10.4934 92.308 9.08006C91.3507 8.53473 90.3387 8.05072 89.3027 7.60806C89.0547 7.48139 88.7933 7.36404 88.5133 7.26138C88.388 7.21471 88.2613 7.16938 88.1347 7.12938C86.7587 6.58138 85.36 6.08671 84.0053 5.59338C82.5187 5.05071 81.044 4.45606 79.5387 3.97339C78.0373 3.49472 76.4707 3.23205 74.924 2.93605L74.592 2.7867C73.4093 2.22137 72.1453 0.802714 70.7307 1.03071L70.744 1.12137C71.8173 1.04804 72.7587 2.02804 73.62 2.6547C70.9667 2.00937 68.4307 0.992038 65.7373 0.488038C62.5573 -0.111962 59.376 0.0680471 56.172 0.29738C55.736 0.326714 55.3013 0.353393 54.8667 0.377393C54.6467 0.37206 54.4253 0.362711 54.2067 0.361378C53.272 0.352044 52.332 0.396034 51.392 0.484034L51.3107 0.485369C49.704 0.500035 48.1907 0.880061 46.6347 1.24539C46.472 1.28273 46.3147 1.32939 46.1587 1.37873C45.8627 1.44939 45.5667 1.52138 45.272 1.59871C43.8187 1.97471 42.3333 2.22938 40.9347 2.79338C39.544 3.35338 38.192 4.04539 36.8293 4.67339C33.8693 6.03606 31.0747 7.75472 28.4187 9.64006C27.3173 10.4227 26.1987 11.2227 25.2213 12.1614C24.7707 12.5934 24.3693 13.0787 23.968 13.556C23.476 14.1427 22.828 14.5494 22.2307 15.0187C21.0573 15.9374 20.092 17.1254 19.0987 18.228C17.9933 19.4574 16.804 20.6107 15.7173 21.8574C14.7947 22.9174 13.904 23.9481 12.8507 24.8801C11.836 25.7774 11.3547 26.9801 10.6454 28.1027C9.89869 29.2921 9.02 30.3494 8.36134 31.6041C7.67467 32.9054 7.20401 34.296 6.67335 35.664C6.09735 37.1427 5.244 38.4427 4.42934 39.7907C3.796 40.836 3.57734 41.976 3.41067 43.1667C2.996 46.184 1.908 49.048 1.16267 51.9907C0.373338 55.1027 0.456004 58.1987 0.478671 61.3854C0.505337 64.86 0.613345 68.336 0.953345 71.7974C1.22934 74.6027 1.636 77.272 2.96 79.792C4.132 82.0214 5.84666 83.9414 7.55333 85.7694C8.09066 86.344 8.62934 86.916 9.16267 87.4907L9.23601 87.652C9.86268 88.9854 10.74 90.2014 11.5 91.46C12.36 92.8867 13.1107 94.3534 14.06 95.728C14.8667 96.9 15.7893 97.9787 16.756 99.024C17.8227 100.176 18.7533 101.429 19.7933 102.601C20.74 103.668 21.9347 104.456 23.0973 105.265C24.5133 106.252 25.964 107.187 27.4467 108.071C30.2467 109.739 33.3453 110.761 36.1107 112.481C37.292 113.216 38.468 113.795 39.8213 114.136C41.2613 114.499 42.7613 114.548 44.2333 114.656C44.524 114.679 44.8147 114.705 45.104 114.735C45.364 114.877 45.6267 115.019 45.8973 115.149C47.3 115.815 48.8987 115.796 50.3467 116.317C51.6227 116.777 52.6427 117.485 54.044 117.511C54.7573 117.524 55.4853 117.317 56.1973 117.28C57.036 117.236 57.884 117.301 58.724 117.313C61.9787 117.361 65.0174 116.509 68.1494 115.755C69.7214 115.377 71.304 115.001 72.8947 114.711C74.532 114.411 76.036 114.125 77.5787 113.476C80.3867 112.293 83.4667 111.832 86.3533 110.861C87.664 110.423 88.944 109.899 90.1893 109.303C91.6307 108.615 92.9253 107.684 94.344 106.961C95.7093 106.265 96.904 105.492 98.132 104.581C99.3213 103.696 100.604 102.951 101.781 102.041C103.7 100.557 105.375 98.796 106.717 96.7854C110.017 92.6667 111.904 87.4 113.245 82.3934C113.649 80.8854 114.149 79.3974 114.524 77.8814C114.727 77.0641 114.831 76.2374 114.921 75.4107C115.499 73.8094 116.176 72.2414 116.835 70.6254C119.237 64.724 120.004 57.78 119.327 51.4547C119.171 50.0027 118.715 48.5974 118.321 47.1974V47.1974ZM114.707 35.4574C115.449 37.148 116.009 38.8961 116.247 40.8094C116.328 41.4694 116.392 42.1294 116.459 42.7894C116.104 40.708 115.895 38.6387 114.701 36.8187L114.696 36.6107C114.693 36.2241 114.7 35.8414 114.707 35.4574V35.4574ZM113.904 48.3667C113.635 47.5427 113.333 46.736 113.013 45.952C112.419 44.512 112.143 42.9707 111.671 41.4894C111.18 39.9494 110.599 38.3987 109.86 36.9587C109.22 35.7094 108.275 34.62 107.44 33.5C106.643 32.4254 106.035 31.2414 105.259 30.156C105.211 30.02 105.161 29.8841 105.116 29.7414C104.733 28.5667 104.043 27.7521 103.239 26.8387C102.167 25.6241 101.349 24.204 100.191 23.0627C100.044 22.92 99.9 22.7814 99.7533 22.6454L99.5147 22.3054L99.5 22.284C100.795 22.8867 102.067 23.5361 103.293 24.2707C103.461 24.3707 103.632 24.4667 103.801 24.5574C104.312 25.3854 104.772 26.2467 105.292 27.0654C106.019 28.2027 106.901 29.136 107.969 29.952L108.06 30.0214L108.108 30.1094C108.925 31.5627 110.088 32.8827 111.099 34.2041C111.515 34.7441 111.939 35.2774 112.36 35.8161C113.063 37.6814 113.405 39.7 113.571 41.6587C113.687 43.0294 113.619 44.4027 113.681 45.7761C113.721 46.6427 113.816 47.504 113.904 48.3667V48.3667ZM113.359 58.3214C113.417 57.3694 113.437 56.4027 113.427 55.4187C113.416 54.4507 113.432 53.4854 113.436 52.524C113.592 53.3334 113.705 54.1521 113.78 54.9747C113.753 55.2254 113.728 55.4774 113.707 55.7294C113.557 57.5014 113.595 59.2827 113.433 61.06L113.432 61.0774C113.396 61.2161 113.359 61.356 113.32 61.4947C113.349 60.74 113.372 59.9827 113.372 59.2214C113.372 58.92 113.364 58.6214 113.359 58.3214V58.3214ZM112.997 70.0867L113.061 69.8494C113.048 70.2121 113.035 70.5761 113.009 70.9401C112.924 72.1694 112.601 73.4161 112.34 74.6427C112.268 74.8041 112.195 74.9667 112.121 75.1267L112.144 74.8907C112.313 73.256 112.575 71.676 112.997 70.0867V70.0867ZM112.221 48.1761L112.259 48.2894L112.276 48.4334L112.221 48.1761ZM112.903 66.288C112.924 66.128 112.945 65.9681 112.965 65.8067L113.02 65.6427C112.995 65.7961 112.972 65.948 112.941 66.0987L112.903 66.288ZM110.287 79.1094C109.969 79.8467 109.656 80.5894 109.341 81.3294C108.824 82.2987 108.237 83.2321 107.74 84.2107C107.433 84.8107 107.199 85.4294 106.953 86.0387L106.967 85.7734C107.404 84.5961 107.8 83.4054 108.168 82.2027C109.321 79.7934 110.299 77.284 111.085 74.692C110.911 76.184 110.731 77.6734 110.287 79.1094V79.1094ZM110.725 80.9427C110.24 82.1561 109.611 83.2707 108.899 84.336C109.08 83.956 109.275 83.5801 109.491 83.2067C109.925 82.4601 110.351 81.7147 110.725 80.9427V80.9427ZM72.0187 111.133C72.3027 111.069 72.584 110.999 72.864 110.929C75.3107 110.468 77.6787 109.761 80.0387 108.907C80.6053 108.703 81.18 108.528 81.7573 108.368L81.4494 108.536C81.064 108.648 80.68 108.764 80.2987 108.884C78.852 109.335 77.4707 109.951 76.0307 110.416C74.736 110.833 73.3773 111.02 72.0187 111.133V111.133ZM74.7387 111.568C72.1893 112.201 69.476 112.235 66.8653 112.296C67.1787 112.253 67.4907 112.212 67.8067 112.177C69.4507 112.005 71.1133 112.049 72.76 111.891C73.4333 111.827 74.0907 111.712 74.7387 111.568V111.568ZM71.5027 7.19471C72.2813 7.30938 73.0587 7.43606 73.8267 7.61206C74.4973 7.76539 75.104 8.00403 75.6853 8.28403C74.3133 7.86537 72.9187 7.50271 71.5027 7.19471ZM81.4867 9.80005C81.36 9.74272 81.2333 9.68671 81.1053 9.62938C79.6533 8.97471 78.344 8.13473 76.9653 7.34806C74.4347 5.9014 71.2053 5.83071 68.388 5.42537C65.212 4.96804 62.016 4.64139 58.8347 4.23739C58.572 4.20405 58.316 4.18272 58.06 4.16672C60.5493 3.90405 63.0347 3.86139 65.56 4.04539C65.7373 4.05739 65.916 4.07337 66.0947 4.08804C69.2827 4.5707 72.4307 4.94137 75.464 6.09071C78.4027 7.20404 81.168 8.76538 84.2507 9.46271C85.456 9.73605 86.5227 10.3347 87.6267 10.86C87.2947 10.856 86.9653 10.8614 86.6453 10.8574C84.9427 10.8414 83.4787 10.3307 81.856 9.89871C81.7333 9.86405 81.6093 9.83205 81.4867 9.80005ZM60.1213 5.97205C55.5227 5.97205 51.06 6.5547 46.804 7.65203C47.3533 7.3947 47.904 7.1454 48.4547 6.91473C49.588 6.44273 50.8107 6.36671 52.02 6.32404C52.204 6.31737 52.204 6.03872 52.02 6.03872C51.18 6.04139 50.3707 6.07473 49.568 6.2134C49.7093 6.17873 49.8493 6.14272 49.9893 6.10672C51.5107 5.72672 53.108 5.67206 54.6613 5.50806C55.9507 5.37206 57.128 5.34139 58.3507 5.44539L58.636 5.48403C59.04 5.5387 59.4427 5.58405 59.8453 5.63205C60.7853 5.78405 61.7293 5.91472 62.6733 6.03338C61.828 5.99338 60.9773 5.97205 60.1213 5.97205V5.97205ZM60.5307 112.463C59.0187 112.716 57.508 112.988 56 113.265C54.5347 113.265 53.0667 113.12 51.6347 112.815C50.88 112.656 50.1533 112.407 49.432 112.14C50.2773 112.055 51.1253 111.957 51.972 111.848C54.6293 112.256 57.3507 112.468 60.1213 112.468C60.2587 112.468 60.3947 112.465 60.5307 112.463V112.463ZM43.7413 8.46672C43.524 8.56272 43.308 8.65737 43.092 8.75337C42.4027 8.9867 41.72 9.23471 41.044 9.49605C41.1707 9.41205 41.2973 9.3294 41.4267 9.2494C43.4267 8.03873 45.7787 7.23872 48.088 6.60405C46.6147 7.11605 45.1573 7.83472 43.7413 8.46672ZM44.4427 110.121C43.7733 110.108 43.1067 110.089 42.4387 110.059L42.352 110.032C41.6053 109.795 40.872 109.512 40.1467 109.211C40.7587 109.243 41.364 109.265 41.9587 109.289C42.7773 109.587 43.6067 109.863 44.4427 110.121V110.121ZM85.0947 11.6494L84.7747 11.452C86.0573 11.6787 87.3733 11.5107 88.66 11.692C90.0467 11.8894 90.9187 13.0374 91.7427 14.0481C92.6947 15.2214 93.7907 16.2707 94.872 17.3227C95.3507 17.788 95.868 18.2267 96.2613 18.7694L96.3933 18.9787C95.3413 18.0987 94.1987 17.3187 92.972 16.5947C91.712 15.8507 90.4254 15.1574 89.1814 14.3854C87.7894 13.5187 86.4747 12.5347 85.0947 11.6494V11.6494ZM87.8627 105.097C86.9547 105.687 86.024 106.241 85.0533 106.728C84.9053 106.801 84.7573 106.875 84.6093 106.947C84.048 107.088 83.48 107.223 82.9133 107.356C84.3067 106.695 85.6653 105.975 86.988 105.201C87.2787 105.167 87.572 105.133 87.8627 105.097ZM95.3413 100.096C94.6573 100.547 93.9507 100.965 93.2693 101.407C92.064 102.185 90.8933 103.025 89.7133 103.848C89.48 103.887 89.244 103.923 89.0093 103.956C90.168 103.208 91.2947 102.412 92.388 101.577C93.3813 101.1 94.3693 100.612 95.3413 100.096V100.096ZM88.928 106.301C90.1373 105.76 91.284 105.1 92.4027 104.388C93.5133 104.161 94.6187 103.885 95.7147 103.533L95.7333 103.527C93.6293 104.513 91.5227 105.504 89.324 106.253C88.868 106.411 88.4094 106.555 87.9494 106.697C88.28 106.576 88.6053 106.445 88.928 106.301ZM95.72 102.433C95.4747 102.511 95.2333 102.58 94.9907 102.651C95.616 102.22 96.2427 101.787 96.872 101.365C97.1533 101.179 97.0053 100.779 96.7533 100.732L96.968 100.589C98.164 99.7654 99.0813 98.576 100.096 97.5507C100.699 96.9414 101.273 96.3134 101.829 95.6734L101.86 95.6481L102.104 95.4534C101.961 95.7547 101.812 96.056 101.645 96.356C100.883 97.7414 100.24 99.3774 99.2453 100.612C98.3947 101.667 96.9533 102.047 95.72 102.433V102.433ZM101.336 94.2214C100.493 94.9787 99.6 95.6787 98.7107 96.3401C98.2107 96.7107 97.7067 97.0814 97.1933 97.4414C100.461 94.2694 103.328 90.684 105.7 86.7667C105.628 87.4907 105.521 88.1987 105.284 88.9067C104.887 89.4134 104.535 89.92 104.228 90.4667C103.285 91.7347 102.351 93.0054 101.336 94.2214ZM110.759 29.1267C111.283 29.7094 111.821 30.2161 112.291 30.7694C112.469 31.1041 112.651 31.4374 112.839 31.7747C113.056 32.1641 113.268 32.5521 113.475 32.9427C113.589 33.3774 113.643 33.8387 113.665 34.3067C112.845 32.5387 111.629 30.9907 110.056 29.788C109.675 29.4974 109.304 29.2214 108.941 28.9414C108.312 27.8254 107.725 26.876 106.721 26.0187L106.456 25.768C106.76 25.9 107.064 26.0321 107.368 26.1747C108.797 26.8387 109.732 27.9814 110.759 29.1267V29.1267ZM101.972 19.9374C103.816 21.7947 106.105 23.1254 108.095 24.8121C108.493 25.1521 108.857 25.512 109.193 25.888C108.041 25.0854 106.728 24.6427 105.444 24.0854C105.277 24.012 105.111 23.9334 104.947 23.8534C104.695 23.44 104.433 23.0307 104.143 22.6401L104.108 22.5974C104.021 22.4654 103.932 22.3361 103.841 22.2054C103.056 21.0947 102.139 20.0907 101.163 19.1361C100.847 18.7641 100.524 18.3974 100.196 18.0414C100.095 17.8681 99.9907 17.6974 99.888 17.5254C100.549 18.36 101.225 19.1827 101.972 19.9374V19.9374ZM99.7987 19.7067C99.9853 19.8774 100.169 20.0507 100.351 20.224C100.749 20.688 101.145 21.1547 101.54 21.62C101.669 21.7974 101.799 21.9721 101.929 22.1467C101.808 22.0801 101.685 22.0147 101.563 21.9507C100.324 21.3187 99.0534 20.756 97.7827 20.1867L97.6613 19.8441C97.2813 18.5907 96.6987 17.848 95.752 16.96C94.652 15.9267 93.556 14.8814 92.5547 13.7494C92.1933 13.3427 91.8533 12.9254 91.492 12.5347C91.992 12.8094 92.4813 13.1294 92.9587 13.5441C93.8987 14.3547 94.864 15.116 95.8147 15.8894C97.1547 17.1534 98.448 18.4801 99.7987 19.7067V19.7067ZM41.776 3.14139C42.292 2.94139 42.832 2.77337 43.3814 2.62271C43.2 2.70671 43.016 2.78671 42.8267 2.86138C41.4067 3.42271 40.032 4.00939 38.6373 4.64273C38.108 4.88139 37.564 5.08139 37.0147 5.27606C38.5774 4.47873 40.1747 3.75872 41.776 3.14139ZM25.4533 14.0067C26.3987 12.8907 27.5947 12.0454 28.7413 11.1534C30.028 10.1547 31.272 9.12804 32.7293 8.38804C35.4987 6.9787 38.42 6.02539 41.2267 4.70806C42.5147 4.10672 43.844 3.71337 45.1107 3.0507C46.5787 2.28537 48.532 1.88937 50.1707 1.72137C51.7507 1.56137 53.3707 1.66272 54.9573 1.56939C56.7173 1.46805 58.4747 1.31337 60.236 1.25737C63.5107 1.15871 66.7347 1.72005 69.8213 2.80272C72.7773 3.83605 75.8693 4.15604 78.8747 4.9867C79.2507 5.0907 79.6267 5.2027 80.0027 5.3187C80.7627 5.57737 81.5187 5.84139 82.2733 6.11206C82.4453 6.17339 82.6187 6.23204 82.792 6.28937C84.5613 6.95471 86.3093 7.69204 88.032 8.39338C89.2333 8.88138 90.3787 9.41339 91.48 10.0107C92.4347 10.9467 93.4013 11.8067 94.4853 12.6C95.7253 13.5094 96.8347 14.4307 97.7573 15.6627C96.8267 14.8547 95.852 14.0947 94.8653 13.3547C93.8173 12.5667 92.9107 11.652 91.7413 11.0654C91.2227 10.7347 90.6893 10.4174 90.1347 10.1227C88.816 9.42537 87.4413 8.84406 86.124 8.14673C84.7093 7.39873 83.3 6.6534 81.804 6.08273C80.4293 5.55873 78.9574 5.43604 77.5814 4.89204C76.076 4.29471 74.5347 4.02807 72.9467 3.7494C70.9347 3.39873 68.9107 3.10005 66.8787 2.90272C66 2.76005 65.12 2.62537 64.2307 2.5507C62.6413 2.41603 61.032 2.49604 59.44 2.52804C57.7773 2.56138 56.1507 2.54671 54.5013 2.79738C51.2587 3.28538 48.28 4.46138 45.176 5.43071C43.7733 5.86938 42.3133 6.08672 40.896 6.46672C39.3533 6.88138 37.8453 7.42538 36.3693 8.02938C31.5733 9.99605 27.3253 12.9267 23.42 16.2867C24.1213 15.5574 24.7773 14.8067 25.4533 14.0067ZM36.3907 107.616C35.3453 107.213 34.284 106.833 33.316 106.284C31.9987 105.535 30.916 104.417 29.872 103.337C29.5587 103.013 29.2427 102.692 28.924 102.373C31.948 104.563 35.212 106.443 38.6693 107.968C37.9027 107.885 37.1387 107.775 36.3907 107.616V107.616ZM38.1013 109.523C37.708 109.439 37.3187 109.348 36.928 109.248C36.588 109.084 36.2573 108.911 35.9307 108.727C36.0627 108.756 36.196 108.783 36.332 108.807C36.9227 109.044 37.516 109.277 38.1013 109.523V109.523ZM32.572 107.583C31.4787 107.003 30.3813 106.432 29.2627 105.889C28.5653 105.551 27.9093 105.167 27.2747 104.757C28.0787 105.197 28.9493 105.504 29.7987 105.872C30.6507 106.239 31.3987 106.775 32.176 107.263C32.308 107.369 32.44 107.477 32.572 107.583V107.583ZM36.8173 11.332C33.2907 13.0494 29.9854 15.1467 26.948 17.5707L26.7707 17.6947C26.1867 18.1374 25.5787 18.5507 24.976 18.968C25.992 18.02 27.024 17.0854 28.0573 16.156C30.4267 14.0214 32.9 12.1534 35.7733 10.7454C36.9933 10.1467 38.2454 9.61604 39.5134 9.12404C38.584 9.81871 37.7147 10.592 36.8173 11.332V11.332ZM22.8747 18.4161C23.2187 18.1881 23.5653 17.9614 23.904 17.7294C25.2293 16.8267 26.456 15.796 27.724 14.8187C28.1973 14.4534 28.676 14.1094 29.1587 13.7721C28.7133 14.1387 28.2733 14.5134 27.84 14.8974C25.46 16.9987 23.1374 19.1761 20.916 21.4441C18.712 23.6947 16.7814 26.1107 14.9494 28.668C13.628 30.5174 12.092 32.1347 10.8333 33.9761C10.8813 33.8521 10.9253 33.7281 10.9747 33.6067C12.3773 31.4667 13.86 29.3694 15.2827 27.2467C17.4707 23.9814 20.0267 21.0534 22.8747 18.4161V18.4161ZM5.42667 67.2867C5.49067 68.4414 5.53466 69.6014 5.58666 70.7627C4.96533 68.3387 4.33067 65.9107 4.51067 63.3934C4.624 61.8227 4.87734 60.2907 4.83201 58.7094C4.80667 57.8707 4.768 57.0454 4.92533 56.2147C5.07333 55.4227 5.28 54.6894 5.32133 53.8774C5.40266 52.3081 5.30002 50.7307 5.27468 49.1614C5.24535 47.4934 5.48802 45.824 5.78136 44.1867L5.85199 43.8614C6.26799 42.7974 6.69599 41.728 7.15199 40.668C7.27599 40.4347 7.39733 40.2027 7.51866 39.9694C7.84666 39.3454 8.15867 38.7121 8.46667 38.0774C8.06001 39.8641 7.76001 41.676 7.53601 43.484C7.30268 45.3654 7.11469 47.2614 6.98002 49.1627C5.92669 51.9067 5.34934 54.8201 5.10134 57.7427C4.82934 60.9467 5.25067 64.0947 5.42667 67.2867V67.2867ZM6.74802 53.9401C6.67869 56.6547 6.71869 59.3694 6.88136 62.064C6.90269 62.4094 6.92533 62.7574 6.95066 63.1054C6.93066 63.3974 6.91469 63.6881 6.91335 63.9801C6.89869 65.7067 7.26668 67.5027 7.43468 69.2227C7.72534 72.1787 8.51735 75.0574 9.30802 77.9147C9.52802 78.7001 9.76135 79.4854 10.0094 80.2627C10.1134 81.456 10.264 82.6401 10.5227 83.8041C10.576 84.0467 10.6387 84.288 10.7 84.5307C10.24 83.748 9.76667 82.9734 9.25733 82.224C8.756 81.4867 8.27066 80.7547 7.88399 79.9721C7.66933 79.2867 7.45201 78.6067 7.23334 77.9254C6.90134 75.7414 6.79334 73.5147 6.70001 71.3294C6.55734 68.0347 6.22268 64.7427 6.10802 61.4481C6.01868 58.9281 6.24136 56.4067 6.74802 53.9401V53.9401ZM8.64001 45.5801C8.55468 45.7387 8.47066 45.8987 8.38666 46.06C8.51333 43.4774 9.00667 40.8734 9.79333 38.4361C10.268 36.9667 10.9614 35.584 11.8107 34.296C12.7254 32.9094 13.9387 31.7414 14.9507 30.428C16.772 28.072 18.468 25.6947 20.4547 23.488C20.3667 23.6547 20.2813 23.8214 20.1973 23.9907C14.8013 30.1027 10.7853 37.4601 8.64001 45.5801V45.5801ZM22.124 96.5174C21.26 95.8614 20.4347 95.1827 19.7107 94.3427C18.5547 93.0054 17.4587 91.616 16.3747 90.22C14.4307 87.7227 12.8534 85.2481 11.7147 82.2801C11.54 81.8254 11.3773 81.3654 11.22 80.904C11.188 80.6427 11.1573 80.3801 11.1307 80.1161C13.7573 86.2641 17.508 91.8174 22.124 96.5174ZM4.16534 44.136C4.38401 42.8814 4.46001 41.6654 5.04801 40.5121C5.77067 39.0921 6.70135 37.8294 7.33735 36.3547C7.90801 35.0294 8.33867 33.66 8.96267 32.356C9.628 30.9734 10.5547 29.8121 11.3987 28.5427C12.164 27.3934 12.628 26.232 13.6827 25.296C14.5867 24.4934 15.3573 23.5881 16.1387 22.6814C14.7107 24.5561 13.3387 26.5014 12.1387 28.5081C11.568 29.4654 11.0654 30.4547 10.616 31.4667C10.152 32.3067 9.71333 33.16 9.28933 34.024C7.71733 36.5027 6.56268 39.144 5.40268 41.8507C4.70934 43.468 4.10668 45.1107 3.57335 46.7747C3.80268 45.9041 4.01067 45.0267 4.16534 44.136V44.136ZM2.98267 53.6014C3.37467 51.8774 3.80134 50.16 4.29333 48.464C4.28267 49.5014 4.31468 50.5307 4.34001 51.5187C4.38401 53.1894 4.21467 54.684 3.91067 56.32C3.62534 57.848 3.92668 59.4774 3.78935 61.028C3.67468 62.308 3.48935 63.56 3.50535 64.8347C3.42001 64.4067 3.34001 63.9774 3.26667 63.5441C2.70534 60.2521 2.23067 56.9027 2.98267 53.6014V53.6014ZM5.13868 81.356C3.38935 78.948 2.53868 76.3854 2.15735 73.4574C1.70935 70.0107 1.57734 66.5294 1.51334 63.0547C1.48667 61.532 1.42267 60.0041 1.42667 58.4774C1.464 59.0907 1.524 59.7001 1.592 60.3067C1.94533 63.4707 2.58401 66.6134 3.39867 69.6907C4.25334 72.916 5.328 76.0787 6.38933 79.2427L6.41469 79.32C6.76136 81.108 7.268 82.8614 8.028 84.556C8.06667 84.6787 8.11066 84.8 8.15066 84.9227C7.09066 83.7827 6.05735 82.6187 5.13868 81.356ZM9.27468 84.5934C9.16268 84.2427 9.056 83.8934 8.95333 83.5427C9.54 84.4534 10.088 85.3881 10.6494 86.3161C11.168 87.1721 11.6733 88.0387 12.192 88.896L12.2973 89.1374C11.1347 87.7321 10.1027 86.2334 9.27468 84.5934ZM15.048 95.1507C14.3854 94.2107 13.824 93.2187 13.2653 92.224C14.2013 93.4187 15.0987 94.644 15.9733 95.8854C16.568 96.7307 17.128 97.576 17.7667 98.368C17.8547 98.4907 17.94 98.6134 18.0293 98.7347C16.98 97.5734 15.952 96.432 15.048 95.1507V95.1507ZM16.48 93.46C15.836 92.4627 15.0987 91.5321 14.3987 90.5721L14.3427 90.4934C13.708 89.3867 13.1267 88.2507 12.668 87.0347C12.524 86.6507 12.392 86.2694 12.2707 85.8854C13.62 88.5307 15.612 90.8401 17.4547 93.1494C18.4267 94.3654 19.3894 95.5974 20.5827 96.6054C21.7974 97.6307 23.1293 98.516 24.3547 99.532C25.3787 100.379 26.3253 101.3 27.256 102.233C27.8107 102.923 28.3867 103.593 28.9867 104.241C28.7907 104.157 28.5907 104.075 28.3907 103.991C27.0533 103.421 26.084 102.325 25.1347 101.267C24.2107 100.241 23.18 99.4107 22.1307 98.5214C20.8733 97.452 19.688 96.304 18.4467 95.2187C17.7854 94.6387 17.1267 94.0534 16.48 93.46ZM20.1653 98.3387C21.2307 99.3147 22.408 100.172 23.4347 101.185C24.356 102.095 25.136 103.121 26.1227 103.965C25.7613 103.705 25.4067 103.437 25.0533 103.167C23.1693 101.513 21.2893 99.8187 19.5973 97.9774C19.3867 97.7494 19.1827 97.5134 18.9853 97.2721C19.3787 97.6267 19.7747 97.9827 20.1653 98.3387V98.3387ZM42.4293 113.572C40.844 113.401 39.3227 113.036 37.9013 112.299C36.4707 111.559 35.1853 110.611 33.708 109.945C30.6427 108.563 27.7747 107.073 24.9707 105.205C23.6347 104.315 22.232 103.425 21.0693 102.316C20.5187 101.792 20.0333 101.205 19.5587 100.605C21.1373 102.308 23.032 103.781 24.9134 105.085C27.944 107.184 31.42 108.877 35.028 109.967C37.2 111.144 39.356 112.255 41.7494 113.028C42.2547 113.191 42.7214 113.407 43.1787 113.645C42.928 113.623 42.6787 113.599 42.4293 113.572V113.572ZM46.852 114.003C46.3773 113.935 45.9013 113.883 45.424 113.836C44.5387 113.339 43.7013 112.721 42.7613 112.34C42.392 112.191 42.0227 112.051 41.6533 111.913C43.2587 112.241 44.908 112.379 46.5427 112.347C46.9373 112.459 47.332 112.573 47.72 112.704C49.1093 113.168 50.3973 113.733 51.8307 114.041C50.092 114.355 48.5907 114.256 46.852 114.003ZM83.636 110.656C82.248 111.056 80.8427 111.399 79.4387 111.739C77.8467 112.124 76.4253 112.988 74.8227 113.351C73.324 113.692 71.7933 113.892 70.292 114.223C68.548 114.607 66.8133 115.023 65.088 115.481C63.512 115.901 61.9147 116.171 60.2853 116.28C58.6787 116.388 57.0653 116.188 55.4613 116.355C54.6307 116.441 53.9227 116.609 53.0907 116.42C52.368 116.259 51.7027 115.859 51.0333 115.556C50.6573 115.387 50.2693 115.257 49.8733 115.155C51.016 115.083 52.164 114.812 53.2627 114.589C53.6147 114.517 53.968 114.453 54.3187 114.384C55.136 114.444 55.9573 114.463 56.7733 114.452C58.288 114.433 59.8027 114.157 61.2973 113.931C63.132 113.651 64.9373 113.587 66.7893 113.551C70.036 113.491 73.3973 113.451 76.504 112.417C79.184 111.527 81.5613 109.945 84.072 108.68C86.264 108.053 88.46 107.443 90.6 106.649C93.3173 105.644 95.884 104.208 98.5 102.965C98.88 102.785 99.2573 102.599 99.6293 102.407C94.708 105.899 89.4693 108.98 83.636 110.656V110.656ZM110.099 89.8667C109.993 90.096 109.885 90.3267 109.776 90.5547C110.076 89.78 110.363 89.0014 110.648 88.2267C110.905 87.528 111.192 86.8307 111.487 86.132C111.101 87.396 110.659 88.644 110.099 89.8667ZM114.739 70.964C114.521 72.1094 114.308 73.2334 114.189 74.3827C113.603 75.8881 113.093 77.4161 112.823 79.0401C112.327 82.0294 110.871 84.816 109.828 87.652C108.825 90.3747 107.804 93.0974 106.319 95.6027C105.405 97.144 104.245 98.5134 102.948 99.7387C101.883 100.515 100.732 101.164 99.54 101.756C100.232 101.107 100.671 100.267 101.133 99.4C101.897 97.972 102.736 96.5667 103.429 95.1041C103.669 94.5974 103.867 94.0747 104.052 93.5494C104.26 93.2774 104.453 92.992 104.623 92.6894C104.809 92.356 104.959 92.0041 105.093 91.6454C105.291 91.3614 105.479 91.0694 105.651 90.7734L105.791 90.5827C107.581 88.0974 109.767 85.9107 111.192 83.172C112.537 80.5894 113.163 77.6774 113.628 74.8254C113.824 73.628 114.144 72.4627 114.308 71.264C115.577 66.6574 115.663 61.684 115.693 56.9507C115.699 56.0014 115.689 55.052 115.672 54.1027C115.884 52.7254 116.061 51.3454 116.088 49.9494C116.12 48.2801 115.815 46.6121 115.556 44.9707C115.524 44.7654 115.495 44.56 115.467 44.3534C116.02 46.596 116.747 48.7987 117.187 51.0707C117.84 54.4667 117.393 57.9707 116.745 61.3294C116.127 64.552 115.351 67.74 114.739 70.964V70.964ZM118.201 60.1694C117.919 63.5307 117.187 66.8467 115.977 69.9947C115.879 70.2494 115.779 70.5027 115.677 70.7534C116.18 68.344 116.769 65.9507 117.332 63.556C117.735 61.8387 118.099 60.1094 118.344 58.3627C118.3 58.976 118.251 59.58 118.201 60.1694" fill="#F7A70F"/>
<path d="M68.7494 73.128C69.5987 69.252 70.0734 64.96 70.0854 60.492C70.1227 47.732 66.4067 36.3507 60.8347 32.1707L60.0987 31.6174L59.36 32.1654C53.764 36.3134 49.9787 47.6734 49.9387 60.4334C49.9267 64.8987 50.3747 69.1947 51.2 73.0734C48.2014 70.368 44.6227 67.784 40.6507 65.532C39.8774 65.092 39.0974 64.6707 38.3174 64.2694C38.852 65.3374 39.424 66.4027 40.0347 67.4534C40.2054 67.7467 40.38 68.04 40.5547 68.3307C45.2627 71.136 49.3734 74.4414 52.4494 77.7734C54.0707 82.7547 56.3987 86.66 59.1907 88.7547L59.5534 89.028L59.5667 89.04H59.5694L59.9254 89.308L60.2854 89.0427H60.288L60.3027 89.0294L60.6654 88.76C63.4707 86.6814 65.8214 82.7894 67.4734 77.8174C70.5667 74.5067 74.6987 71.2227 79.4227 68.4467C79.6014 68.1574 79.7761 67.8667 79.9494 67.572C80.5641 66.5254 81.144 65.464 81.684 64.3974C80.9014 64.796 80.12 65.2107 79.3427 65.6467C75.3587 67.8774 71.7654 70.44 68.7494 73.128V73.128ZM65.288 76.544C64.288 77.648 63.3921 78.76 62.6147 79.8627C62.6881 80.8054 62.7134 81.7107 62.6894 82.5774V82.6174C61.852 84.06 60.928 85.2614 59.936 86.1667C58.9507 85.256 58.0334 84.0467 57.204 82.6L57.2027 82.5614C57.1867 81.6947 57.2174 80.7867 57.2934 79.8467C56.5227 78.7374 55.6347 77.624 54.6414 76.512C53.2134 71.8947 52.3894 66.2907 52.4067 60.4414C52.4387 49.2094 55.5614 38.8974 60.0894 34.7587C64.5934 38.924 67.6534 49.256 67.6187 60.4854C67.6014 66.336 66.7454 71.936 65.288 76.544" fill="white"/>
<path d="M88.9067 39.376L87.992 39.4747C82.68 40.0547 76.1467 44.844 70.4694 52.0054C70.6254 53.184 70.7507 54.3867 70.84 55.6094C76.0827 48.3587 82.3494 43.1494 87.3147 42.0814C89.1001 47.9494 86.5294 58.4134 80.836 68.0934C76.3627 75.6934 70.5334 81.8414 65.3334 84.7587C64.3787 86.3267 63.3254 87.6547 62.1894 88.6947C68.852 87.0107 76.9854 79.5014 82.9614 69.3427C89.432 58.3454 91.964 46.6427 89.264 40.2227L88.9067 39.376Z" fill="white"/>
<path d="M65.5973 59.128C63.1253 63.3294 61.2293 67.6334 59.9787 71.7081C58.752 67.6254 56.8827 63.312 54.436 59.0947C54.1027 58.5214 53.7627 57.9601 53.416 57.4041C53.3653 58.4054 53.3347 59.4201 53.3307 60.4427C53.3293 61.0387 53.3387 61.6307 53.352 62.22C56.0427 67.2547 57.8813 72.4014 58.7107 76.924C58.3613 78.916 58.1973 80.8054 58.2293 82.5414C58.5173 83.0107 58.8133 83.4494 59.12 83.86V83.8614L59.216 83.9854C59.3173 84.116 59.4173 84.2494 59.5213 84.3734C59.6587 84.5427 59.7987 84.7054 59.94 84.8587C60.0827 84.7054 60.224 84.5441 60.3627 84.3774C60.4667 84.2521 60.5653 84.1227 60.668 83.9894L60.768 83.8654C61.0747 83.4574 61.3733 83.02 61.6627 82.5507C61.708 80.816 61.5533 78.9254 61.2173 76.9334C62.0733 72.4147 63.9413 67.28 66.6613 62.2574C66.6813 61.6694 66.692 61.0774 66.6933 60.484C66.6973 59.46 66.6733 58.4467 66.6253 57.4427C66.2787 57.9961 65.9333 58.5574 65.5973 59.128" fill="white"/>
<path d="M54.5467 84.724C49.3627 81.7787 43.5707 75.5961 39.1454 67.9681C33.5067 58.2561 31.0013 47.7774 32.8227 41.9187C37.78 43.0147 44.016 48.2627 49.2147 55.5454C49.3107 54.3241 49.4427 53.1214 49.6067 51.9441C43.972 44.7467 37.468 39.9214 32.1587 39.3081L31.2454 39.2027L30.884 40.0481C28.144 46.4521 30.6067 58.1707 37.0107 69.2081C42.9267 79.4001 51.0147 86.9561 57.668 88.6814C56.5374 87.6334 55.492 86.2974 54.5467 84.724" fill="white"/>
<path d="M101.897 58.7573C97.7507 58.7573 92.9067 59.7787 87.916 61.652C87.48 62.7213 87.0067 63.7974 86.4947 64.8747C92.0107 62.524 97.408 61.224 101.897 61.224C103.747 61.224 105.355 61.4467 106.695 61.8853C105.275 67.8547 97.7774 75.592 87.976 81.076C80.7747 85.104 73.2827 87.476 67.288 87.64C65.6293 88.6 63.9974 89.2973 62.44 89.692L62.4227 89.696C63.688 89.9734 65.092 90.1173 66.6253 90.1173C73.1347 90.1173 81.3547 87.6067 89.18 83.228C100.317 76.9974 108.408 68.1694 109.315 61.264L109.433 60.3533L108.593 59.9774C106.78 59.1667 104.528 58.7573 101.897 58.7573" fill="white"/>
<path d="M52.5747 87.596C46.5814 87.396 39.1133 84.9854 31.9267 80.908C22.16 75.3654 14.708 67.5827 13.3253 61.6067C14.6333 61.1867 16.1973 60.9734 17.9893 60.9734C22.5067 60.9734 27.9467 62.3054 33.5054 64.7134C32.9987 63.6347 32.532 62.556 32.104 61.484C27.0614 59.5573 22.172 58.508 17.9893 58.508C15.424 58.508 13.2174 58.9027 11.4347 59.688L10.592 60.0573L10.7067 60.9707C11.5734 67.8814 19.6107 76.756 30.7107 83.0533C38.5774 87.5173 46.8374 90.0787 53.3707 90.0787H53.372C54.848 90.0787 56.2013 89.9427 57.4267 89.68L57.4094 89.6774C55.8547 89.2747 54.2294 88.564 52.5747 87.596" fill="white"/>
</svg>
