<?xml version="1.0" standalone="no"?>
<!DOCTYPE svg PUBLIC "-//W3C//DTD SVG 20010904//EN"
 "http://www.w3.org/TR/2001/REC-SVG-20010904/DTD/svg10.dtd">
<svg version="1.0" xmlns="http://www.w3.org/2000/svg"
 width="4500.000000pt" height="4500.000000pt" viewBox="0 0 4500.000000 4500.000000"
 preserveAspectRatio="xMidYMid meet">

<g transform="translate(0.000000,4500.000000) scale(0.100000,-0.100000)"
fill="#000000" stroke="none">
<path d="M11250 39375 l0 -5625 -5625 0 -5625 0 0 -11250 0 -11250 5625 0
5625 0 0 11250 0 11250 5625 0 5625 0 0 5625 0 5625 -5625 0 -5625 0 0 -5625z
m5893 4711 c154 -46 264 -113 378 -232 142 -149 227 -316 286 -564 38 -160 44
-420 14 -602 l-22 -133 20 -100 c40 -201 46 -272 45 -575 -1 -364 -22 -601
-57 -638 -29 -31 -83 -27 -110 9 -19 26 -19 29 -1 200 19 188 26 664 11 753
l-9 50 -37 -90 c-61 -145 -156 -324 -237 -445 l-76 -114 11 -98 c33 -299 171
-439 546 -557 386 -121 478 -153 564 -195 128 -62 192 -106 288 -199 180 -172
265 -358 560 -1226 96 -283 214 -630 262 -770 131 -384 177 -600 168 -780 -6
-114 -17 -153 -60 -216 -62 -92 -191 -155 -383 -189 -48 -8 -176 -20 -283 -26
-300 -16 -606 8 -891 70 -51 12 -96 19 -99 16 -11 -12 20 -248 48 -357 46
-184 149 -403 259 -554 l31 -42 68 25 c94 36 200 35 348 -1 66 -17 158 -30
229 -35 107 -7 121 -10 137 -30 11 -13 19 -32 19 -42 0 -23 -4 -23 138 -4 272
36 664 36 878 0 186 -32 358 -99 509 -200 135 -89 191 -165 226 -306 51 -199
-7 -364 -191 -549 -220 -221 -609 -411 -1095 -535 -196 -50 -348 -72 -695
-100 -808 -65 -1150 -79 -1685 -72 -431 6 -550 13 -860 49 -123 15 -220 21
-275 18 -170 -10 -987 -4 -1150 8 -781 59 -1319 172 -1684 354 -310 154 -476
363 -476 599 0 132 78 342 169 457 109 137 307 234 571 279 118 20 473 23 640
4 315 -34 680 -106 1065 -211 l150 -40 23 27 c159 188 285 533 326 898 19 168
27 346 17 363 -6 11 -42 6 -182 -22 -313 -63 -576 -83 -875 -67 -427 24 -609
92 -691 259 -24 49 -28 70 -31 178 -8 228 59 502 243 1004 32 85 126 360 210
610 165 493 244 699 338 883 160 318 362 459 867 611 314 94 398 127 498 195
154 104 228 258 233 482 l2 86 -58 94 c-120 194 -213 390 -286 603 l-37 110
-35 -70 c-78 -156 -102 -271 -101 -489 1 -186 14 -285 66 -498 l32 -127 -21
-28 c-22 -30 -69 -40 -102 -22 -51 27 -131 446 -131 686 0 255 74 505 202 679
42 58 44 61 34 105 -5 25 -9 137 -10 250 0 178 3 219 22 310 91 419 310 702
625 811 119 41 174 48 332 44 115 -2 156 -8 228 -29z m-12250 -11626 c140 -27
336 -91 589 -191 447 -178 634 -236 838 -260 148 -17 766 -14 1150 6 462 23
923 30 1053 16 236 -26 394 -88 502 -196 170 -170 186 -373 46 -587 -146 -224
-780 -811 -1251 -1160 -146 -108 -301 -211 -410 -273 -47 -27 -86 -50 -88 -51
-2 -1 71 -76 161 -166 248 -246 471 -538 571 -748 62 -130 91 -241 121 -470
14 -107 50 -341 80 -520 69 -418 79 -504 72 -664 -8 -193 -47 -314 -149 -451
-93 -125 -269 -274 -453 -385 -113 -67 -177 -113 -237 -169 -44 -40 -48 -48
-48 -90 0 -203 -108 -1299 -155 -1566 -59 -338 -149 -527 -282 -591 -37 -18
-77 -49 -111 -85 -81 -89 -104 -94 -397 -93 -132 1 -391 11 -575 24 -303 20
-384 22 -845 17 -280 -3 -674 -13 -875 -21 -201 -8 -486 -16 -634 -18 l-268
-2 -24 27 c-27 31 -29 45 -13 81 13 29 25 34 179 76 218 61 405 142 645 283
183 107 218 117 384 117 76 0 230 -9 342 -21 112 -11 287 -21 389 -22 l185 -2
255 62 c327 79 406 93 568 100 l132 6 1 376 c1 207 4 435 8 506 4 72 6 131 6
132 -1 2 -26 -7 -56 -18 -176 -68 -499 -65 -777 7 -368 96 -631 307 -696 560
-60 233 41 534 248 740 171 170 370 255 596 255 122 0 208 -20 320 -74 70 -34
102 -58 181 -137 l97 -95 6 74 c14 170 108 552 191 777 20 54 60 146 87 203
62 126 67 162 68 470 l0 224 -29 51 c-31 53 -159 176 -184 176 -7 0 -39 -14
-71 -31 -243 -132 -621 -165 -942 -84 -169 43 -312 112 -408 196 -61 54 -124
150 -133 201 -5 36 -8 39 -32 34 -295 -61 -847 -102 -1188 -89 l-156 6 52 -75
c92 -136 160 -310 199 -508 29 -145 39 -222 62 -470 40 -427 69 -574 146 -730
61 -124 145 -208 305 -307 261 -162 294 -266 168 -528 -74 -156 -75 -217 -3
-507 77 -312 71 -489 -21 -673 -20 -39 -47 -83 -60 -98 -14 -14 -25 -35 -25
-47 0 -33 -27 -87 -48 -99 -33 -18 -67 -13 -92 14 -18 19 -22 31 -17 60 13 79
-81 292 -344 777 -175 322 -200 387 -295 753 -79 302 -121 431 -179 550 -52
107 -183 307 -405 620 -408 573 -580 867 -699 1192 -81 224 -153 556 -130 605
19 42 245 200 467 325 507 286 1191 515 1828 613 439 67 890 85 1234 51 l84
-9 116 82 c315 224 630 389 1183 622 103 43 187 82 187 85 0 4 -25 10 -57 14
-53 6 -163 33 -493 119 -276 71 -470 89 -580 52 -81 -27 -172 -80 -261 -153
-44 -35 -95 -71 -114 -79 -155 -64 -323 82 -465 406 -115 263 -127 278 -273
326 -118 39 -166 66 -218 121 -53 57 -64 74 -90 151 -16 45 -17 62 -9 83 11
26 47 49 75 49 25 0 62 -44 80 -95 31 -85 74 -120 201 -163 192 -67 244 -120
342 -344 79 -183 136 -282 199 -345 73 -75 77 -74 221 40 79 62 189 120 282
149 62 19 95 23 195 22 141 -2 271 -26 587 -110 272 -72 379 -93 518 -100 169
-9 226 6 445 115 99 50 230 120 290 157 65 39 122 67 138 67 60 1 94 -81 51
-123 -33 -33 -271 -167 -459 -260 -99 -48 -315 -145 -480 -215 -617 -261 -834
-362 -1065 -495 -142 -82 -324 -199 -318 -205 2 -2 57 -16 123 -30 352 -78
691 -226 1009 -439 l120 -79 93 47 c333 170 944 659 1422 1136 175 175 239
254 284 348 93 198 -30 383 -298 452 -182 47 -469 50 -1175 14 -402 -20 -1073
-23 -1213 -5 -215 28 -396 83 -847 261 -477 188 -687 237 -895 209 -115 -15
-132 -15 -156 7 -25 22 -26 85 -1 107 16 15 66 29 147 41 60 9 242 -4 348 -24z
m836 -10989 c99 -51 151 -159 159 -328 13 -316 -118 -744 -242 -788 -87 -30
-192 154 -253 443 -35 168 -40 417 -9 497 66 172 209 245 345 176z m-1042
-422 c203 -76 264 -327 118 -487 -20 -23 -62 -54 -93 -69 -47 -23 -70 -28
-132 -28 -88 1 -151 26 -211 86 -66 66 -84 111 -84 214 0 81 3 95 30 144 75
136 228 193 372 140z m2086 1 c70 -26 125 -75 162 -141 27 -49 30 -63 30 -144
0 -103 -18 -148 -84 -214 -60 -60 -123 -85 -211 -85 -128 -1 -230 66 -283 182
-46 103 -20 241 61 325 87 90 211 120 325 77z m-3227 -175 c80 -36 154 -118
218 -243 148 -290 216 -649 139 -734 -73 -81 -332 102 -540 382 -120 163 -169
284 -161 401 14 184 171 273 344 194z m4384 5 c142 -73 161 -278 42 -475 -160
-268 -440 -524 -573 -525 -60 0 -73 25 -77 141 -4 115 12 209 64 367 74 229
184 407 292 474 80 49 177 56 252 18z m-1945 -660 c776 -89 1464 -420 2011
-965 281 -281 471 -546 649 -907 168 -341 273 -696 321 -1088 21 -169 24 -578
6 -735 -78 -663 -321 -1250 -728 -1760 -113 -141 -368 -396 -509 -509 -513
-409 -1096 -650 -1760 -727 -142 -17 -558 -17 -700 0 -664 77 -1247 318 -1760
727 -141 113 -396 368 -509 509 -407 510 -651 1099 -727 1760 -17 142 -17 558
0 700 76 661 320 1250 727 1760 113 141 368 396 509 509 129 103 349 250 491
330 404 224 879 366 1359 406 130 10 492 5 620 -10z m-3079 -224 c61 -28 115
-82 146 -145 35 -70 33 -186 -5 -263 -89 -182 -337 -224 -481 -83 -158 156
-102 428 103 501 62 22 178 17 237 -10z m5714 -8 c102 -60 153 -148 154 -263
2 -270 -324 -406 -514 -215 -148 147 -105 396 84 487 45 21 62 24 141 21 77
-3 98 -8 135 -30z m-6659 -704 c113 -33 278 -145 432 -292 191 -185 270 -333
209 -395 -20 -19 -35 -22 -122 -25 -166 -6 -370 48 -586 153 -198 97 -298 215
-298 350 0 170 168 267 365 209z m7582 -17 c177 -104 145 -331 -67 -477 -108
-74 -353 -171 -518 -204 -101 -21 -249 -21 -288 -1 -33 17 -45 49 -36 98 26
137 335 444 568 564 82 43 127 53 219 49 62 -2 85 -8 122 -29z m-7699 -1068
c67 -25 133 -86 166 -154 32 -68 34 -180 3 -246 -30 -66 -86 -124 -151 -156
-46 -22 -70 -27 -127 -27 -95 0 -160 30 -225 101 -111 121 -106 300 11 414 87
85 210 111 323 68z m7781 0 c149 -55 227 -219 180 -377 -21 -68 -97 -151 -167
-183 -78 -34 -175 -32 -250 4 -65 32 -121 90 -151 156 -31 66 -29 178 3 246
70 144 235 210 385 154z m-7944 -1088 c275 -56 469 -154 469 -236 0 -62 -135
-148 -313 -199 -165 -48 -252 -60 -427 -61 -149 0 -171 2 -221 23 -118 47
-183 133 -183 238 1 119 80 204 234 250 63 20 315 11 441 -15z m8372 3 c203
-80 256 -289 106 -418 -67 -57 -136 -79 -267 -84 -254 -10 -583 69 -725 174
-87 63 -87 111 -2 176 91 69 267 128 480 163 126 20 344 14 408 -11z m-8249
-989 c236 -62 312 -343 138 -512 -153 -149 -416 -89 -492 114 -64 170 39 360
217 402 56 13 73 13 137 -4z m7838 -17 c66 -28 143 -114 163 -180 43 -146 -16
-292 -146 -362 -149 -81 -345 -17 -417 136 -119 254 140 518 400 406z m-7043
-952 c28 -25 28 -84 0 -139 -77 -153 -293 -363 -504 -489 -249 -150 -498 -75
-497 148 1 137 99 254 295 348 220 107 409 157 578 153 89 -2 110 -5 128 -21z
m6373 4 c225 -49 477 -162 571 -254 62 -61 90 -108 108 -181 26 -103 -29 -210
-133 -255 -45 -19 -64 -22 -136 -17 -70 4 -95 11 -165 45 -207 100 -467 337
-556 506 -44 83 -39 145 12 166 40 16 208 11 299 -10z m-6055 -865 c180 -89
217 -338 72 -483 -60 -61 -120 -85 -209 -86 -91 -1 -154 24 -217 86 -62 60
-88 126 -87 218 1 79 14 121 58 178 84 114 250 151 383 87z m5644 19 c133 -39
211 -144 213 -284 1 -91 -24 -154 -86 -217 -60 -61 -126 -88 -218 -87 -89 1
-148 25 -209 86 -164 163 -93 445 127 504 64 17 109 17 173 -2z m-4655 -465
c15 -17 20 -40 22 -120 4 -116 -13 -215 -64 -369 -114 -342 -258 -513 -434
-514 -81 0 -137 27 -180 86 -40 55 -53 109 -47 193 7 88 33 156 104 264 207
319 514 554 599 460z m3577 0 c151 -76 368 -299 492 -504 132 -219 84 -455
-101 -496 -129 -29 -271 62 -367 234 -52 92 -123 270 -152 383 -28 104 -43
265 -31 328 14 76 76 97 159 55z m-1792 -489 c69 -73 134 -237 176 -448 12
-61 17 -136 18 -252 0 -148 -3 -171 -23 -221 -47 -118 -132 -183 -238 -183
-106 1 -194 73 -240 198 -31 82 -26 331 9 498 33 156 77 279 127 356 67 104
110 117 171 52z m-974 -105 c143 -71 208 -246 144 -393 -48 -107 -163 -182
-282 -182 -205 0 -353 217 -280 410 62 166 258 243 418 165z m2074 4 c27 -12
69 -43 97 -73 63 -67 86 -132 80 -226 -18 -251 -315 -370 -501 -200 -72 65
-101 130 -101 225 0 221 219 362 425 274z"/>
<path d="M16727 43954 c-326 -73 -542 -332 -622 -745 -19 -101 -30 -319 -18
-373 l8 -38 55 44 c81 66 219 156 355 233 333 187 406 234 491 320 89 89 144
210 144 320 0 46 29 75 75 75 59 0 71 -22 78 -141 12 -200 65 -333 213 -536
42 -57 101 -143 131 -191 l55 -87 -5 160 c-7 175 -21 260 -71 407 -96 282
-286 477 -531 543 -86 24 -273 28 -358 9z"/>
<path d="M17100 43289 c-97 -98 -203 -170 -460 -314 -211 -117 -339 -202 -443
-290 -90 -77 -88 -51 -17 -265 170 -517 504 -980 707 -980 50 0 86 16 160 71
191 143 452 587 566 965 l25 82 -32 85 c-42 110 -95 201 -215 370 -93 129
-166 254 -194 330 l-12 32 -85 -86z"/>
<path d="M16525 41443 c-40 -235 -142 -391 -333 -507 -82 -49 -172 -86 -347
-141 -510 -160 -613 -206 -759 -344 -150 -143 -255 -375 -493 -1091 -74 -223
-168 -495 -208 -605 -184 -507 -253 -779 -243 -973 6 -129 38 -171 170 -220
127 -47 220 -57 573 -57 358 0 409 5 700 66 282 59 690 180 800 237 47 24 95
61 145 112 130 129 209 323 245 597 8 63 15 140 15 171 0 86 45 135 104 112
38 -14 47 -41 57 -176 33 -434 173 -709 424 -829 133 -64 673 -211 930 -254
199 -33 303 -41 540 -41 393 0 602 38 698 128 113 106 59 429 -185 1107 -50
138 -148 423 -218 635 -241 729 -357 975 -524 1112 -132 108 -260 169 -539
254 -476 144 -623 221 -742 388 -62 87 -90 157 -120 299 l-6 28 -51 -45 c-67
-58 -152 -103 -219 -116 -107 -21 -228 26 -344 132 l-64 59 -6 -38z m-828
-1685 c36 -34 31 -76 -16 -121 -25 -24 -58 -76 -90 -141 l-51 -104 10 -99 c15
-159 31 -227 115 -503 62 -204 89 -327 105 -464 6 -55 12 -100 13 -101 16 -8
365 19 406 31 102 30 183 144 244 340 25 79 58 224 132 582 52 250 107 405
170 481 32 37 83 43 114 12 19 -19 20 -19 37 0 11 12 30 19 55 19 31 0 42 -6
62 -32 79 -106 128 -263 211 -685 92 -463 166 -636 301 -705 42 -22 172 -36
332 -37 l82 -1 6 58 c18 172 47 300 115 517 75 239 103 371 116 546 6 86 6 87
-32 164 -22 43 -58 98 -81 122 -50 50 -55 82 -18 118 92 93 213 -68 396 -527
32 -81 77 -205 100 -275 22 -70 63 -198 91 -283 61 -191 140 -358 203 -428
l47 -52 83 0 c46 0 87 5 90 10 11 17 60 11 83 -10 30 -28 38 -68 21 -99 -28
-49 -63 -53 -419 -48 -383 6 -1136 42 -1199 57 -132 32 -226 120 -307 285 -64
133 -98 250 -159 557 -74 370 -112 505 -172 607 l-25 44 -29 -49 c-48 -84 -96
-249 -149 -514 -104 -516 -158 -671 -285 -808 -58 -63 -125 -104 -195 -121
-107 -26 -1428 -74 -1544 -57 -59 9 -86 34 -86 81 0 52 40 90 83 80 18 -4 71
-9 118 -12 l86 -4 42 48 c69 79 144 243 217 471 125 394 201 595 305 807 113
230 198 307 266 243z"/>
<path d="M18277 39058 c-9 -46 -43 -171 -76 -278 -70 -234 -99 -356 -110 -470
-4 -47 -7 -87 -5 -88 1 -2 85 -8 186 -12 101 -5 231 -12 290 -14 l108 -6 -27
43 c-70 111 -116 229 -258 669 -37 114 -72 214 -79 223 -9 13 -14 1 -29 -67z"/>
<path d="M15362 38938 c-27 -84 -74 -227 -103 -318 -34 -106 -77 -212 -120
-299 l-68 -133 62 6 c34 3 148 8 252 11 105 3 201 8 215 11 l26 5 -8 91 c-10
115 -36 225 -104 448 -30 96 -62 210 -71 253 -10 42 -21 77 -24 77 -3 0 -29
-69 -57 -152z"/>
<path d="M16851 38168 c-54 -183 -188 -365 -340 -463 -90 -58 -153 -83 -382
-150 l-196 -58 -7 -166 c-20 -480 -130 -890 -310 -1155 -25 -38 -45 -71 -43
-73 7 -6 307 -81 410 -103 230 -47 434 -70 619 -70 256 1 387 53 453 180 31
60 67 93 140 127 58 27 64 28 230 28 138 -1 193 -5 290 -25 155 -30 323 -34
375 -7 19 10 62 48 96 84 l61 66 -69 106 c-174 265 -274 547 -293 822 -12 176
-8 167 -73 185 -206 57 -461 138 -505 160 -181 91 -317 247 -403 460 -20 49
-37 90 -38 92 -2 1 -8 -17 -15 -40z"/>
<path d="M18471 36358 c-53 -20 -83 -46 -201 -172 -37 -40 -75 -69 -120 -90
-63 -30 -69 -31 -205 -31 -103 1 -170 7 -255 23 -147 29 -319 39 -388 22 -65
-15 -94 -38 -122 -94 -47 -99 -188 -189 -342 -220 -101 -21 -361 -21 -533 -1
-258 30 -480 78 -860 185 -1248 351 -1986 378 -2304 84 -46 -42 -72 -78 -105
-144 -60 -119 -83 -224 -68 -308 47 -275 375 -477 1002 -616 347 -77 866 -135
1350 -151 l175 -6 -160 50 c-256 79 -344 116 -357 150 -1 5 -169 28 -373 50
-418 47 -827 101 -989 130 -123 22 -149 39 -149 92 0 45 44 83 87 74 247 -50
1137 -160 1666 -205 206 -18 697 -24 875 -11 555 41 977 153 1435 382 215 108
368 202 626 386 211 151 323 221 439 277 92 44 258 105 292 107 10 0 -38 13
-107 29 -150 35 -234 37 -309 8z"/>
<path d="M19455 36259 c-233 -22 -495 -71 -641 -119 -163 -55 -292 -129 -589
-341 -88 -63 -172 -122 -185 -131 -30 -21 -46 -27 400 135 519 189 736 254
990 296 149 25 411 41 533 32 77 -5 92 -9 108 -30 26 -31 24 -67 -4 -95 -23
-23 -30 -24 -253 -29 -252 -5 -374 -22 -609 -82 -184 -47 -277 -78 -730 -242
-512 -186 -770 -273 -1075 -362 -135 -40 -297 -88 -360 -107 -157 -46 -290
-79 -450 -108 -255 -47 -387 -58 -755 -64 -395 -6 -391 -3 -102 -68 717 -160
1558 -201 2642 -128 406 27 849 64 953 80 352 53 788 206 1067 375 182 110
319 247 367 369 27 70 29 174 4 247 -34 101 -149 197 -331 277 -181 79 -362
107 -678 105 -117 -1 -252 -5 -302 -10z"/>
<path d="M4995 30313 c-1011 -60 -1973 -365 -2668 -847 l-88 -61 6 -54 c10
-78 58 -270 98 -386 46 -135 77 -206 158 -365 120 -237 237 -420 539 -845 221
-310 367 -533 417 -636 61 -126 106 -262 188 -574 40 -154 87 -318 104 -365
17 -47 97 -206 177 -355 125 -232 277 -533 311 -615 9 -23 11 -22 32 34 57
153 54 270 -14 546 -75 304 -72 392 17 582 82 177 77 221 -35 295 -34 22 -101
66 -148 97 -127 82 -224 190 -288 318 -88 177 -119 337 -171 878 -32 323 -72
507 -144 666 -97 209 -256 368 -464 460 -129 58 -145 67 -155 97 -11 33 10 72
49 89 21 10 38 6 107 -22 87 -35 199 -96 257 -139 l35 -27 370 -3 c483 -4 795
20 1112 84 150 31 148 31 178 1 21 -22 24 -33 23 -88 -2 -54 2 -72 25 -111 92
-157 415 -277 742 -277 185 0 357 40 506 116 103 53 174 60 227 22 122 -89
213 -189 248 -275 26 -60 37 -259 25 -445 -14 -223 -24 -274 -73 -372 -133
-264 -251 -690 -279 -1007 -24 -274 14 -697 91 -999 14 -57 17 -85 10 -115
-24 -106 -43 -1185 -21 -1185 4 0 29 -18 53 -40 81 -71 95 -157 32 -190 -36
-20 -73 -3 -107 48 -41 61 -101 77 -262 69 -139 -7 -266 -29 -530 -93 -319
-76 -329 -77 -525 -70 -96 3 -263 15 -370 26 -107 11 -251 20 -320 20 -145 0
-139 2 -340 -115 -74 -43 -175 -97 -225 -121 l-90 -42 90 4 c382 19 1024 36
1340 37 303 1 445 -4 700 -22 176 -13 424 -24 550 -25 256 -1 265 1 306 67 71
116 107 322 144 832 31 424 67 695 121 907 61 244 132 381 272 530 82 86 144
135 287 223 315 194 476 365 531 565 22 80 29 249 15 370 -7 58 -36 251 -66
430 -30 179 -66 413 -80 520 -30 226 -52 313 -104 425 -115 245 -482 684 -751
899 -318 254 -722 453 -1105 544 -299 72 -728 106 -1070 85z"/>
<path d="M5516 26864 c-135 -33 -291 -133 -386 -247 -59 -72 -133 -216 -155
-302 -50 -199 17 -382 189 -511 185 -140 447 -221 741 -231 234 -8 386 26 438
98 19 26 18 28 -7 155 -31 155 -51 297 -65 461 -9 104 -16 132 -45 196 -95
209 -231 335 -412 382 -72 19 -219 18 -298 -1z"/>
<path d="M7237 25780 c-66 -211 -99 -439 -142 -990 -23 -283 -45 -496 -61
-580 -10 -56 39 71 62 158 52 204 96 548 160 1269 20 228 16 255 -19 143z"/>
<path d="M5610 21342 c-26 -8 -51 -35 -72 -77 -53 -103 -23 -410 63 -646 l23
-62 19 44 c10 24 32 94 47 154 58 227 65 431 19 521 -25 48 -67 77 -99 66z"/>
<path d="M4525 20906 c-100 -43 -124 -183 -44 -250 104 -87 249 -24 249 109 0
65 -28 110 -83 135 -49 23 -80 24 -122 6z"/>
<path d="M6603 20901 c-55 -26 -83 -71 -83 -135 0 -149 183 -205 274 -83 29
39 29 125 0 163 -51 69 -119 88 -191 55z"/>
<path d="M3376 20731 c-58 -64 -8 -213 131 -389 62 -77 180 -200 237 -245 l39
-31 -8 60 c-17 139 -130 436 -202 530 -64 85 -156 120 -197 75z"/>
<path d="M7742 20721 c-75 -55 -149 -190 -215 -396 -34 -106 -64 -241 -55
-250 7 -8 140 111 195 173 190 217 272 400 213 475 -30 38 -83 37 -138 -2z"/>
<path d="M5405 20080 c-647 -48 -1269 -290 -1780 -694 -55 -43 -175 -154 -266
-245 -267 -267 -440 -506 -603 -831 -235 -470 -339 -911 -339 -1435 0 -524
105 -966 339 -1435 163 -325 336 -564 603 -831 261 -261 497 -434 808 -592
476 -241 928 -350 1458 -350 257 0 412 15 645 63 877 180 1644 725 2110 1500
83 137 253 490 236 490 -2 0 -19 -26 -36 -57 -108 -193 -286 -419 -485 -618
-176 -177 -305 -283 -506 -415 -418 -276 -868 -437 -1394 -501 -242 -30 -649
-11 -910 42 -435 88 -870 288 -1200 554 -480 385 -820 925 -950 1505 -53 238
-60 307 -60 615 0 259 3 304 23 418 94 521 319 958 687 1336 424 436 946 703
1540 787 158 23 519 26 665 5 453 -62 856 -231 1190 -499 651 -522 965 -1369
809 -2179 -141 -733 -736 -1367 -1486 -1583 -313 -90 -686 -104 -993 -39 -498
107 -914 390 -1190 809 -205 312 -300 665 -287 1060 9 257 53 426 168 650 76
148 167 270 294 395 224 222 505 372 825 441 68 15 129 19 300 19 239 0 304
-9 487 -70 459 -153 806 -526 918 -987 52 -216 54 -449 4 -628 -92 -332 -373
-616 -729 -734 -142 -47 -225 -59 -385 -59 -128 0 -164 4 -245 25 -180 48
-325 130 -451 257 -165 165 -253 358 -266 586 -5 91 -3 108 22 185 44 137 90
215 180 306 67 68 95 89 175 127 113 54 174 68 295 68 121 0 182 -14 295 -68
79 -38 109 -59 176 -127 67 -67 89 -97 127 -176 53 -111 69 -181 69 -299 -1
-184 -64 -334 -196 -467 -128 -127 -273 -191 -447 -196 -72 -2 -72 -2 -38 -17
112 -46 265 -66 401 -51 445 49 800 346 884 740 19 89 18 307 -2 411 -32 172
-103 344 -196 482 -64 94 -220 249 -320 318 -163 111 -340 181 -548 215 -128
21 -378 14 -505 -16 -276 -63 -507 -186 -707 -378 -275 -264 -419 -577 -435
-947 -19 -435 125 -844 413 -1178 134 -155 354 -321 544 -411 519 -244 1118
-233 1651 31 538 265 925 754 1045 1317 101 480 8 1032 -248 1467 -590 1002
-1885 1354 -2993 814 -749 -365 -1263 -1073 -1361 -1872 -20 -166 -15 -510 10
-666 93 -576 340 -1056 747 -1452 260 -253 532 -428 864 -558 334 -131 641
-187 1021 -187 473 -1 874 92 1299 300 610 298 1081 766 1375 1365 211 430
308 880 271 1250 -93 909 -555 1724 -1291 2273 -434 323 -988 543 -1530 606
-164 19 -445 27 -595 16z"/>
<path d="M5470 17367 c-134 -46 -237 -130 -297 -242 -45 -86 -63 -157 -63
-250 0 -234 151 -432 379 -499 30 -9 91 -16 136 -16 234 0 432 151 499 379 9
30 16 91 16 136 0 234 -151 432 -379 499 -81 24 -211 21 -291 -7z"/>
<path d="M2733 19869 c-72 -21 -123 -110 -103 -178 15 -54 39 -82 87 -103 140
-62 271 99 181 224 -35 49 -107 74 -165 57z"/>
<path d="M8425 19865 c-110 -39 -137 -177 -50 -253 49 -43 103 -50 163 -20 56
28 85 73 85 132 0 103 -101 175 -198 141z"/>
<path d="M1800 19143 c-58 -21 -67 -86 -21 -150 50 -69 176 -140 369 -207 102
-35 252 -71 272 -64 18 6 -104 142 -202 223 -192 162 -334 229 -418 198z"/>
<path d="M9305 19125 c-119 -49 -307 -196 -429 -335 -48 -55 -53 -65 -37 -68
32 -5 228 46 325 84 200 80 301 149 332 229 15 42 16 46 0 70 -34 51 -99 58
-191 20z"/>
<path d="M1675 18056 c-77 -34 -111 -117 -79 -194 28 -67 73 -95 144 -90 35 3
66 11 82 23 83 62 81 185 -3 248 -34 25 -105 31 -144 13z"/>
<path d="M9454 18056 c-92 -40 -117 -170 -46 -241 78 -79 203 -55 246 47 23
56 16 104 -21 149 -47 55 -116 72 -179 45z"/>
<path d="M1285 16981 c-61 -15 -114 -53 -127 -92 -3 -8 0 -29 7 -46 30 -70
172 -98 372 -73 110 13 295 58 362 87 l44 19 -59 22 c-196 71 -484 111 -599
83z"/>
<path d="M9670 16974 c-105 -16 -214 -44 -304 -76 l-59 -22 44 -19 c67 -29
252 -74 362 -87 200 -25 342 3 372 73 20 48 -1 84 -70 120 -53 27 -212 32
-345 11z"/>
<path d="M1649 15957 c-44 -29 -74 -100 -65 -151 22 -115 170 -164 252 -82 72
72 62 182 -23 237 -41 27 -121 25 -164 -4z"/>
<path d="M9437 15961 c-85 -55 -95 -165 -23 -237 82 -82 230 -33 252 82 9 51
-21 122 -65 151 -43 29 -123 31 -164 4z"/>
<path d="M2317 15014 c-150 -32 -367 -119 -462 -184 -100 -69 -135 -165 -77
-210 37 -30 117 -23 198 18 131 66 362 258 433 360 l22 32 -23 -1 c-13 0 -54
-7 -91 -15z"/>
<path d="M8849 14992 c17 -22 73 -80 126 -130 243 -233 453 -320 521 -217 16
24 15 28 0 70 -31 80 -139 154 -335 230 -93 36 -277 85 -319 85 -24 0 -24 0 7
-38z"/>
<path d="M2712 14164 c-145 -74 -97 -284 64 -284 153 0 207 180 82 273 -36 27
-105 32 -146 11z"/>
<path d="M8415 14166 c-65 -29 -106 -109 -90 -173 17 -70 75 -113 150 -113
188 0 200 273 13 295 -26 3 -55 0 -73 -9z"/>
<path d="M3710 13625 c-183 -158 -360 -417 -360 -525 0 -43 16 -77 45 -96 24
-16 28 -15 70 0 80 31 151 133 229 335 40 101 89 290 84 322 -3 18 -12 13 -68
-36z"/>
<path d="M7470 13666 c0 -73 78 -322 141 -449 57 -116 104 -176 161 -205 42
-21 51 -23 77 -12 62 25 66 126 10 236 -42 85 -149 224 -244 319 -94 95 -145
134 -145 111z"/>
<path d="M5601 13131 c-86 -236 -116 -543 -63 -646 35 -69 71 -90 119 -70 70
30 98 172 73 372 -13 110 -58 295 -87 362 l-19 44 -23 -62z"/>
<path d="M4535 13125 c-112 -40 -139 -176 -50 -254 47 -41 95 -49 153 -25 62
26 92 71 92 136 0 109 -96 179 -195 143z"/>
<path d="M6628 13130 c-69 -21 -108 -73 -108 -146 0 -67 30 -112 92 -138 58
-24 106 -16 153 25 60 53 70 144 24 203 -37 47 -110 72 -161 56z"/>
<path d="M33750 33750 l0 -11250 -5625 0 -5625 0 0 -11250 0 -11250 11250 0
11250 0 0 5630 0 5630 -5625 0 -5625 0 0 5620 0 5620 5625 0 5625 0 0 11250 0
11250 -5625 0 -5625 0 0 -11250z m5681 10050 c9 -11 20 -45 24 -77 17 -134 92
-260 243 -405 111 -106 227 -195 552 -423 199 -140 309 -221 430 -316 31 -24
53 -30 189 -49 85 -11 227 -34 317 -50 454 -82 524 -92 719 -97 265 -7 370 18
489 117 72 60 133 52 151 -20 5 -20 -2 -37 -30 -73 -96 -126 -131 -267 -122
-497 6 -159 23 -284 92 -675 25 -143 54 -329 65 -413 l20 -153 78 -102 c44
-56 161 -219 262 -362 229 -326 291 -407 404 -523 146 -150 291 -232 411 -232
58 0 95 -30 95 -76 0 -48 -26 -70 -96 -79 -135 -17 -261 -92 -406 -243 -103
-108 -194 -226 -398 -517 -127 -182 -257 -358 -333 -455 -33 -42 -37 -54 -52
-165 -8 -66 -38 -248 -65 -405 -91 -521 -104 -647 -89 -828 13 -150 46 -239
125 -333 54 -65 43 -127 -26 -144 -20 -5 -37 2 -73 30 -205 156 -422 162
-1172 30 -143 -25 -323 -54 -401 -64 l-140 -18 -78 -62 c-43 -34 -156 -117
-250 -184 -422 -299 -485 -345 -566 -413 -220 -184 -325 -336 -345 -499 -8
-60 -37 -105 -69 -105 -52 0 -86 43 -86 109 0 116 -84 263 -232 407 -116 113
-197 175 -523 404 -143 101 -306 218 -362 262 l-102 78 -153 20 c-84 11 -270
40 -413 65 -379 67 -513 85 -675 91 -229 10 -371 -25 -497 -121 -36 -28 -53
-35 -73 -30 -72 18 -80 79 -20 151 89 107 122 224 121 434 0 170 -8 235 -81
660 -33 190 -66 399 -75 465 -15 111 -19 123 -52 165 -76 97 -206 273 -333
455 -204 291 -295 409 -398 517 -146 151 -271 226 -407 243 -98 13 -133 69
-77 124 22 23 39 29 93 34 132 12 252 81 395 229 113 116 175 197 404 523 101
143 218 306 262 362 l78 102 20 153 c11 84 40 270 65 413 67 379 85 513 91
675 10 229 -25 371 -121 497 -28 36 -35 53 -30 73 18 72 79 80 151 20 119 -99
224 -124 489 -117 163 4 224 11 425 45 470 82 587 101 687 113 l103 12 105 82
c58 45 224 165 368 266 326 229 429 308 540 418 144 141 227 288 227 402 0 48
16 84 44 98 28 13 67 5 87 -19z m1899 -11711 c190 -48 405 -190 536 -353 368
-460 223 -1160 -412 -1996 -141 -186 -254 -313 -472 -533 l-187 -189 45 8 c25
4 158 6 295 4 554 -9 745 -6 814 13 175 48 264 132 327 309 69 193 166 309
290 348 121 37 216 26 454 -52 125 -40 125 -40 245 -35 266 12 487 107 617
265 19 24 34 32 58 32 18 0 43 9 57 20 33 26 63 25 97 -1 41 -32 35 -73 -23
-162 -93 -141 -310 -350 -558 -534 -926 -689 -2689 -1480 -3758 -1687 -71 -14
-165 -28 -207 -32 l-78 -7 163 -106 c451 -297 689 -508 785 -697 35 -68 44
-155 43 -402 -2 -692 -114 -1639 -247 -2079 -47 -158 -111 -289 -164 -337 -48
-43 -49 -43 -215 -11 -113 22 -251 16 -490 -19 -232 -34 -374 -46 -542 -46
-137 0 -142 1 -171 25 -28 23 -34 25 -74 15 -105 -24 -204 1 -227 58 -11 25
-10 35 3 61 20 38 55 48 107 31 32 -11 49 -11 102 3 122 30 264 89 532 222
149 74 311 147 360 164 89 29 210 51 286 51 l39 0 0 154 c0 108 -12 275 -40
549 -53 532 -66 779 -51 995 6 92 14 183 17 202 l6 36 -114 81 c-142 101 -392
263 -808 523 -628 392 -880 572 -1069 763 l-84 85 -45 -29 c-89 -56 -200 -79
-392 -79 l-125 0 -3 -133 c-5 -244 -64 -431 -159 -503 -175 -133 -478 -119
-802 36 -469 227 -879 664 -991 1060 -100 352 64 754 398 977 186 124 395 183
653 183 275 0 521 -69 623 -176 42 -43 63 -77 204 -327 74 -130 122 -187 157
-187 24 0 85 60 123 122 12 20 28 38 35 41 7 3 35 42 61 88 151 261 355 516
675 843 185 188 301 291 726 646 423 353 555 472 895 805 157 154 339 327 405
385 388 340 687 501 995 534 63 6 204 -6 280 -25z m-13217 -10064 c202 -43
358 -205 428 -446 15 -53 23 -119 28 -229 6 -121 14 -177 35 -255 23 -83 29
-128 33 -261 l6 -160 -28 -22 c-37 -29 -61 -28 -96 7 -28 29 -29 32 -30 138
l0 108 -48 -100 c-26 -56 -65 -127 -85 -159 -36 -57 -37 -60 -31 -125 9 -86
38 -153 86 -195 50 -46 93 -67 212 -105 53 -17 141 -45 195 -62 122 -39 232
-96 299 -154 109 -96 174 -229 324 -670 54 -159 130 -382 168 -495 130 -380
143 -538 50 -644 -77 -87 -203 -118 -489 -119 -161 -1 -217 3 -324 22 -70 12
-134 25 -141 27 -10 4 -11 -5 -4 -40 11 -58 37 -106 100 -181 86 -104 190
-337 214 -482 l6 -41 107 -47 c415 -184 976 -504 1227 -700 180 -141 292 -291
356 -480 20 -59 24 -90 24 -190 0 -115 -1 -123 -33 -189 -62 -131 -196 -233
-358 -272 -91 -23 -282 -22 -384 0 -125 27 -193 53 -492 187 -568 254 -738
311 -933 313 -117 1 -174 -16 -234 -70 -54 -49 -86 -111 -106 -213 -18 -91
-18 -396 0 -584 43 -438 42 -554 -5 -726 l-21 -74 20 -86 c42 -179 54 -335 48
-631 -4 -151 -13 -329 -21 -395 -31 -250 -20 -450 48 -845 59 -343 70 -473 47
-542 -15 -46 -78 -103 -128 -117 -122 -34 -313 28 -424 138 -68 69 -79 105
-79 269 0 129 20 235 61 314 17 33 22 58 20 108 -5 174 -44 431 -118 770 -143
659 -166 832 -165 1260 2 397 -4 434 -189 1172 -165 660 -199 852 -199 1112 0
283 29 457 125 741 35 105 70 224 79 266 17 82 33 249 23 249 -3 0 -58 -10
-124 -21 -92 -17 -160 -22 -308 -22 -276 -1 -406 26 -491 105 -105 97 -98 270
25 633 32 93 104 304 160 468 178 526 238 644 373 740 90 64 167 93 380 143
103 24 209 54 235 68 90 46 126 102 138 218 7 64 6 69 -22 105 -72 95 -136
216 -193 366 -30 78 -39 94 -44 75 -13 -48 -6 -149 15 -207 19 -56 19 -62 4
-90 -17 -35 -55 -48 -94 -35 -53 19 -100 201 -82 315 12 70 48 155 90 207 27
36 29 41 29 147 3 471 312 774 705 690z m11311 -11886 c14 -11 26 -31 26 -43
0 -60 133 -159 420 -311 259 -138 424 -232 523 -298 116 -77 275 -233 312
-307 31 -61 55 -140 55 -183 l0 -29 33 28 c89 75 228 111 392 100 169 -10 316
-46 790 -191 303 -93 455 -115 503 -72 25 22 85 22 104 0 27 -31 29 -57 7 -98
-42 -77 -19 -207 106 -616 130 -422 159 -570 153 -764 -5 -147 -24 -212 -84
-290 -19 -25 -34 -47 -34 -50 0 -3 12 -5 28 -5 42 -1 154 -44 208 -80 154
-105 277 -280 514 -725 200 -378 290 -505 355 -505 33 0 75 -42 75 -73 0 -33
-37 -77 -64 -77 -60 0 -159 -133 -311 -420 -241 -452 -320 -576 -454 -711
-108 -108 -179 -151 -285 -171 l-65 -12 23 -31 c74 -97 100 -203 93 -375 -6
-152 -36 -297 -113 -550 -113 -372 -154 -522 -166 -609 -11 -89 -11 -90 15
-141 33 -63 33 -72 4 -106 -28 -32 -71 -35 -112 -8 -21 14 -41 16 -113 11 -99
-6 -193 -29 -512 -127 -385 -118 -537 -150 -709 -150 -152 0 -265 34 -350 105
l-31 27 0 -29 c0 -43 -24 -122 -55 -183 -37 -74 -196 -230 -312 -307 -99 -66
-264 -160 -523 -298 -283 -150 -420 -251 -420 -309 0 -30 -39 -66 -72 -66 -36
0 -78 40 -78 75 0 65 -127 155 -505 355 -451 240 -622 361 -728 520 -38 55
-77 161 -77 206 0 13 -2 24 -5 24 -3 0 -25 -15 -50 -34 -151 -115 -405 -118
-795 -8 -58 16 -204 60 -325 97 -353 107 -476 126 -552 85 -85 -45 -150 41
-91 120 41 56 13 211 -112 610 -145 466 -183 693 -146 871 15 70 63 176 90
198 9 8 16 16 16 20 0 4 -30 12 -66 19 -106 20 -177 62 -285 171 -134 135
-213 259 -454 711 -150 283 -251 420 -309 420 -30 0 -66 39 -66 72 0 36 40 78
75 78 65 0 155 127 355 505 237 445 360 620 514 725 57 39 167 79 214 80 l34
0 -27 31 c-68 81 -105 202 -105 344 0 165 39 347 155 725 93 303 125 439 125
530 -1 50 -6 81 -15 94 -30 39 -13 100 31 116 20 8 37 4 82 -17 55 -26 58 -26
148 -15 92 12 190 38 574 155 327 99 434 120 615 121 169 0 223 -13 323 -79
52 -35 52 -35 52 -11 0 45 39 151 77 206 106 159 277 280 728 520 378 200 505
290 505 355 0 33 42 75 73 75 13 0 36 -9 51 -21z m-11044 -114 c445 -103 658
-514 565 -1090 -41 -253 -141 -506 -281 -707 l-54 -77 0 -90 c0 -162 36 -268
120 -352 73 -72 161 -110 402 -169 262 -64 358 -102 504 -200 250 -169 400
-417 478 -787 48 -234 51 -277 48 -773 -2 -469 4 -608 35 -770 14 -72 22 -91
53 -125 108 -120 192 -285 365 -718 69 -176 150 -370 180 -433 148 -314 308
-510 498 -610 68 -36 74 -37 216 -44 130 -7 155 -11 226 -40 182 -72 462 -238
484 -288 15 -33 14 -46 -10 -76 -33 -42 -74 -36 -166 28 -103 71 -305 178
-278 147 14 -16 21 -44 26 -100 13 -151 83 -225 265 -277 49 -14 104 -37 122
-50 87 -67 80 -167 -17 -228 -87 -56 -252 -92 -379 -84 -64 4 -72 3 -67 -11
17 -43 35 -172 35 -252 0 -315 -173 -538 -471 -609 -46 -11 -98 -25 -115 -30
-46 -15 -220 -12 -319 5 -190 33 -306 100 -508 293 -211 201 -295 254 -499
316 -285 86 -602 128 -1068 142 -189 5 -248 11 -371 35 -322 63 -548 59 -1084
-22 -354 -53 -487 -69 -640 -76 l-150 -6 -101 -97 c-233 -224 -659 -449 -1043
-552 -415 -112 -790 78 -866 439 -24 114 -14 328 20 414 5 14 -3 15 -67 11
-127 -8 -292 28 -379 84 -97 61 -104 161 -17 228 18 13 73 36 122 50 182 52
252 126 265 277 5 56 12 84 26 100 27 31 -175 -76 -278 -147 -92 -64 -133 -70
-166 -28 -24 30 -25 43 -10 76 22 50 302 216 484 288 71 29 96 33 226 40 142
7 148 8 216 44 186 98 336 279 483 581 38 77 125 284 195 460 173 436 258 602
366 720 35 38 39 48 60 170 23 126 24 149 24 670 1 575 3 608 55 850 88 403
276 672 580 829 117 60 198 88 390 131 91 20 193 48 228 61 193 72 282 215
299 479 l6 100 -57 88 c-109 166 -201 392 -248 608 -19 90 -22 133 -22 314 0
245 12 305 91 465 81 165 235 298 411 355 148 48 404 57 562 20z"/>
<path d="M39347 43409 c-119 -178 -268 -309 -698 -610 -129 -89 -253 -177
-276 -194 l-42 -32 131 -7 c176 -9 337 -38 479 -85 139 -47 226 -89 340 -166
46 -32 89 -58 94 -58 6 0 48 26 94 58 229 154 492 234 835 252 l139 8 -289
204 c-159 112 -327 234 -374 270 -152 117 -326 297 -386 397 -9 16 -15 11 -47
-37z"/>
<path d="M38184 42412 l-71 -7 -88 -80 c-222 -201 -396 -448 -472 -670 -23
-66 -53 -191 -53 -219 0 -10 33 -15 128 -19 356 -16 634 -176 762 -442 54
-112 70 -181 77 -325 6 -147 -14 -291 -45 -322 -25 -25 -151 -47 -273 -48
-476 -1 -792 325 -816 843 -4 94 -9 127 -19 127 -28 0 -153 -30 -219 -53 -226
-78 -478 -256 -678 -481 -96 -108 -97 -111 -97 -311 1 -337 72 -604 222 -833
l54 -82 39 41 c129 134 345 261 510 300 181 43 377 13 539 -83 125 -74 346
-312 346 -372 0 -32 -86 -150 -169 -235 -168 -171 -356 -248 -576 -238 -219
11 -418 103 -617 286 -36 33 -68 61 -71 61 -9 0 -76 -109 -115 -186 -113 -226
-161 -494 -146 -818 l7 -148 73 -82 c244 -272 544 -454 835 -509 l76 -14 6
131 c13 297 129 548 318 690 83 62 138 90 246 122 77 24 106 27 233 28 160 1
269 -15 295 -44 23 -26 44 -157 45 -278 0 -227 -69 -408 -210 -552 -154 -157
-373 -245 -637 -257 -91 -4 -123 -9 -123 -19 0 -7 7 -43 15 -81 59 -278 238
-561 511 -807 l104 -94 77 -8 c105 -9 346 2 463 22 186 32 361 100 516 201
l72 47 -65 71 c-306 329 -377 705 -191 1019 80 136 304 340 373 340 69 0 293
-204 373 -340 96 -163 126 -357 83 -538 -39 -164 -135 -332 -274 -481 l-65
-71 72 -47 c106 -69 197 -113 316 -151 174 -56 275 -70 526 -71 l221 0 35 27
c74 56 249 240 325 342 133 177 221 368 256 559 l15 77 -88 0 c-110 0 -239 22
-355 61 -280 94 -459 290 -517 566 -33 161 -12 434 37 469 46 34 281 54 405
35 251 -39 438 -167 558 -381 71 -129 122 -336 122 -501 l0 -87 78 15 c212 39
419 140 612 297 79 64 262 245 288 284 26 39 21 441 -7 596 -25 141 -65 265
-121 377 -40 79 -108 189 -117 189 -3 0 -35 -28 -71 -61 -347 -319 -740 -377
-1064 -158 -118 80 -298 289 -298 345 0 60 221 298 346 372 162 96 358 126
539 83 165 -39 381 -166 510 -300 l39 -41 54 82 c152 235 221 495 222 833 0
200 -1 203 -97 311 -243 273 -537 460 -816 519 -103 22 -97 27 -97 -68 0 -287
-123 -576 -308 -722 -67 -54 -192 -117 -277 -140 -144 -39 -460 -25 -506 22
-24 24 -49 170 -49 282 0 470 330 785 846 808 l131 6 -14 76 c-39 211 -140
419 -297 611 -64 79 -244 261 -285 288 -39 26 -439 22 -595 -7 -141 -25 -265
-65 -377 -121 -80 -40 -189 -108 -189 -117 0 -3 30 -37 66 -77 312 -336 371
-727 158 -1048 -83 -125 -291 -308 -349 -308 -31 0 -152 88 -233 169 -338 337
-322 795 42 1187 36 40 66 74 66 77 0 9 -109 77 -189 117 -184 92 -388 137
-650 144 -86 2 -188 1 -227 -2z"/>
<path d="M37805 42369 c-188 -35 -640 -111 -740 -125 -160 -22 -405 -23 -504
-1 -41 9 -76 15 -77 14 -2 -2 3 -39 11 -82 19 -105 19 -300 0 -455 -9 -69 -40
-267 -69 -440 -30 -173 -58 -335 -62 -360 l-7 -45 85 81 c109 103 250 209 363
273 148 84 283 131 512 177 13 2 25 14 27 27 46 229 93 365 177 512 65 115
164 247 263 353 43 45 76 81 75 81 -2 -1 -26 -5 -54 -10z"/>
<path d="M40970 42311 c254 -287 363 -492 422 -794 18 -92 25 -108 42 -112
367 -71 603 -193 874 -449 l85 -81 -7 45 c-4 25 -32 187 -62 360 -29 173 -60
371 -69 440 -19 155 -19 350 0 455 8 43 13 80 11 82 -1 1 -36 -5 -77 -14 -97
-21 -343 -21 -506 1 -66 9 -246 38 -400 65 -153 27 -298 52 -323 56 l-44 7 54
-61z"/>
<path d="M39307 41990 c-293 -316 -337 -658 -118 -929 52 -65 167 -171 186
-171 16 0 121 94 176 157 57 67 122 194 138 271 35 171 -17 370 -144 547 -58
81 -154 185 -170 185 -7 0 -38 -27 -68 -60z"/>
<path d="M37483 41144 c10 -229 79 -414 201 -537 123 -126 288 -183 499 -174
65 3 121 8 124 10 2 3 7 59 10 124 6 148 -11 236 -68 352 -105 212 -329 333
-643 348 l-129 6 6 -129z"/>
<path d="M41003 41255 c-383 -69 -590 -322 -570 -694 3 -57 10 -108 16 -114 5
-5 58 -12 118 -14 178 -9 306 25 429 112 171 122 274 364 274 643 l0 82 -97
-1 c-54 0 -130 -7 -170 -14z"/>
<path d="M36119 40340 c-26 -36 -113 -159 -194 -275 -288 -411 -394 -528 -618
-687 -18 -12 -15 -16 35 -48 29 -19 97 -77 152 -130 145 -140 187 -194 562
-724 l119 -169 7 139 c19 344 103 618 261 848 l55 79 -54 74 c-160 223 -251
504 -272 838 l-7 120 -46 -65z"/>
<path d="M42577 40283 c-19 -345 -118 -637 -299 -874 l-27 -34 55 -80 c159
-231 243 -505 262 -849 l7 -139 119 169 c375 530 417 584 562 724 55 53 123
111 152 130 28 18 52 36 51 39 0 3 -32 26 -70 51 -80 51 -252 222 -351 350
-37 47 -148 203 -248 345 -100 143 -188 266 -194 273 -10 11 -14 -10 -19 -105z"/>
<path d="M37161 39680 c-92 -25 -199 -76 -276 -133 -81 -59 -185 -156 -185
-172 0 -7 28 -39 63 -70 380 -346 769 -340 1061 18 l39 47 -28 40 c-42 60
-164 172 -227 208 -92 53 -163 73 -273 78 -79 3 -116 0 -174 -16z"/>
<path d="M41340 39693 c-53 -9 -127 -37 -189 -70 -69 -38 -191 -149 -236 -213
l-28 -40 39 -47 c292 -358 681 -364 1062 -18 34 31 62 63 62 70 0 19 -131 136
-212 191 -159 106 -343 153 -498 127z"/>
<path d="M38025 38314 c-200 -31 -363 -149 -450 -327 -61 -125 -85 -223 -92
-381 l-6 -129 124 6 c354 16 589 163 683 425 29 82 31 95 31 234 0 97 -4 151
-11 158 -12 12 -224 22 -279 14z"/>
<path d="M40490 38312 l-45 -7 -8 -60 c-11 -81 -2 -237 19 -305 42 -141 138
-268 257 -339 128 -76 255 -110 440 -118 l117 -6 0 84 c0 288 -109 533 -289
653 -100 67 -201 97 -336 101 -60 2 -130 0 -155 -3z"/>
<path d="M39323 37822 c-129 -102 -236 -261 -262 -390 -24 -116 -5 -261 49
-387 46 -107 229 -345 265 -345 36 0 219 238 265 345 54 126 73 271 49 387 -6
29 -29 91 -52 138 -33 69 -58 102 -132 176 -121 123 -122 123 -182 76z"/>
<path d="M36385 37790 c4 -25 29 -170 56 -323 70 -399 82 -500 82 -682 0 -117
-4 -178 -16 -229 -10 -38 -16 -70 -14 -72 1 -2 39 3 82 11 185 33 396 17 895
-69 173 -30 335 -58 360 -62 l45 -7 -81 85 c-256 271 -378 507 -449 874 -4 17
-20 24 -116 42 -297 59 -503 169 -790 422 l-61 54 7 -44z"/>
<path d="M42315 37784 c-278 -250 -495 -366 -796 -426 l-106 -21 -21 -106
c-59 -299 -173 -513 -420 -788 -68 -76 -71 -82 -45 -78 383 67 695 118 798
130 162 19 345 19 450 0 43 -8 81 -13 82 -11 2 2 -4 34 -14 72 -12 51 -16 112
-16 229 0 182 12 283 82 682 61 344 64 363 59 363 -1 -1 -25 -21 -53 -46z"/>
<path d="M39300 36443 c-211 -155 -514 -254 -828 -270 -99 -5 -121 -9 -110
-19 7 -6 130 -94 273 -194 466 -326 572 -421 737 -653 12 -18 16 -15 48 35 49
75 207 236 327 332 57 45 233 174 392 286 l290 205 -130 7 c-361 19 -647 116
-890 300 l-34 26 -75 -55z"/>
<path d="M40955 31945 c-210 -46 -440 -176 -709 -401 -143 -119 -259 -229
-601 -564 -278 -273 -363 -348 -850 -756 -435 -365 -588 -504 -773 -705 -266
-290 -392 -454 -528 -684 -42 -71 -91 -144 -108 -161 -17 -17 -48 -51 -69 -77
-53 -65 -115 -100 -180 -100 -125 0 -193 75 -371 405 -77 144 -112 181 -203
216 -144 55 -219 67 -418 66 -150 -1 -193 -4 -257 -22 -282 -77 -471 -220
-580 -437 -128 -254 -112 -482 53 -756 69 -115 119 -178 239 -303 119 -123
214 -203 345 -289 251 -165 527 -255 703 -227 160 26 204 76 238 271 33 189 6
578 -51 740 -21 57 -19 95 6 120 28 28 86 23 110 -11 24 -33 65 -187 81 -306
l12 -94 121 0 c177 1 306 28 343 72 9 11 3 32 -28 94 -73 148 -90 287 -49 420
26 87 50 114 100 114 64 0 86 -56 54 -134 -77 -183 33 -422 305 -664 188 -168
365 -289 1000 -687 612 -384 910 -585 947 -641 13 -21 14 -35 3 -106 -39 -268
-31 -550 31 -1168 58 -576 57 -835 -4 -875 -16 -10 -55 -14 -137 -13 -170 0
-226 -18 -556 -180 -155 -75 -281 -138 -280 -139 5 -6 273 21 420 43 94 14
234 28 311 31 127 5 170 2 307 -23 34 -6 38 -4 58 27 130 212 307 1358 327
2114 7 264 -5 408 -38 484 -45 102 -198 254 -429 426 -92 68 -193 136 -570
384 -266 175 -510 392 -608 543 -54 84 -103 193 -127 284 -41 158 -43 419 -3
469 25 32 79 34 109 4 20 -20 21 -29 16 -127 l-5 -106 49 124 c292 739 1061
1836 1624 2319 221 190 343 254 387 204 46 -53 28 -99 -59 -150 -206 -120
-521 -435 -834 -833 -548 -696 -1024 -1552 -1077 -1935 -9 -65 -8 -73 14 -115
68 -126 190 -254 382 -401 l107 -81 135 5 c289 13 649 96 1154 267 1040 351
2229 946 2901 1451 149 111 210 164 180 154 -140 -47 -213 -58 -380 -59 l-170
-1 -101 37 c-202 72 -306 83 -392 39 -68 -35 -109 -98 -172 -267 -122 -326
-373 -434 -939 -405 -604 32 -849 -1 -1027 -136 -241 -182 -537 -343 -633
-343 -44 0 -75 31 -75 73 0 47 16 63 78 81 131 38 461 232 554 325 20 20 48
42 62 48 64 27 397 335 593 548 445 484 748 979 853 1397 36 141 44 351 19
464 -22 102 -56 182 -111 265 -105 159 -322 311 -506 354 -77 18 -241 18 -323
0z"/>
<path d="M27880 21874 c-110 -30 -194 -104 -255 -226 -38 -76 -68 -196 -63
-252 l3 -37 100 72 c179 128 256 218 271 321 8 54 38 88 76 88 39 0 78 -40 78
-80 0 -75 47 -132 175 -215 44 -28 97 -66 118 -84 l37 -33 -6 34 c-20 116 -78
244 -142 311 -94 98 -251 139 -392 101z"/>
<path d="M27930 21460 c-47 -47 -137 -123 -200 -168 -63 -45 -126 -90 -139
-100 l-23 -19 21 -78 c61 -221 209 -482 326 -575 28 -22 48 -30 77 -30 75 0
191 136 296 345 52 106 95 219 113 304 10 49 10 53 -21 100 -40 63 -100 118
-192 177 -40 26 -95 65 -123 88 l-50 41 -85 -85z"/>
<path d="M28142 20393 c-24 -18 -68 -40 -99 -49 -52 -15 -58 -15 -112 3 -31
11 -62 22 -69 24 -9 3 -20 -15 -31 -52 -25 -77 -74 -143 -143 -189 -70 -47
-135 -69 -342 -116 -305 -69 -372 -120 -472 -357 -42 -100 -160 -438 -319
-913 -56 -169 -85 -295 -85 -374 0 -94 54 -123 268 -141 144 -12 352 1 502 31
116 24 371 93 448 122 72 27 148 102 186 182 31 66 66 216 66 287 0 58 17 106
40 119 29 16 64 12 87 -10 22 -19 26 -39 38 -167 18 -194 106 -351 223 -401
69 -30 315 -99 449 -127 301 -63 700 -50 768 25 45 49 20 219 -71 485 -30 88
-99 291 -153 450 -230 675 -251 703 -655 825 -196 59 -280 98 -347 158 -63 56
-88 92 -113 162 l-21 56 -43 -33z m-59 -855 c56 -39 93 -144 151 -423 57 -272
90 -368 147 -424 32 -33 65 -41 160 -41 l69 0 0 29 c0 45 25 152 66 286 40
131 63 246 64 314 0 44 -19 86 -67 144 -31 38 -29 63 7 99 24 24 36 29 58 24
83 -19 185 -230 323 -663 23 -73 56 -158 74 -190 l32 -58 82 0 c97 -1 125 -19
125 -81 0 -80 -59 -90 -420 -74 -545 24 -555 25 -611 53 -123 63 -183 192
-258 560 -45 215 -46 220 -56 210 -4 -4 -32 -107 -62 -228 -30 -121 -69 -257
-87 -303 -44 -115 -109 -198 -183 -236 -56 -29 -62 -30 -315 -43 -141 -7 -347
-14 -457 -15 -176 -3 -204 -1 -227 14 -49 32 -46 99 5 133 18 12 35 13 81 5
36 -6 65 -6 76 0 29 15 85 145 150 349 117 367 209 546 292 566 22 6 33 1 59
-24 36 -36 34 -68 -6 -111 -12 -14 -33 -45 -45 -70 -34 -67 -24 -162 39 -379
27 -95 53 -194 56 -220 13 -98 6 -91 96 -91 44 0 94 6 112 14 85 35 135 143
212 459 100 416 148 492 258 415z"/>
<path d="M28841 18998 c-40 -128 -71 -246 -77 -296 l-6 -59 112 -8 c61 -4 114
-5 116 -2 3 3 -6 31 -20 64 -13 32 -43 119 -66 193 -22 74 -42 136 -44 138 -2
2 -9 -12 -15 -30z"/>
<path d="M27155 18948 c-28 -101 -76 -240 -96 -280 l-19 -38 32 0 c18 0 69 3
114 6 l80 7 -8 65 c-8 53 -72 290 -82 300 -2 1 -11 -26 -21 -60z"/>
<path d="M27990 18463 c-14 -26 -48 -73 -77 -104 -75 -80 -141 -112 -369 -178
l-71 -21 -6 -112 c-7 -152 -27 -239 -102 -464 -95 -279 -125 -454 -125 -720 0
-241 36 -436 208 -1129 176 -707 173 -689 182 -1160 10 -487 18 -557 145
-1150 95 -445 123 -621 140 -876 6 -96 6 -97 -29 -160 -44 -82 -59 -159 -54
-292 3 -100 4 -107 31 -135 62 -65 235 -120 287 -92 22 12 23 15 17 114 -4 56
-27 221 -51 366 -25 146 -49 309 -55 362 -16 143 -13 376 6 539 13 105 17 225
18 439 0 308 -9 400 -54 577 l-19 71 25 84 c34 119 46 260 34 404 -36 444 -44
503 -62 493 -36 -19 -66 -10 -104 32 -105 117 -123 270 -66 551 26 122 20 150
-62 295 -91 161 -107 254 -63 350 46 97 136 140 280 131 83 -6 84 -5 105 23
27 36 83 65 141 74 128 19 404 -89 565 -221 l55 -44 87 0 c140 0 358 -18 493
-41 260 -44 454 -127 584 -251 54 -53 61 -91 22 -128 -37 -34 -68 -29 -128 23
-143 121 -311 183 -603 222 -80 11 -247 19 -505 25 -444 9 -441 8 -627 101
-101 50 -134 62 -187 66 -76 7 -109 0 -136 -27 -38 -38 -27 -85 54 -243 100
-195 105 -222 72 -394 -40 -209 -34 -335 21 -399 l24 -29 -4 40 c-6 64 10 244
28 315 70 273 267 399 565 361 204 -25 395 -92 865 -303 421 -190 481 -208
674 -208 211 0 334 59 401 192 25 51 30 73 30 133 0 158 -92 340 -243 481
-211 197 -830 557 -1325 770 -59 25 -115 54 -125 64 -12 11 -22 41 -27 86 -19
150 -100 339 -195 459 -31 39 -65 84 -75 100 -22 36 -46 120 -55 191 l-6 51
-112 33 c-154 45 -235 89 -303 163 -31 33 -65 80 -77 103 -11 24 -23 44 -27
44 -3 0 -16 -21 -30 -47z"/>
<path d="M28241 16621 c-24 -7 -24 -7 14 -29 65 -39 180 -72 268 -78 l82 -5
-50 27 c-112 61 -258 100 -314 85z"/>
<path d="M39345 9890 c-42 -44 -171 -127 -320 -208 -71 -38 -195 -104 -275
-147 -360 -193 -513 -312 -585 -455 -10 -19 -20 -65 -23 -102 -4 -61 -2 -74
27 -133 18 -37 49 -79 72 -99 56 -48 161 -101 239 -121 36 -9 73 -24 83 -32
20 -19 23 -72 5 -96 -17 -23 -605 -266 -644 -267 -17 0 -38 8 -46 18 -33 37
-31 58 16 144 58 107 80 191 74 283 -14 210 -177 303 -463 266 -130 -17 -298
-60 -560 -141 -270 -84 -437 -126 -534 -136 -79 -7 -72 3 -85 -118 -9 -71 -46
-211 -121 -456 -126 -407 -162 -586 -153 -748 11 -197 119 -306 303 -306 93 0
155 18 268 78 74 39 78 40 104 26 15 -9 34 -27 42 -40 13 -24 5 -45 -115 -335
-71 -171 -137 -318 -146 -327 -23 -23 -80 -23 -101 0 -8 9 -21 40 -28 67 -18
75 -71 183 -117 242 -29 37 -60 60 -107 84 -59 29 -71 31 -133 27 -183 -13
-323 -168 -569 -630 -210 -395 -268 -492 -345 -574 l-30 -32 52 -63 c67 -84
122 -176 269 -451 201 -377 280 -498 399 -611 74 -70 135 -98 224 -105 62 -4
74 -2 133 27 38 19 79 49 100 74 48 55 100 158 120 238 9 37 25 71 37 81 28
25 70 22 95 -4 26 -28 266 -603 266 -637 0 -27 -44 -71 -70 -71 -8 0 -48 17
-87 39 -103 56 -168 75 -261 76 -106 0 -161 -21 -219 -86 -65 -72 -81 -128
-80 -274 2 -150 27 -273 125 -595 133 -440 159 -543 159 -641 l0 -39 46 0 c77
0 227 -36 514 -124 441 -134 572 -161 747 -154 91 4 116 9 158 30 177 92 213
283 94 514 -27 52 -49 101 -49 108 0 28 41 66 71 66 37 0 630 -244 646 -267
19 -24 16 -77 -4 -96 -10 -8 -47 -23 -83 -32 -77 -20 -183 -73 -238 -121 -82
-70 -120 -193 -92 -296 17 -59 88 -156 159 -215 127 -105 198 -147 701 -418
164 -88 257 -147 323 -205 l46 -41 63 51 c83 67 175 123 450 269 377 201 498
280 611 399 70 74 98 135 105 223 4 57 1 75 -21 122 -48 106 -169 194 -318
232 -37 9 -71 25 -81 37 -25 28 -23 70 5 95 27 25 602 265 635 265 29 1 72
-39 72 -66 0 -11 -23 -65 -50 -121 -78 -155 -86 -286 -26 -390 56 -94 137
-136 278 -143 162 -8 351 31 758 157 254 78 389 112 476 118 l70 6 13 99 c13
108 49 246 136 523 105 335 145 520 145 671 0 147 -51 253 -150 308 -50 28
-63 31 -145 31 -102 0 -189 -24 -270 -76 -26 -16 -59 -32 -74 -35 -37 -8 -81
28 -81 65 0 36 236 609 263 639 25 27 67 29 95 5 12 -11 28 -45 37 -83 37
-144 128 -270 231 -317 48 -22 66 -25 123 -21 88 7 149 35 223 105 119 113
198 234 399 611 146 275 202 367 269 450 l51 63 -41 46 c-76 87 -110 144 -345
583 -193 360 -312 513 -455 585 -19 10 -65 20 -102 23 -62 4 -74 2 -133 -27
-47 -24 -78 -47 -107 -84 -46 -59 -99 -167 -117 -242 -7 -27 -20 -58 -28 -67
-19 -21 -72 -24 -96 -5 -23 16 -267 608 -267 646 0 29 38 71 65 71 6 0 55 -22
107 -49 188 -95 339 -94 448 5 69 63 93 121 98 246 7 175 -21 314 -148 728
-90 293 -119 408 -127 503 l-6 77 -38 0 c-68 0 -240 38 -429 96 -541 164 -642
188 -815 188 -142 1 -198 -17 -271 -88 -42 -41 -56 -63 -69 -110 -31 -105 -6
-234 69 -369 20 -35 36 -71 36 -80 0 -26 -44 -69 -71 -69 -34 0 -609 239 -636
265 -27 25 -30 67 -5 95 10 12 44 28 81 37 149 38 270 126 318 232 22 47 25
65 21 122 -7 88 -35 149 -105 223 -113 119 -234 198 -611 399 -274 146 -367
202 -450 268 -34 28 -63 51 -65 51 -2 0 -16 -14 -32 -30z m82 -1614 c43 -36
75 -49 248 -105 194 -63 284 -106 358 -172 106 -95 148 -234 114 -379 -9 -36
-18 -72 -22 -81 -4 -10 5 -20 29 -32 l35 -16 32 60 c43 80 141 171 214 198
133 50 268 21 535 -115 110 -56 183 -87 218 -93 69 -11 92 -34 103 -103 6 -35
37 -108 93 -218 110 -215 140 -311 134 -424 -3 -64 -10 -96 -32 -139 -31 -65
-124 -156 -197 -192 l-49 -25 17 -35 c12 -25 22 -34 32 -30 42 16 141 35 187
35 29 0 83 -9 120 -21 59 -18 77 -30 134 -88 82 -82 121 -159 191 -376 56
-173 69 -205 105 -248 13 -16 24 -39 24 -52 0 -13 -11 -36 -24 -52 -36 -43
-49 -75 -105 -248 -29 -88 -68 -193 -88 -233 -100 -203 -263 -286 -468 -238
-33 8 -67 17 -76 21 -10 4 -20 -5 -32 -30 l-17 -35 49 -25 c73 -36 166 -127
197 -192 22 -43 29 -75 32 -139 6 -113 -24 -209 -135 -425 -62 -123 -86 -180
-92 -223 -4 -31 -15 -64 -24 -73 -9 -9 -42 -20 -73 -24 -43 -6 -100 -30 -223
-92 -269 -137 -403 -166 -538 -115 -73 27 -168 116 -212 198 l-32 59 -35 -16
c-24 -12 -33 -22 -29 -32 4 -9 13 -45 22 -81 46 -195 -42 -366 -238 -463 -41
-20 -146 -59 -234 -88 -173 -56 -205 -69 -248 -105 -36 -30 -68 -30 -104 0
-43 36 -75 49 -248 105 -88 29 -193 68 -234 88 -196 97 -284 268 -238 463 9
36 18 72 22 81 4 10 -5 20 -29 32 l-35 16 -32 -59 c-44 -82 -139 -171 -212
-198 -135 -51 -269 -22 -537 114 -110 56 -183 87 -218 93 -69 11 -92 34 -103
103 -6 35 -37 108 -93 218 -110 215 -140 311 -134 424 3 64 10 96 32 139 31
65 124 156 197 192 l49 25 -17 35 c-10 22 -22 34 -30 30 -116 -44 -254 -44
-346 -1 -73 35 -153 121 -200 217 -20 41 -59 146 -88 234 -56 173 -69 205
-105 248 -13 16 -24 39 -24 52 0 13 11 36 24 52 36 43 49 75 105 248 29 88 68
193 88 233 100 203 263 286 468 238 33 -8 67 -17 76 -21 10 -4 20 5 32 30 l17
35 -49 25 c-73 36 -166 127 -197 192 -22 43 -29 75 -32 139 -6 113 24 209 135
425 62 123 86 180 92 223 4 31 15 64 24 73 9 9 42 20 73 24 43 6 100 30 223
92 269 137 403 166 538 115 73 -27 168 -116 212 -198 l32 -59 35 16 c24 12 33
22 29 32 -4 9 -13 45 -22 81 -34 145 8 284 114 379 74 66 164 109 358 172 173
56 205 69 248 105 16 13 39 24 52 24 13 0 36 -11 52 -24z"/>
<path d="M39338 8104 c-15 -8 -109 -41 -208 -74 -204 -67 -285 -106 -335 -161
-63 -70 -70 -178 -20 -303 28 -70 31 -104 13 -129 -14 -19 -240 -117 -268
-117 -38 0 -52 15 -91 97 -68 143 -140 203 -242 203 -78 0 -142 -22 -322 -113
-88 -44 -182 -88 -209 -97 -44 -16 -50 -22 -66 -66 -9 -27 -53 -121 -97 -209
-91 -180 -113 -244 -113 -322 0 -101 60 -173 197 -239 83 -40 102 -57 103 -90
0 -31 -97 -257 -117 -271 -25 -19 -59 -16 -129 12 -35 14 -89 28 -121 31 -163
17 -247 -75 -339 -371 -20 -66 -50 -152 -65 -191 l-29 -71 23 -54 c13 -30 45
-121 72 -204 95 -302 174 -388 338 -371 32 3 86 17 121 31 70 28 104 31 129
13 20 -15 117 -241 117 -272 -1 -34 -20 -51 -104 -91 -136 -64 -196 -137 -196
-238 0 -78 22 -142 113 -322 44 -88 88 -182 97 -209 16 -43 23 -51 57 -61 21
-7 115 -50 208 -97 190 -95 253 -118 332 -118 101 0 173 60 239 197 40 83 57
102 90 103 36 0 264 -101 275 -122 13 -25 7 -65 -21 -143 -62 -171 -24 -279
128 -358 37 -19 135 -56 217 -82 83 -27 174 -59 204 -72 l54 -23 71 28 c39 16
132 48 206 72 332 104 412 209 330 435 -28 78 -34 118 -21 143 11 21 239 122
275 122 33 -1 50 -20 90 -103 66 -137 138 -197 239 -197 79 0 142 23 332 118
93 47 188 90 209 97 33 10 41 18 51 51 7 21 50 116 97 209 95 190 118 253 118
332 0 101 -60 174 -196 238 -83 40 -103 57 -104 91 0 36 101 264 122 275 25
13 65 7 140 -20 74 -27 153 -36 204 -22 99 27 163 125 239 366 27 83 59 174
72 204 l23 54 -29 71 c-15 39 -45 125 -65 191 -92 296 -176 388 -339 371 -32
-3 -86 -17 -121 -31 -70 -28 -104 -31 -129 -12 -20 14 -117 240 -117 271 1 33
20 50 103 90 137 66 197 138 197 239 0 79 -23 142 -118 332 -47 93 -90 188
-97 209 -10 33 -18 41 -51 51 -21 7 -116 50 -209 97 -190 95 -253 118 -332
118 -102 0 -174 -60 -242 -203 -39 -82 -53 -97 -91 -97 -34 0 -260 102 -271
122 -13 25 -7 65 21 143 45 123 36 216 -27 286 -47 52 -159 105 -333 160 -74
23 -159 52 -189 65 -62 28 -58 27 -93 8z m256 -1350 c393 -75 733 -368 865
-746 55 -159 78 -338 62 -488 -20 -183 -78 -353 -172 -506 -74 -120 -243 -289
-363 -363 -445 -274 -1009 -223 -1386 127 -242 224 -373 521 -373 847 0 536
367 998 892 1122 149 35 314 37 475 7z"/>
<path d="M39170 6605 c-194 -43 -361 -135 -501 -274 -123 -124 -211 -273 -261
-446 -20 -70 -23 -102 -23 -260 0 -158 3 -190 23 -260 50 -173 138 -322 261
-446 124 -123 273 -211 446 -261 70 -20 102 -23 260 -23 158 0 190 3 260 23
173 50 322 138 446 261 123 124 211 273 261 446 20 70 23 102 23 260 0 158 -3
190 -23 260 -50 173 -138 322 -261 446 -122 122 -272 210 -441 260 -98 28
-369 37 -470 14z"/>
<path d="M38120 8613 c0 -21 -7 -65 -15 -97 -9 -33 -14 -60 -13 -62 2 -1 47
16 101 38 l97 41 -48 30 c-26 16 -64 43 -84 59 l-38 30 0 -39z"/>
<path d="M40617 8643 c-4 -7 -41 -34 -82 -62 l-74 -49 62 -25 c34 -14 80 -33
101 -42 l39 -16 -7 33 c-4 18 -13 64 -20 103 -7 38 -15 64 -19 58z"/>
<path d="M36438 6891 l-87 -16 20 -25 c11 -14 38 -51 59 -83 l38 -57 37 87
c20 49 39 94 42 101 6 14 4 14 -109 -7z"/>
<path d="M42215 6874 c9 -22 28 -67 42 -101 l25 -63 38 58 c21 31 48 68 59 82
l20 25 -72 11 c-40 7 -85 15 -100 19 l-28 7 16 -38z"/>
<path d="M36455 4520 c-4 -12 -29 -50 -55 -86 -48 -62 -48 -64 -24 -64 14 0
57 -7 95 -16 39 -9 72 -14 74 -12 3 3 -72 188 -79 196 -2 2 -7 -6 -11 -18z"/>
<path d="M42242 4439 l-42 -101 28 6 c15 4 59 12 99 18 l71 12 -33 40 c-18 23
-44 60 -57 83 l-24 43 -42 -101z"/>
<path d="M38094 2778 c4 -13 12 -58 18 -100 l12 -77 35 28 c20 16 57 42 84 59
l47 30 -62 25 c-35 14 -80 33 -102 42 l-39 16 7 -23z"/>
<path d="M40557 2758 l-97 -40 47 -30 c27 -17 64 -43 84 -59 l36 -29 13 77 c7
43 16 88 21 100 5 13 5 23 1 22 -4 0 -51 -19 -105 -41z"/>
<path d="M27968 9885 c-144 -27 -271 -94 -349 -184 -60 -69 -117 -194 -141
-308 -41 -201 -10 -494 79 -733 105 -282 274 -510 438 -591 142 -70 272 -39
419 102 301 285 472 874 370 1273 -26 104 -82 204 -154 276 -116 117 -250 168
-460 175 -85 3 -150 0 -202 -10z"/>
<path d="M27777 7961 c-9 -86 -52 -210 -95 -277 -97 -149 -222 -225 -464 -280
-222 -51 -302 -75 -385 -114 -336 -157 -507 -437 -579 -945 -14 -100 -17 -210
-18 -660 -2 -513 -3 -546 -24 -660 -29 -156 -32 -165 -90 -233 -112 -131 -177
-258 -347 -687 -174 -439 -273 -642 -395 -805 -67 -90 -189 -208 -275 -265
-123 -82 -166 -95 -335 -105 -120 -7 -155 -13 -205 -34 -59 -25 -59 -25 -24
-26 55 0 69 -23 69 -112 0 -49 -8 -100 -21 -144 -19 -60 -30 -77 -93 -140 -79
-80 -126 -107 -236 -139 l-75 -23 75 -23 c58 -18 97 -23 175 -23 136 1 163 14
260 129 124 146 395 377 595 507 85 55 143 106 303 266 510 508 839 894 946
1107 56 114 148 504 185 787 38 286 29 613 -21 777 -33 109 -53 237 -53 338 0
76 2 83 26 102 35 27 69 27 98 -2 20 -20 23 -36 29 -132 11 -185 44 -287 201
-622 123 -262 150 -384 150 -668 0 -269 -37 -501 -120 -754 -85 -260 -185
-435 -325 -573 -163 -160 -382 -289 -862 -507 -358 -162 -495 -245 -754 -458
-232 -189 -343 -317 -394 -452 -70 -187 -61 -404 24 -537 81 -129 249 -209
437 -207 313 2 1008 345 1215 599 25 31 45 62 45 69 0 25 91 95 187 143 54 27
180 81 280 121 147 59 206 88 301 151 65 44 152 97 192 119 l73 39 -34 6 c-19
2 -88 10 -154 16 -66 6 -264 29 -440 51 -400 50 -579 58 -730 35 -297 -46
-566 -188 -781 -412 -68 -71 -93 -78 -138 -43 -20 15 -26 29 -26 57 0 34 9 46
102 137 222 217 492 355 793 407 173 29 385 21 805 -30 558 -69 641 -76 940
-77 301 0 393 11 514 62 34 13 74 25 91 25 38 -1 65 -33 65 -77 0 -41 -28 -65
-106 -94 -62 -24 -235 -60 -291 -62 -37 -1 -38 -1 -8 -9 45 -11 184 -11 320 1
201 17 382 46 797 130 568 114 652 123 857 93 297 -43 573 -188 818 -429 112
-109 123 -123 123 -156 0 -43 -33 -79 -73 -79 -21 0 -49 23 -125 98 -249 252
-518 390 -824 423 -138 15 -232 3 -723 -96 -574 -114 -794 -145 -1040 -145
-180 0 -324 25 -431 74 l-52 24 -71 -24 c-104 -35 -188 -80 -344 -183 -118
-78 -165 -102 -339 -172 -112 -45 -210 -86 -218 -91 -24 -15 144 0 365 33 612
91 806 108 1041 90 82 -6 203 -23 269 -37 96 -20 166 -27 350 -34 511 -19 799
-56 1096 -140 235 -67 349 -134 545 -320 165 -158 213 -196 299 -236 140 -67
289 -87 439 -60 129 23 163 34 239 73 181 95 260 298 213 545 -41 212 -137
342 -429 581 -270 222 -380 286 -833 495 -154 71 -328 155 -385 187 -248 137
-439 296 -534 444 -110 171 -209 427 -259 673 -39 191 -50 298 -50 493 0 284
27 406 150 668 157 335 190 437 201 622 6 96 9 112 29 132 29 29 63 29 98 2
24 -19 26 -26 26 -102 0 -101 -20 -229 -53 -338 -50 -164 -59 -491 -21 -777
37 -283 129 -673 185 -787 107 -213 436 -599 946 -1107 160 -160 218 -211 303
-266 200 -130 471 -361 595 -507 97 -115 124 -128 260 -129 78 0 117 5 175 23
l75 23 -75 23 c-110 32 -157 59 -236 139 -63 63 -74 80 -93 140 -14 44 -21 95
-21 146 0 88 13 110 71 111 31 0 29 2 -31 26 -53 21 -91 27 -205 33 -163 9
-207 23 -330 105 -86 57 -209 175 -276 265 -103 139 -228 381 -332 645 -162
410 -194 489 -245 590 -62 126 -95 176 -164 257 -58 68 -61 77 -90 233 -21
114 -22 147 -24 660 -1 448 -4 560 -18 658 -64 449 -197 705 -458 877 -120 80
-211 115 -455 175 -271 68 -357 107 -459 209 -48 49 -80 91 -101 136 -31 65
-63 186 -63 236 0 26 -1 26 -22 10 -47 -33 -155 -84 -207 -96 -118 -28 -257 4
-377 86 -35 24 -66 44 -68 44 -2 0 -6 -26 -9 -59z"/>
<path d="M26896 5274 c-16 -247 -56 -487 -135 -810 -22 -89 -51 -186 -64 -215
-81 -184 -336 -508 -685 -871 -211 -220 -203 -206 -92 -155 417 194 624 330
758 496 108 135 224 420 276 682 39 195 49 312 43 518 -5 198 -20 283 -70 405
l-24 59 -7 -109z"/>
<path d="M29318 5308 c-49 -131 -60 -192 -65 -389 -6 -206 4 -322 43 -518 51
-256 159 -526 266 -669 127 -168 341 -310 768 -509 111 -51 119 -65 -92 155
-349 363 -604 687 -685 871 -27 61 -89 305 -133 521 -29 147 -54 334 -67 513
l-8 99 -27 -74z"/>
</g>
</svg>
