<svg width="198" height="198" viewBox="0 0 198 198" fill="none" xmlns="http://www.w3.org/2000/svg">
<g clip-path="url(#clip0_2_4)">
<path d="M32.131 184.928C13.743 184.928 0.558 182.423 0 182.312L0.734 174.664C33.083 174.664 56.289 166.214 69.698 149.566C84.872 130.731 83.23 106.226 82.092 97.755H25.918L111.506 12.163L197.091 97.755H143.115C136.315 173.487 70.922 184.928 32.131 184.928ZM44.564 90.028H88.476L89.149 93.056C89.46 94.488 96.625 128.397 75.768 154.358C67.343 164.833 55.655 172.399 40.828 177.009C83.695 175.127 131.581 158.295 135.689 93.647L135.918 90.029H178.445L111.506 23.083L44.564 90.028Z" fill="#8A3032"/>
</g>
<defs>
<clipPath id="clip0_2_4">
<rect width="197.091" height="197.091" fill="white"/>
</clipPath>
</defs>
</svg>
