<svg width="150" height="150" viewBox="0 0 150 150" fill="none" xmlns="http://www.w3.org/2000/svg">
<path d="M80.6387 138.395V133.373C80.6387 130.256 78.1173 127.733 75 127.733C71.8827 127.733 69.3613 130.256 69.3613 133.373V138.395C38.8173 135.691 14.436 111.253 11.8151 80.6853H16.6747C19.7907 80.6853 22.312 78.164 22.312 75.0467C22.312 71.9293 19.7907 69.408 16.6747 69.408H11.8412C14.6197 39.004 38.9347 14.7453 69.3613 12.0493V16.72C69.3613 19.8373 71.8827 22.3587 75 22.3587C78.1173 22.3587 80.6387 19.8373 80.6387 16.72V12.0493C111.067 14.7453 135.381 39.004 138.159 69.408H133.327C130.209 69.408 127.688 71.9293 127.688 75.0467C127.688 78.164 130.209 80.6853 133.327 80.6853H138.187C135.565 111.253 111.184 135.691 80.6387 138.395ZM75 0.508019C33.7333 0.508019 0.286392 33.9547 0.286392 75.2227C0.286392 116.489 33.7333 149.937 75 149.937C116.267 149.937 149.715 116.489 149.715 75.2227C149.715 33.9547 116.267 0.508019 75 0.508019Z" fill="white"/>
<path d="M108.591 38.824L75.1907 73.8227L75 73.8133C74.5827 73.8133 74.1747 73.856 73.7787 73.9333L45.8253 52.8107C43.9747 51.4227 41.3213 51.776 39.912 53.648C38.5027 55.4987 38.8653 58.1627 40.7387 59.572L68.684 80.6867C68.9533 83.94 71.6773 86.5013 75 86.5013C78.5027 86.5013 81.344 83.6587 81.344 80.1573C81.344 79.9893 81.332 79.8253 81.3187 79.6613L114.713 44.6613C116.323 42.964 116.267 40.2987 114.572 38.68C112.887 37.0613 110.209 37.1387 108.591 38.824" fill="white"/>
</svg>
