<?xml version="1.0" standalone="no"?>
<!DOCTYPE svg PUBLIC "-//W3C//DTD SVG 20010904//EN"
 "http://www.w3.org/TR/2001/REC-SVG-20010904/DTD/svg10.dtd">
<svg version="1.0" xmlns="http://www.w3.org/2000/svg"
 width="813.000000pt" height="950.000000pt" viewBox="0 0 813.000000 950.000000"
 preserveAspectRatio="xMidYMid meet">
<metadata>
Created by potrace 1.16, written by Peter Selinger 2001-2019
</metadata>
<g transform="translate(0.000000,950.000000) scale(0.100000,-0.100000)"
fill="#8A3032" stroke="none">
<path d="M3910 9494 c-285 -54 -511 -228 -648 -500 -50 -98 -102 -261 -123
-382 -21 -127 -26 -386 -9 -505 l10 -68 -39 -52 c-53 -70 -116 -195 -146 -290
-79 -247 -73 -605 15 -954 18 -72 36 -123 47 -130 26 -20 97 -16 116 5 23 25
21 67 -8 183 -69 269 -88 541 -51 713 20 93 67 227 97 276 l21 34 33 -94 c69
-203 199 -477 298 -626 44 -67 47 -75 47 -137 0 -173 -60 -330 -165 -433 -88
-86 -212 -145 -470 -224 -459 -141 -609 -211 -767 -359 -176 -165 -269 -369
-561 -1233 -96 -282 -199 -583 -231 -668 -193 -531 -250 -905 -162 -1078 64
-127 214 -198 491 -233 156 -20 639 -17 800 5 119 16 392 67 439 82 19 6 19 1
13 -157 -17 -452 -142 -853 -345 -1108 l-19 -24 -194 51 c-494 132 -891 198
-1254 209 -553 17 -886 -106 -1043 -386 -64 -115 -94 -213 -100 -330 -6 -127
7 -191 60 -293 188 -363 877 -606 1968 -692 417 -34 1137 -42 1263 -16 23 5
80 2 145 -6 600 -79 1343 -88 2212 -29 711 50 943 76 1165 131 633 158 1112
437 1261 734 73 146 73 334 -1 481 -54 105 -150 183 -335 273 -226 109 -398
140 -780 140 -230 -1 -489 -19 -577 -41 -20 -4 -23 -1 -23 26 0 45 -28 58
-145 64 -57 3 -160 19 -240 37 -162 37 -260 37 -355 1 -30 -11 -56 -21 -58
-21 -1 0 -29 40 -61 89 -120 183 -207 387 -245 572 -19 93 -39 269 -32 276 3
3 65 -6 138 -21 261 -51 362 -60 668 -60 305 0 423 10 576 49 116 29 184 64
245 125 66 66 89 142 89 295 0 196 -43 390 -166 750 -45 132 -162 474 -259
759 -192 568 -255 735 -349 931 -100 207 -196 321 -364 429 -129 84 -265 138
-589 235 -302 91 -426 152 -524 259 -85 93 -138 236 -139 373 0 51 5 62 59
145 86 129 171 287 227 419 l49 116 9 -43 c12 -62 10 -503 -3 -638 -24 -248
-25 -294 -7 -313 22 -22 99 -23 120 -2 28 29 45 210 53 562 6 302 -4 456 -42
648 -22 112 -23 124 -10 185 40 184 39 453 -1 648 -57 278 -200 531 -376 665
-81 62 -211 128 -303 153 -59 17 -354 29 -415 18z m359 -175 c230 -63 404
-230 511 -487 63 -150 105 -376 98 -527 l-3 -70 -32 56 c-18 31 -80 123 -138
204 -58 82 -121 181 -140 220 -42 86 -72 209 -81 332 -3 51 -12 100 -18 108
-17 23 -81 31 -109 12 -19 -12 -25 -29 -35 -103 -15 -113 -53 -192 -130 -271
-91 -95 -150 -133 -501 -333 -157 -89 -290 -176 -361 -235 l-45 -38 -7 69
c-10 92 8 285 36 398 101 396 330 634 659 687 75 11 213 2 296 -22z m234 -825
c36 -55 96 -142 132 -194 72 -103 130 -210 165 -307 l22 -61 -45 -134 c-78
-229 -193 -462 -318 -643 -137 -199 -294 -335 -386 -335 -46 0 -140 60 -218
139 -201 205 -385 537 -501 905 l-37 120 70 67 c85 80 240 183 471 313 274
153 394 237 476 332 l38 45 33 -74 c17 -41 61 -119 98 -173z m-684 -1731 c28
-23 77 -54 108 -69 50 -25 70 -28 148 -28 78 0 98 3 149 28 32 16 83 48 112
72 30 24 56 44 58 44 2 0 12 -34 21 -75 33 -152 133 -302 254 -384 127 -86
238 -132 581 -236 293 -90 405 -141 541 -251 119 -97 188 -203 293 -451 74
-174 112 -280 276 -768 75 -225 169 -499 208 -607 160 -441 237 -770 213 -903
-20 -106 -61 -150 -179 -191 -135 -47 -242 -58 -562 -58 -321 -1 -400 7 -675
65 -284 60 -705 183 -810 237 -104 53 -217 171 -277 288 -77 148 -120 324
-136 558 -8 106 -11 121 -32 138 -31 25 -82 23 -107 -4 -17 -19 -22 -42 -28
-128 -28 -433 -163 -714 -405 -848 -136 -75 -720 -233 -1045 -282 -280 -43
-719 -38 -924 11 -194 45 -256 101 -268 238 -14 164 58 444 249 976 49 138
135 387 190 555 161 490 291 823 378 970 82 139 224 261 393 340 78 36 164 65
522 179 293 92 443 184 539 331 53 80 91 173 106 263 l12 67 23 -17 c12 -10
45 -37 74 -60z m303 -3342 c92 -201 232 -335 430 -414 36 -15 165 -55 285 -89
l219 -63 13 -140 c19 -226 59 -392 138 -570 37 -86 125 -241 179 -318 19 -26
34 -51 34 -57 0 -24 -102 -129 -147 -151 -62 -30 -171 -30 -333 -1 -353 64
-560 46 -655 -59 -19 -21 -41 -53 -48 -72 -24 -56 -100 -114 -191 -144 -77
-26 -91 -27 -266 -27 -196 1 -336 16 -560 60 -105 21 -439 102 -448 109 -1 1
14 26 34 56 55 81 149 280 188 399 74 226 113 467 124 758 l7 175 50 14 c461
130 571 184 701 342 57 68 143 225 165 300 l13 44 14 -34 c8 -19 32 -72 54
-118z m1802 -1686 c58 -14 116 -25 128 -26 17 -1 13 -4 -12 -11 -210 -58 -380
-148 -676 -359 -321 -228 -536 -358 -782 -469 -577 -261 -1192 -361 -1957
-320 -413 23 -1302 122 -1740 195 -82 14 -160 25 -172 25 -31 0 -63 -38 -63
-75 0 -43 24 -73 68 -84 100 -26 752 -113 1224 -162 202 -22 217 -25 227 -45
12 -26 107 -64 336 -135 l160 -49 -120 6 c-530 23 -901 61 -1260 130 -731 141
-1124 382 -1125 689 0 82 38 202 91 291 200 333 793 393 1754 179 188 -42 372
-90 765 -198 412 -114 699 -159 1015 -161 208 -1 296 14 411 70 79 39 138 94
181 169 22 38 41 56 78 75 44 22 62 25 155 24 65 0 167 -11 270 -28 137 -23
187 -27 290 -24 175 6 239 37 341 164 59 74 91 99 168 130 72 30 115 30 245
-1z m1416 -114 c297 -52 551 -201 609 -356 33 -86 27 -176 -17 -269 -41 -87
-177 -226 -304 -310 -280 -184 -759 -356 -1151 -411 -108 -16 -594 -56 -967
-80 -1043 -68 -1877 -26 -2570 130 -271 61 -272 60 34 61 484 2 829 48 1226
164 74 22 223 65 330 95 269 78 684 217 1141 383 734 268 943 318 1359 329
245 6 250 8 250 78 0 67 -19 78 -154 83 -136 5 -381 -12 -533 -38 -247 -43
-470 -110 -1003 -304 -173 -63 -316 -114 -317 -112 -4 4 343 248 433 304 170
106 301 157 514 202 283 60 493 80 785 75 165 -2 249 -8 335 -24z"/>
<path d="M2757 5128 c-117 -125 -266 -469 -437 -1005 -33 -106 -77 -232 -97
-279 -43 -102 -121 -224 -164 -255 -31 -21 -63 -22 -202 -3 -37 5 -52 2 -66
-10 -22 -20 -31 -60 -24 -100 15 -75 95 -78 1158 -31 407 18 485 26 551 56 27
13 78 52 114 88 126 126 186 288 280 751 64 313 104 458 152 553 35 70 41 67
86 -30 45 -98 77 -217 128 -478 101 -514 179 -715 321 -831 86 -71 139 -84
363 -95 983 -46 1194 -52 1303 -41 107 12 127 26 127 89 0 63 -27 87 -88 78
-26 -3 -78 -8 -116 -11 -67 -6 -69 -5 -103 28 -19 18 -54 65 -78 103 -68 110
-104 205 -238 631 -92 291 -270 681 -355 775 -41 46 -47 49 -91 49 -59 0 -81
-21 -81 -76 0 -32 7 -45 38 -75 21 -19 56 -71 78 -115 l40 -79 -7 -106 c-10
-143 -30 -235 -106 -489 -73 -243 -108 -397 -118 -524 l-7 -87 -157 6 c-86 4
-179 13 -208 21 -103 28 -188 139 -247 324 -42 127 -53 176 -117 490 -56 276
-94 411 -146 518 -53 109 -107 138 -166 92 -20 -16 -26 -17 -30 -6 -8 21 -64
30 -98 16 -24 -10 -40 -33 -79 -114 -59 -121 -84 -213 -149 -537 -27 -135 -57
-274 -66 -310 -69 -276 -156 -422 -278 -467 -40 -15 -92 -21 -227 -27 l-176
-7 -13 116 c-15 139 -43 258 -116 499 -64 208 -94 348 -102 468 l-6 85 52 101
c28 55 67 114 86 132 30 27 35 38 35 76 0 57 -19 75 -77 75 -38 0 -50 -5 -76
-32z m2771 -721 c17 -46 58 -171 91 -279 70 -225 137 -397 186 -481 19 -32 35
-61 35 -64 0 -6 -325 3 -472 14 l-88 6 0 34 c0 96 34 248 116 516 29 98 61
215 71 262 9 46 20 82 24 79 4 -2 21 -41 37 -87z m-2899 -24 c8 -32 42 -152
76 -268 69 -230 93 -333 102 -441 l6 -71 -74 -6 c-41 -4 -164 -10 -273 -13
l-200 -7 23 31 c57 81 128 264 246 635 36 114 69 205 74 203 4 -3 13 -31 20
-63z"/>
</g>
</svg>
