<?xml version="1.0" standalone="no"?>
<!DOCTYPE svg PUBLIC "-//W3C//DTD SVG 20010904//EN"
 "http://www.w3.org/TR/2001/REC-SVG-20010904/DTD/svg10.dtd">
<svg version="1.0" xmlns="http://www.w3.org/2000/svg"
 width="443.000000pt" height="1033.000000pt" viewBox="0 0 443.000000 1033.000000"
 preserveAspectRatio="xMidYMid meet">
<metadata>
Created by potrace 1.16, written by Peter Selinger 2001-2019
</metadata>
<g transform="translate(0.000000,1033.000000) scale(0.100000,-0.100000)"
fill="#8A3032" stroke="none">
<path d="M1513 10315 c-157 -43 -273 -147 -352 -317 -52 -111 -73 -208 -77
-357 -4 -105 -7 -128 -23 -145 -32 -36 -78 -129 -91 -185 -16 -70 -7 -198 19
-275 28 -79 35 -86 92 -86 41 0 51 4 65 25 18 28 16 56 -11 155 -13 47 -16 78
-11 114 l8 50 39 -104 c43 -114 111 -245 172 -332 38 -56 40 -60 35 -121 -12
-149 -86 -210 -313 -262 -302 -68 -399 -109 -501 -210 -95 -94 -151 -216 -300
-655 -51 -151 -124 -367 -163 -479 -83 -241 -105 -351 -99 -490 3 -86 7 -103
31 -139 60 -92 183 -130 447 -139 177 -6 331 5 458 32 l64 13 -7 -62 c-14
-143 -30 -212 -95 -406 -107 -321 -132 -469 -132 -785 0 -286 32 -467 206
-1162 176 -700 178 -712 181 -1138 3 -450 18 -566 145 -1165 84 -393 116 -576
132 -758 l11 -137 -30 -65 c-45 -95 -58 -166 -57 -325 0 -119 3 -147 21 -185
57 -125 235 -220 412 -220 125 0 201 54 217 157 9 60 -11 238 -61 538 -72 434
-77 515 -44 833 16 148 22 277 22 452 1 252 -8 365 -44 544 l-20 99 22 91 c33
139 36 341 9 596 -26 249 -33 561 -14 674 34 205 144 308 327 308 191 -1 380
-66 1012 -349 230 -103 324 -136 449 -158 475 -81 811 163 757 551 -26 188
-141 394 -293 527 -231 201 -776 523 -1262 743 l-161 74 -11 62 c-29 154 -113
341 -209 463 -64 81 -90 127 -100 174 -7 32 -6 33 16 28 124 -31 228 -41 434
-42 359 0 487 39 546 170 44 95 16 307 -75 573 -30 87 -102 297 -160 469 -118
346 -189 524 -245 610 -90 139 -219 216 -505 303 -93 28 -188 61 -210 72 -107
54 -165 135 -174 243 -4 61 -3 65 51 161 31 55 63 118 72 141 10 24 21 40 26
37 5 -3 9 -45 9 -95 0 -105 14 -129 78 -129 76 0 86 27 77 194 -7 145 -26 268
-50 336 -11 31 -17 90 -20 185 -6 242 -68 411 -198 539 -119 118 -217 156
-392 155 -55 0 -124 -7 -152 -14z m257 -156 c25 -6 63 -21 85 -34 55 -31 138
-121 168 -181 23 -46 67 -174 67 -196 0 -5 -19 6 -42 25 -24 19 -75 55 -115
81 -111 73 -163 142 -163 220 0 34 -30 56 -75 56 -51 0 -72 -20 -83 -81 -14
-71 -42 -120 -107 -185 -68 -68 -258 -208 -263 -193 -9 24 33 182 68 254 65
136 173 223 300 243 57 9 84 8 160 -9z m-44 -360 c10 -11 63 -50 118 -87 109
-73 190 -149 221 -206 19 -35 19 -38 3 -101 -45 -169 -148 -379 -248 -503 -52
-64 -123 -122 -150 -122 -28 0 -99 59 -155 128 -94 117 -201 332 -240 484 -20
74 -27 65 147 189 73 52 164 126 202 166 39 39 74 72 77 72 3 1 14 -8 25 -20z
m152 -1141 c19 -62 76 -143 125 -179 68 -51 172 -95 337 -145 215 -64 287 -99
364 -176 93 -93 122 -158 293 -658 57 -168 124 -363 149 -435 55 -160 95 -320
97 -390 2 -75 -18 -99 -100 -126 -86 -27 -352 -38 -500 -20 -181 23 -544 117
-644 167 -118 59 -198 222 -215 438 -9 106 -16 122 -58 136 -29 9 -41 9 -66
-3 -16 -9 -30 -13 -30 -10 0 20 74 310 81 318 6 5 9 5 9 -1 0 -26 92 -436 111
-493 57 -173 139 -267 249 -285 66 -11 725 -38 833 -34 100 3 111 5 128 27 25
31 24 82 -2 115 -20 26 -25 27 -101 24 l-81 -3 -33 60 c-19 33 -62 146 -95
250 -143 441 -231 605 -324 605 -73 0 -101 -81 -50 -142 56 -67 66 -99 55
-186 -6 -44 -31 -149 -55 -233 -25 -85 -53 -194 -61 -244 -9 -49 -17 -92 -19
-94 -2 -2 -43 1 -90 7 -68 8 -92 15 -112 33 -62 59 -97 157 -158 449 -58 274
-89 359 -148 404 -47 36 -91 34 -127 -4 -33 -35 -78 -153 -113 -300 -14 -58
-38 -154 -52 -215 -45 -186 -110 -316 -172 -349 -16 -7 -67 -17 -114 -21 l-86
-7 -11 78 c-6 44 -32 150 -57 238 -25 87 -51 193 -57 235 -11 75 -11 77 19
136 17 33 40 69 52 79 14 13 21 31 21 58 0 51 -27 78 -79 78 -33 0 -44 -6 -76
-41 -69 -77 -158 -287 -266 -627 -23 -73 -58 -160 -78 -193 l-36 -61 -75 7
c-68 6 -77 4 -97 -15 -17 -15 -23 -32 -23 -64 0 -67 21 -80 141 -84 123 -5
810 26 860 39 50 12 112 60 154 116 33 46 83 158 111 253 14 45 14 45 9 -33
-11 -146 -59 -289 -125 -370 -46 -54 -103 -84 -249 -128 -316 -95 -494 -123
-741 -116 -244 7 -318 30 -341 106 -17 56 17 211 92 431 33 96 107 312 164
480 147 433 195 541 280 619 61 56 148 96 276 126 57 14 140 33 184 44 114 27
183 55 240 99 55 41 110 124 126 189 l11 42 30 -15 c74 -39 196 -24 263 31 17
13 32 24 35 25 3 0 11 -19 18 -42z m717 -1548 c21 -63 46 -131 56 -151 l18
-36 -102 4 c-132 6 -129 5 -122 50 8 45 38 161 67 258 l21 70 13 -40 c7 -22
29 -92 49 -155z m-1668 -87 c10 -45 15 -84 13 -86 -3 -3 -50 -7 -106 -9 l-101
-5 28 66 c15 36 42 117 61 180 l33 114 28 -89 c15 -49 35 -126 44 -171z m802
-288 c48 -91 174 -191 281 -223 19 -6 73 -22 120 -36 l86 -26 11 -84 c14 -99
43 -162 119 -254 96 -117 188 -332 201 -471 4 -43 12 -69 24 -79 9 -8 70 -37
135 -65 167 -71 570 -277 749 -381 203 -119 443 -280 538 -361 89 -76 161
-167 211 -270 90 -182 86 -314 -15 -420 -95 -100 -213 -141 -384 -132 -171 9
-241 33 -655 220 -500 226 -680 285 -905 294 -133 6 -201 -4 -281 -41 -174
-81 -250 -255 -267 -611 l-2 -50 -24 49 c-37 75 -38 156 -6 322 40 208 36 240
-61 429 -80 157 -91 200 -60 234 53 58 147 51 290 -24 56 -29 131 -62 169 -74
96 -29 268 -44 422 -37 72 4 218 2 325 -4 414 -21 668 -94 833 -239 63 -55
103 -65 145 -35 17 12 22 25 22 62 0 43 -4 52 -42 89 -184 175 -496 266 -968
280 -188 6 -195 7 -220 30 -73 71 -261 174 -385 213 -88 27 -205 36 -265 20
-27 -7 -59 -26 -82 -50 l-39 -38 -92 1 c-110 0 -159 -12 -210 -54 -62 -51 -79
-97 -75 -199 3 -87 4 -89 82 -244 89 -176 85 -146 47 -359 -23 -131 -26 -217
-11 -297 13 -70 49 -147 88 -188 29 -31 36 -34 82 -30 l50 3 0 -52 c0 -29 9
-142 21 -250 23 -222 22 -442 -4 -528 -44 -152 -43 -134 -14 -257 14 -62 32
-153 39 -203 18 -128 16 -541 -5 -730 -38 -351 -32 -496 38 -914 25 -145 50
-313 57 -373 10 -96 10 -111 -4 -125 -36 -35 -159 -8 -251 56 -68 46 -72 58
-71 196 1 128 20 206 64 262 23 30 26 93 10 268 -21 234 -35 312 -174 975 -87
416 -108 620 -105 1007 3 357 -9 430 -196 1168 -111 439 -159 668 -182 865
-14 125 -15 168 -4 315 15 223 36 323 120 578 68 206 101 352 101 448 0 25 3
66 6 91 l6 45 117 32 c207 57 312 125 386 250 17 28 32 51 35 51 3 0 16 -20
29 -45z"/>
</g>
</svg>
