<?xml version="1.0" standalone="no"?>
<!DOCTYPE svg PUBLIC "-//W3C//DTD SVG 20010904//EN"
 "http://www.w3.org/TR/2001/REC-SVG-20010904/DTD/svg10.dtd">
<svg version="1.0" xmlns="http://www.w3.org/2000/svg"
 width="893.000000pt" height="613.000000pt" viewBox="0 0 893.000000 613.000000"
 preserveAspectRatio="xMidYMid meet">
<metadata>
Created by potrace 1.16, written by Peter Selinger 2001-2019
</metadata>
<g transform="translate(0.000000,613.000000) scale(0.100000,-0.100000)"
fill="#8A3032" stroke="none">
<path d="M4378 6098 c-17 -18 -61 -76 -98 -128 -688 -970 -949 -2692 -639
-4219 133 -657 383 -1259 688 -1656 67 -88 76 -95 119 -95 44 0 67 21 155 141
635 869 920 2413 716 3879 -110 790 -382 1527 -735 1995 -81 108 -89 115 -135
115 -33 0 -47 -6 -71 -32z m156 -301 c843 -1282 931 -3650 190 -5130 -36 -73
-78 -152 -92 -177 -49 -85 -174 -270 -183 -270 -5 0 -39 46 -77 103 -327 488
-556 1167 -651 1927 -33 264 -41 387 -48 685 -20 945 160 1852 503 2537 91
181 260 452 276 441 5 -2 41 -55 82 -116z"/>
<path d="M2032 4428 c-26 -13 -43 -66 -66 -203 -63 -371 -35 -819 80 -1262 57
-221 30 -191 292 -320 329 -162 639 -349 913 -552 108 -79 139 -87 185 -48
l27 24 -21 179 c-57 467 -76 879 -52 1143 l12 141 -28 38 c-52 69 -328 337
-432 420 -249 199 -513 345 -770 426 -91 28 -106 30 -140 14z m186 -204 c182
-73 379 -185 557 -318 155 -117 471 -426 461 -452 -4 -10 -10 -113 -13 -228
-6 -222 6 -486 35 -778 11 -103 13 -164 7 -160 -5 4 -82 55 -170 113 -227 151
-409 255 -647 372 l-208 102 -21 69 c-114 372 -157 864 -104 1196 8 52 15 98
15 103 0 12 19 8 88 -19z"/>
<path d="M6715 4399 c-140 -47 -381 -163 -510 -244 -194 -122 -388 -281 -579
-474 l-109 -110 13 -226 c20 -334 3 -753 -45 -1125 -19 -147 -19 -147 10 -175
43 -44 74 -35 196 55 269 199 573 382 901 543 260 128 234 101 287 297 117
441 149 910 85 1285 -24 143 -40 190 -69 203 -38 17 -48 16 -180 -29z m99
-256 c54 -338 11 -825 -103 -1199 l-22 -69 -217 -107 c-226 -111 -492 -266
-697 -405 -66 -45 -120 -81 -121 -80 0 1 5 61 12 132 33 342 40 746 17 1012
l-6 71 49 52 c64 69 256 239 352 313 183 140 393 263 591 343 58 24 111 44
117 44 7 0 19 -44 28 -107z"/>
<path d="M380 2840 c-181 -16 -330 -42 -356 -62 -32 -25 -32 -72 0 -169 96
-294 286 -633 509 -909 682 -844 1780 -1471 2842 -1621 176 -25 447 -40 576
-32 91 6 102 8 119 31 11 14 20 34 20 46 0 12 -53 131 -119 266 -240 495 -405
902 -487 1199 -19 69 -42 133 -52 144 -9 11 -57 54 -107 97 -605 519 -1480
898 -2295 995 -160 19 -516 27 -650 15z m650 -175 c352 -48 655 -129 1010
-268 192 -75 551 -255 726 -365 153 -95 380 -263 475 -351 58 -53 69 -68 79
-113 55 -233 258 -744 471 -1187 l89 -184 -142 7 c-260 13 -476 47 -743 116
-1131 293 -2214 1104 -2668 1998 -52 101 -147 319 -147 336 0 2 53 9 118 16
64 6 124 13 132 15 39 10 496 -5 600 -20z"/>
<path d="M8045 2839 c-847 -65 -1784 -451 -2435 -1005 -126 -107 -126 -106
-164 -245 -83 -301 -274 -769 -502 -1231 -53 -106 -98 -207 -101 -223 -3 -21
2 -38 16 -56 18 -24 28 -26 120 -32 210 -13 569 21 841 78 1218 258 2432 1134
2929 2113 105 208 181 410 181 483 0 57 -27 72 -162 92 -239 36 -480 44 -723
26z m610 -169 c50 -7 91 -14 93 -15 2 -1 -16 -49 -38 -106 -237 -593 -730
-1159 -1400 -1606 -668 -445 -1410 -704 -2118 -739 l-142 -7 89 184 c213 443
416 954 471 1187 10 45 21 60 79 113 89 83 301 241 436 327 559 354 1230 598
1820 661 55 6 116 13 135 15 70 8 487 -2 575 -14z"/>
<path d="M710 1096 c-221 -69 -402 -151 -557 -255 -103 -69 -133 -101 -133
-141 0 -36 25 -66 118 -141 341 -275 815 -457 1392 -534 167 -23 597 -31 783
-16 156 13 189 26 195 76 7 53 -6 75 -56 97 -533 231 -1047 539 -1487 892 -85
68 -102 69 -255 22z m237 -220 c301 -234 667 -467 1006 -641 75 -38 137 -73
137 -77 0 -16 -359 2 -550 27 -509 68 -981 247 -1272 482 l-37 30 77 45 c91
54 162 90 234 119 101 41 263 98 280 98 10 1 66 -37 125 -83z"/>
<path d="M7894 1044 c-225 -178 -481 -352 -739 -504 -116 -68 -312 -167 -715
-363 -43 -21 -45 -24 -48 -69 -5 -71 13 -84 134 -94 182 -16 684 -10 834 9
597 79 1088 271 1428 559 81 70 82 71 82 117 0 36 -5 52 -22 68 -49 45 -199
137 -316 194 -139 68 -431 169 -490 169 -33 0 -53 -12 -148 -86z m292 -119
c130 -44 279 -110 371 -163 121 -71 118 -61 24 -130 -322 -239 -828 -412
-1346 -461 -171 -16 -425 -25 -425 -15 0 5 64 42 143 83 323 169 707 413 967
615 74 58 141 105 147 105 7 1 60 -15 119 -34z"/>
</g>
</svg>
