<?xml version="1.0" standalone="no"?>
<!DOCTYPE svg PUBLIC "-//W3C//DTD SVG 20010904//EN"
 "http://www.w3.org/TR/2001/REC-SVG-20010904/DTD/svg10.dtd">
<svg version="1.0" xmlns="http://www.w3.org/2000/svg"
 width="1274.000000pt" height="240.000000pt" viewBox="0 0 1274.000000 240.000000"
 preserveAspectRatio="xMidYMid meet">

<g transform="translate(0.000000,240.000000) scale(0.100000,-0.100000)"
fill="#8d3c38" stroke="none">
<path d="M8269 2305 c-150 -55 -221 -146 -249 -317 -5 -35 -10 -199 -10 -365
l0 -303 -415 0 -416 0 3 316 3 316 36 32 c22 20 52 36 80 42 38 8 27 9 -74 12
-64 1 -170 1 -235 0 -100 -3 -111 -4 -72 -12 31 -6 57 -21 83 -46 l37 -38 0
-688 c0 -743 -2 -769 -53 -871 -27 -51 -65 -97 -106 -126 -38 -26 -18 -31 44
-12 109 35 189 113 221 219 27 91 33 186 34 494 l0 302 415 0 415 0 0 -291 c0
-247 -2 -296 -16 -325 -19 -41 -70 -74 -113 -74 -17 0 -31 -4 -31 -10 0 -6 84
-10 231 -10 151 0 228 3 224 10 -3 6 -20 10 -37 10 -39 0 -91 32 -109 67 -11
23 -15 131 -17 613 -3 614 3 769 37 864 23 66 69 132 116 166 55 40 43 51 -26
25z"/>
<path d="M550 2164 c-55 -11 -160 -47 -160 -56 0 -5 8 -7 18 -4 97 30 181 33
249 10 57 -19 131 -71 166 -117 l25 -33 -43 -105 c-270 -653 -498 -1186 -520
-1214 -31 -41 -92 -75 -135 -75 -16 0 -30 -4 -30 -10 0 -6 77 -10 210 -10 133
0 210 4 210 10 0 6 -13 10 -30 10 -34 0 -67 28 -76 66 -7 27 2 54 109 327 l49
127 293 0 c270 0 293 -1 300 -17 4 -10 31 -88 60 -173 111 -324 189 -470 330
-619 81 -85 166 -142 264 -176 52 -18 183 -20 249 -4 74 18 73 29 -4 29 -74 0
-153 19 -219 52 -87 45 -230 209 -313 360 -82 148 -105 208 -384 1003 -140
398 -221 524 -383 596 -49 22 -175 34 -235 23z m381 -360 c39 -86 229 -651
222 -658 -4 -3 -125 -6 -270 -6 -203 0 -263 3 -263 12 0 14 273 718 278 718 2
0 17 -30 33 -66z"/>
<path d="M9880 1951 c0 -81 4 -131 10 -131 6 0 10 16 10 36 0 44 23 86 60 108
24 13 62 16 249 16 l221 0 0 -657 c0 -635 -1 -659 -20 -690 -23 -38 -67 -63
-110 -63 -16 0 -30 -4 -30 -10 0 -6 83 -10 230 -10 147 0 230 4 230 10 0 6
-19 10 -41 10 -35 0 -48 6 -80 39 l-39 39 0 666 0 666 224 0 c211 0 225 -1
250 -21 33 -26 48 -53 57 -104 4 -25 7 9 8 92 l1 131 -52 -15 c-79 -24 -899
-31 -1043 -9 -55 8 -108 18 -118 21 -16 7 -17 -3 -17 -124z"/>
<path d="M1918 1973 c4 -54 7 -372 7 -708 0 -583 -1 -611 -19 -638 -24 -36
-65 -57 -110 -57 -19 0 -38 -4 -41 -10 -4 -7 70 -10 214 -10 141 0 221 4 221
10 0 6 -20 10 -45 10 -55 0 -111 44 -120 93 -3 18 -4 272 -3 566 l3 533 345
-368 c190 -203 451 -482 580 -621 129 -138 239 -252 244 -252 4 -1 5 20 2 47
-13 89 -19 1305 -7 1348 15 55 58 93 122 109 50 12 35 13 -171 13 -207 0 -221
-1 -170 -13 40 -10 63 -23 87 -49 l33 -36 0 -550 c0 -302 -2 -550 -5 -550 -2
0 -174 181 -382 403 -207 221 -467 498 -576 615 -110 116 -203 212 -208 212
-5 0 -5 -44 -1 -97z"/>
<path d="M3698 1368 c3 -635 2 -706 -13 -734 -21 -39 -63 -64 -108 -64 -20 0
-39 -4 -42 -10 -4 -7 70 -10 214 -10 141 0 221 4 221 10 0 6 -18 10 -41 10
-50 0 -93 24 -114 64 -14 28 -16 92 -13 579 l3 548 245 -262 c493 -528 913
-974 921 -977 5 -2 5 34 1 80 -4 46 -7 364 -7 708 0 597 1 626 19 653 22 33
44 46 106 63 39 11 18 12 -175 12 -201 0 -215 -1 -167 -13 29 -7 63 -21 74
-32 49 -44 48 -37 48 -613 0 -298 -4 -540 -8 -538 -5 2 -186 192 -402 423
-217 231 -453 483 -525 560 -72 77 -153 164 -179 193 -27 28 -51 52 -55 52 -3
0 -5 -316 -3 -702z"/>
<path d="M5950 2052 c0 -22 -16 -63 -210 -522 -73 -173 -177 -421 -231 -550
-54 -129 -111 -260 -127 -290 -34 -66 -105 -120 -158 -120 -18 0 -36 -4 -39
-10 -4 -7 68 -10 209 -10 137 0 216 4 216 10 0 6 -11 10 -24 10 -13 0 -32 3
-41 6 -19 8 -45 55 -45 84 0 11 34 108 77 215 l76 195 291 -2 291 -3 52 -135
c78 -201 97 -263 89 -294 -9 -38 -41 -66 -76 -66 -16 0 -30 -4 -30 -10 0 -6
87 -10 240 -10 132 0 240 4 240 9 0 4 -20 11 -45 13 -54 7 -107 40 -138 88
-13 19 -106 233 -207 475 -101 242 -229 550 -286 685 -94 227 -124 282 -124
232z m132 -579 l126 -338 -261 -3 c-143 -1 -262 -1 -264 1 -5 6 259 677 266
677 4 0 63 -152 133 -337z"/>
<path d="M9212 2038 c-9 -31 -109 -273 -342 -823 -53 -126 -126 -299 -161
-383 -35 -84 -77 -169 -92 -188 -34 -41 -95 -74 -137 -74 -16 0 -30 -4 -30
-10 0 -6 77 -10 210 -10 133 0 210 4 210 10 0 6 -13 10 -29 10 -33 0 -58 20
-72 58 -12 31 -12 29 74 254 l72 188 291 0 292 0 71 -190 c39 -105 71 -205 71
-224 0 -45 -33 -86 -70 -86 -16 0 -32 -4 -35 -10 -4 -7 77 -10 234 -10 154 0
241 4 241 10 0 6 -15 10 -32 10 -43 0 -104 36 -139 80 -25 32 -148 320 -487
1137 -64 156 -120 283 -124 283 -4 0 -11 -15 -16 -32z m138 -577 c66 -178 119
-326 117 -328 -2 -2 -121 -2 -264 -1 l-261 3 129 328 c70 180 131 333 135 339
10 16 11 12 144 -341z"/>
<path d="M11757 2041 c-4 -16 -62 -161 -130 -323 -68 -161 -193 -457 -277
-658 -84 -201 -165 -381 -179 -401 -34 -49 -81 -80 -131 -86 -22 -3 -43 -10
-46 -14 -3 -5 92 -9 211 -9 142 0 214 3 210 10 -3 6 -17 10 -31 10 -36 0 -74
42 -74 83 0 18 33 118 74 223 l74 189 293 0 292 0 69 -180 c85 -226 88 -241
53 -283 -19 -23 -35 -32 -56 -32 -16 0 -29 -4 -29 -10 0 -6 85 -10 235 -10
150 0 235 4 235 10 0 6 -15 10 -33 10 -43 0 -118 47 -144 91 -12 19 -150 343
-308 722 -158 378 -291 687 -295 687 -4 0 -10 -13 -13 -29z m126 -549 c65
-175 120 -327 124 -340 l5 -22 -261 0 c-143 0 -261 4 -261 8 0 4 20 57 44 117
24 61 82 210 130 333 48 122 91 222 94 222 4 0 60 -143 125 -318z"/>
</g>
</svg>
